<svg xmlns="http://www.w3.org/2000/svg" xmlns:xlink="http://www.w3.org/1999/xlink" height="314" viewBox="0 0 110 314" width="110"><svg height="100" viewBox="0 0 102 100" width="102" x="4" y="4"><ellipse cx="50.943" cy="50" rx="50.943" ry="50" fill-opacity=".5"/><path d="M38.2381 26L63 49.7069L38.2381 73.4138L38 74.2759" stroke="#fff" stroke-width="5"/></svg><svg height="100" viewBox="0 0 102 100" width="102" x="4" y="108"><ellipse rx="50.943" ry="50" transform="matrix(-1 0 0 1 50.943 50)" fill-opacity=".5"/><path d="M63.6487 26L38.8868 49.7069L63.6487 73.4138L63.8868 74.2759" stroke="#fff" stroke-width="5"/></svg><svg height="30" viewBox="0 0 70 70" width="30" x="4" y="212"><path d="M66.0652 34.2694C66.0652 51.1325 52.395 64.8027 35.5319 64.8027C18.6688 64.8027 4.99854 51.1325 4.99854 34.2694C4.99854 17.4063 18.6688 3.73602 35.5319 3.73602C52.395 3.73602 66.0652 17.4063 66.0652 34.2694Z" fill="#fff"/><path d="M34.9988 0C15.6697 0 0 15.6709 0 34.9993C0 54.3277 15.6697 70 34.9988 70C54.3279 70 69.9995 54.3286 69.9995 34.9993C69.9995 15.67 54.3279 0 34.9988 0ZM34.8371 47.6103H34.8367V47.61C34.8367 48.4076 34.3817 49.1351 33.6651 49.4837C33.3758 49.6242 33.0636 49.6944 32.753 49.6944C32.2954 49.6944 31.8423 49.5432 31.4683 49.2508L24.6342 43.897C24.3182 43.9752 23.9885 44.0223 23.646 44.0223H16.7977C14.5514 44.0223 12.7304 42.2007 12.7304 39.9555V28.0936C12.7304 25.8477 14.5514 24.0263 16.7977 24.0263H23.6465C24.0448 24.0263 24.4277 24.0863 24.7926 24.1922L31.4687 18.96C32.095 18.4686 32.949 18.3785 33.6656 18.7269C34.3821 19.0755 34.8371 19.8023 34.8371 20.5998V47.6103ZM41.6768 39.0509L39.393 36.767C39.9194 36.0474 40.2348 35.164 40.2348 34.2053C40.2348 33.1469 39.8543 32.1755 39.2243 31.4202L41.4906 29.1538C42.6986 30.4943 43.4418 32.2625 43.4418 34.2053C43.4411 36.0481 42.777 37.7377 41.6768 39.0509ZM44.6381 42.0126C46.4917 39.9357 47.6203 37.2003 47.6203 34.2053C47.6203 31.1103 46.4149 28.294 44.4505 26.194L46.7175 23.9269C49.2616 26.6091 50.8272 30.2262 50.8272 34.205C50.8272 38.0842 49.3409 41.6232 46.9089 44.2822L44.6381 42.0126ZM52.3563 49.6627L50.0899 47.3956C53.3083 43.9315 55.2816 39.2954 55.2816 34.2048C55.2816 29.0148 53.2289 24.2989 49.8979 20.8131L52.1649 18.5467C56.0761 22.6135 58.4878 28.1309 58.4878 34.2048C58.488 40.1802 56.1545 45.6171 52.3563 49.6627Z"/><path d="M38 14H61V52H38z"/><path stroke="#fff" stroke-width="3" d="M43.147 27.034L56.621 43.034"/><path transform="scale(-1 1) rotate(49.899 -58.671 -47.429)" stroke="#fff" stroke-width="3" d="M0 -1.5L20.918 -1.5"/></svg><svg height="30" viewBox="0 0 70 70" width="30" x="4" y="246"><circle cx="35.532" cy="34.269" r="30.533" fill="#fff"/><path d="M34.9988 0C15.6697 0 0 15.6709 0 34.9993C0 54.3277 15.6697 70 34.9988 70C54.3279 70 69.9995 54.3286 69.9995 34.9993C69.9995 15.67 54.3279 0 34.9988 0ZM34.8371 47.6103H34.8367V47.61C34.8367 48.4076 34.3817 49.1351 33.6651 49.4837C33.3758 49.6242 33.0636 49.6944 32.753 49.6944C32.2954 49.6944 31.8423 49.5432 31.4683 49.2508L24.6342 43.897C24.3182 43.9752 23.9885 44.0223 23.646 44.0223H16.7977C14.5514 44.0223 12.7304 42.2007 12.7304 39.9555V28.0936C12.7304 25.8477 14.5514 24.0263 16.7977 24.0263H23.6465C24.0448 24.0263 24.4277 24.0863 24.7926 24.1922L31.4687 18.96C32.095 18.4686 32.949 18.3785 33.6656 18.7269C34.3821 19.0755 34.8371 19.8023 34.8371 20.5998V47.6103ZM41.6768 39.0509L39.393 36.767C39.9194 36.0474 40.2348 35.164 40.2348 34.2053C40.2348 33.1469 39.8543 32.1755 39.2243 31.4202L41.4906 29.1538C42.6986 30.4943 43.4418 32.2625 43.4418 34.2053C43.4411 36.0481 42.777 37.7377 41.6768 39.0509ZM44.6381 42.0126C46.4917 39.9357 47.6203 37.2003 47.6203 34.2053C47.6203 31.1103 46.4149 28.294 44.4505 26.194L46.7175 23.9269C49.2616 26.6091 50.8272 30.2262 50.8272 34.205C50.8272 38.0842 49.3409 41.6232 46.9089 44.2822L44.6381 42.0126ZM52.3563 49.6627L50.0899 47.3956C53.3083 43.9315 55.2816 39.2954 55.2816 34.2048C55.2816 29.0148 53.2289 24.2989 49.8979 20.8131L52.1649 18.5467C56.0761 22.6135 58.4878 28.1309 58.4878 34.2048C58.488 40.1802 56.1545 45.6171 52.3563 49.6627Z"/></svg><svg height="30" viewBox="0 0 30 30" width="30" x="4" y="280"><path fill-rule="evenodd" clip-rule="evenodd" d="M25.5065 4.35971C22.6998 1.54977 18.9673 0.00161643 14.9905 0C6.7967 0 0.1279 6.66838 0.124627 14.8647C0.123535 17.4848 0.808053 20.0422 2.10898 22.2967L0 30L7.8806 27.9327C10.0519 29.1171 12.4966 29.7413 14.9846 29.7422H14.9907C14.9912 29.7422 14.9903 29.7422 14.9907 29.7422C23.1837 29.7422 29.8531 23.0732 29.8565 14.8766C29.858 10.9045 28.3132 7.16955 25.5065 4.35971V4.35971ZM14.9907 27.2316H14.9857C12.7686 27.2307 10.594 26.6351 8.6969 25.5093L8.24571 25.2415L3.56926 26.4683L4.81748 21.9088L4.5237 21.4412C3.28687 19.474 2.63361 17.2003 2.63456 14.8657C2.63727 8.05321 8.18014 2.51078 14.9956 2.51078C18.2959 2.51189 21.3981 3.79883 23.731 6.13435C26.0638 8.46979 27.3478 11.5742 27.3465 14.8757C27.3437 21.6886 21.8009 27.2316 14.9907 27.2316V27.2316ZM21.7681 17.9777C21.3967 17.7918 19.5705 16.8933 19.23 16.7692C18.8895 16.6453 18.6419 16.5834 18.3943 16.9551C18.1467 17.3269 17.4348 18.1637 17.2181 18.4116C17.0015 18.6594 16.7848 18.6905 16.4134 18.5045C16.0419 18.3186 14.8451 17.9264 13.4263 16.6609C12.3221 15.6759 11.5766 14.4596 11.3599 14.0877C11.1433 13.7159 11.3368 13.5149 11.5228 13.3297C11.6899 13.1632 11.8943 12.8958 12.08 12.6789C12.2657 12.462 12.3276 12.307 12.4514 12.0592C12.5752 11.8113 12.5133 11.5944 12.4204 11.4085C12.3276 11.2226 11.5847 9.3942 11.2752 8.6504C10.9737 7.92622 10.6675 8.0243 10.4395 8.01278C10.2231 8.00203 9.97517 7.99973 9.72757 7.99973C9.47995 7.99973 9.07752 8.09269 8.73704 8.46449C8.39658 8.83641 7.43701 9.73507 7.43701 11.5633C7.43701 13.3917 8.76798 15.1578 8.95373 15.4057C9.13943 15.6537 11.5729 19.4055 15.2991 21.0144C16.1853 21.3972 16.8772 21.6257 17.4166 21.7969C18.3064 22.0797 19.1162 22.0397 19.7562 21.9441C20.4699 21.8375 21.9538 21.0456 22.2634 20.1779C22.5729 19.3101 22.5729 18.5664 22.48 18.4116C22.3872 18.2566 22.1396 18.1637 21.7681 17.9777V17.9777Z" fill="#fff"/></svg></svg>