<?xml version="1.0" encoding="utf-8"?>
<!-- Generator: Adobe Illustrator 17.1.0, SVG Export Plug-In . SVG Version: 6.00 Build 0)  -->
<!DOCTYPE svg PUBLIC "-//W3C//DTD SVG 1.1//EN" "http://www.w3.org/Graphics/SVG/1.1/DTD/svg11.dtd" [
	<!ENTITY ns_extend "http://ns.adobe.com/Extensibility/1.0/">
	<!ENTITY ns_ai "http://ns.adobe.com/AdobeIllustrator/10.0/">
	<!ENTITY ns_graphs "http://ns.adobe.com/Graphs/1.0/">
	<!ENTITY ns_vars "http://ns.adobe.com/Variables/1.0/">
	<!ENTITY ns_imrep "http://ns.adobe.com/ImageReplacement/1.0/">
	<!ENTITY ns_sfw "http://ns.adobe.com/SaveForWeb/1.0/">
	<!ENTITY ns_custom "http://ns.adobe.com/GenericCustomNamespace/1.0/">
	<!ENTITY ns_adobe_xpath "http://ns.adobe.com/XPath/1.0/">
]>
<svg version="1.1" id="Layer_1" xmlns:x="&ns_extend;" xmlns:i="&ns_ai;" xmlns:graph="&ns_graphs;"
	 xmlns="http://www.w3.org/2000/svg" xmlns:xlink="http://www.w3.org/1999/xlink" x="0px" y="0px" width="1000px" height="600px"
	 viewBox="0 0 1000 600" enable-background="new 0 0 1000 600" xml:space="preserve">
<metadata>
	<sfw  xmlns="&ns_sfw;">
		<slices></slices>
		<sliceSourceBounds  width="844" height="380.4" x="-138.7" y="187.3" bottomLeftOrigin="true"></sliceSourceBounds>
	</sfw>
</metadata>
<g id="base-underground">
	<g>
		<g enable-background="new    ">
			<g>
				<polygon fill="#8F8D80" points="736,170 735.6,171.3 715.4,145.7 715.7,144.4 				"/>
			</g>
			<g>
				<polygon fill="#8F8C80" points="697.5,190 697.2,191.3 689.1,180.6 689.4,179.2 				"/>
			</g>
			<g>
				<polygon fill="#8E8C7F" points="438.3,203.4 438.2,204.8 432.6,194.8 432.7,193.4 				"/>
			</g>
			<g>
				<polygon fill="#A9A697" points="899.3,233.8 898.8,235.1 803.3,256.9 803.8,255.5 				"/>
			</g>
			<g>
				<polygon fill="#8F8D80" points="803.8,255.5 803.3,256.9 794.5,245.7 794.9,244.4 				"/>
			</g>
			<g>
				<polygon fill="#AAA798" points="794.9,244.4 794.5,245.7 751.7,255.3 752.1,254 				"/>
			</g>
			<g>
				<polygon fill="#8E8C7F" points="415.6,216.9 415.5,218.3 411.1,210 411.2,208.6 				"/>
			</g>
			<g>
				<polygon fill="#A8A596" points="776.9,286.7 776.5,288.1 751.9,293.9 752.3,292.5 				"/>
			</g>
			<g>
				<polygon fill="#8E8C7F" points="334.3,265.6 334.3,267.1 323,242.3 323,240.9 				"/>
			</g>
			<g>
				<polygon fill="#8E8C7F" points="103.4,257.2 103.7,258.6 102,252.9 101.7,251.4 				"/>
			</g>
			<g>
				<polygon fill="#A4A293" points="790.6,344.5 790.2,345.9 728.2,361.8 728.6,360.4 				"/>
			</g>
			<g>
				<polygon fill="#A7A595" points="511,356.3 510.9,357.8 495,361.5 495.1,360.1 				"/>
			</g>
			<g>
				<polygon fill="#959386" points="537.8,366 537.6,367.4 510.9,357.8 511,356.3 				"/>
			</g>
			<g>
				<polygon fill="#A3A192" points="495.1,360.1 495,361.5 489.2,371 489.4,369.5 				"/>
			</g>
			<g>
				<polygon fill="#8E8C7F" points="557.8,401.6 557.6,403.1 537.6,367.4 537.8,366 				"/>
			</g>
			<g>
				<polygon fill="#A7A495" points="489.4,369.5 489.2,371 372,399 372.1,397.6 				"/>
			</g>
			<g>
				<polygon fill="#8E8C7F" points="372.1,397.6 372,399 368.7,391.5 368.8,390 				"/>
			</g>
			<g>
				<polygon fill="#959385" points="784.8,442 784.3,443.4 776.6,464.2 777.1,462.8 				"/>
			</g>
			<g>
				<polygon fill="#A7A595" points="368.8,390 368.7,391.5 307.6,406 307.6,404.5 				"/>
			</g>
			<g>
				<polygon fill="#8E8C7F" points="588,497.1 587.7,498.5 538.3,407.9 538.5,406.5 				"/>
			</g>
			<g>
				<polygon fill="#9F9C8E" points="777.1,462.8 776.6,464.2 617.3,509.7 617.6,508.3 				"/>
			</g>
			<g>
				<polygon fill="#929083" points="617.6,508.3 617.3,509.7 587.7,498.5 588,497.1 				"/>
			</g>
			<g>
				<polygon fill="#8E8C7F" points="102.3,461.1 102.6,462.6 55.6,281.5 55.3,280.1 				"/>
			</g>
			<g>
				<polygon fill="#8F8D80" points="131.4,473 131.7,474.5 102.6,462.6 102.3,461.1 				"/>
			</g>
			<g>
				<polygon fill="#DED9C3" points="128.9,246.3 130.7,252 217.3,235.5 248.3,261.6 272.5,256.9 280.7,276.5 334.3,265.6 323,240.9 
					374.5,224.9 415.6,216.9 411.2,208.6 438.3,203.4 432.7,193.4 550.7,171 577.1,178.1 580,182.4 606.4,177.3 641.8,188.9 
					649.5,199.7 697.5,190 689.4,179.2 736,170 715.7,144.4 814.6,136.8 899.3,233.8 803.8,255.5 794.9,244.4 752.1,254 
					776.9,286.7 752.3,292.5 790.6,344.5 728.6,360.4 784.8,442 777.1,462.8 617.6,508.3 588,497.1 538.5,406.5 557.8,401.6 
					537.8,366 511,356.3 495.1,360.1 489.4,369.5 372.1,397.6 368.8,390 307.6,404.5 316.9,427.9 131.4,473 102.3,461.1 55.3,280.1 
					72.7,263 103.4,257.2 101.7,251.4 				"/>
			</g>
			<g>
				<polygon fill="#A6A394" points="316.9,427.9 316.9,429.3 131.7,474.5 131.4,473 				"/>
			</g>
		</g>
	</g>
</g>
<g>
	<g enable-background="new    ">
		<g>
			<polygon fill="#006765" points="738.5,161.8 736.5,169.9 716.3,144.4 718.2,136.2 			"/>
		</g>
		<g>
			<polygon fill="#006765" points="782.1,216.5 779.8,224.7 766.1,207.4 768.3,199.3 			"/>
		</g>
		<g>
			<polygon fill="#006663" points="721,209.3 719,217.5 690.3,179.2 692.1,171 			"/>
		</g>
		<g>
			<polygon fill="#006D6A" points="768.3,199.3 766.1,207.4 719,217.5 721,209.3 			"/>
		</g>
		<g>
			<polygon fill="#006764" points="770.1,231.4 767.8,239.7 759.7,229.1 761.9,220.9 			"/>
		</g>
		<g>
			<polygon fill="#4F837F" points="670.7,219.9 668.9,228.2 649,200 650.6,191.8 			"/>
		</g>
		<g>
			<polygon fill="#578F89" points="719.4,209.6 717.4,217.9 668.9,228.2 670.7,219.9 			"/>
		</g>
		<g>
			<polygon fill="#568D88" points="767.6,230.6 765.3,238.9 744.1,243.6 746.2,235.4 			"/>
		</g>
		<g>
			<polygon fill="#508681" points="746.2,235.4 744.1,243.6 736.9,234.1 739.1,225.9 			"/>
		</g>
		<g>
			<polygon fill="#006765" points="804.6,244.8 802.1,253 793.3,241.9 795.8,233.7 			"/>
		</g>
		<g>
			<polygon fill="#006B68" points="896.9,223.9 894,232 802.1,253 804.6,244.8 			"/>
		</g>
		<g>
			<polygon fill="#006B68" points="795.8,233.7 793.3,241.9 761.6,249 763.9,240.8 			"/>
		</g>
		<g>
			<polygon fill="#006664" points="763.9,240.8 761.6,249 756.4,242.2 758.6,234 			"/>
		</g>
		<g>
			<polygon fill="#006360" points="595.2,220.5 593.9,228.9 584.9,215.1 586.2,206.7 			"/>
		</g>
		<g>
			<polygon fill="#006E6B" points="586.2,206.7 584.9,215.1 538.7,224.5 539.8,216.1 			"/>
		</g>
		<g>
			<polygon fill="#E1E1E1" points="585,208.2 592.5,219.7 566.5,225.1 559.1,213.5 			"/>
		</g>
		<g>
			<polygon fill="#A2A3A5" points="592.5,219.7 591.2,228.1 565.3,233.5 566.5,225.1 			"/>
		</g>
		<g>
			<polygon fill="#919294" points="566.5,225.1 565.3,233.5 557.9,221.9 559.1,213.5 			"/>
		</g>
		<g>
			<polygon fill="#4C807B" points="716.4,251.4 714.3,259.7 705.9,240.9 707.9,232.6 			"/>
		</g>
		<g>
			<polygon fill="#558C87" points="762.3,241.1 760,249.4 714.3,259.7 716.4,251.4 			"/>
		</g>
		<g>
			<polygon fill="#006D6A" points="669,220.2 667.3,228.5 592.3,244.5 593.7,236.1 			"/>
		</g>
		<g>
			<polygon fill="#006360" points="593.7,236.1 592.3,244.5 583.6,231 584.9,222.6 			"/>
		</g>
		<g>
			<polygon fill="#006F6C" points="464.8,218.1 464.1,226.6 454.5,228.6 455.1,220.1 			"/>
		</g>
		<g>
			<polygon fill="#00605D" points="455.1,220.1 454.5,228.6 435.2,193.6 435.6,185.1 			"/>
		</g>
		<g>
			<polygon fill="#4E827E" points="660.5,252.6 658.7,260.9 652.6,251.9 654.3,243.6 			"/>
		</g>
		<g>
			<polygon fill="#568D88" points="672.9,249.9 671.1,258.2 658.7,260.9 660.5,252.6 			"/>
		</g>
		<g>
			<polygon fill="#00605D" points="471.1,229.4 470.5,237.8 464.1,226.6 464.8,218.1 			"/>
		</g>
		<g>
			<polygon fill="#00625F" points="539.8,216.1 538.7,224.5 523.8,247.6 524.8,239.1 			"/>
		</g>
		<g>
			<polygon fill="#568D88" points="658.8,253 657.1,261.3 627.8,267.8 629.3,259.4 			"/>
		</g>
		<g>
			<polygon fill="#4D817D" points="629.3,259.4 627.8,267.8 621.7,258.7 623.3,250.3 			"/>
		</g>
		<g>
			<polygon fill="#4E837E" points="697.7,279.8 695.7,288.1 681.9,268.4 683.8,260 			"/>
		</g>
		<g>
			<polygon fill="#00605D" points="471.9,250.1 471.2,258.6 460.8,239.8 461.4,231.3 			"/>
		</g>
		<g>
			<polygon fill="#006E6B" points="524.8,239.1 523.8,247.6 471.2,258.6 471.9,250.1 			"/>
		</g>
		<g>
			<polygon fill="#548A86" points="774.5,276.6 772.1,284.8 672,308.5 673.8,300.1 			"/>
		</g>
		<g>
			<polygon fill="#4E827D" points="673.8,300.1 672,308.5 663.3,295.6 665.2,287.3 			"/>
		</g>
	</g>
	<g enable-background="new    ">
		<g>
			<polygon fill="#548B86" points="630.7,297.4 629.1,305.8 602.8,311.9 604.3,303.5 			"/>
		</g>
		<g>
			<polygon fill="#4C807B" points="604.3,303.5 602.8,311.9 590.8,292.5 592.2,284.1 			"/>
		</g>
	</g>
	<g enable-background="new    ">
		<g>
			<polygon fill="#4A7D78" points="418.6,208.5 418.2,217 413.8,208.7 414.1,200.2 			"/>
		</g>
		<g>
			<polygon fill="#4A7C78" points="385.6,232.6 385.4,241.1 377.4,225 377.5,216.5 			"/>
		</g>
		<g>
			<polygon fill="#58918C" points="452.7,219.2 452.1,227.7 385.4,241.1 385.6,232.6 			"/>
		</g>
		<g>
			<polygon fill="#4A7C78" points="421.2,274.7 420.8,283.2 398.7,239.8 399,231.3 			"/>
		</g>
		<g>
			<polygon fill="#578E89" points="468,264.8 467.3,273.3 420.8,283.2 421.2,274.7 			"/>
		</g>
		<g>
			<polygon fill="#515353" points="666.1,316.3 664.3,324.7 665.5,311.5 667.4,303.1 			"/>
		</g>
		<g>
			<polygon fill="#4E827D" points="419.4,275.1 419,283.6 406.9,300.6 407.2,292 			"/>
		</g>
		<g>
			<polygon fill="#5A5B5B" points="788.1,334.1 785.5,342.4 724,358.2 726.2,349.9 			"/>
		</g>
		<g>
			<polygon fill="#568E89" points="407.2,292 406.9,300.6 358.4,311.2 358.4,302.5 			"/>
		</g>
		<g>
			<polygon fill="#497B77" points="358.4,302.5 358.4,311.2 326.2,241 326.1,232.4 			"/>
		</g>
		<g>
			<polygon fill="#548A86" points="574.9,323.2 573.6,331.7 525,343.1 526.1,334.6 			"/>
		</g>
		<g>
			<polygon fill="#535455" points="561,392.8 559.7,401.3 527.7,344 528.7,335.6 			"/>
		</g>
		<g>
			<polygon fill="#538984" points="536.7,353.5 535.5,361.9 511.7,353.3 512.7,344.8 			"/>
		</g>
		<g>
			<polygon fill="#548A85" points="512.7,344.8 511.7,353.3 493.8,357.6 494.6,349.1 			"/>
		</g>
		<g>
			<polygon fill="#4A7D78" points="494.6,349.1 493.8,357.6 468.3,309.8 469,301.3 			"/>
		</g>
		<g>
			<polygon fill="#515353" points="782.2,431.1 779.4,439.3 771.7,460 774.4,451.8 			"/>
		</g>
		<g>
			<polygon fill="#535454" points="589.6,484.7 588,493.1 540.5,406.2 541.7,397.7 			"/>
		</g>
		<g>
			<polygon fill="#585959" points="619.2,495.9 617.3,504.2 588,493.1 589.6,484.7 			"/>
		</g>
		<g>
			<polygon fill="#575858" points="774.4,451.8 771.7,460 617.3,504.2 619.2,495.9 			"/>
		</g>
		<g>
			<polygon fill="#808080" points="750.9,283.6 788.1,334.1 726.2,349.9 782.2,431.1 774.4,451.8 619.2,495.9 589.6,484.7 
				541.7,397.7 561,392.8 528.7,335.6 575.3,324.7 591.3,334.1 666.1,316.3 667.4,303.1 			"/>
		</g>
	</g>
	<g enable-background="new    ">
		<g>
			<polygon fill="#525454" points="106.8,248.6 108.3,257.4 106.6,251.7 105.1,242.9 			"/>
		</g>
		<g>
			<polygon fill="#606161" points="264,284 264.5,292.7 236.5,298.6 235.8,289.8 			"/>
		</g>
		<g>
			<polygon fill="#497B77" points="295.7,301.3 296.1,309.9 282.4,277 282,268.4 			"/>
		</g>
		<g>
			<polygon fill="#497B77" points="336,307.4 336.1,316 315.9,270.2 315.6,261.5 			"/>
		</g>
		<g>
			<polygon fill="#578E89" points="328.1,294.4 328.3,303 296.1,309.9 295.7,301.3 			"/>
		</g>
		<g>
			<polygon fill="#568E89" points="356.5,303 356.4,311.6 336.1,316 336,307.4 			"/>
		</g>
		<g>
			<polygon fill="#5F6161" points="293.8,301.7 294.1,310.4 273.3,314.8 272.8,306.1 			"/>
		</g>
		<g>
			<polygon fill="#525454" points="272.8,306.1 273.3,314.8 264.5,292.7 264,284 			"/>
		</g>
		<g>
			<polygon fill="#4A7C78" points="447.6,342.9 447,351.4 437.1,331.9 437.7,323.3 			"/>
		</g>
		<g>
			<polygon fill="#548B86" points="445,341.9 444.4,350.5 423.1,355.4 423.6,346.9 			"/>
		</g>
		<g>
			<polygon fill="#4B7F7A" points="493.1,349.5 492.2,358 486.4,367.4 487.2,358.8 			"/>
		</g>
		<g>
			<polygon fill="#538A85" points="487.2,358.8 486.4,367.4 436.9,379.2 437.5,370.6 			"/>
		</g>
		<g>
			<polygon fill="#497C77" points="437.5,370.6 436.9,379.2 425.8,356.4 426.2,347.8 			"/>
		</g>
		<g>
			<polygon fill="#606161" points="238.3,296.5 239,305.3 76.1,339.4 74.3,330.6 			"/>
		</g>
		<g>
			<polygon fill="#525454" points="74.3,330.6 76.1,339.4 60.6,280.3 58.8,271.4 			"/>
		</g>
		<g>
			<polygon fill="#838383" points="128.3,238.5 130.1,244.2 218.6,227.4 249.6,253.5 271.8,249.1 293.8,301.7 272.8,306.1 264,284 
				235.8,289.8 238.3,296.5 74.3,330.6 58.8,271.4 76.1,254.4 106.8,248.6 105.1,242.9 			"/>
		</g>
		<g>
			<polygon fill="#538A85" points="435.5,371.1 435,379.7 374,394.3 374.2,385.7 			"/>
		</g>
		<g>
			<polygon fill="#497B77" points="374.2,385.7 374,394.3 348.4,336.6 348.4,328 			"/>
		</g>
		<g>
			<polygon fill="#5C5D5D" points="368.8,378.7 368.7,387.3 306,402.3 305.7,393.6 			"/>
		</g>
		<g>
			<polygon fill="#525353" points="105.3,448.7 107,457.5 77,343 75.3,334.1 			"/>
		</g>
		<g>
			<polygon fill="#555657" points="134.4,460.5 135.8,469.2 107,457.5 105.3,448.7 			"/>
		</g>
		<g>
			<polygon fill="#5B5C5D" points="315,416.8 315.2,425.4 135.8,469.2 134.4,460.5 			"/>
		</g>
		<g>
			<polygon fill="#818182" points="261,295.4 279.9,343.1 346.4,328.4 368.8,378.7 305.7,393.6 315,416.8 134.4,460.5 105.3,448.7 
				75.3,334.1 			"/>
		</g>
	</g>
</g>
<g id="landmarks-underground">
	<polygon fill="#7BC3BB" points="698.6,182 719.4,209.6 670.7,219.9 650.6,191.8 	"/>
	<polygon fill="#7BC3BB" points="760.3,221.3 767.6,230.6 746.2,235.4 739.1,225.9 	"/>
	<polygon fill="#0E9491" points="718.2,136.2 814.2,129.3 896.9,223.9 804.6,244.8 795.8,233.7 763.9,240.8 758.6,234 770.1,231.4 
		761.9,220.9 782.1,216.5 768.3,199.3 721,209.3 692.1,171 738.5,161.8 	"/>
	<polygon fill="#7AC3BB" points="737.5,226.2 745.5,236.9 757.1,234.3 762.3,241.1 716.4,251.4 707.9,232.6 	"/>
	<polygon fill="#7BC3BB" points="666.7,240.9 672.9,249.9 660.5,252.6 654.3,243.6 	"/>
	<polygon fill="#7BC3BB" points="652.6,243.9 658.8,253 629.3,259.4 623.3,250.3 	"/>
	<polygon id="petco" fill="#0C9591" points="550.1,163.4 576.5,170.5 579.4,174.8 606,169.6 641.3,181.3 669,220.2 593.7,236.1 
		584.9,222.6 595.2,220.5 586.2,206.7 539.8,216.1 524.8,239.1 471.9,250.1 461.4,231.3 471.1,229.4 464.8,218.1 455.1,220.1 
		435.6,185.1 	"/>
	<polygon fill="#7BC3BB" points="750.7,245.1 774.5,276.6 673.8,300.1 665.2,287.3 697.7,279.8 683.8,260 	"/>
	<polygon fill="#7BC3BB" points="618.3,278.3 630.7,297.4 604.3,303.5 592.2,284.1 	"/>
	<polygon fill="#7BC3BB" points="439.4,195.4 452.7,219.2 385.6,232.6 377.5,216.5 418.6,208.5 414.1,200.2 	"/>
	<polygon fill="#7BC3BB" points="444.6,222.2 468,264.8 421.2,274.7 399,231.3 	"/>
	<polygon id="gap" fill="#7BC3BB" points="375.7,216.8 384.4,234.1 397.1,231.6 419.4,275.1 407.2,292 358.4,302.5 326.1,232.4 	"/>
	<polygon fill="#7BC3BB" points="532.5,287.2 544.6,307.8 563.1,303.6 574.9,323.2 526.1,334.6 536.7,353.5 512.7,344.8 
		494.6,349.1 469,301.3 	"/>
	<polygon fill="#7BC3BB" points="313.7,261.9 328.1,294.4 295.7,301.3 282,268.4 	"/>
	<polygon fill="#7BC3BB" points="335.6,257.5 356.5,303 336,307.4 315.6,261.5 	"/>
	<polygon fill="#7BC3BB" points="474.6,315 493.1,349.5 487.2,358.8 437.5,370.6 426.2,347.8 447.6,342.9 437.7,323.3 	"/>
	<polygon fill="#7BC3BB" points="407.9,314.8 435.8,323.7 445,341.9 423.6,346.9 435.5,371.1 374.2,385.7 348.4,328 	"/>
	<path id="ground-floor" fill="#333333" d="M574.4,264.8l-10.9,2.4c-0.3,0-0.5,0.1-0.6,0.2c-0.2,0.1-0.3,0.2-0.4,0.3
		c-0.1,0.1-0.1,0.3-0.1,0.4c0,0.2,0.1,0.3,0.2,0.5l4.8,7.8c0.1,0.2,0.2,0.3,0.4,0.5c0.2,0.1,0.3,0.2,0.5,0.3
		c0.2,0.1,0.4,0.1,0.6,0.1s0.5,0,0.7-0.1l11-2.4c0.3-0.1,0.5-0.1,0.6-0.2c0.2-0.1,0.3-0.2,0.3-0.3c0.1-0.1,0.1-0.3,0.1-0.4
		s-0.1-0.3-0.2-0.5l-4.8-7.8c-0.1-0.2-0.3-0.3-0.4-0.5s-0.3-0.2-0.5-0.3c-0.2-0.1-0.4-0.1-0.6-0.1
		C574.9,264.7,574.6,264.7,574.4,264.8"/>
</g>
<g>
	<path fill="#333333" d="M434.6,215.8h-0.1h-0.1l-0.1-0.1v-0.1l-0.1-1.6c0-0.1,0-0.1,0-0.2c0-0.1,0.1-0.1,0.1-0.2s0.1-0.1,0.2-0.2
		s0.2-0.1,0.3-0.1l0.5-0.1l0.5-0.1c0.1,0,0.3,0,0.4,0s0.2,0,0.4,0.1c0.1,0,0.2,0.1,0.3,0.1s0.1,0.1,0.2,0.1l1.5,1.3l0.1,0.1v0.1
		c0,0,0,0.1-0.1,0.1c0,0-0.1,0-0.1,0.1h-0.1h-0.1h-0.1c0,0-0.1,0-0.1-0.1l-1.3-1.2h-0.2l2.3,2.2l-1,0.2l1,1.8v0.1v0.1
		c0,0,0,0.1-0.1,0.1s-0.1,0-0.1,0h-0.1h-0.1c0,0-0.1,0-0.1-0.1l-0.1-0.1l-1-1.8h-0.2l1,1.8v0.1v0.1l-0.1,0.1h-0.1h-0.1h-0.1
		c0,0-0.1,0-0.1-0.1s-0.1-0.1-0.1-0.1l-1-1.8l-1,0.2l-0.3-2.6H435l0.1,1.5v0.1v0.1c0,0,0,0-0.1,0.1
		C434.6,215.8,434.6,215.8,434.6,215.8 M441.4,214.7h-0.1h-0.1c0,0-0.1,0-0.1-0.1s-0.1-0.1-0.1-0.1l-0.9-1.6c0-0.1-0.1-0.2-0.1-0.3
		s0-0.2,0.1-0.3s0.1-0.1,0.2-0.2s0.2-0.1,0.4-0.1l1.6-0.3c0.1,0,0.3,0,0.4,0s0.3,0.1,0.4,0.1c0.1,0.1,0.2,0.1,0.3,0.2
		c0.1,0.1,0.2,0.1,0.2,0.2l0.9,1.6v0.1v0.1c0,0,0,0.1-0.1,0.1h-0.1h-0.1h-0.1c0,0-0.1,0-0.1-0.1s-0.1-0.1-0.1-0.1l-0.8-1.4h-0.2
		l2.2,4c0,0.1,0,0.1,0,0.1v0.1l-0.1,0.1c0,0-0.1,0-0.1,0.1c-0.1,0-0.1,0-0.2,0s-0.1,0-0.2,0s-0.1,0-0.1-0.1l-0.1-0.1l-1.3-2.3h-0.2
		l1.3,2.3c0,0.1,0,0.1,0,0.1v0.1L444,217c0,0-0.1,0-0.1,0.1c-0.1,0-0.1,0-0.2,0s-0.1,0-0.2,0c0,0-0.1,0-0.1-0.1s-0.1-0.1-0.1-0.1
		l-2.2-4h-0.2l0.8,1.4v0.1v0.1c0,0,0,0.1-0.1,0.1S441.5,214.7,441.4,214.7 M440.8,217.7l-3.4-6.2l0.9-0.2l3.4,6.2L440.8,217.7
		 M435.1,213.1c-0.1,0-0.2,0-0.3,0c-0.1,0-0.2,0-0.3-0.1s-0.2-0.1-0.3-0.1s-0.1-0.1-0.2-0.2s0-0.1,0-0.2c0-0.1,0-0.1,0.1-0.2
		c0-0.1,0.1-0.1,0.2-0.2c0.1,0,0.2-0.1,0.3-0.1c0.1,0,0.2,0,0.3,0c0.1,0,0.2,0,0.3,0.1s0.2,0.1,0.3,0.1s0.1,0.1,0.2,0.2
		c0,0.1,0,0.1,0,0.2c0,0.1,0,0.1-0.1,0.2c0,0.1-0.1,0.1-0.2,0.2C435.3,213,435.3,213,435.1,213.1 M441.4,211.8c-0.1,0-0.2,0-0.3,0
		c-0.1,0-0.2,0-0.3-0.1s-0.2-0.1-0.3-0.1s-0.1-0.1-0.2-0.2s0-0.1,0-0.2c0-0.1,0-0.1,0.1-0.2c0-0.1,0.1-0.1,0.2-0.2s0.2-0.1,0.3-0.1
		c0.1,0,0.2,0,0.3,0s0.2,0,0.3,0.1s0.2,0.1,0.3,0.1s0.1,0.1,0.2,0.2c0,0.1,0,0.1,0,0.2s0,0.1-0.1,0.2s-0.1,0.1-0.2,0.2
		C441.6,211.8,441.5,211.8,441.4,211.8 M442.2,208.9l-10.9,2.1c-0.3,0.1-0.5,0.1-0.6,0.2c-0.2,0.1-0.3,0.2-0.4,0.3s-0.1,0.2-0.1,0.4
		c0,0.1,0,0.3,0.1,0.5l4,7.3c0.1,0.2,0.2,0.3,0.3,0.4c0.1,0.1,0.3,0.2,0.5,0.3s0.4,0.1,0.6,0.1s0.5,0,0.7-0.1l11.1-2.2
		c0.3-0.1,0.5-0.1,0.6-0.2s0.3-0.2,0.4-0.3s0.1-0.2,0.1-0.4s-0.1-0.3-0.1-0.5l-4-7.3c-0.1-0.2-0.2-0.3-0.3-0.4s-0.3-0.2-0.5-0.3
		s-0.4-0.1-0.6-0.1S442.4,208.8,442.2,208.9"/>
	<polyline fill="#FFFFFF" points="438.3,211.4 437.4,211.6 440.8,217.7 441.6,217.6 438.3,211.4 	"/>
	<path fill="#FFFFFF" d="M434.6,212c-0.1,0-0.2,0.1-0.3,0.1c-0.1,0-0.1,0.1-0.2,0.2c0,0.1-0.1,0.1-0.1,0.2c0,0.1,0,0.1,0,0.2
		c0,0.1,0.1,0.1,0.2,0.2c0.1,0.1,0.2,0.1,0.3,0.1s0.2,0.1,0.3,0.1c0.1,0,0.2,0,0.3,0c0.1,0,0.2-0.1,0.3-0.1c0.1,0,0.1-0.1,0.2-0.2
		c0-0.1,0.1-0.1,0.1-0.2c0-0.1,0-0.1,0-0.2c0-0.1-0.1-0.1-0.2-0.2c-0.1-0.1-0.2-0.1-0.3-0.1s-0.2-0.1-0.3-0.1
		C434.8,212,434.7,212,434.6,212"/>
	<path fill="#FFFFFF" d="M435.7,213.1l-0.5,0.1l-0.5,0.1c-0.1,0-0.3,0.1-0.3,0.1s-0.2,0.1-0.2,0.2c0,0.1-0.1,0.1-0.1,0.2
		s0,0.1,0,0.2l0.1,1.6c0,0.1,0,0.1,0,0.1l0.1,0.1h0.1h0.1h0.1c0,0,0,0,0.1-0.1c0,0,0,0,0-0.1s0-0.1,0-0.1l-0.1-1.5h0.2l0.3,2.6
		l1-0.2l1,1.8c0,0,0,0.1,0.1,0.1s0.1,0.1,0.1,0.1h0.1h0.1h0.1c0,0,0.1,0,0.1-0.1v-0.1v-0.1l-1-1.8h0.2l1,1.8c0,0,0,0.1,0.1,0.1
		s0.1,0,0.1,0.1h0.1h0.1h0.1c0,0,0.1,0,0.1-0.1v-0.1V218l-1-1.8l1-0.2l-2.3-2.2h0.2l1.3,1.2l0.1,0.1h0.1h0.1h0.1c0,0,0.1,0,0.1-0.1
		s0.1-0.1,0.1-0.1v-0.1c0,0,0-0.1-0.1-0.1l-1.5-1.3c0,0-0.1-0.1-0.2-0.1s-0.2-0.1-0.3-0.1s-0.2-0.1-0.4-0.1
		C436,213.1,435.9,213.1,435.7,213.1"/>
	<path fill="#FFFFFF" d="M442.3,211.8l-1.6,0.3c-0.1,0-0.3,0.1-0.4,0.1s-0.2,0.1-0.2,0.2c0,0.1-0.1,0.2-0.1,0.3s0,0.2,0.1,0.3
		l0.9,1.6c0,0,0,0.1,0.1,0.1s0.1,0,0.1,0.1h0.1h0.1h0.1c0,0,0.1,0,0.1-0.1v-0.1v-0.1l-0.8-1.4h0.2l2.2,4c0,0.1,0.1,0.1,0.1,0.1
		l0.1,0.1c0,0,0.1,0,0.2,0s0.1,0,0.2,0s0.1,0,0.1-0.1l0.1-0.1V217v-0.1l-1.3-2.3h0.2l1.3,2.3c0,0.1,0.1,0.1,0.1,0.1l0.1,0.1
		c0.1,0,0.1,0,0.2,0s0.1,0,0.2,0s0.1,0,0.1-0.1s0.1-0.1,0.1-0.1v-0.1v-0.1l-2.2-4h0.2l0.8,1.4c0,0,0,0.1,0.1,0.1s0.1,0,0.1,0.1h0.1
		h0.1h0.1c0,0,0.1,0,0.1-0.1s0-0.1,0-0.1V214l-0.9-1.6c0-0.1-0.1-0.2-0.2-0.2c-0.1-0.1-0.2-0.1-0.3-0.2c-0.1-0.1-0.3-0.1-0.4-0.1
		C442.6,211.8,442.5,211.8,442.3,211.8"/>
	<path fill="#FFFFFF" d="M440.9,210.8c-0.1,0-0.2,0.1-0.3,0.1s-0.1,0.1-0.2,0.2c0,0.1-0.1,0.1-0.1,0.2c0,0.1,0,0.1,0,0.2
		c0,0.1,0.1,0.1,0.2,0.2s0.2,0.1,0.3,0.1s0.2,0.1,0.3,0.1c0.1,0,0.2,0,0.3,0c0.1,0,0.2-0.1,0.3-0.1c0.1,0,0.1-0.1,0.2-0.2
		c0-0.1,0.1-0.1,0.1-0.2s0-0.1,0-0.2c0-0.1-0.1-0.1-0.2-0.2c-0.1-0.1-0.2-0.1-0.3-0.1s-0.2-0.1-0.3-0.1S441,210.8,440.9,210.8"/>
	<path fill="#333333" d="M243.3,283.6l-0.3-0.8l2.2-0.5l-0.6-1.5l2.2-0.5l-0.6-1.5l2.2-0.5l-0.6-1.5l2.2-0.5l-0.6-1.5l3.3-0.7
		l0.3,0.7l-2.2,0.4l0.6,1.5l-2.2,0.5l0.6,1.5l-2.2,0.5l0.6,1.5l-2.2,0.5l0.6,1.5L243.3,283.6 M252.1,272.7l-12.3,2.5
		c-0.3,0.1-0.5,0.1-0.7,0.2s-0.4,0.2-0.5,0.3c-0.1,0.1-0.2,0.3-0.2,0.4c0,0.2,0,0.3,0.1,0.5l3.1,8.2c0.1,0.2,0.2,0.3,0.3,0.5
		s0.3,0.2,0.5,0.3c0.2,0.1,0.4,0.1,0.6,0.1c0.2,0,0.5,0,0.8-0.1l12.5-2.5c0.3-0.1,0.5-0.1,0.7-0.2s0.4-0.2,0.5-0.3
		c0.1-0.1,0.2-0.3,0.2-0.4c0-0.2,0-0.3-0.1-0.5l-3.2-8.1c-0.1-0.2-0.2-0.4-0.3-0.5s-0.3-0.2-0.5-0.3s-0.4-0.1-0.6-0.1
		C252.6,272.6,252.4,272.6,252.1,272.7"/>
	<polyline fill="#FFFFFF" points="252.8,274.5 249.5,275.2 250.1,276.6 247.9,277.1 248.5,278.5 246.2,279 246.8,280.5 244.6,280.9 
		245.2,282.4 243,282.9 243.3,283.6 246.6,282.9 246,281.4 248.2,281 247.6,279.5 249.9,279.1 249.3,277.6 251.5,277.1 250.9,275.7 
		253.1,275.3 252.8,274.5 	"/>
	<path fill="#333333" d="M673.4,354.4c-0.1,0-0.3,0-0.4,0c-0.1,0-0.3,0-0.4-0.1s-0.3-0.1-0.4-0.2c-0.1-0.1-0.2-0.2-0.3-0.3l-2.7-4.2
		c-0.1-0.1-0.1-0.2-0.1-0.3s0-0.2,0-0.3s0.1-0.2,0.2-0.2s0.2-0.1,0.4-0.2l5.4-1.3c0.1,0,0.3,0,0.4,0c0.1,0,0.3,0,0.4,0.1
		c0.1,0,0.3,0.1,0.4,0.2c0.1,0.1,0.2,0.2,0.3,0.3l2.8,4.2c0.1,0.1,0.1,0.2,0.1,0.3c0,0.1,0,0.2,0,0.3s-0.1,0.2-0.2,0.2
		s-0.2,0.1-0.3,0.1L673.4,354.4 M668.1,347.1c-0.1,0-0.2,0-0.3,0s-0.2,0-0.3-0.1s-0.1-0.1-0.2-0.2s0-0.1,0-0.2l0.5-1.6
		c0,0,0,0,0-0.1c0,0,0,0,0.1-0.1s0,0,0.1,0s0,0,0.1,0s0.1,0,0.1,0h0.1h0.1h0.1l2.1,0.9c0.1,0,0.2,0.1,0.3,0.2s0.1,0.1,0.1,0.2
		s0,0.1-0.1,0.2s-0.1,0.1-0.2,0.1c0,0,0,0-0.1,0s-0.1,0-0.1,0h-0.1h-0.1l-0.9-0.4l1.1,1.7c0,0.1,0.1,0.1,0.1,0.2s0,0.1,0,0.2
		l-0.1,0.1c0,0-0.1,0.1-0.2,0.1c-0.1,0-0.1,0-0.2,0c-0.1,0-0.1,0-0.2,0s-0.1-0.1-0.2-0.1s-0.1-0.1-0.2-0.2l-1.1-1.7L668.1,347.1
		C668.2,347,668.2,347,668.1,347.1L668.1,347.1C668.2,347.1,668.2,347.1,668.1,347.1L668.1,347.1 M672.7,346.1l-1.1-1.6
		c0-0.1-0.1-0.1-0.1-0.2s0-0.1,0-0.2s0.1-0.1,0.1-0.1s0.1-0.1,0.2-0.1c0.1,0,0.1,0,0.2,0s0.1,0,0.2,0s0.1,0.1,0.2,0.1
		s0.1,0.1,0.2,0.2l1.1,1.7l0.2-0.7c0,0,0,0,0-0.1s0,0,0,0s0,0,0.1,0s0,0,0.1,0s0.2,0,0.3,0s0.2,0,0.3,0.1s0.1,0.1,0.2,0.2
		s0,0.1,0,0.2l-0.5,1.6c0,0,0,0,0,0.1c0,0,0,0-0.1,0.1s0,0-0.1,0h-0.1H674h-0.1h-0.1h-0.1l-2.1-0.9c-0.1,0-0.2-0.1-0.3-0.2
		s-0.1-0.1-0.1-0.2s0-0.1,0.1-0.2s0.1-0.1,0.2-0.1c0,0,0,0,0.1,0s0.1,0,0.1,0h0.1h0.1L672.7,346.1 M675.1,342.4l-11.1,2.7
		c-0.3,0.1-0.5,0.1-0.6,0.2c-0.2,0.1-0.3,0.2-0.3,0.4c-0.1,0.1-0.1,0.3-0.1,0.5s0.1,0.4,0.3,0.6l5.6,8.7c0.1,0.2,0.3,0.4,0.4,0.5
		c0.2,0.1,0.3,0.2,0.5,0.3s0.4,0.1,0.6,0.1s0.5,0,0.7-0.1l11.2-2.8c0.3-0.1,0.5-0.1,0.6-0.2c0.2-0.1,0.3-0.2,0.3-0.3s0.1-0.3,0-0.5
		c0-0.2-0.1-0.4-0.3-0.5l-5.7-8.6c-0.1-0.2-0.3-0.4-0.5-0.5s-0.3-0.2-0.5-0.3c-0.2-0.1-0.4-0.1-0.6-0.1
		C675.6,342.3,675.3,342.4,675.1,342.4"/>
	<path fill="#FFFFFF" d="M672.9,353.6l-2.7-4.1l5.3-1.3l2.7,4.1L672.9,353.6 M675.1,347.4l-5.4,1.3c-0.1,0-0.3,0.1-0.4,0.2
		s-0.2,0.1-0.2,0.2s-0.1,0.2,0,0.3s0,0.2,0.1,0.3l2.7,4.2c0.1,0.1,0.2,0.2,0.3,0.3c0.1,0.1,0.2,0.1,0.4,0.2s0.3,0.1,0.4,0.1
		c0.1,0,0.3,0,0.4,0l5.4-1.4c0.1,0,0.3-0.1,0.3-0.1s0.2-0.1,0.2-0.2s0.1-0.2,0-0.3s0-0.2-0.1-0.3l-2.8-4.2c-0.1-0.1-0.2-0.2-0.3-0.3
		c-0.1-0.1-0.2-0.1-0.4-0.2c-0.1,0-0.3-0.1-0.4-0.1C675.4,347.3,675.2,347.3,675.1,347.4"/>
	<path fill="#333333" d="M672.3,351.9L672.3,351.9c-0.1,0-0.1,0-0.2,0c0,0,0,0-0.1,0l0,0l-0.7-1v-0.1c0,0,0,0,0-0.1c0,0,0,0,0.1-0.1
		c0,0,0,0,0.1,0l1-0.3h0.1h0.1h0.1c0,0,0,0,0.1,0.1l0.7,1c0,0,0,0,0,0.1s0,0,0,0.1s0,0,0,0s0,0-0.1,0h-0.1l0.9,1.3v0.1
		c0,0,0,0,0,0.1l0,0c0,0,0,0-0.1,0s-0.1,0-0.1,0H674h-0.1c0,0,0,0-0.1-0.1l-0.9-1.3h-0.1l0.9,1.3v0.1c0,0,0,0,0,0.1s0,0,0,0
		s0,0-0.1,0s-0.1,0-0.1,0h-0.1h-0.1c0,0,0,0-0.1-0.1L672.3,351.9L672.3,351.9 M673.9,351.5L673.9,351.5c-0.1,0-0.1,0-0.2,0
		c0,0,0,0-0.1,0l0,0l-0.7-1v-0.1c0,0,0,0,0-0.1c0,0,0,0,0-0.1c0,0,0,0,0.1,0l1.1-0.3h0.1h0.1h0.1c0,0,0,0,0.1,0.1l0.7,1
		c0,0,0,0,0,0.1s0,0,0,0.1s0,0,0,0s0,0-0.1,0H675l0.9,1.3v0.1c0,0,0,0,0,0.1l0,0c0,0,0,0-0.1,0s-0.1,0-0.1,0h-0.1h-0.1
		c0,0,0,0-0.1-0.1l-0.9-1.3h-0.1l0.9,1.3v0.1c0,0,0,0,0,0.1l0,0c0,0,0,0-0.1,0h-0.1H675h-0.1c0,0,0,0-0.1-0.1L673.9,351.5
		L673.9,351.5 M675.6,351.1C675.5,351.1,675.5,351.1,675.6,351.1c-0.1,0-0.1,0-0.2,0c0,0,0,0-0.1,0s0,0,0,0l-0.7-1V350
		c0,0,0,0,0-0.1c0,0,0,0,0-0.1c0,0,0,0,0.1,0l1.1-0.3h0.1h0.1h0.1c0,0,0,0,0.1,0.1l0.7,1c0,0,0,0,0,0.1s0,0,0,0.1s0,0,0,0s0,0-0.1,0
		h-0.1l0.9,1.3v0.1c0,0,0,0,0,0.1l0,0c0,0,0,0-0.1,0s-0.1,0-0.1,0h-0.1h-0.1c0,0,0,0-0.1-0.1l-0.9-1.3h-0.1l0.9,1.3v0.1
		c0,0,0,0,0,0.1l0,0c0,0,0,0-0.1,0s-0.1,0-0.1,0h-0.1h-0.1c0,0,0,0-0.1-0.1L675.6,351.1L675.6,351.1 M672,350.3L672,350.3h-0.2
		c0,0-0.1,0-0.1-0.1s-0.1-0.1-0.1-0.1V350v-0.1c0,0,0-0.1,0.1-0.1s0.1,0,0.1,0s0.1,0,0.2,0c0,0,0.1,0,0.2,0c0,0,0.1,0,0.1,0.1
		s0.1,0.1,0.1,0.1v0.1v0.1c0,0,0,0.1-0.1,0.1C672.1,350.3,672,350.3,672,350.3 M673.6,349.9c0,0-0.1,0-0.2,0c0,0-0.1,0-0.2,0
		s-0.1,0-0.1-0.1s-0.1-0.1-0.1-0.1v-0.1v-0.1c0,0,0-0.1,0.1-0.1s0.1,0,0.1,0h0.1h0.1c0,0,0.1,0,0.1,0.1s0.1,0.1,0.1,0.1v0.1v0.1
		C673.8,349.8,673.7,349.8,673.6,349.9C673.7,349.9,673.7,349.9,673.6,349.9 M675.2,349.5L675.2,349.5H675c0,0-0.1,0-0.1-0.1
		s-0.1-0.1-0.1-0.1v-0.1v-0.1c0,0,0-0.1,0.1-0.1s0.1,0,0.1,0s0.1,0,0.2,0c0,0,0.1,0,0.2,0c0,0,0.1,0,0.1,0.1s0.1,0.1,0.1,0.1v0.1
		v0.1c0,0,0,0.1-0.1,0.1C675.3,349.5,675.3,349.5,675.2,349.5 M675.6,348.2l-5.3,1.3l2.7,4.1l5.3-1.3L675.6,348.2"/>
	<path fill="#FFFFFF" d="M671.8,343.9c-0.1,0-0.1,0-0.2,0.1s-0.1,0.1-0.1,0.1s0,0.1,0,0.2s0,0.1,0.1,0.2l1.1,1.6l-0.9-0.4h-0.1h-0.1
		h-0.1h-0.1c-0.1,0-0.2,0.1-0.2,0.1s-0.1,0.1-0.1,0.2s0,0.1,0.1,0.2s0.1,0.1,0.3,0.2l2.1,0.9h0.1h0.1h0.1h0.1h0.1c0,0,0,0,0.1,0
		s0,0,0.1-0.1s0,0,0-0.1l0.5-1.6c0-0.1,0-0.2,0-0.2s-0.1-0.1-0.2-0.2s-0.2-0.1-0.3-0.1s-0.2,0-0.3,0c0,0,0,0-0.1,0s0,0-0.1,0l0,0
		c0,0,0,0,0,0.1l-0.2,0.7l-1.1-1.7c0-0.1-0.1-0.1-0.2-0.2c-0.1,0-0.1-0.1-0.2-0.1S672,343.8,671.8,343.9
		C672,343.9,671.9,343.9,671.8,343.9"/>
	<path fill="#FFFFFF" d="M668.2,344.8C668.1,344.9,668.1,344.9,668.2,344.8c-0.1,0-0.1,0.1-0.2,0.1c0,0,0,0-0.1,0.1s0,0,0,0.1
		l-0.5,1.6c0,0.1,0,0.2,0,0.2s0.1,0.1,0.2,0.2s0.2,0.1,0.3,0.1s0.2,0,0.3,0c0,0,0,0,0.1,0s0,0,0.1,0l0,0c0,0,0,0,0-0.1l0.2-0.7
		l1.1,1.7c0,0.1,0.1,0.1,0.2,0.2s0.1,0.1,0.2,0.1s0.1,0,0.2,0c0.1,0,0.1,0,0.2,0c0.1,0,0.1,0,0.2-0.1s0.1-0.1,0.1-0.1s0-0.1,0-0.2
		s0-0.1-0.1-0.2l-1.1-1.7l0.9,0.4h0.1h0.1h0.1h0.1c0.1,0,0.2-0.1,0.2-0.1s0.1-0.1,0.1-0.2s0-0.1-0.1-0.2c0-0.1-0.1-0.1-0.3-0.2
		l-2.1-0.9h-0.1h-0.1C668.3,344.8,668.3,344.8,668.2,344.8L668.2,344.8"/>
	<path fill="#FFFFFF" d="M675.8,349.4l-1.1,0.3h-0.1c0,0,0,0,0,0.1s0,0,0,0.1v0.1l0.7,1l0,0c0,0,0,0,0.1,0s0,0,0.1,0c0,0,0,0,0.1,0
		h0.1l0.9,1.3c0,0,0,0.1,0.1,0.1s0.1,0,0.1,0h0.1h0.1c0,0,0,0,0.1,0l0,0c0,0,0,0,0-0.1c0,0,0,0,0-0.1l-0.9-1.3h0.1l0.9,1.3
		c0,0,0,0.1,0.1,0.1s0.1,0,0.1,0h0.1h0.1c0,0,0,0,0.1,0l0,0c0,0,0,0,0-0.1s0,0,0-0.1l-0.9-1.3h0.1c0,0,0,0,0.1,0s0,0,0,0s0,0,0-0.1
		s0,0,0-0.1l-0.7-1c0,0,0,0-0.1-0.1h-0.1C676,349.4,676,349.4,675.8,349.4C675.9,349.4,675.9,349.4,675.8,349.4"/>
	<path fill="#FFFFFF" d="M674.9,349L674.9,349c-0.1,0-0.2,0-0.2,0.1v0.1v0.1l0.1,0.1c0,0,0.1,0,0.1,0.1h0.1h0.1h0.1
		c0,0,0.1,0,0.1-0.1v-0.1v-0.1l-0.1-0.1c0,0-0.1,0-0.1-0.1C675.1,349,675,349,674.9,349C675,348.9,674.9,349,674.9,349"/>
	<path fill="#FFFFFF" d="M674.2,349.8l-1.1,0.3H673c0,0,0,0,0,0.1s0,0,0,0.1v0.1l0.7,1l0,0c0,0,0,0,0.1,0c0,0,0,0,0.1,0
		c0,0,0,0,0.1,0h0.1l0.9,1.3c0,0,0,0.1,0.1,0.1s0.1,0,0.1,0h0.1h0.1c0,0,0,0,0.1,0l0,0c0,0,0,0,0-0.1c0,0,0,0,0-0.1l-0.9-1.3h0.1
		l0.9,1.3c0,0,0,0.1,0.1,0.1s0.1,0,0.1,0h0.1h0.1c0,0,0,0,0.1,0l0,0c0,0,0,0,0-0.1s0,0,0-0.1l-0.9-1.3h0.1c0,0,0,0,0.1,0l0,0
		c0,0,0,0,0-0.1s0,0,0-0.1l-0.7-1c0,0,0,0-0.1-0.1s-0.1,0-0.1,0h-0.1C674.3,349.8,674.2,349.8,674.2,349.8"/>
	<path fill="#FFFFFF" d="M673.3,349.4L673.3,349.4c-0.1,0-0.2,0-0.2,0.1v0.1v0.1l0.1,0.1c0,0,0.1,0,0.1,0.1s0.1,0,0.2,0
		c0,0,0.1,0,0.2,0h0.1c0,0,0.1,0,0.1-0.1s0-0.1,0-0.1v-0.1l-0.1-0.1c0,0-0.1,0-0.1-0.1s-0.1,0-0.1,0
		C673.4,349.4,673.3,349.4,673.3,349.4"/>
	<path fill="#FFFFFF" d="M672.5,350.3l-1,0.3h-0.1c0,0,0,0-0.1,0.1c0,0,0,0,0,0.1s0,0.1,0,0.1l0.7,1l0,0c0,0,0,0,0.1,0
		c0,0,0,0,0.1,0c0,0,0,0,0.1,0h0.1l0.9,1.3c0,0,0,0.1,0.1,0.1s0.1,0,0.1,0h0.1h0.1c0,0,0,0,0.1,0s0,0,0,0s0,0,0-0.1c0,0,0,0,0-0.1
		l-0.9-1.3h0.1l0.9,1.3c0,0,0,0.1,0.1,0.1s0.1,0,0.1,0h0.1h0.1c0,0,0,0,0.1,0l0,0c0,0,0,0,0-0.1c0,0,0,0,0-0.1l-0.9-1.3h0.1
		c0,0,0,0,0.1,0l0,0c0,0,0,0,0-0.1s0,0,0-0.1l-0.7-1c0,0,0,0-0.1-0.1s-0.1,0-0.1,0h-0.1C672.6,350.2,672.6,350.2,672.5,350.3"/>
	<path fill="#FFFFFF" d="M671.6,349.8L671.6,349.8c-0.1,0-0.2,0-0.2,0.1s0,0.1,0,0.1v0.1l0.1,0.1c0,0,0.1,0,0.1,0.1h0.1h0.1h0.1
		c0,0,0.1,0,0.1-0.1v-0.1V350l-0.1-0.1c0,0-0.1,0-0.1-0.1C671.8,349.8,671.7,349.8,671.6,349.8C671.7,349.8,671.7,349.8,671.6,349.8
		"/>
</g>
<g id="nopointer-underground">
	<g enable-background="new    ">
		<g>
			<g>
				<path fill="#FFFFFF" d="M128.8,285l-0.7-2.1l1.7-0.4c0.2,0,0.4-0.1,0.5-0.1s0.3,0,0.4,0c0.1,0,0.3,0,0.4,0s0.2,0,0.3,0.1
					c0.1,0,0.2,0.1,0.2,0.1c0.1,0,0.1,0.1,0.2,0.2s0.1,0.1,0.1,0.2s0.1,0.1,0.1,0.2s0,0.2,0.1,0.3c0,0.1,0,0.2,0,0.2s0,0.1-0.1,0.2
					c0,0.1-0.1,0.1-0.1,0.2s-0.1,0.1-0.2,0.2c-0.1,0-0.2,0.1-0.3,0.1s-0.3,0.1-0.4,0.1c-0.2,0-0.3,0.1-0.5,0.1L128.8,285
					 M129.7,281.5l-3.6,0.7l1.9,6.2l1.8-0.4l-0.6-2.1l1.9-0.4c0.3-0.1,0.6-0.1,0.8-0.2c0.3-0.1,0.5-0.1,0.7-0.2s0.4-0.2,0.6-0.3
					c0.2-0.1,0.3-0.2,0.4-0.3c0.1-0.1,0.2-0.3,0.3-0.4s0.1-0.3,0.2-0.4c0-0.1,0.1-0.3,0.1-0.5s0-0.3-0.1-0.5s-0.1-0.3-0.2-0.5
					c-0.1-0.1-0.2-0.3-0.3-0.4s-0.3-0.2-0.4-0.3s-0.3-0.2-0.5-0.2s-0.4-0.1-0.6-0.1s-0.4,0-0.7,0c-0.2,0-0.5,0-0.7,0
					C130.3,281.4,130,281.5,129.7,281.5"/>
				<path fill="#FFFFFF" d="M139.4,285.2c-0.2,0-0.4,0.1-0.6,0.1c-0.2,0-0.3,0-0.5,0c-0.1,0-0.2-0.1-0.3-0.2s-0.1-0.2-0.2-0.3
					c0-0.1,0-0.2,0-0.3c0-0.1,0.1-0.2,0.3-0.3s0.3-0.1,0.5-0.2s0.4-0.1,0.7-0.2c0.1,0,0.1,0,0.2,0s0.2,0,0.3,0s0.2,0,0.3,0
					s0.2,0,0.3,0l0.2,0.6c0,0.1,0,0.2,0,0.3s-0.1,0.2-0.2,0.3s-0.2,0.1-0.4,0.2C139.9,285.1,139.7,285.2,139.4,285.2L139.4,285.2
					 M138.1,281.4c-0.2,0-0.4,0.1-0.6,0.1c-0.2,0-0.4,0.1-0.6,0.2s-0.4,0.1-0.5,0.2s-0.3,0.1-0.5,0.2l0.3,0.9
					c0.1-0.1,0.3-0.1,0.4-0.2s0.3-0.1,0.5-0.2c0.2,0,0.4-0.1,0.5-0.1c0.2,0,0.4-0.1,0.6-0.1c0.3,0,0.5-0.1,0.7-0.1s0.4,0,0.5,0.1
					c0.1,0,0.3,0.1,0.4,0.2c0.1,0.1,0.2,0.2,0.2,0.4c-0.1,0-0.2,0-0.3,0s-0.2,0-0.3,0s-0.2,0-0.3,0s-0.2,0-0.3,0.1
					c-0.1,0-0.3,0.1-0.4,0.1c-0.1,0-0.3,0.1-0.4,0.1s-0.2,0.1-0.3,0.1s-0.2,0.1-0.3,0.1s-0.2,0.1-0.3,0.1s-0.2,0.1-0.2,0.1
					c-0.1,0-0.1,0.1-0.2,0.1s-0.1,0.1-0.1,0.1l-0.1,0.1l-0.1,0.1l-0.1,0.1l-0.1,0.1v0.1v0.1v0.1v0.1c0,0,0,0,0,0.1s0,0,0,0.1
					c0,0,0,0,0,0.1s0,0,0,0.1s0.1,0.2,0.1,0.3c0.1,0.1,0.1,0.2,0.2,0.3s0.2,0.2,0.3,0.2c0.1,0.1,0.3,0.1,0.4,0.2
					c0.1,0,0.3,0.1,0.5,0.1s0.4,0,0.6,0s0.4,0,0.7,0s0.5-0.1,0.8-0.1s0.5-0.1,0.7-0.2s0.4-0.1,0.6-0.2c0.2-0.1,0.3-0.2,0.5-0.3
					s0.3-0.2,0.4-0.3s0.2-0.2,0.3-0.3c0.1-0.1,0.1-0.2,0.1-0.3s0.1-0.2,0.1-0.3c0-0.1,0-0.2-0.1-0.3l-0.4-1.3
					c-0.1-0.2-0.1-0.3-0.2-0.4c-0.1-0.1-0.2-0.3-0.3-0.4s-0.2-0.2-0.4-0.3c-0.1-0.1-0.3-0.1-0.4-0.2s-0.3-0.1-0.5-0.1s-0.4,0-0.6,0
					s-0.4,0-0.7,0C138.6,281.4,138.4,281.4,138.1,281.4"/>
				<path fill="#FFFFFF" d="M146.9,279.7c-0.1,0-0.3,0.1-0.4,0.1c-0.1,0-0.3,0.1-0.4,0.1s-0.3,0.1-0.4,0.1c-0.1,0-0.3,0.1-0.4,0.1
					c-0.1,0-0.3,0.1-0.4,0.1c-0.1,0-0.2,0.1-0.3,0.1s-0.2,0.1-0.3,0.1s-0.1,0.1-0.2,0.1c-0.1,0-0.1,0-0.1,0.1c0,0-0.1,0-0.1,0.1
					s-0.1,0-0.1,0h-0.1l1.3,4.2l1.7-0.4l-1.1-3.6c0.1,0,0.3-0.1,0.4-0.1c0.1,0,0.3-0.1,0.4-0.1s0.3-0.1,0.5-0.1s0.3-0.1,0.5-0.1
					L146.9,279.7"/>
				<polyline fill="#FFFFFF" points="149.9,277.3 148.1,277.7 150.2,284 151.9,283.7 151.4,282.2 151.8,281.8 154.8,283.1 
					156.9,282.7 152.6,280.8 155.1,278.1 152.8,278.6 151,280.8 149.9,277.3 				"/>
				<path fill="#FFFFFF" d="M159,277.4l-1.7,0.3l1.5,4.6l1.7-0.3L159,277.4 M158.5,275.7l-1.8,0.4l0.3,1l1.8-0.4L158.5,275.7"/>
				<path fill="#FFFFFF" d="M164.8,276.1c-0.3,0.1-0.6,0.1-0.8,0.2c-0.3,0.1-0.5,0.2-0.8,0.3s-0.5,0.2-0.8,0.3s-0.5,0.2-0.7,0.4
					l1.4,4.2l1.7-0.3l-1.2-3.6c0.1,0,0.2-0.1,0.3-0.1s0.2-0.1,0.3-0.1s0.2,0,0.3-0.1s0.2,0,0.3-0.1c0.1,0,0.2,0,0.3,0s0.2,0,0.2,0
					s0.1,0,0.2,0s0.1,0,0.2,0c0.1,0,0.1,0,0.2,0s0.1,0,0.2,0c0.1,0,0.1,0,0.1,0h0.1h0.1h0.1c0,0,0.1,0,0.1,0.1s0,0,0.1,0.1
					s0,0,0.1,0.1c0,0,0,0,0,0.1s0,0,0,0.1s0,0.1,0,0.1l1,2.9l1.7-0.3l-0.9-2.8c-0.1-0.1-0.1-0.3-0.2-0.4s-0.2-0.2-0.3-0.4
					c-0.1-0.1-0.2-0.2-0.4-0.3s-0.3-0.1-0.5-0.2s-0.3-0.1-0.5-0.1s-0.4,0-0.6,0c-0.2,0-0.4,0-0.6,0C165.3,276,165,276.1,164.8,276.1
					"/>
				<path fill="#FFFFFF" d="M174.6,278.1c-0.1,0-0.3,0-0.4,0.1c-0.1,0-0.2,0-0.3,0s-0.2,0-0.3,0s-0.2,0-0.3-0.1
					c-0.1,0-0.1-0.1-0.2-0.1c-0.1-0.1-0.1-0.1-0.2-0.2s-0.1-0.2-0.2-0.3c-0.1-0.1-0.1-0.2-0.1-0.4c0-0.1-0.1-0.2-0.1-0.4
					c0-0.1,0-0.2,0-0.3c0-0.1,0-0.2,0-0.3c0-0.1,0.1-0.1,0.1-0.2s0.1-0.1,0.1-0.2c0.1,0,0.1-0.1,0.2-0.1c0.1,0,0.2-0.1,0.3-0.1
					s0.2-0.1,0.3-0.1l0,0c0.2,0,0.4-0.1,0.5-0.1s0.3,0,0.4,0s0.2,0.1,0.3,0.1s0.1,0.1,0.1,0.2l0.7,2.1c-0.1,0-0.2,0-0.2,0.1
					s-0.2,0-0.2,0.1s-0.2,0-0.3,0.1C174.7,278.1,174.6,278.1,174.6,278.1 M173.1,274.5c-0.1,0-0.1,0-0.2,0c-0.1,0-0.1,0-0.2,0
					s-0.1,0-0.2,0c-0.1,0-0.1,0-0.2,0c-0.1,0-0.1,0-0.2,0.1c-0.1,0-0.1,0-0.2,0.1s-0.1,0.1-0.2,0.1s-0.1,0.1-0.2,0.1
					c-0.1,0-0.1,0.1-0.2,0.1s-0.1,0.1-0.2,0.1s-0.1,0.1-0.1,0.1c-0.1,0-0.1,0.1-0.1,0.1s-0.1,0.1-0.1,0.2s-0.1,0.1-0.1,0.2
					s-0.1,0.1-0.1,0.2s0,0.1-0.1,0.2c0,0.1,0,0.2,0,0.3c0,0.1,0,0.2,0,0.3s0,0.2,0.1,0.3c0,0.1,0.1,0.2,0.1,0.3
					c0.1,0.2,0.1,0.4,0.2,0.5c0.1,0.1,0.2,0.3,0.3,0.4s0.2,0.2,0.4,0.3c0.1,0.1,0.3,0.2,0.5,0.3s0.4,0.1,0.5,0.2
					c0.2,0,0.4,0.1,0.6,0.1s0.4,0,0.7,0c0.2,0,0.5-0.1,0.7-0.1c0.1,0,0.2,0,0.3-0.1c0.1,0,0.2,0,0.3-0.1c0.1,0,0.2,0,0.3-0.1
					s0.2-0.1,0.3-0.1l0.1,0.3c0,0,0,0,0,0.1c0,0,0,0,0,0.1s0,0,0,0.1s0,0,0,0l0,0c0,0,0,0,0,0.1c0,0,0,0,0,0.1c0,0,0,0,0,0.1
					c0,0,0,0-0.1,0.1c0,0-0.1,0-0.1,0.1c0,0-0.1,0-0.1,0.1c-0.1,0-0.1,0-0.2,0.1c-0.1,0-0.1,0-0.2,0.1s-0.1,0-0.2,0.1
					s-0.2,0-0.3,0.1s-0.2,0-0.3,0.1c-0.2,0-0.3,0.1-0.5,0.1s-0.3,0-0.5,0.1s-0.3,0-0.5,0s-0.3,0-0.5,0l0.3,1c0.2,0,0.3,0,0.5,0
					s0.3,0,0.5,0s0.4,0,0.5-0.1s0.4-0.1,0.6-0.1c0.1,0,0.3-0.1,0.4-0.1s0.2-0.1,0.4-0.1c0.1,0,0.2-0.1,0.3-0.1s0.2-0.1,0.3-0.1
					s0.2-0.1,0.3-0.1s0.2-0.1,0.2-0.1c0.1,0,0.1-0.1,0.2-0.1s0.1-0.1,0.1-0.1c0.1,0,0.1-0.1,0.1-0.1l0.1-0.1l0.1-0.1l0.1-0.1
					c0,0,0-0.1,0.1-0.1v-0.1v-0.1v-0.1v-0.1v-0.1v-0.1v-0.1l-1.1-3.3c0-0.1-0.1-0.2-0.1-0.3c-0.1-0.1-0.1-0.2-0.2-0.3
					s-0.2-0.1-0.3-0.2s-0.2-0.1-0.4-0.2c-0.1,0-0.3-0.1-0.5-0.1s-0.4,0-0.5,0c-0.2,0-0.4,0-0.6,0
					C173.6,274.4,173.4,274.4,173.1,274.5"/>
				<path fill="#FFFFFF" d="M185.9,275.9l-0.6-1.7l1.9-0.4c0.3-0.1,0.6-0.1,0.8-0.1c0.3,0,0.5,0,0.6,0s0.3,0.1,0.4,0.2
					c0.1,0.1,0.2,0.2,0.2,0.3c0.1,0.1,0.1,0.3,0,0.4s-0.1,0.2-0.3,0.3s-0.3,0.2-0.5,0.3c-0.2,0.1-0.5,0.1-0.8,0.2L185.9,275.9
					 M185,273.2l-0.5-1.5l1.7-0.3c0.3,0,0.5-0.1,0.7-0.1s0.4,0,0.6,0c0.2,0,0.3,0.1,0.4,0.2s0.2,0.2,0.2,0.3c0,0.1,0.1,0.2,0,0.3
					s-0.1,0.2-0.2,0.3s-0.2,0.2-0.4,0.2s-0.4,0.1-0.6,0.2L185,273.2 M185.8,270.4l-3.4,0.7l2.1,6.1l3.7-0.8c0.1,0,0.3-0.1,0.4-0.1
					s0.3-0.1,0.4-0.1c0.1,0,0.2-0.1,0.4-0.1c0.1,0,0.2-0.1,0.3-0.1s0.2-0.1,0.3-0.1s0.2-0.1,0.2-0.1c0.1,0,0.1-0.1,0.2-0.1
					s0.1-0.1,0.2-0.1s0.1-0.1,0.1-0.1l0.1-0.1l0.1-0.1l0.1-0.1c0,0,0-0.1,0.1-0.1V275v-0.1v-0.1v-0.1v-0.1v-0.1v-0.1
					c-0.1-0.2-0.1-0.3-0.3-0.5c-0.1-0.1-0.3-0.2-0.4-0.3c-0.2-0.1-0.4-0.2-0.6-0.2c-0.2,0-0.5-0.1-0.8-0.1c0.2-0.1,0.3-0.2,0.4-0.3
					s0.2-0.2,0.3-0.3c0.1-0.1,0.1-0.2,0.1-0.4c0-0.1,0-0.3-0.1-0.4c0-0.1-0.1-0.1-0.1-0.2s-0.1-0.1-0.1-0.2s-0.1-0.1-0.1-0.2
					c-0.1-0.1-0.1-0.1-0.2-0.2c-0.1,0-0.1-0.1-0.2-0.1s-0.1-0.1-0.2-0.1c-0.1,0-0.2-0.1-0.2-0.1s-0.2,0-0.3-0.1c-0.1,0-0.2,0-0.3,0
					s-0.2,0-0.3,0s-0.2,0-0.3,0s-0.2,0-0.3,0s-0.2,0-0.3,0s-0.2,0-0.3,0s-0.2,0-0.3,0C186.1,270.4,185.9,270.4,185.8,270.4"/>
				<path fill="#FFFFFF" d="M159.4,384.9l-0.8-2.4l1.8-0.4c0.2,0,0.4-0.1,0.6-0.1c0.2,0,0.3,0,0.5,0s0.3,0,0.4,0
					c0.1,0,0.2,0,0.3,0.1s0.2,0.1,0.3,0.1s0.1,0.1,0.2,0.2c0.1,0.1,0.1,0.1,0.2,0.2c0.1,0.1,0.1,0.2,0.1,0.3c0,0.1,0.1,0.2,0.1,0.3
					s0,0.2,0,0.3c0,0.1,0,0.2-0.1,0.2c0,0.1-0.1,0.1-0.1,0.2s-0.1,0.1-0.2,0.2c-0.1,0.1-0.2,0.1-0.3,0.2s-0.3,0.1-0.4,0.2
					c-0.2,0-0.4,0.1-0.6,0.1L159.4,384.9 M160.3,380.9l-3.8,0.9l2.2,7.1l1.9-0.4l-0.7-2.4l2-0.5c0.3-0.1,0.6-0.1,0.9-0.2
					c0.3-0.1,0.5-0.2,0.7-0.3c0.2-0.1,0.4-0.2,0.6-0.3c0.2-0.1,0.3-0.3,0.5-0.4s0.2-0.3,0.3-0.4s0.1-0.3,0.2-0.5
					c0-0.2,0.1-0.3,0-0.5c0-0.2-0.1-0.4-0.1-0.5s-0.1-0.4-0.2-0.5c-0.1-0.2-0.2-0.3-0.3-0.4s-0.3-0.2-0.4-0.3
					c-0.2-0.1-0.3-0.2-0.5-0.2c-0.2-0.1-0.4-0.1-0.6-0.1s-0.5,0-0.7,0s-0.5,0-0.8,0C160.9,380.8,160.6,380.8,160.3,380.9"/>
				<path fill="#FFFFFF" d="M170.7,385c-0.2,0-0.5,0.1-0.6,0.1c-0.2,0-0.4,0-0.5-0.1s-0.3-0.1-0.4-0.2c-0.1-0.1-0.2-0.2-0.2-0.4
					c0-0.1,0-0.2,0-0.3c0.1-0.1,0.1-0.2,0.3-0.3c0.1-0.1,0.3-0.2,0.5-0.3s0.4-0.1,0.7-0.2c0.1,0,0.2,0,0.2,0s0.2,0,0.3,0
					s0.2,0,0.3,0s0.2,0,0.3,0l0.2,0.7c0,0.1,0.1,0.3,0,0.4s-0.1,0.2-0.2,0.3s-0.2,0.2-0.4,0.3C171.1,384.9,170.9,385,170.7,385
					L170.7,385 M169.2,380.7c-0.2,0-0.4,0.1-0.6,0.2c-0.2,0.1-0.4,0.1-0.6,0.2s-0.4,0.1-0.6,0.2c-0.2,0.1-0.3,0.2-0.5,0.2l0.3,1
					c0.1-0.1,0.3-0.2,0.5-0.2s0.3-0.1,0.5-0.2s0.4-0.1,0.6-0.2c0.2-0.1,0.4-0.1,0.6-0.2c0.3-0.1,0.5-0.1,0.7-0.1s0.4,0,0.6,0.1
					c0.2,0,0.3,0.1,0.4,0.3s0.2,0.3,0.2,0.4c-0.1,0-0.2,0-0.4,0s-0.2,0-0.4,0c-0.1,0-0.2,0-0.3,0.1s-0.2,0-0.3,0.1
					c-0.1,0-0.3,0.1-0.4,0.1c-0.1,0-0.3,0.1-0.4,0.1c-0.1,0-0.2,0.1-0.4,0.1c-0.1,0-0.2,0.1-0.3,0.1s-0.2,0.1-0.3,0.1
					s-0.2,0.1-0.2,0.1c-0.1,0-0.1,0.1-0.2,0.1c-0.1,0-0.1,0.1-0.1,0.1c-0.1,0-0.1,0.1-0.1,0.1l-0.1,0.1l-0.1,0.1l-0.1,0.1v0.1v0.1
					v0.1v0.1v0.1v0.1v0.1v0.1c0,0.1,0.1,0.3,0.2,0.4s0.1,0.2,0.3,0.3s0.2,0.2,0.4,0.3c0.1,0.1,0.3,0.1,0.4,0.2s0.3,0.1,0.5,0.1
					s0.4,0,0.6,0s0.5,0,0.7,0s0.5-0.1,0.8-0.1c0.3-0.1,0.5-0.1,0.8-0.2s0.4-0.2,0.6-0.3s0.4-0.2,0.5-0.3c0.1-0.1,0.3-0.2,0.4-0.3
					c0.1-0.1,0.2-0.2,0.3-0.4c0.1-0.1,0.1-0.2,0.1-0.4s0.1-0.2,0.1-0.4s0-0.2-0.1-0.4l-0.4-1.4c-0.1-0.2-0.1-0.4-0.2-0.5
					s-0.2-0.3-0.3-0.4s-0.3-0.2-0.4-0.3s-0.3-0.2-0.5-0.2c-0.2-0.1-0.4-0.1-0.6-0.1c-0.2,0-0.4,0-0.6,0s-0.5,0-0.7,0
					C169.7,380.6,169.5,380.6,169.2,380.7"/>
				<path fill="#FFFFFF" d="M178.5,378.6c-0.2,0-0.3,0.1-0.5,0.1s-0.3,0.1-0.5,0.1s-0.3,0.1-0.5,0.2s-0.3,0.1-0.5,0.2
					s-0.3,0.1-0.4,0.2s-0.3,0.1-0.4,0.1c-0.1,0-0.2,0.1-0.3,0.1s-0.1,0.1-0.2,0.1c-0.1,0-0.1,0-0.1,0.1c0,0-0.1,0-0.1,0.1
					c0,0-0.1,0-0.1,0.1c0,0-0.1,0-0.1,0.1l1.5,4.8l1.8-0.4l-1.3-4.1c0.1-0.1,0.3-0.1,0.4-0.2c0.1,0,0.3-0.1,0.4-0.2
					c0.2,0,0.3-0.1,0.5-0.1s0.4-0.1,0.6-0.1L178.5,378.6"/>
				<polyline fill="#FFFFFF" points="181.6,375.9 179.8,376.3 182.1,383.5 183.9,383.1 183.4,381.4 183.8,380.9 187,382.5 
					189.3,381.9 184.7,379.8 187.2,376.7 184.8,377.3 182.9,379.8 181.6,375.9 				"/>
				<path fill="#FFFFFF" d="M191.4,375.8l-1.8,0.4l1.7,5.3l1.8-0.4L191.4,375.8 M190.8,373.9l-1.9,0.4l0.4,1.1l1.9-0.4L190.8,373.9"
					/>
				<path fill="#FFFFFF" d="M197.5,374.3c-0.3,0.1-0.6,0.1-0.9,0.2c-0.3,0.1-0.6,0.2-0.8,0.3c-0.3,0.1-0.5,0.2-0.8,0.4
					c-0.3,0.1-0.5,0.3-0.8,0.4l1.6,4.8l1.8-0.4l-1.4-4.1c0.1,0,0.2-0.1,0.4-0.1s0.2-0.1,0.3-0.1s0.2-0.1,0.3-0.1s0.2-0.1,0.3-0.1
					s0.2,0,0.3-0.1c0.1,0,0.2,0,0.3,0s0.2,0,0.2,0c0.1,0,0.1,0,0.2,0s0.1,0,0.2,0s0.1,0,0.2,0c0.1,0,0.1,0,0.1,0h0.1
					c0,0,0.1,0,0.1,0.1s0.1,0,0.1,0.1s0.1,0,0.1,0.1s0,0,0.1,0.1s0,0,0.1,0.1s0,0,0.1,0.1v0.1v0.1l1.1,3.3l1.8-0.4l-1.1-3.2
					c-0.1-0.2-0.1-0.3-0.2-0.5s-0.2-0.3-0.3-0.4s-0.3-0.2-0.4-0.3s-0.3-0.2-0.5-0.2c-0.2-0.1-0.4-0.1-0.6-0.1s-0.4,0-0.6,0
					s-0.4,0-0.7,0C198,374.2,197.8,374.3,197.5,374.3"/>
				<path fill="#FFFFFF" d="M207.9,376.5c-0.1,0-0.3,0-0.4,0.1c-0.1,0-0.2,0-0.4,0c-0.1,0-0.2,0-0.3,0s-0.2,0-0.3-0.1
					s-0.2-0.1-0.2-0.1c-0.1-0.1-0.1-0.1-0.2-0.2s-0.1-0.2-0.2-0.3s-0.1-0.3-0.2-0.4c-0.1-0.1-0.1-0.3-0.1-0.4s0-0.2,0-0.4
					c0-0.1,0-0.2,0-0.3s0.1-0.2,0.1-0.3c0-0.1,0.1-0.1,0.1-0.2c0.1-0.1,0.1-0.1,0.2-0.2c0.1,0,0.2-0.1,0.3-0.1s0.2-0.1,0.3-0.1l0,0
					c0.2,0,0.4-0.1,0.6-0.1c0.2,0,0.3,0,0.4,0c0.1,0,0.2,0.1,0.3,0.1c0.1,0.1,0.1,0.1,0.2,0.2l0.8,2.4c-0.1,0-0.2,0.1-0.3,0.1
					s-0.2,0.1-0.3,0.1s-0.2,0-0.3,0.1S208,376.5,207.9,376.5 M206.3,372.4c-0.1,0-0.1,0-0.2,0c-0.1,0-0.1,0-0.2,0s-0.1,0-0.2,0
					s-0.1,0-0.2,0.1c-0.1,0-0.1,0-0.2,0.1s-0.1,0.1-0.2,0.1c-0.1,0-0.1,0.1-0.2,0.1c-0.1,0-0.1,0.1-0.2,0.1c-0.1,0-0.1,0.1-0.2,0.1
					c-0.1,0-0.1,0.1-0.2,0.1s-0.1,0.1-0.2,0.2c-0.1,0.1-0.1,0.1-0.1,0.2s-0.1,0.1-0.1,0.2s-0.1,0.1-0.1,0.2s-0.1,0.2-0.1,0.3
					s0,0.2-0.1,0.3s0,0.2,0,0.3s0,0.2,0,0.3c0,0.1,0,0.2,0.1,0.3c0,0.1,0.1,0.2,0.1,0.3c0.1,0.2,0.1,0.4,0.3,0.6s0.2,0.3,0.3,0.5
					c0.1,0.1,0.3,0.3,0.4,0.4c0.1,0.1,0.3,0.2,0.5,0.3c0.2,0.1,0.4,0.1,0.6,0.2c0.2,0,0.4,0.1,0.6,0.1c0.2,0,0.5,0,0.7,0
					s0.5-0.1,0.8-0.1c0.1,0,0.2,0,0.3-0.1c0.1,0,0.2,0,0.3-0.1c0.1,0,0.2-0.1,0.3-0.1s0.2-0.1,0.3-0.1l0.1,0.3v0.1c0,0,0,0,0,0.1
					s0,0,0,0.1s0,0,0,0.1c0,0,0,0,0,0.1c0,0,0,0,0,0.1c0,0,0,0,0,0.1c0,0,0,0,0,0.1c0,0,0,0.1-0.1,0.1s-0.1,0.1-0.1,0.1l-0.1,0.1
					c-0.1,0-0.1,0-0.2,0.1s-0.1,0-0.2,0.1c-0.1,0-0.1,0-0.2,0.1c-0.1,0-0.2,0-0.3,0.1c-0.1,0-0.2,0-0.3,0.1c-0.2,0-0.4,0.1-0.5,0.1
					c-0.2,0-0.4,0-0.5,0.1s-0.3,0-0.5,0s-0.3,0-0.5,0l0.4,1.1c0.2,0,0.4,0,0.5,0s0.4,0,0.6,0s0.4,0,0.6-0.1c0.2,0,0.4-0.1,0.6-0.1
					c0.1,0,0.3-0.1,0.4-0.1c0.1,0,0.3-0.1,0.4-0.1c0.1,0,0.2-0.1,0.4-0.1s0.2-0.1,0.3-0.1s0.2-0.1,0.3-0.1s0.2-0.1,0.2-0.1
					c0.1,0,0.1-0.1,0.2-0.1s0.1-0.1,0.2-0.1c0.1,0,0.1-0.1,0.1-0.1l0.1-0.1l0.1-0.1c0,0,0.1-0.1,0.1-0.2s0-0.1,0.1-0.2v-0.1v-0.1
					v-0.1v-0.1v-0.1v-0.1v-0.1l-1.3-3.7c0-0.1-0.1-0.2-0.2-0.3c-0.1-0.1-0.1-0.2-0.3-0.3s-0.2-0.2-0.3-0.2c-0.1-0.1-0.3-0.1-0.4-0.2
					c-0.1-0.1-0.3-0.1-0.5-0.1s-0.4,0-0.6,0s-0.4,0-0.7,0C206.8,372.3,206.6,372.3,206.3,372.4"/>
				<path fill="#FFFFFF" d="M220.4,367.3c-0.1,0-0.2,0-0.3,0.1s-0.2,0.1-0.3,0.1s-0.2,0.1-0.3,0.1s-0.2,0.1-0.3,0.1
					s-0.2,0.1-0.3,0.1s-0.2,0.1-0.3,0.1s-0.2,0.1-0.3,0.2s-0.2,0.1-0.3,0.2s-0.2,0.1-0.3,0.2s-0.2,0.1-0.2,0.2
					c-0.1,0.1-0.1,0.1-0.2,0.2s-0.1,0.1-0.2,0.2c-0.1,0.1-0.1,0.2-0.1,0.3s-0.1,0.2-0.1,0.3s-0.1,0.2-0.1,0.3s0,0.2,0,0.3
					s0,0.2,0,0.4s0,0.3,0,0.4s0.1,0.3,0.1,0.4s0.1,0.3,0.1,0.4s0.1,0.3,0.2,0.4s0.1,0.3,0.2,0.4s0.1,0.2,0.2,0.3s0.2,0.2,0.2,0.3
					s0.2,0.2,0.3,0.3c0.1,0.1,0.2,0.2,0.3,0.2s0.2,0.1,0.3,0.2s0.2,0.1,0.3,0.2c0.1,0,0.2,0.1,0.3,0.1s0.2,0.1,0.3,0.1
					s0.2,0.1,0.3,0.1s0.2,0,0.4,0.1c0.1,0,0.2,0,0.4,0c0.1,0,0.2,0,0.3,0s0.2,0,0.3,0s0.2,0,0.3,0s0.2,0,0.3,0s0.2,0,0.3,0
					s0.2,0,0.3-0.1c0.1,0,0.2,0,0.4-0.1c0.3-0.1,0.5-0.1,0.8-0.2s0.5-0.2,0.7-0.3c0.2-0.1,0.5-0.2,0.7-0.3s0.5-0.2,0.7-0.4l-0.4-1.2
					c-0.2,0.1-0.4,0.3-0.6,0.4s-0.4,0.2-0.7,0.3s-0.4,0.2-0.7,0.3c-0.2,0.1-0.5,0.1-0.7,0.2c-0.1,0-0.2,0-0.3,0.1
					c-0.1,0-0.2,0-0.3,0s-0.2,0-0.3,0s-0.2,0-0.3,0s-0.2,0-0.3,0s-0.2,0-0.3,0s-0.2,0-0.3,0s-0.2,0-0.3-0.1c-0.1,0-0.2,0-0.3-0.1
					c-0.1,0-0.2-0.1-0.3-0.1s-0.2-0.1-0.2-0.2c-0.1-0.1-0.1-0.1-0.2-0.2s-0.1-0.2-0.2-0.3c-0.1-0.1-0.1-0.2-0.2-0.3
					s-0.1-0.2-0.2-0.3s-0.1-0.2-0.1-0.4s-0.1-0.3-0.1-0.4s-0.1-0.2-0.1-0.4c0-0.1,0-0.2,0-0.3s0-0.2,0-0.3s0-0.2,0.1-0.3
					c0-0.1,0.1-0.2,0.1-0.2s0.1-0.1,0.1-0.2c0.1-0.1,0.1-0.1,0.2-0.2s0.1-0.1,0.2-0.2s0.1-0.1,0.2-0.1c0.1,0,0.1-0.1,0.2-0.1
					c0.1,0,0.1-0.1,0.2-0.1c0.1,0,0.1-0.1,0.2-0.1c0.1,0,0.2-0.1,0.3-0.1s0.2-0.1,0.3-0.1s0.2,0,0.3-0.1c0.2,0,0.5-0.1,0.7-0.1
					s0.5-0.1,0.7-0.1s0.5,0,0.8,0s0.5,0,0.8,0l-0.4-1.2c-0.3,0-0.5,0-0.8,0s-0.5,0-0.8,0s-0.5,0-0.8,0.1
					C220.9,367.2,220.6,367.3,220.4,367.3"/>
				<path fill="#FFFFFF" d="M627.4,415.1l-1.5-2.4l1.6-0.4c0.2,0,0.3-0.1,0.5-0.1s0.3,0,0.4,0s0.3,0,0.4,0s0.2,0,0.3,0.1
					s0.2,0.1,0.3,0.1s0.2,0.1,0.2,0.2s0.2,0.1,0.2,0.2c0.1,0.1,0.1,0.2,0.2,0.3s0.1,0.2,0.2,0.3s0.1,0.2,0.1,0.3s0,0.2,0,0.2
					c0,0.1,0,0.1-0.1,0.2s-0.1,0.1-0.2,0.2c-0.1,0.1-0.2,0.1-0.3,0.2s-0.2,0.1-0.4,0.2s-0.3,0.1-0.5,0.1L627.4,415.1 M627,411
					l-3.3,0.9l4.2,7.1l1.6-0.4l-1.4-2.4l1.7-0.5c0.3-0.1,0.5-0.1,0.7-0.2s0.4-0.2,0.6-0.3c0.2-0.1,0.3-0.2,0.5-0.3s0.2-0.3,0.3-0.4
					s0.1-0.3,0.2-0.4c0-0.1,0-0.3,0-0.5s-0.1-0.3-0.1-0.5c-0.1-0.2-0.2-0.4-0.3-0.5c-0.1-0.2-0.2-0.4-0.4-0.5s-0.3-0.3-0.4-0.4
					s-0.3-0.2-0.5-0.3s-0.4-0.2-0.6-0.2s-0.4-0.1-0.6-0.1s-0.4,0-0.7,0s-0.5,0-0.7,0C627.5,410.9,627.2,411,627,411"/>
				<path fill="#FFFFFF" d="M638,415.1c-0.2,0-0.4,0.1-0.6,0.1s-0.3,0-0.5-0.1s-0.3-0.1-0.4-0.2c-0.1-0.1-0.2-0.2-0.3-0.4
					c-0.1-0.1-0.1-0.2-0.1-0.3c0-0.1,0.1-0.2,0.2-0.3s0.2-0.2,0.4-0.3s0.4-0.1,0.6-0.2c0.1,0,0.1,0,0.2,0s0.2,0,0.2,0
					c0.1,0,0.2,0,0.3,0s0.2,0,0.3,0l0.4,0.7c0.1,0.1,0.1,0.3,0.1,0.4s0,0.2-0.1,0.3s-0.2,0.2-0.3,0.3S638.2,415.1,638,415.1
					L638,415.1 M635.3,410.8c-0.2,0-0.4,0.1-0.5,0.2c-0.2,0.1-0.3,0.1-0.5,0.2s-0.3,0.1-0.5,0.2c-0.1,0.1-0.3,0.2-0.4,0.2l0.6,1
					c0.1-0.1,0.2-0.2,0.4-0.2s0.3-0.1,0.4-0.2s0.3-0.1,0.5-0.2s0.3-0.1,0.5-0.2s0.5-0.1,0.7-0.1s0.4,0,0.5,0.1
					c0.2,0,0.3,0.1,0.5,0.3s0.3,0.3,0.3,0.4c-0.1,0-0.2,0-0.3,0s-0.2,0-0.3,0s-0.2,0-0.3,0.1c-0.1,0-0.2,0-0.3,0.1
					c-0.1,0-0.3,0.1-0.4,0.1s-0.2,0.1-0.3,0.1s-0.2,0.1-0.3,0.1s-0.2,0.1-0.3,0.1s-0.2,0.1-0.2,0.1c-0.1,0-0.1,0.1-0.2,0.1l-0.1,0.1
					l-0.1,0.1c0,0,0,0.1-0.1,0.1c0,0,0,0.1-0.1,0.1v0.1v0.1v0.1v0.1v0.1v0.1v0.1v0.1v0.1v0.1c0.1,0.1,0.2,0.2,0.3,0.4
					c0.1,0.1,0.2,0.2,0.3,0.3s0.3,0.2,0.4,0.3c0.2,0.1,0.3,0.1,0.5,0.2s0.3,0.1,0.5,0.1s0.4,0,0.6,0s0.4,0,0.7,0
					c0.2,0,0.5-0.1,0.7-0.1c0.2-0.1,0.5-0.1,0.6-0.2s0.4-0.2,0.5-0.3s0.3-0.2,0.4-0.3c0.1-0.1,0.2-0.2,0.3-0.3s0.1-0.2,0.1-0.4
					s0-0.2,0-0.4c0-0.1,0-0.2-0.1-0.4s-0.1-0.2-0.2-0.4l-0.9-1.4c-0.1-0.2-0.2-0.4-0.4-0.5s-0.3-0.3-0.4-0.4
					c-0.2-0.1-0.3-0.2-0.5-0.3c-0.2-0.1-0.3-0.2-0.5-0.2s-0.4-0.1-0.6-0.1c-0.2,0-0.4,0-0.6,0c-0.2,0-0.4,0-0.7,0
					C635.7,410.7,635.5,410.8,635.3,410.8"/>
				<path fill="#FFFFFF" d="M643.3,408.7c-0.1,0-0.3,0.1-0.4,0.1c-0.1,0-0.3,0.1-0.4,0.1c-0.1,0-0.3,0.1-0.4,0.2
					c-0.1,0.1-0.3,0.1-0.4,0.2c-0.1,0.1-0.2,0.1-0.3,0.2c-0.1,0-0.2,0.1-0.3,0.1s-0.2,0.1-0.2,0.1c-0.1,0-0.1,0.1-0.2,0.1
					c0,0-0.1,0-0.1,0.1c0,0-0.1,0-0.1,0.1c0,0-0.1,0-0.1,0.1c0,0,0,0-0.1,0.1l2.9,4.8l1.6-0.4l-2.5-4.1c0.1-0.1,0.2-0.1,0.3-0.2
					s0.2-0.1,0.4-0.2c0.1,0,0.3-0.1,0.4-0.1c0.2,0,0.3-0.1,0.5-0.1L643.3,408.7"/>
				<polyline fill="#FFFFFF" points="645.4,406 643.8,406.4 648.2,413.6 649.8,413.2 648.7,411.5 649,411 652.4,412.5 654.4,412 
					649.5,409.9 650.9,406.8 648.8,407.4 647.8,409.9 645.4,406 				"/>
				<path fill="#FFFFFF" d="M654.5,405.9l-1.6,0.4l3.2,5.3l1.6-0.4L654.5,405.9 M653.4,404l-1.6,0.4l0.7,1.1l1.6-0.4L653.4,404"/>
				<path fill="#FFFFFF" d="M659.8,404.4c-0.3,0.1-0.5,0.1-0.8,0.2s-0.5,0.2-0.7,0.3s-0.4,0.2-0.6,0.4c-0.2,0.1-0.4,0.3-0.6,0.4
					l2.9,4.8l1.6-0.4l-2.5-4.1c0.1,0,0.2-0.1,0.3-0.1s0.2-0.1,0.3-0.1s0.2-0.1,0.3-0.1s0.2-0.1,0.3-0.1s0.2,0,0.3-0.1s0.2,0,0.2,0
					s0.1,0,0.2,0s0.1,0,0.2,0s0.1,0,0.2,0s0.1,0,0.2,0c0,0,0.1,0,0.2,0h0.1c0,0,0.1,0,0.1,0.1s0.1,0,0.1,0.1c0,0,0.1,0,0.1,0.1
					s0,0,0.1,0.1c0,0,0,0,0.1,0.1c0,0,0,0,0.1,0.1c0,0,0,0.1,0.1,0.1c0,0,0,0.1,0.1,0.1l2,3.3l1.6-0.4l-2-3.1
					c-0.1-0.2-0.2-0.3-0.3-0.5s-0.3-0.3-0.4-0.4c-0.2-0.1-0.3-0.2-0.5-0.3s-0.3-0.2-0.5-0.2s-0.4-0.1-0.6-0.1s-0.4,0-0.6,0
					c-0.2,0-0.4,0-0.6,0C660.2,404.3,660,404.4,659.8,404.4"/>
				<path fill="#FFFFFF" d="M670.2,406.6c-0.1,0-0.2,0-0.3,0.1c-0.1,0-0.2,0-0.3,0s-0.2,0-0.3,0s-0.2,0-0.3-0.1
					c-0.1,0-0.2-0.1-0.3-0.1s-0.2-0.1-0.3-0.2s-0.2-0.2-0.3-0.3s-0.2-0.3-0.3-0.4s-0.2-0.3-0.2-0.4c-0.1-0.1-0.1-0.2-0.2-0.4
					s-0.1-0.2-0.1-0.3s0-0.2,0-0.3c0-0.1,0-0.1,0.1-0.2c0-0.1,0.1-0.1,0.2-0.2c0.1,0,0.1-0.1,0.2-0.1c0.1,0,0.2-0.1,0.3-0.1l0,0
					c0.2,0,0.3-0.1,0.5-0.1s0.3,0,0.4,0s0.2,0.1,0.3,0.1s0.2,0.1,0.2,0.2l1.5,2.4c-0.1,0-0.1,0.1-0.2,0.1s-0.2,0.1-0.2,0.1
					c-0.1,0-0.2,0-0.2,0.1S670.3,406.5,670.2,406.6 M667.4,402.4c0,0-0.1,0-0.2,0s-0.1,0-0.2,0c0,0-0.1,0-0.2,0c0,0-0.1,0-0.1,0.1
					c0,0-0.1,0-0.2,0.1s-0.1,0.1-0.2,0.1s-0.1,0.1-0.2,0.1c0,0-0.1,0.1-0.2,0.1l-0.1,0.1l-0.1,0.1c0,0-0.1,0.1-0.1,0.2
					s-0.1,0.1-0.1,0.2s0,0.1-0.1,0.2c0,0.1,0,0.1,0,0.2s0,0.2,0,0.2c0,0.1,0,0.2,0,0.3c0,0.1,0,0.2,0.1,0.3s0.1,0.2,0.1,0.3
					s0.1,0.2,0.2,0.3s0.1,0.2,0.2,0.3c0.1,0.2,0.3,0.4,0.4,0.6c0.1,0.2,0.3,0.3,0.5,0.5c0.2,0.1,0.3,0.3,0.5,0.4s0.4,0.2,0.6,0.3
					c0.2,0.1,0.4,0.1,0.6,0.2c0.2,0,0.4,0.1,0.6,0.1s0.4,0,0.7,0s0.5-0.1,0.7-0.1c0.1,0,0.2,0,0.2-0.1c0.1,0,0.2,0,0.2-0.1
					c0.1,0,0.2-0.1,0.2-0.1l0.2-0.1l0.2,0.3v0.1c0,0,0,0,0,0.1c0,0,0,0,0,0.1c0,0,0,0,0,0.1s0,0,0,0s0,0,0,0.1s0,0,0,0.1s0,0,0,0.1
					v0.1c0,0,0,0.1-0.1,0.1c0,0-0.1,0-0.1,0.1s-0.1,0-0.1,0.1s-0.1,0-0.2,0.1s-0.1,0-0.2,0.1s-0.2,0-0.2,0.1c-0.1,0-0.2,0-0.3,0.1
					c-0.2,0-0.3,0.1-0.5,0.1s-0.3,0-0.5,0.1c-0.2,0-0.3,0-0.5,0s-0.3,0-0.5,0l0.7,1.1c0.2,0,0.3,0,0.5,0s0.3,0,0.5,0s0.3,0,0.5-0.1
					c0.2,0,0.3-0.1,0.5-0.1c0.1,0,0.2-0.1,0.3-0.1s0.2-0.1,0.3-0.1s0.2-0.1,0.3-0.1s0.2-0.1,0.3-0.1s0.2-0.1,0.2-0.1
					s0.1-0.1,0.2-0.1c0,0,0.1-0.1,0.2-0.1l0.1-0.1l0.1-0.1c0,0,0-0.1,0.1-0.1s0-0.1,0-0.1s0-0.1,0-0.2s0-0.1,0-0.2s0-0.1,0-0.1v-0.1
					v-0.1v-0.1c0,0,0-0.1-0.1-0.1s0-0.1-0.1-0.1s0-0.1-0.1-0.1l-2.3-3.7c-0.1-0.1-0.2-0.2-0.3-0.3c-0.1-0.1-0.2-0.2-0.3-0.3
					s-0.2-0.2-0.4-0.2s-0.3-0.1-0.4-0.2c-0.2-0.1-0.3-0.1-0.5-0.1s-0.4,0-0.6,0c-0.2,0-0.4,0-0.6,0S667.6,402.4,667.4,402.4"/>
				<path fill="#FFFFFF" d="M680.6,403.8l-3-4.7l1.4-0.4c0.2-0.1,0.4-0.1,0.7-0.1s0.4,0,0.6,0s0.4,0,0.5,0.1c0.2,0,0.3,0.1,0.5,0.1
					c0.2,0.1,0.3,0.1,0.5,0.3s0.3,0.2,0.4,0.4c0.1,0.1,0.3,0.3,0.4,0.5c0.1,0.2,0.3,0.4,0.4,0.6c0.1,0.2,0.2,0.4,0.3,0.6
					s0.2,0.4,0.2,0.5c0,0.2,0.1,0.3,0.1,0.5s0,0.3-0.1,0.4c0,0.1-0.1,0.2-0.2,0.3s-0.2,0.2-0.3,0.3s-0.3,0.2-0.5,0.2
					c-0.2,0.1-0.4,0.1-0.6,0.2L680.6,403.8 M678.3,397.6l-3,0.8l4.4,6.9l3-0.8c0.3-0.1,0.6-0.2,0.9-0.3c0.3-0.1,0.5-0.2,0.7-0.4
					c0.2-0.1,0.4-0.3,0.5-0.5s0.3-0.4,0.3-0.5s0.1-0.4,0.1-0.6s0-0.4-0.1-0.7s-0.1-0.5-0.3-0.7c-0.1-0.3-0.3-0.5-0.4-0.8
					s-0.4-0.5-0.6-0.8c-0.2-0.2-0.4-0.5-0.6-0.6c-0.2-0.2-0.5-0.4-0.7-0.5s-0.5-0.3-0.8-0.4s-0.5-0.2-0.8-0.2s-0.6-0.1-0.9-0.1
					s-0.6,0-0.9,0C679,397.5,678.7,397.5,678.3,397.6"/>
				<path fill="#FFFFFF" d="M816,164.3c-0.6,0.1-1.1,0.3-1.6,0.5s-0.9,0.4-1.3,0.7c-0.3,0.3-0.5,0.6-0.5,1s0.2,0.8,0.6,1.3
					c0.4,0.5,0.9,0.9,1.4,1.1c0.5,0.3,1.1,0.4,1.7,0.6s1.3,0.1,1.9,0.2c0.7,0,1.3,0,2-0.1c0.7,0,1.3-0.1,1.9-0.1
					c0.6,0,1.2,0,1.8,0.1s1.1,0.2,1.6,0.4s0.9,0.5,1.3,0.9c0.4,0.4,0.5,0.8,0.5,1.1s-0.2,0.6-0.5,0.9c-0.3,0.2-0.7,0.4-1.1,0.6
					c-0.4,0.2-0.9,0.3-1.4,0.4c-0.6,0.1-1.3,0.2-1.9,0.2c-0.6,0-1.3-0.1-1.9-0.3c-0.6-0.2-1.2-0.4-1.7-0.7s-1-0.7-1.5-1.1l-1,0.2
					c0.5,0.6,1.1,1,1.7,1.4c0.7,0.4,1.3,0.7,2.1,0.9c0.7,0.2,1.5,0.3,2.3,0.3s1.6-0.1,2.4-0.2c0.6-0.1,1.2-0.3,1.7-0.5
					s1-0.5,1.4-0.8c0.3-0.3,0.5-0.7,0.6-1.1c0-0.4-0.2-0.9-0.6-1.4c-0.4-0.5-0.9-0.9-1.5-1.2c-0.5-0.3-1.1-0.5-1.7-0.6
					c-0.6-0.1-1.3-0.2-2-0.2s-1.4,0-2.2,0.1c-0.6,0-1.3,0.1-1.9,0.1c-0.6,0-1.2,0-1.8-0.1s-1.1-0.2-1.5-0.4
					c-0.5-0.2-0.9-0.5-1.2-0.9c-0.3-0.3-0.4-0.7-0.4-0.9c0-0.3,0.2-0.5,0.4-0.8s0.6-0.4,1-0.6c0.4-0.2,0.8-0.3,1.3-0.4
					c0.6-0.1,1.1-0.2,1.7-0.2s1.1,0.1,1.6,0.2s1,0.3,1.5,0.6s0.9,0.6,1.3,1.1l1-0.2c-0.5-0.6-1-1-1.6-1.3s-1.2-0.6-1.9-0.7
					s-1.3-0.2-2-0.2C817.4,164.1,816.7,164.1,816,164.3"/>
				<path fill="#FFFFFF" d="M811,165.5c-0.6,0.1-1.1,0.3-1.6,0.5s-0.8,0.5-1.1,0.8s-0.5,0.6-0.5,0.9c-0.1,0.3-0.1,0.7,0.1,1h-0.1
					l-1.8-2.2l-1,0.2l8.2,9.8l1-0.2l-4.5-5.4c-0.3-0.4-0.5-0.7-0.7-1s-0.3-0.5-0.3-0.8s-0.1-0.5,0-0.7c0-0.2,0.1-0.4,0.2-0.7
					c0.1-0.2,0.3-0.4,0.4-0.6c0.2-0.2,0.4-0.3,0.6-0.5c0.2-0.1,0.5-0.2,0.7-0.3s0.5-0.2,0.7-0.2h0.1h0.1h0.1h0.1l-0.6-0.7
					C811.1,165.4,811.1,165.4,811,165.5C810.9,165.4,811,165.4,811,165.5C810.8,165.4,811.1,165.5,811,165.5L811,165.5"/>
				<path fill="#FFFFFF" d="M804.4,177.9c-0.6,0.1-1.2,0.2-1.7,0.2s-1-0.1-1.5-0.2c-0.5-0.1-0.9-0.3-1.3-0.5
					c-0.4-0.2-0.7-0.5-0.9-0.8c-0.3-0.4-0.5-0.7-0.5-1c-0.1-0.3,0-0.6,0.2-0.8s0.5-0.5,0.8-0.7s0.9-0.4,1.4-0.6
					c0.5-0.1,0.9-0.3,1.4-0.4c0.5-0.1,0.9-0.3,1.3-0.4s0.8-0.3,1-0.4c0.3-0.2,0.5-0.3,0.5-0.5l1.5,1.8c0.1,0.1,0.3,0.4,0.5,0.8
					s0.3,0.8,0.3,1.3s-0.2,0.9-0.7,1.4C806.4,177.3,805.6,177.7,804.4,177.9 M797.8,168c-0.8,0.2-1.5,0.4-2,0.6s-0.9,0.6-1.1,0.9
					s-0.3,0.8-0.2,1.2s0.3,1,0.8,1.5l1-0.2c-0.3-0.4-0.5-0.8-0.6-1.2s0-0.7,0.2-1s0.5-0.6,0.9-0.8s0.9-0.4,1.5-0.5
					c0.8-0.2,1.5-0.2,2.1-0.1c0.6,0,1.2,0.2,1.6,0.3c0.5,0.1,0.8,0.3,1.1,0.5s0.5,0.3,0.6,0.4c0.3,0.4,0.6,0.7,0.7,1
					c0.1,0.3,0.1,0.5-0.1,0.7c-0.2,0.2-0.6,0.4-1.2,0.6c-0.6,0.2-1.4,0.4-2.5,0.7c-0.5,0.1-1.1,0.3-1.6,0.6s-0.9,0.5-1.3,0.8
					s-0.5,0.7-0.5,1.1c0,0.4,0.2,0.9,0.7,1.5c0.4,0.5,0.9,0.9,1.4,1.2s1.1,0.5,1.7,0.7c0.6,0.1,1.2,0.2,1.9,0.2c0.6,0,1.3-0.1,2-0.2
					c0.7-0.1,1.2-0.3,1.7-0.6s0.8-0.5,1.1-0.8s0.5-0.6,0.5-0.9c0.1-0.3,0.1-0.6,0-1l0,0l1.6,1.9l1-0.2l-6.2-7.4
					c-0.4-0.5-0.9-0.9-1.5-1.2c-0.5-0.3-1.1-0.5-1.7-0.6c-0.6-0.1-1.3-0.1-1.9-0.1C799,167.8,798.4,167.9,797.8,168"/>
				<path fill="#FFFFFF" d="M783.7,176.3c-0.3-0.5-0.6-1-0.7-1.5c-0.1-0.5-0.2-1,0-1.5c0.1-0.5,0.4-0.9,0.8-1.2
					c0.4-0.3,1-0.6,1.8-0.8s1.6-0.2,2.4-0.1c0.8,0.1,1.6,0.3,2.3,0.6s1.4,0.6,2,1.1s1.2,0.9,1.6,1.4L783.7,176.3 M785,170.6
					c-1,0.2-1.8,0.6-2.4,1s-0.8,1-1,1.6c-0.1,0.6,0,1.3,0.3,1.9c0.3,0.7,0.7,1.4,1.3,2.1c0.5,0.7,1.2,1.3,2,1.9
					c0.8,0.6,1.6,1,2.5,1.4s1.8,0.6,2.8,0.7c1,0.1,2,0.1,3-0.2c0.8-0.2,1.5-0.4,2.1-0.7c0.5-0.3,1-0.6,1.2-1.1s0.4-0.9,0.3-1.4
					c0-0.5-0.2-1.1-0.6-1.7l-1,0.2c0.3,0.5,0.4,0.9,0.4,1.4s-0.1,0.8-0.3,1.1s-0.5,0.6-1,0.9s-1,0.4-1.7,0.6
					c-0.9,0.2-1.7,0.2-2.6,0.1c-0.8-0.1-1.7-0.3-2.4-0.6c-0.8-0.3-1.5-0.7-2.1-1.2s-1.2-1-1.7-1.6l11.2-2.3
					c-0.5-0.7-1.2-1.4-1.9-1.9s-1.6-1.1-2.5-1.4c-0.9-0.4-1.9-0.6-2.9-0.7S786.1,170.4,785,170.6"/>
				<path fill="#FFFFFF" d="M772.5,173.2c-0.6,0.1-1.2,0.3-1.7,0.5s-1,0.4-1.3,0.7s-0.5,0.6-0.6,1c0,0.4,0.1,0.8,0.5,1.3
					s0.9,0.9,1.4,1.2s1.1,0.5,1.7,0.6s1.3,0.1,1.9,0.2c0.7,0,1.3,0,2-0.1c0.7,0,1.3-0.1,2-0.1c0.6,0,1.3,0,1.8,0.1
					c0.6,0.1,1.1,0.2,1.6,0.4s0.9,0.5,1.2,0.9s0.5,0.8,0.4,1.1c0,0.3-0.3,0.6-0.6,0.9s-0.7,0.4-1.2,0.6s-0.9,0.3-1.4,0.4
					c-0.6,0.1-1.3,0.2-1.9,0.2c-0.7,0-1.3-0.1-1.9-0.3c-0.6-0.2-1.2-0.4-1.7-0.7s-1-0.7-1.4-1.1l-1,0.2c0.5,0.6,1.1,1.1,1.7,1.4
					c0.6,0.4,1.3,0.7,2.1,0.9s1.5,0.3,2.3,0.3s1.6-0.1,2.4-0.2c0.6-0.1,1.2-0.3,1.8-0.5s1-0.5,1.4-0.8s0.6-0.7,0.6-1.1
					c0-0.4-0.1-0.9-0.6-1.4c-0.4-0.5-0.9-0.9-1.4-1.2s-1.1-0.5-1.7-0.6c-0.6-0.1-1.3-0.2-2-0.2s-1.4,0-2.2,0.1
					c-0.6,0-1.3,0.1-1.9,0.1s-1.2,0-1.8-0.1s-1.1-0.2-1.5-0.4c-0.5-0.2-0.9-0.5-1.2-0.9s-0.4-0.7-0.4-1s0.2-0.6,0.5-0.8
					s0.6-0.4,1-0.6c0.4-0.2,0.9-0.3,1.3-0.4c0.6-0.1,1.2-0.2,1.7-0.2s1.1,0.1,1.7,0.2c0.5,0.1,1,0.3,1.5,0.6s0.9,0.6,1.3,1.1l1-0.2
					c-0.5-0.6-1-1-1.6-1.4s-1.2-0.6-1.9-0.8s-1.4-0.2-2.1-0.2C774,172.9,773.2,173,772.5,173.2"/>
				<g>
					<g>
						<g>
							<g>
								<g>
									<g>
										<defs>
											<polyline id="SVGID_1_" points="480.2,197.4 486.9,208.8 538.4,198.6 534.9,186.7 480.2,197.4 											"/>
										</defs>
										<clipPath id="SVGID_2_">
											<use xlink:href="#SVGID_1_"  overflow="visible"/>
										</clipPath>
										<path clip-path="url(#SVGID_2_)" fill="#FFFFFF" d="M489.8,203.7c-0.3,0.1-0.7,0.1-1,0c-0.3,0-0.7-0.1-1-0.3
											s-0.6-0.3-0.9-0.5s-0.5-0.5-0.7-0.8l0,0c-0.2-0.3-0.3-0.6-0.3-0.9c0-0.3,0-0.5,0.1-0.7s0.3-0.4,0.5-0.6
											c0.2-0.2,0.5-0.3,0.9-0.3c0.4-0.1,0.7-0.1,1.1,0c0.4,0,0.7,0.1,1,0.3s0.6,0.3,0.9,0.6c0.3,0.2,0.5,0.5,0.7,0.8l0,0
											c0.2,0.3,0.3,0.6,0.3,0.9c0,0.3,0,0.5-0.1,0.7s-0.3,0.4-0.5,0.6C490.4,203.5,490.1,203.6,489.8,203.7 M487.3,197.7
											c-0.4,0.1-0.8,0.2-1.1,0.3c-0.3,0.1-0.6,0.2-0.9,0.4s-0.5,0.3-0.6,0.4s-0.3,0.4-0.4,0.6l-0.5-0.8l-2.7,0.5l5.6,9.7l0,0
											c0,0,0,0,0.1,0c0,0,0,0,0.1,0h0.1c0.2,0,0.4-0.1,0.7-0.2s0.5-0.2,0.8-0.3c0.2-0.1,0.4-0.3,0.5-0.5s0.1-0.5-0.1-0.8l-1-1.8
											c0.2,0.1,0.5,0.1,0.7,0.2s0.5,0.1,0.7,0.1s0.5,0,0.8,0s0.7-0.1,1.1-0.1c0.8-0.2,1.5-0.4,2-0.8c0.5-0.3,0.8-0.7,1-1.2
											c0.2-0.4,0.2-0.9,0.2-1.4c-0.1-0.5-0.3-0.9-0.5-1.4c-0.3-0.4-0.6-0.9-1.1-1.3c-0.5-0.4-1-0.7-1.6-1s-1.2-0.5-1.9-0.6
											C488.7,197.6,488,197.6,487.3,197.7 M497.6,198.7c-0.1-0.2-0.1-0.3,0-0.5s0.1-0.3,0.3-0.5c0.1-0.1,0.3-0.3,0.5-0.4
											c0.2-0.1,0.4-0.2,0.7-0.2c0.3-0.1,0.5-0.1,0.8-0.1s0.5,0.1,0.7,0.1c0.2,0.1,0.4,0.2,0.6,0.3s0.3,0.3,0.4,0.4L497.6,198.7
											 M498.1,195.6c-0.8,0.1-1.4,0.4-2,0.7c-0.5,0.3-0.9,0.7-1.2,1.1c-0.3,0.4-0.4,0.9-0.4,1.4s0.2,1,0.5,1.5l0,0
											c0.3,0.6,0.8,1,1.3,1.4s1.2,0.7,1.9,0.9c0.7,0.2,1.5,0.4,2.2,0.4c0.8,0,1.6,0,2.4-0.2c0.5-0.1,0.9-0.2,1.2-0.3
											s0.7-0.3,1-0.5s0.6-0.4,0.8-0.6s0.5-0.4,0.6-0.7l-2.1-1.1c-0.1,0.2-0.3,0.3-0.5,0.5s-0.4,0.3-0.6,0.4
											c-0.2,0.1-0.5,0.3-0.7,0.3c-0.3,0.1-0.5,0.2-0.8,0.2c-0.3,0.1-0.7,0.1-1,0.1s-0.7-0.1-1-0.2c-0.3-0.1-0.6-0.2-0.9-0.4
											s-0.5-0.4-0.7-0.6l4.4-0.9c0.1,0,0.4-0.1,0.6-0.2c0.3-0.1,0.5-0.2,0.8-0.3c0.2-0.1,0.4-0.3,0.5-0.5s0.1-0.4,0-0.7
											c-0.2-0.3-0.4-0.6-0.8-0.9c-0.4-0.3-0.8-0.6-1.4-0.8c-0.5-0.2-1.2-0.4-1.9-0.5C499.8,195.4,499,195.4,498.1,195.6
											 M516.7,192c-0.8,0.2-1.5,0.4-2,0.7c-0.6,0.3-1,0.7-1.3,1.1c-0.3,0.4-0.4,0.9-0.4,1.4s0.2,1,0.5,1.5l0,0
											c0.3,0.5,0.8,1,1.3,1.4s1.2,0.7,1.9,0.9s1.5,0.4,2.2,0.4c0.8,0.1,1.6,0,2.4-0.1c0.5-0.1,1-0.2,1.4-0.4s0.8-0.3,1.1-0.5
											s0.6-0.4,0.8-0.6c0.2-0.2,0.4-0.5,0.5-0.7l-2.3-1c-0.1,0.2-0.3,0.4-0.4,0.5s-0.4,0.3-0.6,0.4c-0.2,0.1-0.5,0.2-0.7,0.3
											c-0.3,0.1-0.5,0.2-0.8,0.2c-0.4,0.1-0.8,0.1-1.2,0.1s-0.8-0.1-1.1-0.3c-0.3-0.1-0.7-0.3-0.9-0.5c-0.3-0.2-0.5-0.4-0.7-0.7
											l0,0c-0.2-0.3-0.3-0.5-0.3-0.8s0-0.5,0.1-0.7s0.3-0.4,0.5-0.6c0.3-0.2,0.6-0.3,0.9-0.4c0.4-0.1,0.8-0.1,1.1-0.1
											s0.6,0,0.8,0.1s0.5,0.1,0.7,0.2s0.4,0.2,0.5,0.2c0,0,0,0,0.1,0c0,0,0.1,0,0.2-0.1c0.1,0,0.2-0.1,0.2-0.1s0.2-0.1,0.3-0.2
											c0.2-0.2,0.2-0.4,0.2-0.6s-0.2-0.4-0.4-0.5s-0.5-0.3-0.8-0.4c-0.3-0.1-0.7-0.2-1.1-0.2c-0.2,0-0.4,0-0.6,0
											c-0.2,0-0.4,0-0.7,0s-0.5,0-0.7,0.1C517.2,191.9,517,191.9,516.7,192 M530.9,195.5c-0.4,0.1-0.8,0.1-1.2,0.1
											s-0.8-0.1-1.1-0.3c-0.3-0.1-0.7-0.3-1-0.5s-0.5-0.4-0.7-0.7l0,0c-0.2-0.3-0.3-0.5-0.3-0.8s0-0.5,0.2-0.7
											c0.1-0.2,0.3-0.4,0.6-0.6c0.3-0.2,0.6-0.3,1.1-0.4c0.4-0.1,0.8-0.1,1.2-0.1s0.8,0.1,1.1,0.3c0.3,0.1,0.7,0.3,1,0.5
											s0.5,0.4,0.7,0.7l0,0c0.2,0.3,0.3,0.5,0.3,0.8s0,0.5-0.2,0.7s-0.3,0.4-0.6,0.6C531.6,195.3,531.3,195.4,530.9,195.5
											 M527.4,189.9c-0.8,0.2-1.5,0.4-2.1,0.7s-1,0.7-1.3,1.1c-0.3,0.4-0.5,0.9-0.5,1.4s0.1,1,0.5,1.5l0,0
											c0.3,0.5,0.8,1,1.3,1.3c0.5,0.4,1.2,0.7,1.9,0.9s1.5,0.4,2.3,0.4c0.8,0.1,1.6,0,2.5-0.2s1.5-0.4,2.1-0.7s1-0.7,1.3-1.1
											s0.5-0.9,0.5-1.4s-0.1-1-0.5-1.5l0,0c-0.3-0.5-0.8-0.9-1.3-1.3c-0.5-0.4-1.2-0.7-1.9-0.9s-1.5-0.4-2.3-0.4
											C529,189.7,528.2,189.8,527.4,189.9 M507,192.3l-3,0.6l1,1.6l-1.3,0.3l1,1.7l1.3-0.3l1.7,2.8c0.3,0.5,0.7,0.9,1.1,1.2
											s0.9,0.5,1.5,0.6c0.5,0.1,1.1,0.2,1.6,0.2s1.1-0.1,1.6-0.1c0,0,0,0,0.1,0s0,0,0.1,0s0,0,0.1,0c0,0,0,0,0.1,0
											s0.2,0,0.3-0.1c0.1,0,0.2,0,0.2-0.1s0.2-0.1,0.2-0.1s0.2-0.1,0.3-0.1l-1-1.7c-0.1,0-0.1,0-0.2,0.1s-0.1,0-0.2,0
											s-0.1,0-0.2,0c0,0-0.1,0-0.2,0H513h-0.1h-0.1h-0.1c-0.2,0-0.4,0.1-0.6,0c-0.2,0-0.4-0.1-0.6-0.1c-0.2-0.1-0.3-0.2-0.5-0.3
											c-0.1-0.1-0.2-0.2-0.3-0.3l-1.6-2.7l2.3-0.4l-1-1.7l-2.3,0.4L507,192.3"/>
									</g>
								</g>
							</g>
						</g>
						<path fill="#231F20" d="M544.9,190.5l-0.4,0.1c0,0,0,0,0,0.1s0,0,0.1,0s0.1,0,0.1,0h0.1c0,0,0,0,0.1,0s0,0,0,0L544.9,190.5
							L544.9,190.5 M544.5,189.4l-1,0.2c0,0,0,0.1,0.1,0.1l0.1,0.1c0,0,0.1,0,0.2,0.1c0,0,0.1,0,0.2,0l0.1,0.1v0.1v0.1
							c0,0,0,0.1-0.1,0.1s-0.1,0-0.1,0.1c0,0-0.1,0-0.2,0s-0.1,0-0.2,0s-0.1,0-0.1-0.1l-0.1-0.1l-0.4,0.1c0,0.1,0.1,0.1,0.2,0.2
							c0.1,0.1,0.2,0.1,0.3,0.1s0.2,0.1,0.3,0.1s0.2,0,0.3,0c0,0,0.1,0,0.2,0c0,0,0.1,0,0.1-0.1l0.1-0.1c0,0,0-0.1,0.1-0.1
							c0,0,0.1,0,0.2,0.1s0.1,0,0.2,0s0.1,0,0.2,0s0.1,0,0.2,0c0.1,0,0.2-0.1,0.3-0.1s0.1-0.1,0.2-0.1s0.1-0.1,0.1-0.2
							s0-0.1-0.1-0.2l-0.4,0.1v0.1v0.1c0,0,0,0.1-0.1,0.1c0,0-0.1,0-0.1,0.1c0,0-0.1,0-0.2,0s-0.1,0-0.2,0c0,0-0.1,0-0.1-0.1
							l-0.1-0.1l-0.1-0.1l0.1-0.1c0,0,0-0.1,0.1-0.1s0-0.1,0-0.1C544.6,189.4,544.6,189.4,544.5,189.4 M542.4,188.9
							c-0.1,0-0.1,0-0.2,0.1s-0.1,0.1-0.1,0.1v0.1v0.1l0.1,0.1c0,0,0.1,0.1,0.2,0.1c0.1,0,0.1,0,0.2,0s0.1,0,0.2,0s0.1,0,0.2-0.1
							s0.1-0.1,0.1-0.1v-0.1v-0.1L543,189c0,0-0.1-0.1-0.2-0.1c-0.1,0-0.1,0-0.2,0S542.5,188.9,542.4,188.9 M544.7,188.5
							c-0.1,0-0.1,0-0.2,0.1l-0.1,0.1v0.1v0.1l0.1,0.1c0,0,0.1,0.1,0.2,0.1s0.1,0,0.2,0s0.1,0,0.2,0s0.1,0,0.2-0.1l0.1-0.1v-0.1
							v-0.1l-0.1-0.1c0,0-0.1-0.1-0.2-0.1c-0.1,0-0.1,0-0.2,0S544.8,188.5,544.7,188.5 M548,187.9c-0.1,0-0.1,0-0.2,0.1l-0.1,0.1
							v0.1v0.1l0.1,0.1c0,0,0.1,0.1,0.2,0.1c0.1,0,0.1,0,0.2,0c0.1,0,0.1,0,0.2,0s0.1,0,0.2-0.1l0.1-0.1v-0.1v-0.1l-0.1-0.1
							c0,0-0.1-0.1-0.2-0.1c-0.1,0-0.1,0-0.2,0C548.1,187.8,548,187.9,548,187.9 M550.3,187.4c-0.1,0-0.1,0-0.2,0.1l-0.1,0.1v0.1
							v0.1l0.1,0.1c0,0,0.1,0.1,0.2,0.1c0.1,0,0.1,0,0.2,0c0.1,0,0.1,0,0.2,0s0.1,0,0.2-0.1l0.1-0.1v-0.1v-0.1l-0.1-0.1
							c0,0-0.1-0.1-0.2-0.1s-0.1,0-0.2,0S550.3,187.4,550.3,187.4 M561.9,193.1c-0.1,0-0.2,0-0.4,0.1c-0.1,0-0.3,0-0.4,0
							c-0.1,0-0.3,0-0.4,0s-0.2,0-0.3-0.1l-0.3-0.6c0.2,0,0.3,0.1,0.5,0.1s0.3,0,0.4,0s0.3,0,0.4,0s0.3,0,0.4-0.1l0,0l0,0l0,0l0,0
							c0.1,0,0.2-0.1,0.3-0.1s0.2-0.1,0.2-0.1s0.1-0.1,0.2-0.1s0.1-0.1,0.2-0.1c0,0,0,0,0.1,0c0,0,0,0,0.1,0s0,0,0.1,0
							s0.1,0,0.1,0.1c0.1,0.1,0.1,0.1,0.1,0.2c0,0.1,0,0.1-0.1,0.2c-0.1,0.1-0.1,0.1-0.2,0.2s-0.2,0.1-0.2,0.1s-0.1,0.1-0.2,0.1
							s-0.1,0.1-0.2,0.1c-0.1,0-0.1,0.1-0.2,0.1C562,193.1,561.9,193.1,561.9,193.1 M540.6,197.3L540.6,197.3c-0.1,0-0.2,0-0.3,0
							s-0.2,0-0.3,0s-0.2,0-0.3-0.1s-0.3-0.1-0.4-0.2s-0.2-0.1-0.3-0.2s-0.1-0.1-0.2-0.1s0-0.1,0-0.1l-0.3-0.6v-0.1v-0.1
							c0,0,0-0.1,0.1-0.1c0,0,0.1,0,0.1-0.1c0,0,0.1,0,0.2,0c0,0,0.1,0,0.2,0c0,0,0.1,0,0.1,0.1l0.1,0.1l0.3,0.5l0,0c0,0,0,0,0,0.1
							c0,0,0,0.1,0.1,0.1s0.1,0.1,0.1,0.1s0.1,0,0.1,0.1c0,0,0.1,0,0.2,0h0.1h0.1l0,0l0,0l0,0l0,0l2.4-0.5c0,0,0.1,0,0.2,0
							c0,0,0.1,0,0.2,0c0,0,0.1,0,0.1,0.1s0.1,0.1,0.1,0.1v0.1v0.1c0,0,0,0.1-0.1,0.1c0,0-0.1,0-0.1,0.1L540.6,197.3L540.6,197.3
							L540.6,197.3L540.6,197.3L540.6,197.3 M556.2,194.1c0,0-0.1,0-0.2,0s-0.1,0-0.2,0s-0.1,0-0.1-0.1s-0.1-0.1-0.1-0.1v-0.1v-0.1
							c0,0,0-0.1,0.1-0.1s0.1,0,0.1-0.1l1.4-0.3c0.1,0,0.1,0,0.2-0.1l0.1-0.1v-0.1v-0.1l-1-1.6c0-0.1-0.1-0.2-0.1-0.2s0-0.1,0.1-0.2
							c0-0.1,0.1-0.1,0.2-0.2c0.1-0.1,0.2-0.1,0.3-0.1s0.2,0,0.4,0s0.2,0,0.3,0.1c0.1,0,0.2,0.1,0.3,0.1c0.1,0.1,0.2,0.1,0.2,0.2
							l1.3,2.1v0.1v0.1c0,0,0,0.1-0.1,0.1c0,0-0.1,0.1-0.2,0.1L556.2,194.1 M552.9,190.6c0.1,0,0.2-0.1,0.3-0.1s0.2-0.1,0.3-0.1
							c0.1-0.1,0.2-0.1,0.2-0.2s0.1-0.1,0.2-0.2c0.1,0.1,0.2,0.1,0.3,0.2c0.1,0.1,0.3,0.1,0.4,0.2s0.3,0.1,0.4,0.1s0.3,0.1,0.4,0.1
							v0.1v0.1v0.1v0.1c0,0.1,0.1,0.3,0.2,0.5c0.1,0.2,0.2,0.4,0.3,0.6c0.1,0.2,0.2,0.3,0.3,0.5c0.1,0.1,0.1,0.2,0.1,0.3
							c0,0,0,0.1-0.1,0.1c0,0-0.1,0.1-0.2,0.1s-0.1,0-0.2,0.1c-0.1,0-0.1,0-0.2,0s-0.1,0-0.2,0s-0.1,0-0.2,0s-0.1,0-0.1,0l0,0
							l-0.8-1.2l-0.1-0.1c0,0-0.1-0.1-0.2-0.1c0,0-0.1,0-0.2,0s-0.1,0-0.2,0s-0.1,0-0.2,0.1s-0.1,0.1-0.1,0.1v0.1v0.1l1.2,1.9
							c0,0.1,0.1,0.1,0.1,0.2s0,0.1,0,0.2c0,0.1-0.1,0.1-0.1,0.1c-0.1,0-0.1,0.1-0.2,0.1c-0.1,0-0.2,0-0.3,0s-0.2,0-0.3-0.1
							s-0.2-0.1-0.2-0.1c-0.1-0.1-0.1-0.1-0.2-0.2l-1.2-1.9l-0.1-0.1c0,0-0.1-0.1-0.2-0.1s-0.1,0-0.2,0s-0.1,0-0.2,0s-0.1,0-0.2,0.1
							l-0.1,0.1v0.1v0.1l1.2,1.9c0,0.1,0.1,0.1,0.1,0.2s0,0.1,0,0.2c0,0.1-0.1,0.1-0.2,0.1c-0.1,0-0.1,0.1-0.2,0.1
							c-0.1,0-0.2,0-0.3,0s-0.2,0-0.3-0.1s-0.2-0.1-0.2-0.1c-0.1-0.1-0.1-0.1-0.2-0.2l0,0l-1-1.6c0-0.1,0-0.3,0-0.4
							c0-0.1,0-0.3,0-0.5c0-0.1,0-0.3-0.1-0.4c-0.1-0.1-0.2-0.3-0.4-0.4h0.1h0.1c0,0,0.1,0,0.1-0.1c0,0,0.1,0,0.1-0.1
							c0.1,0.1,0.2,0.1,0.3,0.1s0.2,0.1,0.4,0.1c0.1,0,0.3,0,0.4,0s0.3,0,0.4,0c0,0,0,0,0.1,0s0,0,0.1,0s0,0,0.1,0c0,0,0,0,0.1,0
							s0.2-0.1,0.2-0.1s0.1-0.1,0.2-0.1s0.1-0.1,0.2-0.2s0.1-0.1,0.1-0.2h0.1h0.1C552.7,190.8,552.8,190.6,552.9,190.6L552.9,190.6
							 M550.2,190.8c0.1,0,0.2-0.1,0.3-0.1s0.2-0.1,0.2-0.1l0.1-0.1v-0.1c0,0,0,0,0.1,0s0.1,0,0.2,0.1s0.2,0,0.3,0s0.2,0,0.3,0l0,0
							l0,0l0,0l0,0c0,0.1-0.1,0.1-0.1,0.1c-0.1,0-0.1,0.1-0.2,0.1s-0.1,0.1-0.2,0.1s-0.1,0-0.2,0l0,0c-0.1,0-0.1,0-0.2,0
							s-0.2,0-0.2,0C550.5,190.8,550.4,190.8,550.2,190.8C550.2,190.8,550.3,190.8,550.2,190.8L550.2,190.8L550.2,190.8L550.2,190.8
							L550.2,190.8 M544,188.3c0-0.1,0-0.1,0-0.2s0-0.2,0-0.3s0.1-0.2,0.1-0.3s0.2-0.2,0.3-0.3c0.3,0.1,0.6,0.2,0.8,0.3
							c0.3,0.1,0.5,0.3,0.7,0.4c0.2,0.1,0.4,0.3,0.5,0.5c0.2,0.2,0.3,0.4,0.3,0.6l-0.9,0.2h-0.1l0,0c0,0,0,0,0,0.1s0,0,0,0.1
							s0,0,0,0.1s0,0,0.1,0s0.1,0,0.1,0h0.1l0.8-0.2v0.1v0.1v0.1v0.1l-0.6,0.1h-0.1l0,0c0,0,0,0,0,0.1s0,0,0,0.1s0,0,0,0.1
							c0,0,0,0,0.1,0s0.1,0,0.1,0h0.1l0.2-0.1v0.1v0.1v0.1v0.1c0,0.1,0.1,0.3,0.2,0.4c0.1,0.1,0.2,0.2,0.3,0.3
							c0.2,0.1,0.3,0.2,0.5,0.2c0.2,0.1,0.5,0.1,0.8,0.2c0.1,0,0.1,0,0.2,0.1s0.1,0.1,0.2,0.2c0.1,0.1,0.1,0.1,0.2,0.2
							s0.1,0.1,0.1,0.2c0,0.1,0,0.2,0,0.3s0,0.2,0,0.2c0,0.1,0,0.1,0,0.2c0,0.1,0,0.2,0.1,0.3l0.1,0.1l1.1,1.8v0.1v0.1l-0.1,0.1
							c0,0-0.1,0-0.2,0.1c-0.1,0-0.1,0-0.2,0s-0.1,0-0.2,0c-0.1,0-0.1,0-0.2-0.1l-0.1-0.1l-1.2-2l-0.1-0.1c0,0-0.1-0.1-0.2-0.1
							c-0.1,0-0.1,0-0.2,0c-0.1,0-0.1,0-0.2,0s-0.1,0-0.2,0.1l-0.1,0.1v0.1v0.1l1.3,2v0.1v0.1l-0.1,0.1c0,0-0.1,0-0.2,0.1
							c-0.1,0-0.1,0-0.2,0s-0.1,0-0.2,0c-0.1,0-0.1,0-0.2-0.1l-0.1-0.1l-1.3-2l-0.1-0.1c0,0-0.1-0.1-0.2-0.1s-0.1,0-0.2,0
							c-0.1,0-0.1,0-0.2,0s-0.1,0-0.2,0.1l-0.1,0.1v0.1v0.1l0.8,1.2c0,0-0.1,0-0.2,0c0,0-0.1,0-0.2,0c0,0-0.1,0-0.2,0
							c0,0-0.1,0-0.2,0l0,0l0,0l0,0l0,0l0,0l0,0l0,0l0,0c-0.1-0.1-0.2-0.2-0.3-0.4c-0.1-0.1-0.2-0.3-0.3-0.4
							c-0.1-0.1-0.2-0.2-0.4-0.3s-0.3-0.1-0.5-0.1c0,0-0.1,0-0.2,0c-0.1,0-0.1,0-0.2,0s-0.1,0-0.2,0H543c0,0-0.1,0-0.1,0.1l-0.1,0.1
							v0.1v0.1l0.1,0.1l0.1,0.1c0,0,0.1,0,0.2,0c0.1,0,0.1,0,0.2,0l0,0c0,0,0,0,0.1,0s0.1,0,0.1,0s0.1,0,0.1,0.1
							c0.1,0,0.1,0.1,0.2,0.2c0.1,0.1,0.2,0.2,0.2,0.3s0.1,0.2,0.2,0.3c0,0.1,0.1,0.1,0.1,0.1l0.1,0.1c0,0,0.1,0.1,0.2,0.1
							s0.1,0,0.2,0c0.1,0,0.1,0,0.2,0l0.9-0.2c0.1,0,0.1,0,0.2,0s0.1,0,0.2,0c0.1,0,0.1,0,0.2,0.1l0.1,0.1v0.1v0.1l-0.1,0.1
							c0,0-0.1,0.1-0.2,0.1l-2.3,0.5c-0.1,0-0.1,0-0.2,0c-0.1,0-0.1,0-0.2,0s-0.1-0.1-0.2-0.1l-0.1-0.1l-0.1-0.2
							c-0.1-0.3-0.3-0.6-0.5-0.8s-0.4-0.6-0.6-0.9c-0.2-0.3-0.3-0.6-0.2-0.8c0-0.3,0.2-0.5,0.6-0.7c0.1-0.1,0.3-0.1,0.4-0.2
							s0.3-0.1,0.4-0.2s0.2-0.2,0.3-0.3s0.1-0.2,0.1-0.3s0-0.2-0.1-0.2c0-0.1-0.1-0.1-0.2-0.2c-0.1-0.1-0.2-0.1-0.3-0.2
							c-0.1-0.1-0.2-0.1-0.3-0.1s-0.2-0.1-0.3-0.1s-0.2,0-0.3-0.1c-0.1,0-0.2-0.1-0.3-0.1s-0.2-0.1-0.3-0.1l0,0l0.3-0.1l0,0
							c0,0,0,0,0-0.1s0,0,0-0.1s0,0,0-0.1s0,0,0-0.1c0,0,0,0-0.1,0s-0.1,0-0.1,0h-0.1l-0.6,0.1H541c0,0-0.1,0-0.1-0.1
							s-0.1,0-0.1-0.1s0-0.1-0.1-0.1l0.8-0.1c0,0,0,0,0.1,0l0,0c0,0,0,0,0-0.1s0,0,0-0.1c0,0,0,0,0-0.1s0,0-0.1,0s-0.1,0-0.1,0h-0.1
							l-0.9,0.2c-0.2-0.2-0.3-0.4-0.4-0.6c-0.1-0.2-0.1-0.4-0.2-0.6c0-0.2,0-0.4,0.1-0.6c0.1-0.2,0.2-0.4,0.3-0.5
							c0.2,0,0.3,0.1,0.5,0.1s0.3,0.1,0.5,0.2c0.2,0.1,0.3,0.1,0.4,0.2c0.1,0.1,0.2,0.2,0.3,0.3c0,0,0.1-0.1,0.2-0.1
							c0.1,0,0.1-0.1,0.2-0.1s0.1,0,0.2-0.1c0.1,0,0.1,0,0.2,0c0,0,0.1,0,0.2,0c0,0,0.1,0,0.2,0c0,0,0.1,0,0.2,0
							S544,188.3,544,188.3 M549.8,185.5c0.1-0.2,0.1-0.4,0.3-0.5s0.3-0.3,0.4-0.4s0.4-0.2,0.6-0.3c0.2-0.1,0.5-0.2,0.7-0.2h0.1h0.1
							h0.1h0.1c0.1,0,0.2,0,0.3,0s0.2,0,0.3,0s0.2,0,0.3,0.1s0.2,0.1,0.3,0.1c0.1,0.1,0.2,0.1,0.3,0.2s0.2,0.1,0.3,0.2
							c0.1,0.1,0.1,0.2,0.2,0.3c0,0.1,0.1,0.2,0.1,0.3v0.5l-0.6,0.1c-0.1-0.1-0.3-0.2-0.4-0.3c-0.2-0.1-0.3-0.2-0.5-0.2
							c-0.2-0.1-0.4-0.1-0.5-0.2s-0.4-0.1-0.6-0.1c-0.3,0.2-0.5,0.4-0.6,0.6s-0.2,0.5-0.3,0.7s0,0.5,0.1,0.8s0.2,0.5,0.4,0.8
							c0.1,0.1,0.2,0.2,0.3,0.3s0.2,0.2,0.4,0.3s0.3,0.1,0.4,0.2c0.2,0.1,0.3,0.1,0.5,0.2c0.1,0,0.1,0.1,0.2,0.1s0.1,0.1,0.1,0.1
							c0,0.1,0.1,0.1,0.1,0.1v0.1c0,0.1,0,0.1,0,0.1s0,0.1-0.1,0.1s-0.1,0.1-0.1,0.1s-0.1,0.1-0.2,0.1h-0.1h-0.1h-0.1h-0.1
							c-0.1,0-0.2,0-0.2,0c-0.1,0-0.2,0-0.3,0s-0.2,0-0.3,0s-0.2,0-0.2-0.1c-0.1,0-0.3-0.1-0.4-0.1c-0.1-0.1-0.2-0.1-0.3-0.2
							c-0.1-0.1-0.2-0.1-0.2-0.2c-0.1-0.1-0.1-0.2-0.1-0.3l0,0l0.4-0.1c0.1,0,0.1,0,0.2-0.1s0.1-0.1,0.1-0.1v-0.1v-0.1l-0.1-0.1
							c0,0-0.1-0.1-0.2-0.1c-0.1,0-0.1,0-0.2,0s-0.1,0-0.2,0l-1.6,0.3c-0.1,0-0.1,0-0.2,0.1l-0.1,0.1v0.1v0.1l0.1,0.1
							c0,0,0.1,0.1,0.2,0.1s0.1,0,0.2,0s0.1,0,0.2,0l0.4-0.1c0.1,0.1,0.1,0.2,0.2,0.3c0,0.1,0.1,0.2,0.1,0.3s0,0.2,0,0.3
							s0,0.2-0.1,0.2l-0.1,0.1c0,0-0.1,0.1-0.2,0.1s-0.1,0.1-0.2,0.1s-0.1,0-0.2,0.1c0,0-0.1,0-0.2,0s-0.1,0-0.2,0c0,0-0.1,0-0.2,0
							s-0.1,0-0.2,0c-0.1,0-0.2,0-0.2,0s-0.1-0.1-0.2-0.1s-0.1-0.1-0.2-0.1c-0.1,0-0.1-0.1-0.2-0.1c-0.1-0.1-0.2-0.3-0.2-0.4
							s0-0.3,0.1-0.4c0-0.1,0.1-0.3,0.1-0.4c0-0.1,0-0.3-0.1-0.4c-0.2-0.3-0.3-0.5-0.6-0.8c-0.2-0.2-0.5-0.5-0.8-0.7s-0.7-0.4-1-0.5
							s-0.8-0.3-1.3-0.3c-0.1,0.1-0.3,0.2-0.3,0.3c-0.1,0.1-0.2,0.2-0.2,0.3s-0.1,0.3-0.1,0.4c0,0.1,0,0.3,0,0.4l-0.5,0.1
							c-0.2-0.1-0.3-0.1-0.4-0.2s-0.3-0.2-0.4-0.3c-0.1-0.1-0.2-0.2-0.3-0.3s-0.1-0.2-0.1-0.3s0-0.2,0-0.3s0.1-0.2,0.2-0.2
							c0.1-0.1,0.2-0.1,0.2-0.2c0.1-0.1,0.2-0.1,0.3-0.1c0,0,0.1,0,0.1-0.1h0.1h0.1h0.1c0.3-0.1,0.5-0.1,0.8-0.1s0.5,0,0.8,0.1
							c0.3,0,0.5,0.1,0.8,0.2s0.5,0.2,0.8,0.3c0.1-0.1,0.2-0.2,0.3-0.2s0.3-0.1,0.4-0.2c0.2-0.1,0.3-0.1,0.5-0.2
							c0.2-0.1,0.3-0.1,0.5-0.1s0.3-0.1,0.5-0.1s0.3,0,0.5,0s0.3,0,0.5,0C549.5,185.5,549.7,185.5,549.8,185.5 M551.5,183.4
							c-0.1,0-0.2,0.1-0.3,0.1s-0.2,0.1-0.3,0.1s-0.2,0.1-0.3,0.1s-0.2,0.1-0.3,0.1c-0.1,0.1-0.3,0.1-0.4,0.2s-0.2,0.2-0.3,0.3
							s-0.2,0.2-0.3,0.3s-0.2,0.2-0.2,0.3c-0.1,0-0.3,0-0.4,0c-0.1,0-0.3,0-0.4,0c-0.1,0-0.3,0-0.4,0.1s-0.3,0-0.4,0.1
							c-0.2,0-0.3,0.1-0.5,0.1s-0.3,0.1-0.4,0.1s-0.3,0.1-0.4,0.1s-0.3,0.1-0.4,0.2c-0.3-0.1-0.5-0.2-0.8-0.2
							c-0.3-0.1-0.5-0.1-0.8-0.1s-0.5,0-0.8,0s-0.5,0-0.8,0.1l0,0l0,0l0,0l0,0c-0.2,0.1-0.5,0.1-0.7,0.2s-0.4,0.2-0.5,0.3
							s-0.3,0.2-0.4,0.4s-0.2,0.3-0.2,0.5v0.1v0.1c0,0.1,0,0.1,0,0.1s0,0.1-0.1,0.1c-0.3,0.2-0.5,0.4-0.7,0.6
							c-0.1,0.2-0.2,0.5-0.2,0.8s0,0.5,0.1,0.8s0.3,0.6,0.4,0.8l-0.5,0.1h-0.1l0,0c0,0,0,0,0,0.1s0,0,0,0.1s0,0,0,0.1c0,0,0,0,0.1,0
							h0.1h0.1l0.6-0.1l0.1,0.1l0,0l0,0l0,0l0,0l-0.7,0.1h-0.1l0,0c0,0,0,0,0,0.1s0,0,0,0.1s0,0,0,0.1c0,0,0,0,0.1,0s0.1,0,0.1,0
							h0.1l0.9-0.2c0.1,0,0.2,0.1,0.2,0.1l0.2,0.1c0.1,0,0.2,0.1,0.3,0.1s0.2,0.1,0.3,0.1s0.2,0.1,0.3,0.1s0.2,0.1,0.3,0.1
							s0.2,0,0.3,0.1s0.2,0.1,0.3,0.1l0.1,0.1c0,0,0,0.1,0.1,0.1v0.1v0.1c-0.1,0.1-0.3,0.2-0.4,0.2c-0.1,0.1-0.3,0.2-0.4,0.2
							s-0.3,0.2-0.4,0.3s-0.2,0.2-0.3,0.3s-0.1,0.2-0.2,0.3c0,0.1,0,0.2,0,0.3s0,0.2,0.1,0.3c0,0.1,0.1,0.2,0.2,0.3l0.7,1.1l0,0l0,0
							c0,0,0,0,0,0.1s0,0,0,0.1l0,0c0,0,0,0-0.1,0s0,0,0,0l0,0l-2.3,0.4l-0.3-0.5c-0.1-0.1-0.2-0.2-0.3-0.3s-0.2-0.1-0.4-0.2
							c-0.1-0.1-0.3-0.1-0.4-0.1s-0.3,0-0.5,0s-0.3,0.1-0.4,0.1s-0.2,0.1-0.2,0.2c-0.1,0.1-0.1,0.2-0.1,0.3s0,0.2,0.1,0.3l0.4,0.6
							l0,0c0,0,0,0.1,0.1,0.1c0,0.1,0.1,0.1,0.2,0.2s0.2,0.2,0.4,0.3s0.3,0.2,0.5,0.2c0.2,0.1,0.4,0.1,0.5,0.1c0.2,0,0.3,0,0.5,0
							s0.3,0,0.3,0c0.1,0,0.2,0,0.2,0l2.4-0.5c0.1,0,0.1,0,0.2-0.1s0.1,0,0.2-0.1l0.1-0.1l0.1-0.1c0,0,0.1,0,0.1,0.1
							c0,0,0.1,0,0.2,0s0.1,0,0.2,0c0.1,0,0.1,0,0.2,0l2.6-0.5l0,0l0,0l0,0l0,0c0.1,0,0.2,0,0.3-0.1s0.2-0.1,0.2-0.1
							c0.1,0,0.1-0.1,0.2-0.1l0.1-0.1c0.1,0,0.1,0.1,0.2,0.1s0.1,0,0.2,0.1c0.1,0,0.1,0,0.2,0c0.1,0,0.1,0,0.2,0c0,0,0,0,0.1,0
							s0,0,0.1,0c0,0,0,0,0.1,0c0,0,0,0,0.1,0h0.1c0,0,0.1,0,0.1-0.1s0.1,0,0.1-0.1s0.1-0.1,0.1-0.1s0,0,0.1-0.1s0,0,0-0.1v-0.1
							c0,0,0,0,0.1-0.1c0.1,0,0.2,0.1,0.3,0.1s0.2,0,0.3,0s0.2,0,0.3,0s0.2,0,0.3,0l0,0l0,0l0,0l0,0c0.1,0,0.2,0,0.2-0.1
							c0.1,0,0.1-0.1,0.2-0.1l0.1-0.1l0.1-0.1c0.1,0,0.1,0.1,0.2,0.1c0.1,0,0.1,0,0.2,0s0.1,0,0.2,0s0.1,0,0.2,0h0.1h0.1h0.1h0.1
							c0.1,0,0.2-0.1,0.3-0.1s0.2-0.1,0.2-0.1c0.1-0.1,0.1-0.1,0.2-0.2s0.1-0.1,0.1-0.2c0.1,0,0.1,0.1,0.2,0.1c0.1,0,0.1,0,0.2,0
							s0.1,0,0.2,0s0.1,0,0.2,0h0.1h0.1h0.1h0.1c0.1,0,0.2-0.1,0.3-0.1s0.2-0.1,0.3-0.1s0.1-0.1,0.2-0.1c0.1-0.1,0.1-0.1,0.2-0.2
							c0,0,0.1,0,0.2,0.1c0,0,0.1,0,0.2,0s0.1,0,0.2,0c0.1,0,0.1,0,0.2,0l3.5-0.7l0,0l0,0l0,0l0,0c0.1,0,0.1,0,0.2-0.1
							s0.1-0.1,0.2-0.1l0.1-0.1l0.1-0.1c0.2,0,0.3,0.1,0.5,0.1s0.3,0,0.5,0s0.3,0,0.5,0s0.3,0,0.5-0.1h0.1h0.1h0.1h0.1
							c0.2-0.1,0.4-0.1,0.5-0.2c0.2-0.1,0.3-0.2,0.4-0.3c0.1-0.1,0.2-0.2,0.3-0.4s0.1-0.3,0-0.4c0-0.1,0-0.1-0.1-0.2
							c0-0.1-0.1-0.1-0.2-0.2s-0.1-0.1-0.2-0.1s-0.2-0.1-0.3-0.1s-0.2-0.1-0.2-0.1c-0.1,0-0.2,0-0.2,0c-0.1,0-0.2,0-0.2,0
							c-0.1,0-0.1,0-0.2,0l0,0l0,0l0,0l0,0c-0.1,0-0.2,0.1-0.3,0.1s-0.2,0.1-0.3,0.1c-0.1,0.1-0.2,0.1-0.3,0.1s-0.2,0.1-0.3,0.1
							h-0.1h-0.1h-0.1c0,0-0.1,0-0.2,0c-0.3,0-0.6-0.1-0.8-0.3s-0.3-0.4-0.5-0.6c-0.1-0.2-0.3-0.4-0.5-0.6c-0.2-0.2-0.4-0.4-0.7-0.4
							c-0.3-0.1-0.5-0.1-0.8-0.1s-0.5,0-0.7,0.1s-0.5,0-0.7,0s-0.5-0.1-0.7-0.2c-0.2-0.1-0.3-0.1-0.5-0.2s-0.3-0.2-0.3-0.3
							s-0.2-0.2-0.3-0.3s-0.1-0.2-0.2-0.3c-0.1-0.1-0.2-0.2-0.3-0.3s-0.3-0.1-0.5-0.2c-0.2-0.1-0.3-0.1-0.5-0.2
							c-0.2-0.1-0.3-0.2-0.4-0.3c-0.2-0.2-0.3-0.4-0.4-0.6c-0.1-0.2-0.1-0.4-0.2-0.6c0-0.2,0-0.4,0.1-0.6s0.2-0.4,0.3-0.6
							c0.2,0,0.3,0.1,0.5,0.2s0.3,0.1,0.4,0.2c0.1,0.1,0.3,0.1,0.4,0.2s0.2,0.2,0.3,0.2l1.5-0.3c0-0.2,0.1-0.3,0.1-0.5s0-0.4,0-0.5
							c0-0.2-0.1-0.4-0.2-0.5c-0.1-0.2-0.3-0.3-0.5-0.5c-0.1-0.1-0.2-0.1-0.2-0.1s-0.2-0.1-0.3-0.1s-0.2-0.1-0.3-0.1
							s-0.2-0.1-0.3-0.1c-0.2,0-0.3-0.1-0.5-0.1s-0.3,0-0.5,0s-0.3,0-0.5,0C551.8,183.4,551.7,183.4,551.5,183.4"/>
						<path fill="#159CD8" d="M538.7,195.8c0,0-0.1,0-0.1,0.1l-0.1,0.1v0.1v0.1l0.3,0.6c0,0,0,0,0,0.1c0,0,0.1,0.1,0.2,0.1
							s0.2,0.1,0.3,0.2s0.2,0.1,0.4,0.2c0.1,0,0.2,0.1,0.3,0.1s0.2,0,0.3,0s0.2,0,0.2,0h0.1l0,0l0,0l0,0l0,0l2.4-0.5
							c0,0,0.1,0,0.1-0.1s0.1-0.1,0.1-0.1v-0.1v-0.1c0,0,0-0.1-0.1-0.1s-0.1-0.1-0.1-0.1s-0.1,0-0.2,0c0,0-0.1,0-0.2,0l-2.4,0.5l0,0
							l0,0l0,0l0,0c0,0,0,0-0.1,0H540c0,0-0.1,0-0.2,0c0,0-0.1,0-0.1-0.1l-0.1-0.1l-0.1-0.1v-0.1l0,0l-0.3-0.5c0,0,0-0.1-0.1-0.1
							l-0.1-0.1c0,0-0.1,0-0.2,0C538.8,195.7,538.7,195.7,538.7,195.8 M544.8,190.6C544.8,190.7,544.7,190.7,544.8,190.6
							c-0.1,0-0.2,0-0.2,0s0,0-0.1,0s0,0,0-0.1l0.4-0.1c0,0,0,0,0,0.1s0,0,0,0.1S544.9,190.6,544.8,190.6L544.8,190.6 M543.9,190.3
							c0,0,0.1,0,0.1-0.1s0.1-0.1,0.1-0.1V190v-0.1l-0.1-0.1c-0.1,0-0.1,0-0.2,0c0,0-0.1,0-0.2-0.1l-0.1-0.1l-0.1-0.1l1-0.2v0.1v0.1
							c0,0,0,0.1-0.1,0.1l-0.1,0.1l0.1,0.1c0,0,0,0.1,0.1,0.1l0.1,0.1c0,0,0.1,0,0.2,0c0,0,0.1,0,0.2,0s0.1,0,0.1-0.1
							s0.1-0.1,0.1-0.1v-0.1v-0.1l0.4-0.1c0,0.1,0.1,0.1,0.1,0.2c0,0.1,0,0.1-0.1,0.2s-0.1,0.1-0.2,0.1c-0.1,0-0.2,0.1-0.3,0.1
							s-0.1,0-0.2,0s-0.1,0-0.2,0c-0.1,0-0.1,0-0.2,0s-0.1,0-0.2-0.1c0,0,0,0.1-0.1,0.1s-0.1,0.1-0.1,0.1L543.9,190.3
							c0,0-0.1,0-0.2,0c-0.1,0-0.2,0-0.3,0s-0.2,0-0.3-0.1c-0.1,0-0.2-0.1-0.3-0.1c-0.1-0.1-0.1-0.1-0.2-0.2l0.4-0.1
							c0,0,0,0.1,0.1,0.1l0.1,0.1c0,0,0.1,0,0.2,0C543.8,190.3,543.9,190.3,543.9,190.3 M542.8,189.5c-0.1,0-0.1,0-0.2,0
							s-0.1,0-0.2,0c-0.1,0-0.1,0-0.2-0.1l-0.1-0.1v-0.1v-0.1l0.1-0.1c0,0,0.1-0.1,0.2-0.1s0.1,0,0.2,0s0.1,0,0.2,0
							c0.1,0,0.1,0,0.2,0.1l0.1,0.1v0.1v0.1l-0.1,0.1L542.8,189.5 M545.1,189.1c-0.1,0-0.1,0-0.2,0s-0.1,0-0.2,0s-0.1,0-0.2-0.1
							l-0.1-0.1v-0.1v-0.1c0,0,0-0.1,0.1-0.1c0,0,0.1,0,0.2-0.1s0.1,0,0.2,0s0.1,0,0.2,0c0.1,0,0.1,0,0.2,0.1l0.1,0.1v0.1v0.1
							l-0.1,0.1C545.2,189,545.2,189.1,545.1,189.1 M544.4,187.1c-0.1,0.1-0.2,0.2-0.3,0.3s-0.1,0.2-0.1,0.3s0,0.2,0,0.3
							s0,0.2,0,0.2s-0.1,0-0.2,0s-0.1,0-0.2,0c0,0-0.1,0-0.2,0c0,0-0.1,0-0.2,0c-0.1,0-0.1,0-0.2,0c-0.1,0-0.1,0-0.2,0.1
							s-0.1,0-0.2,0.1c-0.1,0-0.1,0.1-0.2,0.1c-0.1-0.1-0.2-0.2-0.3-0.3s-0.3-0.1-0.4-0.2c-0.2-0.1-0.3-0.1-0.5-0.2
							c-0.2-0.1-0.3-0.1-0.5-0.1c-0.2,0.2-0.3,0.3-0.3,0.5c-0.1,0.2-0.1,0.4-0.1,0.6s0.1,0.4,0.2,0.6c0.1,0.2,0.2,0.4,0.4,0.6
							l0.9-0.2h0.1h0.1c0,0,0,0,0.1,0s0,0,0,0.1s0,0,0,0.1s0,0,0,0.1l0,0c0,0,0,0-0.1,0l-0.8,0.1c0,0,0,0.1,0.1,0.1s0,0.1,0.1,0.1
							s0.1,0,0.1,0.1s0.1,0,0.1,0l0.6-0.1h0.1h0.1c0,0,0,0,0.1,0c0,0,0,0,0,0.1s0,0,0,0.1s0,0,0,0.1s0,0,0,0.1l0,0l-0.3,0.1l0,0
							c0.1,0.1,0.2,0.1,0.3,0.1s0.2,0.1,0.3,0.1s0.2,0,0.3,0.1c0.1,0,0.2,0.1,0.3,0.1s0.2,0.1,0.3,0.1c0.1,0.1,0.2,0.1,0.3,0.2
							c0.1,0.1,0.1,0.1,0.2,0.2c0,0.1,0.1,0.2,0.1,0.2c0,0.1,0,0.2-0.1,0.3s-0.2,0.2-0.3,0.3s-0.3,0.1-0.4,0.2s-0.3,0.1-0.4,0.2
							c-0.4,0.2-0.6,0.4-0.6,0.7s0,0.5,0.2,0.8s0.4,0.6,0.6,0.9c0.2,0.3,0.4,0.6,0.5,0.8l0.1,0.2l0.1,0.1c0,0,0.1,0.1,0.2,0.1
							s0.1,0,0.2,0c0.1,0,0.1,0,0.2,0l2.3-0.5c0.1,0,0.1,0,0.2-0.1s0.1-0.1,0.1-0.1v-0.1v-0.1l-0.1-0.1c0,0-0.1-0.1-0.2-0.1
							c-0.1,0-0.1,0-0.2,0s-0.1,0-0.2,0l-0.9,0.2c-0.1,0-0.1,0-0.2,0c-0.1,0-0.1,0-0.2,0c-0.1,0-0.1,0-0.2-0.1l-0.1-0.1
							c0,0,0-0.1-0.1-0.1c0-0.1-0.1-0.2-0.2-0.3s-0.2-0.2-0.2-0.3c-0.1-0.1-0.2-0.2-0.2-0.2s-0.1,0-0.1-0.1H544h-0.1l0,0
							c0,0-0.1,0-0.2,0s-0.1,0-0.2,0s-0.1,0-0.1-0.1l-0.1-0.1v-0.1v-0.1c0,0,0-0.1,0.1-0.1c0,0,0.1,0,0.1-0.1c0,0,0,0,0.1,0
							s0.1,0,0.2,0s0.1,0,0.2,0c0.1,0,0.1,0,0.2,0c0.2,0,0.4,0,0.5,0.1c0.2,0.1,0.3,0.2,0.4,0.3c0.1,0.1,0.2,0.3,0.3,0.4
							c0.1,0.1,0.2,0.3,0.3,0.4l0,0l0,0l0,0l0,0l0,0l0,0l0,0l0,0c0,0,0.1,0,0.2,0c0,0,0.1,0,0.2,0c0,0,0.1,0,0.2,0c0,0,0.1,0,0.2,0
							l-0.8-1.2v-0.1v-0.1l0.1-0.1c0,0,0.1,0,0.2-0.1c0.1,0,0.1,0,0.2,0s0.1,0,0.2,0c0.1,0,0.1,0,0.2,0.1l0.1,0.1l1.3,2l0.1,0.1
							c0,0,0.1,0.1,0.2,0.1s0.1,0,0.2,0c0.1,0,0.1,0,0.2,0s0.1,0,0.2-0.1s0.1-0.1,0.1-0.1v-0.1v-0.1l-1.3-2v-0.1v-0.1l0.1-0.1
							c0,0,0.1,0,0.2-0.1c0.1,0,0.1,0,0.2,0c0.1,0,0.1,0,0.2,0c0.1,0,0.1,0,0.2,0.1l0.1,0.1l1.2,2l0.1,0.1c0,0,0.1,0.1,0.2,0.1
							c0.1,0,0.1,0,0.2,0s0.1,0,0.2,0s0.1,0,0.2-0.1l0.1-0.1v-0.1v-0.1l-1.1-1.8l-0.1-0.1c-0.1-0.1-0.1-0.2-0.1-0.3s0-0.2,0-0.2
							s0-0.1,0-0.2c0-0.1,0-0.2,0-0.3s-0.1-0.1-0.1-0.2s-0.1-0.1-0.2-0.2s-0.1-0.1-0.2-0.2c-0.1-0.1-0.1-0.1-0.2-0.1
							c-0.3-0.1-0.6-0.1-0.8-0.2s-0.4-0.2-0.5-0.2c-0.2-0.1-0.3-0.2-0.3-0.3c-0.1-0.1-0.2-0.2-0.2-0.4v-0.1v-0.1v-0.1V190l-0.2,0.1
							h-0.1h-0.1c0,0,0,0-0.1,0c0,0,0,0,0-0.1s0,0,0-0.1s0,0,0-0.1s0,0,0,0s0,0,0.1,0l0.6-0.1c0,0,0,0,0-0.1s0-0.1,0-0.1v-0.1v-0.1
							l-0.8,0.2h-0.1h-0.1c0,0,0,0-0.1,0s0,0,0-0.1s0,0,0-0.1s0,0,0-0.1s0,0,0,0s0,0,0.1,0l0.9-0.2c-0.1-0.2-0.2-0.4-0.3-0.6
							c-0.2-0.2-0.3-0.3-0.5-0.5c-0.2-0.1-0.5-0.3-0.7-0.4C545,187.3,544.7,187.1,544.4,187.1"/>
						<path fill="#EE2F26" d="M560,192.5l0.3,0.6c0.1,0,0.2,0.1,0.3,0.1s0.2,0,0.4,0c0.1,0,0.3,0,0.4,0s0.3,0,0.4-0.1
							c0.1,0,0.2,0,0.2-0.1c0.1,0,0.1,0,0.2-0.1c0.1,0,0.1-0.1,0.2-0.1s0.1-0.1,0.2-0.1c0.1,0,0.2-0.1,0.2-0.1s0.2-0.1,0.2-0.2
							s0.1-0.1,0.1-0.2c0-0.1,0-0.1-0.1-0.2c0,0-0.1,0-0.1-0.1h-0.1c0,0,0,0-0.1,0s0,0-0.1,0s-0.1,0-0.2,0.1c-0.1,0-0.1,0.1-0.2,0.1
							s-0.1,0.1-0.2,0.1c-0.1,0.1-0.2,0.1-0.3,0.1l0,0l0,0l0,0l0,0c-0.1,0-0.2,0-0.4,0.1s-0.3,0-0.4,0s-0.3,0-0.4,0
							S560.2,192.5,560,192.5 M557,190.6c-0.1,0-0.2,0.1-0.3,0.1c-0.1,0.1-0.2,0.1-0.2,0.2c0,0.1-0.1,0.1-0.1,0.2s0,0.2,0.1,0.2
							l1,1.6v0.1v0.1c0,0,0,0.1-0.1,0.1c0,0-0.1,0.1-0.2,0.1l-1.4,0.3c0,0-0.1,0-0.1,0.1s-0.1,0.1-0.1,0.1v0.1v0.1l0.1,0.1l0.1,0.1
							c0,0,0.1,0,0.2,0c0.1,0,0.1,0,0.2,0l3.2-0.6c0.1,0,0.1,0,0.2-0.1l0.1-0.1v-0.1v-0.1l-1.3-2.1c0-0.1-0.1-0.1-0.2-0.2
							c-0.1-0.1-0.2-0.1-0.3-0.1s-0.2-0.1-0.3-0.1C557.2,190.6,557.1,190.6,557,190.6 M553.9,190c0,0.1-0.1,0.1-0.2,0.2
							s-0.2,0.1-0.2,0.2c-0.1,0.1-0.2,0.1-0.3,0.1s-0.2,0.1-0.3,0.1h-0.1h-0.1h-0.1h-0.1c0,0.1,0,0.1-0.1,0.2s-0.1,0.1-0.2,0.2
							s-0.1,0.1-0.2,0.1c-0.1,0-0.2,0.1-0.2,0.1s0,0-0.1,0c0,0,0,0-0.1,0c0,0,0,0-0.1,0s0,0-0.1,0s-0.2,0-0.4,0c-0.1,0-0.3,0-0.4,0
							c-0.1,0-0.3,0-0.4-0.1s-0.2-0.1-0.3-0.1c0,0-0.1,0-0.1,0.1s-0.1,0-0.1,0.1h-0.1h-0.1c0.2,0.1,0.3,0.3,0.4,0.4
							c0.1,0.1,0.1,0.3,0.1,0.4c0,0.1,0,0.3,0,0.5c0,0.1,0,0.3,0,0.4l1,1.6l0,0c0,0.1,0.1,0.1,0.2,0.2c0.1,0.1,0.1,0.1,0.2,0.1
							c0.1,0,0.2,0.1,0.3,0.1s0.2,0,0.3,0s0.2-0.1,0.2-0.1c0.1,0,0.1-0.1,0.2-0.1c0-0.1,0-0.1,0-0.2c0-0.1,0-0.1-0.1-0.2l-1.2-1.9
							v-0.1v-0.1c0,0,0-0.1,0.1-0.1c0,0,0.1,0,0.2-0.1c0.1,0,0.1,0,0.2,0s0.1,0,0.2,0c0.1,0,0.1,0,0.2,0.1l0.1,0.1l1.2,1.9
							c0,0.1,0.1,0.1,0.2,0.2c0.1,0.1,0.1,0.1,0.2,0.1s0.2,0.1,0.3,0.1s0.2,0,0.3,0s0.2-0.1,0.2-0.1c0.1,0,0.1-0.1,0.1-0.1
							s0-0.1,0-0.2c0-0.1,0-0.1-0.1-0.2l-1.2-1.9v-0.1v-0.1c0,0,0-0.1,0.1-0.1s0.1,0,0.2-0.1c0.1,0,0.1,0,0.2,0s0.1,0,0.2,0
							c0,0,0.1,0,0.2,0.1s0.1,0.1,0.1,0.1l0.8,1.2l0,0h0.1c0,0,0.1,0,0.2,0s0.1,0,0.2,0c0.1,0,0.1,0,0.2,0c0.1,0,0.1,0,0.2-0.1
							c0.1,0,0.1,0,0.2-0.1l0.1-0.1c0-0.1,0-0.2-0.1-0.3s-0.2-0.3-0.3-0.5s-0.2-0.4-0.3-0.6c-0.1-0.2-0.2-0.4-0.2-0.5v-0.1v-0.1
							v-0.1v-0.1c-0.1,0-0.3-0.1-0.4-0.1s-0.3-0.1-0.4-0.1c-0.1-0.1-0.3-0.1-0.4-0.2C554.1,190.1,554,190.1,553.9,190 M550.9,190.4
							L550.9,190.4c-0.1,0.1-0.1,0.1-0.1,0.2s-0.1,0.1-0.2,0.1c-0.1,0-0.2,0.1-0.3,0.1l0,0l0,0l0,0l0,0c0.1,0,0.2,0,0.3,0.1
							s0.2,0,0.3,0s0.2,0,0.2,0c0.1,0,0.1,0,0.2,0l0,0c0.1,0,0.1,0,0.2,0s0.1,0,0.2-0.1s0.1-0.1,0.2-0.1c0.1,0,0.1-0.1,0.1-0.1l0,0
							l0,0l0,0l0,0c-0.1,0-0.2,0-0.3,0s-0.2,0-0.3,0C551.1,190.5,551,190.4,550.9,190.4L550.9,190.4 M548.3,188.4
							c-0.1,0-0.1,0-0.2,0s-0.1,0-0.2,0c-0.1,0-0.1,0-0.2-0.1l-0.1-0.1v-0.1V188c0,0,0-0.1,0.1-0.1c0,0,0.1,0,0.2-0.1
							c0.1,0,0.1,0,0.2,0c0.1,0,0.1,0,0.2,0c0.1,0,0.1,0,0.2,0.1l0.1,0.1v0.1v0.1l-0.1,0.1C548.4,188.4,548.4,188.4,548.3,188.4
							 M550.6,188c-0.1,0-0.1,0-0.2,0s-0.1,0-0.2,0c-0.1,0-0.1,0-0.2-0.1l-0.1-0.1v-0.1v-0.1c0,0,0-0.1,0.1-0.1c0,0,0.1,0,0.2-0.1
							c0.1,0,0.1,0,0.2,0s0.1,0,0.2,0c0.1,0,0.1,0,0.2,0.1l0.1,0.1v0.1v0.1c0,0,0,0.1-0.1,0.1C550.8,188,550.7,188,550.6,188
							 M551.8,184c-0.3,0.1-0.5,0.1-0.7,0.2s-0.4,0.2-0.6,0.3c-0.2,0.1-0.3,0.3-0.4,0.4s-0.2,0.3-0.3,0.5c-0.2,0-0.3,0-0.5-0.1
							c-0.2,0-0.3,0-0.5,0s-0.3,0-0.5,0s-0.3,0.1-0.5,0.1s-0.3,0.1-0.5,0.1c-0.2,0.1-0.3,0.1-0.5,0.2c-0.2,0.1-0.3,0.1-0.4,0.2
							s-0.2,0.1-0.3,0.2c-0.2-0.1-0.5-0.2-0.8-0.3s-0.5-0.1-0.8-0.2c-0.3,0-0.5-0.1-0.8-0.1s-0.5,0-0.8,0.1h-0.1h-0.1h-0.1
							c0,0-0.1,0-0.1,0.1c-0.1,0-0.2,0.1-0.3,0.1c-0.1,0.1-0.2,0.1-0.2,0.2c-0.1,0.1-0.1,0.1-0.2,0.2s0,0.2,0,0.3s0,0.2,0.1,0.3
							s0.2,0.2,0.3,0.3s0.2,0.2,0.4,0.3s0.3,0.1,0.4,0.2l0.5-0.1c0-0.1,0-0.2,0-0.4c0-0.1,0.1-0.3,0.1-0.4s0.1-0.2,0.2-0.3
							c0.1-0.1,0.2-0.2,0.3-0.3c0.5,0.1,0.9,0.2,1.3,0.3c0.4,0.1,0.7,0.3,1,0.5s0.6,0.4,0.8,0.7c0.2,0.2,0.4,0.5,0.6,0.8
							c0.1,0.1,0.1,0.3,0.1,0.4s-0.1,0.3-0.1,0.4c0,0.1-0.1,0.3-0.1,0.4s0,0.3,0.2,0.4c0,0,0.1,0.1,0.2,0.1c0.1,0,0.1,0.1,0.2,0.1
							s0.1,0.1,0.2,0.1s0.1,0,0.2,0c0,0,0.1,0,0.2,0c0,0,0.1,0,0.2,0s0.1,0,0.2,0s0.1,0,0.2,0c0.1,0,0.2,0,0.2-0.1
							c0.1,0,0.1-0.1,0.2-0.1s0.1-0.1,0.2-0.1l0.1-0.1c0.1-0.1,0.1-0.1,0.1-0.2c0-0.1,0-0.2,0-0.3s-0.1-0.2-0.1-0.3
							s-0.1-0.2-0.2-0.3l-0.4,0.1c-0.1,0-0.1,0-0.2,0s-0.1,0-0.2,0s-0.1,0-0.2-0.1l-0.1-0.1v-0.1v-0.1l0.1-0.1c0,0,0.1,0,0.2-0.1
							l1.6-0.3c0.1,0,0.1,0,0.2,0c0.1,0,0.1,0,0.2,0c0.1,0,0.1,0,0.2,0.1l0.1,0.1v0.1v0.1l-0.1,0.1c0,0-0.1,0-0.2,0.1l-0.4,0.1l0,0
							c0,0.1,0.1,0.2,0.1,0.3c0.1,0.1,0.1,0.2,0.2,0.2c0.1,0.1,0.2,0.1,0.3,0.2c0.1,0.1,0.2,0.1,0.4,0.1c0.1,0,0.2,0,0.2,0.1
							c0.1,0,0.2,0,0.3,0s0.2,0,0.3,0s0.2,0,0.2,0h0.1h0.1h0.1h0.1c0,0,0.1-0.1,0.2-0.1l0.1-0.1l0.1-0.1v-0.1c0-0.1,0-0.1,0-0.1
							s0-0.1-0.1-0.1c0-0.1-0.1-0.1-0.1-0.1c0-0.1-0.1-0.1-0.2-0.1c-0.2-0.1-0.3-0.1-0.5-0.2c-0.2-0.1-0.3-0.1-0.4-0.2
							c-0.1-0.1-0.3-0.2-0.4-0.3s-0.2-0.2-0.3-0.3c-0.2-0.3-0.3-0.5-0.4-0.8c-0.1-0.3-0.1-0.5-0.1-0.8s0.1-0.5,0.3-0.7
							s0.3-0.4,0.6-0.6c0.2,0,0.4,0.1,0.6,0.1s0.4,0.1,0.5,0.2s0.3,0.1,0.5,0.2c0.2,0.1,0.3,0.2,0.4,0.3l0.6-0.1v-0.5
							c0-0.1,0-0.2-0.1-0.3c0-0.1-0.1-0.2-0.2-0.3c-0.1-0.1-0.2-0.2-0.3-0.2s-0.2-0.1-0.3-0.2c-0.1,0-0.2-0.1-0.3-0.1
							s-0.2,0-0.3-0.1s-0.2,0-0.3,0s-0.2,0-0.3,0h-0.1h-0.1C552.3,183.9,551.9,184,551.8,184C551.9,184,551.8,184,551.8,184"/>
					</g>
				</g>
			</g>
		</g>
	</g>
	<path fill="#FFFFFF" d="M569,267.6c-0.1,0-0.2,0.1-0.3,0.1s-0.1,0.1-0.2,0.2s-0.1,0.1-0.1,0.2s0,0.2,0.1,0.2s0.1,0.1,0.2,0.2
		s0.2,0.1,0.3,0.1s0.2,0.1,0.3,0.1s0.2,0,0.3,0s0.2-0.1,0.3-0.1s0.1-0.1,0.2-0.2s0.1-0.1,0.1-0.2s0-0.2-0.1-0.2s-0.1-0.1-0.2-0.2
		c-0.1-0.1-0.2-0.1-0.3-0.1s-0.2-0.1-0.3-0.1S569.1,267.6,569,267.6"/>
	<path fill="#FFFFFF" d="M569.2,274.7c-0.1,0-0.2,0-0.3,0s-0.2,0-0.3-0.1c-0.1,0-0.2-0.1-0.3-0.1c-0.1-0.1-0.2-0.1-0.2-0.2
		s-0.1-0.2-0.1-0.2c0-0.1,0-0.1,0.1-0.2s0.1-0.1,0.2-0.1s0.2-0.1,0.2-0.1l1.1-0.3c0.1,0,0.2,0,0.2-0.1s0.1,0,0.2-0.1
		s0.1-0.1,0.1-0.1l0.1-0.1l2.8-4.7l0.1-0.1l0.1-0.1c0,0,0.1,0,0.2-0.1s0.1,0,0.2-0.1l1.7-0.4c0.1,0,0.2,0,0.3,0s0.2,0,0.3,0.1
		c0.1,0,0.2,0.1,0.3,0.1s0.1,0.1,0.2,0.1c0,0,0.1,0.1,0.1,0.2s0,0.1,0,0.2s-0.1,0.1-0.1,0.2s-0.2,0.1-0.3,0.1l-1,0.2
		c-0.1,0-0.2,0-0.3,0.1c-0.1,0-0.1,0-0.2,0.1s-0.1,0.1-0.1,0.1l-0.1,0.1l-2.8,4.6l-0.1,0.1l-0.1,0.1c0,0-0.1,0.1-0.2,0.1
		s-0.1,0-0.2,0.1L569.2,274.7 M575,267l-1.9,0.4c-0.1,0-0.2,0-0.3,0.1s-0.2,0.1-0.3,0.1s-0.2,0.1-0.2,0.2c-0.1,0.1-0.1,0.1-0.2,0.2
		l-1,1.6l-0.2-0.4c-0.1-0.1-0.1-0.2-0.2-0.2s-0.2-0.1-0.3-0.1s-0.2,0-0.3,0s-0.2,0-0.3,0s-0.2,0.1-0.3,0.1s-0.2,0.1-0.2,0.2
		s-0.1,0.1-0.1,0.2s0,0.2,0.1,0.3l0.9,1.5l0,0l-0.9,1.4v0.1c0,0,0,0-0.1,0s-0.1,0-0.1,0s-0.1,0-0.2,0l-0.9,0.2
		c-0.2,0-0.4,0.1-0.6,0.2c-0.2,0.1-0.3,0.2-0.3,0.4c-0.1,0.1-0.1,0.3-0.1,0.4s0.1,0.3,0.1,0.4s0.2,0.3,0.3,0.4
		c0.2,0.1,0.3,0.2,0.5,0.3c0.2,0.1,0.4,0.1,0.7,0.2c0.2,0,0.5,0,0.8,0c0,0,0.1,0,0.2,0s0.3-0.1,0.5-0.1s0.4-0.1,0.6-0.1
		s0.3-0.1,0.4-0.1s0.2,0,0.3-0.1s0.2-0.1,0.3-0.1s0.2-0.1,0.3-0.2s0.2-0.1,0.2-0.2l2.7-4.6l0,0c0,0,0,0,0.1,0c0,0,0,0,0.1,0
		s0.1,0,0.1,0s0,0,0.1,0s0.2,0,0.3-0.1c0.1,0,0.3-0.1,0.4-0.1s0.3-0.1,0.4-0.1c0.2,0,0.3-0.1,0.4-0.2s0.2-0.2,0.3-0.3
		c0.1-0.1,0.1-0.3,0.1-0.4s0-0.3-0.2-0.5c-0.1-0.2-0.3-0.3-0.4-0.4s-0.4-0.2-0.6-0.3s-0.4-0.1-0.6-0.1C575.4,267,575.2,267,575,267"
		/>
	<path fill="#FFFFFF" d="M576.3,271.4l-1.7,0.4c-0.1,0-0.2,0.1-0.2,0.1c0,0.1,0,0.1,0,0.2s0.1,0.1,0.2,0.2s0.2,0,0.3,0l0.9-0.2
		l-0.9,1.6c0,0.1,0,0.1,0,0.2s0.1,0.1,0.1,0.1s0.1,0.1,0.2,0.1c0.1,0,0.2,0,0.2,0s0,0,0.1,0c0,0,0,0,0.1,0c0,0,0,0,0.1,0s0,0,0-0.1
		l0.9-1.5l0.4,0.6l0.1,0.1c0,0,0.1,0,0.1,0.1s0.1,0,0.2,0c0,0,0.1,0,0.2,0h0.1c0,0,0.1,0,0.1-0.1s0-0.1,0-0.1V273l-0.8-1.2l-0.1-0.1
		c0,0-0.1-0.1-0.2-0.1c0,0-0.1,0-0.2,0C576.4,271.4,576.3,271.4,576.3,271.4"/>
	<path fill="#333333" d="M575.3,267.6l-1.7,0.4c-0.1,0-0.2,0-0.2,0.1s-0.1,0-0.2,0.1s-0.1,0-0.1,0.1s-0.1,0.1-0.1,0.1l-2.8,4.7
		l-0.1,0.1l-0.1,0.1c0,0-0.1,0.1-0.2,0.1c-0.1,0-0.1,0-0.2,0.1l-1.1,0.3c-0.1,0-0.2,0-0.2,0.1s-0.1,0.1-0.2,0.1s-0.1,0.1-0.1,0.2
		s0,0.1,0.1,0.2c0,0.1,0.1,0.2,0.2,0.2c0.1,0.1,0.2,0.1,0.3,0.1s0.2,0.1,0.3,0.1s0.2,0,0.3,0l1.6-0.4c0.1,0,0.2,0,0.2-0.1
		s0.1,0,0.2-0.1l0.1-0.1l0.1-0.1l2.8-4.6c0-0.1,0.1-0.1,0.1-0.1l0.1-0.1c0.1,0,0.1-0.1,0.2-0.1c0.1,0,0.2,0,0.3-0.1l1-0.2
		c0.1,0,0.2-0.1,0.3-0.1s0.1-0.1,0.1-0.2s0-0.1,0-0.2s0-0.1-0.1-0.2s-0.1-0.1-0.2-0.1s-0.2-0.1-0.3-0.1s-0.2-0.1-0.3-0.1
		C575.5,267.6,575.4,267.6,575.3,267.6"/>
</g>
</svg>
