<svg width="30" height="30" viewBox="0 0 70 70" fill="none" xmlns="http://www.w3.org/2000/svg"><path d="M66.0652 34.2694C66.0652 51.1325 52.395 64.8027 35.5319 64.8027C18.6688 64.8027 4.99854 51.1325 4.99854 34.2694C4.99854 17.4063 18.6688 3.73602 35.5319 3.73602C52.395 3.73602 66.0652 17.4063 66.0652 34.2694Z" fill="#fff"/><path d="M34.9988 0C15.6697 0 0 15.6709 0 34.9993C0 54.3277 15.6697 70 34.9988 70C54.3279 70 69.9995 54.3286 69.9995 34.9993C69.9995 15.67 54.3279 0 34.9988 0ZM34.8371 47.6103H34.8367V47.61C34.8367 48.4076 34.3817 49.1351 33.6651 49.4837C33.3758 49.6242 33.0636 49.6944 32.753 49.6944C32.2954 49.6944 31.8423 49.5432 31.4683 49.2508L24.6342 43.897C24.3182 43.9752 23.9885 44.0223 23.646 44.0223H16.7977C14.5514 44.0223 12.7304 42.2007 12.7304 39.9555V28.0936C12.7304 25.8477 14.5514 24.0263 16.7977 24.0263H23.6465C24.0448 24.0263 24.4277 24.0863 24.7926 24.1922L31.4687 18.96C32.095 18.4686 32.949 18.3785 33.6656 18.7269C34.3821 19.0755 34.8371 19.8023 34.8371 20.5998V47.6103ZM41.6768 39.0509L39.393 36.767C39.9194 36.0474 40.2348 35.164 40.2348 34.2053C40.2348 33.1469 39.8543 32.1755 39.2243 31.4202L41.4906 29.1538C42.6986 30.4943 43.4418 32.2625 43.4418 34.2053C43.4411 36.0481 42.777 37.7377 41.6768 39.0509ZM44.6381 42.0126C46.4917 39.9357 47.6203 37.2003 47.6203 34.2053C47.6203 31.1103 46.4149 28.294 44.4505 26.194L46.7175 23.9269C49.2616 26.6091 50.8272 30.2262 50.8272 34.205C50.8272 38.0842 49.3409 41.6232 46.9089 44.2822L44.6381 42.0126ZM52.3563 49.6627L50.0899 47.3956C53.3083 43.9315 55.2816 39.2954 55.2816 34.2048C55.2816 29.0148 53.2289 24.2989 49.8979 20.8131L52.1649 18.5467C56.0761 22.6135 58.4878 28.1309 58.4878 34.2048C58.488 40.1802 56.1545 45.6171 52.3563 49.6627Z" fill="#000"/><path fill="#000" d="M38 14H61V52H38z"/><path stroke="#fff" stroke-width="3" d="M43.147 27.034L56.621 43.034"/><path transform="scale(-1 1) rotate(49.899 -58.671 -47.429)" stroke="#fff" stroke-width="3" d="M0 -1.5L20.918 -1.5"/></svg>