<svg width="30" height="30" viewBox="0 0 30 30" fill="none" xmlns="http://www.w3.org/2000/svg"><path fill-rule="evenodd" clip-rule="evenodd" d="M25.5065 4.35971C22.6998 1.54977 18.9673 0.00161643 14.9905 0C6.7967 0 0.1279 6.66838 0.124627 14.8647C0.123535 17.4848 0.808053 20.0422 2.10898 22.2967L0 30L7.8806 27.9327C10.0519 29.1171 12.4966 29.7413 14.9846 29.7422H14.9907C14.9912 29.7422 14.9903 29.7422 14.9907 29.7422C23.1837 29.7422 29.8531 23.0732 29.8565 14.8766C29.858 10.9045 28.3132 7.16955 25.5065 4.35971V4.35971ZM14.9907 27.2316H14.9857C12.7686 27.2307 10.594 26.6351 8.6969 25.5093L8.24571 25.2415L3.56926 26.4683L4.81748 21.9088L4.5237 21.4412C3.28687 19.474 2.63361 17.2003 2.63456 14.8657C2.63727 8.05321 8.18014 2.51078 14.9956 2.51078C18.2959 2.51189 21.3981 3.79883 23.731 6.13435C26.0638 8.46979 27.3478 11.5742 27.3465 14.8757C27.3437 21.6886 21.8009 27.2316 14.9907 27.2316V27.2316ZM21.7681 17.9777C21.3967 17.7918 19.5705 16.8933 19.23 16.7692C18.8895 16.6453 18.6419 16.5834 18.3943 16.9551C18.1467 17.3269 17.4348 18.1637 17.2181 18.4116C17.0015 18.6594 16.7848 18.6905 16.4134 18.5045C16.0419 18.3186 14.8451 17.9264 13.4263 16.6609C12.3221 15.6759 11.5766 14.4596 11.3599 14.0877C11.1433 13.7159 11.3368 13.5149 11.5228 13.3297C11.6899 13.1632 11.8943 12.8958 12.08 12.6789C12.2657 12.462 12.3276 12.307 12.4514 12.0592C12.5752 11.8113 12.5133 11.5944 12.4204 11.4085C12.3276 11.2226 11.5847 9.3942 11.2752 8.6504C10.9737 7.92622 10.6675 8.0243 10.4395 8.01278C10.2231 8.00203 9.97517 7.99973 9.72757 7.99973C9.47995 7.99973 9.07752 8.09269 8.73704 8.46449C8.39658 8.83641 7.43701 9.73507 7.43701 11.5633C7.43701 13.3917 8.76798 15.1578 8.95373 15.4057C9.13943 15.6537 11.5729 19.4055 15.2991 21.0144C16.1853 21.3972 16.8772 21.6257 17.4166 21.7969C18.3064 22.0797 19.1162 22.0397 19.7562 21.9441C20.4699 21.8375 21.9538 21.0456 22.2634 20.1779C22.5729 19.3101 22.5729 18.5664 22.48 18.4116C22.3872 18.2566 22.1396 18.1637 21.7681 17.9777V17.9777Z" fill="#fff"/></svg>