<?xml version="1.0" encoding="utf-8"?>
<!-- Generator: Adobe Illustrator 19.1.0, SVG Export Plug-In . SVG Version: 6.00 Build 0)  -->
<svg version="1.1" id="Layer_1" xmlns="http://www.w3.org/2000/svg" xmlns:xlink="http://www.w3.org/1999/xlink" x="0px" y="0px"
	 viewBox="0 0 595.3 841.9" style="enable-background:new 0 0 595.3 841.9;" xml:space="preserve">
<style type="text/css">
	.st0{fill-rule:evenodd;clip-rule:evenodd;fill:none;stroke:#000000;stroke-width:3;stroke-miterlimit:10;}
</style>
<g>
	<g>
		<path d="M228.2,394.5L228.2,394.5l0.2-0.4l-0.3-0.3L228,394v0.5H228.2z M232.2,386.5c0-0.4-0.1-0.6,0.3-1.2
			c-0.2,0.2-0.3-1.2-0.4-2.7c0,0,0-0.1,0-0.1C232.2,384.4,232.2,386.5,232.2,386.5z M224.5,390.3c0.7,0,1.2-0.6,1.2-1.2
			c0-0.7-0.6-1.2-1.2-1.2c-0.7,0-1.2,0.6-1.2,1.2C223.3,389.8,223.9,390.4,224.5,390.3z M228.4,394.1l0.3,0.3l-0.1,0.1h0.2V394
			l-0.1-0.1L228.4,394.1z M228.8,393.6v-0.4H228v0.5c0.1,0,0.1,0,0.2,0C228.4,393.7,228.6,393.6,228.8,393.6z M246,379.2
			c-3,0.1-4.1,2.1-4.3,3.2c-0.1,0.2-0.3,1.4,0.5,2.5c0.8,1.1,2.3,1.6,4.5,1.6l0.1,0c1.4,0,2.5-0.4,3.2-1.1c0.9-0.9,0.9-2.1,0.9-2.6
			C250.9,382.2,250,379,246,379.2z M247.5,384.4l-1-1.1l-1,1.1l-0.6-0.5l1.2-1.3v-0.3c-0.8-0.1-1.4-0.7-1.4-1.4
			c0-0.8,0.7-1.4,1.6-1.4c0.9,0,1.6,0.6,1.6,1.4c0,0.6-0.4,1.1-0.9,1.3v0.4l1.2,1.3L247.5,384.4z M236,346c-19.9,0-36,16.1-36,36
			c0,19.9,16.1,36,36,36c19.9,0,36-16.1,36-36C272.1,362.1,255.9,346,236,346z M240.1,392.7c-0.8,5.8-5.8,10.3-11.9,10.3
			c-6.6,0-12-5.4-12-12c0-2.1,0.6-4.1,1.6-6l0.1-0.1l-0.1,0c-0.7-0.1-1.2-0.3-1.6-0.6c-1-0.8-1.6-1.8-1.8-3.1
			c-0.2-1.3,0.2-2.5,1-3.6c1.1-1.4,2.5-2.1,3.9-2.1c0.9,0,1.7,0.3,2.5,0.9c1.1,0.8,1.6,2.1,1.6,3.5l0,0.1l0.1,0c1.5-0.6,3.1-1,4.8-1
			c1.1,0,2.5,0.2,3.6,0.5c0.1-0.8,0.1,0.4,0.2,2.1c0,0.3,0,0.6,0,0.9c0.1,1,0.3,1.9,0.6,2.8l0.9,0.9l6.7,6.4c-0.1,0-0.2-0.1-0.4-0.1
			L240.1,392.7z M258.2,372.9c-0.4,0.3-0.9,0.5-1.5,0.6l-0.1,0l0,0.1c1.1,1.8,1.6,3.9,1.6,6c0,6.6-5.4,12-12,12c-6.6,0-12-5.4-12-12
			c0-2.1,0.6-4.1,1.6-6l0.1-0.1l-0.1,0c-0.7-0.1-1.2-0.3-1.6-0.6c-1-0.8-1.6-1.8-1.8-3.1c-0.2-1.3,0.2-2.5,1-3.6
			c1.1-1.4,2.5-2.1,3.9-2.1c0.9,0,1.7,0.3,2.5,0.9c1.1,0.8,1.6,2.1,1.6,3.5l0,0.1l0.1,0c1.5-0.6,3.1-1,4.8-1c1.6,0,3.1,0.3,4.6,0.9
			l0.1,0l0-0.1c0-1.4,0.5-2.6,1.6-3.5c0.7-0.6,1.6-0.9,2.5-0.9c1.4,0,2.9,0.8,3.9,2.1C260.6,368.4,260.3,371.3,258.2,372.9z
			 M242.6,378.8c0.7,0,1.2-0.6,1.2-1.2c0-0.7-0.6-1.2-1.2-1.2c-0.7,0-1.2,0.6-1.2,1.2C241.4,378.3,242,378.9,242.6,378.8z
			 M228.2,394.5l0.2,0.3l0.2-0.3H228.2z M249.7,376.4c-0.7,0-1.2,0.6-1.2,1.2c0,0.7,0.6,1.2,1.2,1.2c0.7,0,1.2-0.6,1.2-1.2
			C251,376.9,250.4,376.4,249.7,376.4z M231.6,387.9c-0.7,0-1.2,0.6-1.2,1.2c0,0.7,0.6,1.2,1.2,1.2c0.7,0,1.2-0.6,1.2-1.2
			C232.9,388.4,232.3,387.9,231.6,387.9z M227.9,390.7c-3,0.1-4.1,2.1-4.3,3.2c-0.1,0.2-0.3,1.4,0.5,2.5c0.8,1.1,2.3,1.6,4.5,1.6
			l0.1,0c1.4,0,2.5-0.4,3.2-1.1c0.9-0.9,0.9-2.1,0.9-2.6C232.8,393.7,231.9,390.5,227.9,390.7z M229.4,395.9l-1-1.1l-1,1.1l-0.6-0.5
			l1.2-1.3v-0.3c-0.8-0.1-1.4-0.7-1.4-1.4c0-0.8,0.7-1.4,1.6-1.4c0.9,0,1.6,0.6,1.6,1.4c0,0.6-0.4,1.1-0.9,1.3v0.4l1.2,1.3
			L229.4,395.9z M232.7,385.4c1.2,3.4,3.8,6,7.2,7.1l-6.3-6.3L232.7,385.4z M232.5,385.3C232.5,385.3,232.5,385.3,232.5,385.3
			L232.5,385.3l0.2,0.2c0,0,0,0,0,0L232.5,385.3C232.5,385.2,232.5,385.3,232.5,385.3z M231.8,379.7c-0.1,0.5,0.2,1,0.2,1.5
			c0,0.4,0,0.8,0.1,1.3c0-0.3,0-0.5,0-0.8C232,380.2,231.9,379,231.8,379.7z"/>
	</g>
</g>
<g>
	<g>
		<path d="M236,236c-19.9,0-36,16.1-36,36c0,19.9,16.1,36,36,36c19.9,0,36-16.1,36-36C272.1,252.1,255.9,236,236,236z M246.4,265.7
			l0.8-2l1.1,1.8l2.1,0.1l-1.4,1.6l0.5,2l-1.9-0.8l-1.8,1.1l0.2-2.1l-1.6-1.3L246.4,265.7z M234.5,255.1l2-3.3l1.4,3.6l3.7,0.9
			l-2.9,2.4l0.3,3.8l-3.2-2.1l-3.5,1.5l1-3.7l-2.5-2.9L234.5,255.1z M221.7,264.2l0.9-2.4l1.3,2.2l2.6,0.2l-1.7,2l0.7,2.5l-2.4-1
			l-2.2,1.4l0.2-2.6l-2-1.7L221.7,264.2z M226.1,280.7l-1.9-0.8l-1.8,1.1l0.2-2.1l-1.6-1.3l2-0.5l0.8-2l1.1,1.8l2.1,0.1l-1.4,1.6
			L226.1,280.7z M231,272.1c-0.9-0.9-0.9-2.4,0-3.3l1-1c0.9-0.9,2.4-0.9,3.3,0l2.4,2.4l-4.2,4.2L231,272.1z M252.7,288.6l-1,1
			c-0.9,0.9-2.4,0.9-3.3,0l-14-14l4.2-4.2l14,14C253.6,286.3,253.6,287.7,252.7,288.6z"/>
	</g>
</g>
<g>
	<g>
		<path d="M236,456c-19.9,0-36,16.1-36,36c0,19.9,16.1,36,36,36c19.9,0,36-16.1,36-36C272.1,472.1,255.9,456,236,456z M226.5,492.2
			h5v-1.8h-5v-1.8h5v-1.8h-5v-1.8h5V483h-5v-3.2c0-4,4.5-7.3,10-7.3c5.5,0,10,3.3,10,7.3v3.2h-5v1.8h5v1.8h-5v1.8h5v1.8h-5v1.8h5
			v2.3c0,4-4.5,7.3-10,7.3c-5.5,0-10-3.3-10-7.3V492.2z M250.5,493.5c0,6.5-5.4,12.1-12.6,12.9v3.5h7.5v2.1h-18.1v-2.1h7.5v-3.5
			c-7.2-0.8-12.4-6.4-12.4-12.9v-1.6c0-1,0.3-1.6,1.3-1.6v0c1,0,1.3,0.7,1.3,1.6v1.6c0,5.4,5.4,10.4,11.5,10.4
			c6,0,11.3-5.1,11.3-10.4v-1.6c0-1,0.3-1.6,1.3-1.6c1,0,1.4,0.7,1.4,1.6V493.5z"/>
	</g>
</g>
<g>
	<g>
		<path d="M125.2,369.2h-5.7v1.7h5.7V369.2z M135.1,372.3l-0.6-2l-6.1,1.9l0.6,2L135.1,372.3z M115.9,371.1h-5.5v1.7h5.5V371.1z
			 M115.9,375.1h-5.5v1.7h5.5V375.1z M126,346c-19.9,0-36,16.1-36,36c0,19.9,16.1,36,36,36c19.9,0,36-16.1,36-36
			C162.1,362.1,145.9,346,126,346z M108.6,365.9c0-1,0.8-1.9,1.9-1.9h6.1c0.4,0,0.7,0.1,1,0.3c0.3-0.2,0.7-0.3,1-0.3h6.1
			c1,0,1.8,0.8,1.9,1.8l5.7-1.8c0.2-0.1,0.4-0.1,0.6-0.1c0.8,0,1.6,0.5,1.8,1.3l7.9,25.2l-1.6-0.3c-0.4-5.4-5.5-9.7-11.8-9.7
			l-2.5-7.8v8.1c-3.5,0.6-6.6,2.7-8.2,5.5c-0.2-0.1-0.3-0.1-0.5-0.1v-19.3h-0.7v19.1c-0.5-0.1-0.9-0.1-1.4-0.1c-3,0-5.6,1.9-6.1,4.4
			c-0.4,0.1-0.8,0.3-1.1,0.4V365.9z M138.3,403L138.3,403l-0.2,0h-2.7h-4.3h-8.4h-5.7H115c-4.2,0-7.6-2.8-7.6-6.2
			c0-2.6,1.4-4.3,4.5-5.1c0.6-1.4,1.5-2.9,4.5-3.5c0.7-0.2,2.3,0.5,3,0.8c1.6-2.7,5.3-5.4,9-5.4c5.4,0,9.8,3.6,9.8,8
			c0,0,6.7,0.3,6.7,6.2C144.9,400.8,142,402.9,138.3,403z M149.5,378.6c-0.2,0-0.3-0.1-0.4-0.2c-0.1-0.1-0.1-0.2-0.2-0.5
			c-0.1-0.4-0.3-1.3-0.6-1.9c-0.4-0.8-1.2-1.6-1.7-1.9c-0.6-0.4-1.7-0.9-2.6-1.2c-0.2-0.1-0.5-0.2-0.7-0.3c0.4,1.1,1.1,2.7,1.4,3.1
			c0.3,0.6,2.6,5.7,2.7,6.6c0.1,0.8,0.1,2-0.7,3.3c-0.5,0.7-1.4,1.7-2.5,1.8c-0.5,0-1.1,0-1.6-0.4c-0.4-0.3-0.8-0.9-0.9-1.5
			c-0.2-1.1,0.6-2.3,1.2-3.1c0.8-1,1.6-1.3,2.2-1.5c-0.4-0.9-1.1-2.8-1.8-4.2c-0.5-1.2-1.1-2.8-1.6-3.9l0-0.1l0,0
			c-0.3-0.8-0.6-1.4-0.6-1.6c-0.1-0.1-0.2-0.3-0.2-0.4l0,0c-0.2-0.4-0.5-0.9-0.7-1.5c-0.1-0.6,0.1-1.3,0.3-1.6
			c0.1-0.2,0.3-0.3,0.5-0.3c0.2,0,0.5,0.1,0.6,0.6c0.1,0.5,0.8,1.4,1.1,1.5c0.2,0.1,1.1,0.4,1.8,0.6c1.2,0.4,2.5,0.8,3,1.1
			c1,0.5,2.2,1.5,2.7,2.3c0.4,0.9,0.5,2.3,0.5,3C150.6,377.6,149.9,378.5,149.5,378.6z"/>
	</g>
</g>
<g>
	<g>
		<path d="M132.1,274l8.4-3.1c0-0.4,0-0.9,0-1.2l-8.4,3.1C132.1,273.1,132.1,273.5,132.1,274z M126,236c-19.9,0-36,16.1-36,36
			c0,19.9,16.1,36,36,36c19.9,0,36-16.1,36-36C162.1,252.1,145.9,236,126,236z M120.9,261.7c-0.3-0.2-0.6-0.4-0.9-0.7
			c0.1,1.7,0.3,4.2,0.5,5c0.1,0.9,0.9,9.1,0.8,10.4c-0.2,1.2-0.7,2.9-2.5,4.2c-1.1,0.8-2.7,1.7-4.3,1.3c-0.7-0.2-1.5-0.4-2.1-1.2
			c-0.5-0.6-0.7-1.6-0.5-2.4c0.3-1.6,1.8-2.9,3.1-3.7c1.5-1,2.9-1.1,3.7-1.1c-0.1-1.4-0.3-4.4-0.5-6.7c-0.2-1.9-0.3-4.4-0.4-6.2
			l0-0.2l0,0c-0.1-1.2-0.1-2.2-0.2-2.5c0-0.2-0.1-0.5-0.1-0.7l0,0c-0.1-0.7-0.3-1.5-0.3-2.3c0.1-0.9,0.7-1.8,1.2-2.1
			c0.3-0.2,0.5-0.3,0.8-0.2c0.3,0.1,0.7,0.4,0.6,1.1c-0.1,0.7,0.5,2.3,0.9,2.7c0.2,0.2,1.3,1,2.2,1.7c1.4,1.1,3.1,2.3,3.7,2.9
			c1.1,1.1,2.4,3.1,2.6,4.5c0.2,1.5-0.3,3.4-0.7,4.4c-0.5,1.5-1.8,2.4-2.4,2.3c-0.2,0-0.4-0.2-0.5-0.4c-0.1-0.2-0.1-0.3,0-0.8
			c0.1-0.6,0.2-2,0.1-2.9c-0.2-1.2-0.9-2.7-1.5-3.5C123.4,263.8,122.1,262.5,120.9,261.7z M142.3,276.4c0,0.5,0,1.1,0,1.6
			c0,2.9-0.1,5.7-0.3,6.5c-0.2,0.9-0.8,2.2-2.3,3c-0.8,0.5-2,1-3.1,0.7c-0.1,0-0.2,0-0.3-0.1c-0.5-0.2-1.1-0.5-1.5-1.1
			c-0.3-0.5-0.4-1.3-0.2-1.9c0.4-1.2,1.7-2.1,2.7-2.6c1.2-0.6,2.2-0.6,2.9-0.5c0-0.8,0.1-2.2,0.1-3.6c0-0.6,0-1.1,0-1.7
			c0-1.5,0.1-3,0.1-4.1l-8.4,3.1l0,0.8c0,1,0,2.2,0,3.4c0,0.5,0,1.1,0,1.6c0,2.9-0.1,5.7-0.3,6.5c-0.2,0.9-0.8,2.2-2.3,3
			c-0.8,0.5-2,1-3.1,0.7c-0.1,0-0.2,0-0.3-0.1c-0.5-0.2-1.1-0.5-1.5-1.1c-0.3-0.5-0.4-1.3-0.2-1.9c0.3-1.2,1.7-2.1,2.7-2.6
			c1.2-0.6,2.2-0.6,2.9-0.5c0-0.8,0.1-2.2,0.1-3.5c0-0.6,0-1.2,0.1-1.7c0.1-2.2,0.1-4.3,0.1-6c0-2,0-3.3,0.1-3.6
			c0-0.1,0.1-0.1,0.1-0.2l11.8-4.3c0,0,0.1,0,0.1,0c0,0,0.1,0,0.1,0c0.1,0,0.1,0.1,0.1,0.2C142.5,267.1,142.3,271.4,142.3,276.4z"/>
	</g>
</g>
<g>
	<g>
		<path d="M130.9,482.4c-1.4,0-2.8,0.7-3.7,2l-0.2,0.2l-0.2-0.2c-0.9-1.3-2.2-2-3.7-2c-2.3,0-4.7,1.9-4.7,5.1c0,4.4,7.2,9.8,8,10.4
			c0.3,0.2,0.8,0.2,1.1,0c0.8-0.6,8-6,8-10.4C135.6,484.3,133.2,482.4,130.9,482.4z M126,456c-19.9,0-36,16.1-36,36
			c0,19.9,16.1,36,36,36c19.9,0,36-16.1,36-36C162.1,472.1,145.9,456,126,456z M127.1,506.4l-1,0c-0.8,0-1.3,0-2.2-0.2l-0.2,0
			l-0.1,0.2c-0.8,1.1-5,5-8.8,5.7l0,0c0,0-0.1,0-0.1,0l0,0c0,0-0.1,0-0.1,0c-0.5,0-0.8-0.4-0.8-1c0-0.1,0-0.3,0.1-0.4
			c0.9-1.8,2-4.5,2-7l0-0.3l-0.1-0.1c-5.2-3-8.2-8.1-8.2-13.9c0-9.3,8.8-16.9,19.7-16.9c10.9,0,19.7,7.6,19.7,16.9
			C146.8,498.9,137.9,506.4,127.1,506.4z"/>
	</g>
</g>
<g>
	<path d="M441.3,413.7c-10.9,0-19.7,7.6-19.7,16.9c0,5.8,3,10.8,8.2,13.9l0.1,0.1l0,0.3c0,2.5-1.1,5.1-2,7c0,0.1-0.1,0.2-0.1,0.4
		c0,0.5,0.4,1,0.8,1c0,0,0.1,0,0.1,0l0,0c0.1,0,0.1,0,0.1,0l0,0c3.8-0.7,8-4.6,8.8-5.7l0.1-0.2l0.2,0c0.8,0.1,1.4,0.2,2.2,0.2l1,0
		c10.9,0,19.7-7.6,19.7-16.9C461,421.3,452.2,413.7,441.3,413.7z M441.9,438.9c-0.3,0.2-0.8,0.2-1.1,0c-0.8-0.6-8-6-8-10.4
		c0-3.2,2.4-5.1,4.7-5.1c1.4,0,2.8,0.7,3.7,2l0.2,0.2l0.2-0.2c0.9-1.3,2.2-2,3.7-2c2.3,0,4.7,1.9,4.7,5.1
		C449.9,433,442.7,438.3,441.9,438.9z"/>
	<path class="st0" d="M440.6,397c19.9,0,36,16.1,36,36c0,19.9-16.1,36-36,36c-19.9,0-36-16.1-36-36C404.5,413.1,420.7,397,440.6,397
		z"/>
</g>
<g>
	<g>
		<g>
			<path d="M440.3,326.9c-0.1,0.5-0.1,0.6,0,0.8c0.1,0.2,0.3,0.4,0.5,0.4c0.6,0.1,1.9-0.8,2.4-2.3c0.3-1,0.8-2.9,0.7-4.4
				c-0.2-1.4-1.5-3.4-2.6-4.5c-0.6-0.6-2.3-1.8-3.7-2.9c-0.9-0.7-2-1.5-2.2-1.7c-0.4-0.4-1-2-0.9-2.7c0.1-0.7-0.3-1-0.6-1.1
				c-0.3-0.1-0.5,0-0.8,0.2c-0.4,0.3-1.1,1.2-1.2,2.1c-0.1,0.8,0.1,1.7,0.3,2.3l0,0c0.1,0.3,0.1,0.5,0.1,0.7c0,0.3,0.1,1.2,0.2,2.5
				l0,0l0,0.2c0.1,1.8,0.3,4.3,0.4,6.2c0.2,2.3,0.4,5.3,0.5,6.7c-0.8-0.1-2.2,0.1-3.7,1.1c-1.3,0.8-2.8,2.1-3.1,3.7
				c-0.1,0.8,0.1,1.8,0.5,2.4c0.6,0.8,1.4,1.1,2.1,1.2c1.6,0.4,3.2-0.5,4.3-1.3c1.8-1.3,2.4-3,2.5-4.2c0.2-1.3-0.6-9.5-0.8-10.4
				c-0.1-0.8-0.3-3.3-0.5-5c0.3,0.3,0.6,0.5,0.9,0.7c1.1,0.8,2.4,2,3.1,2.8c0.6,0.7,1.3,2.2,1.5,3.5
				C440.5,324.9,440.3,326.3,440.3,326.9z M457.3,322.3C457.2,322.2,457.2,322.2,457.3,322.3c-0.1-0.1-0.2,0-0.2,0l-11.8,4.3
				c-0.1,0-0.1,0.1-0.1,0.2c-0.1,0.3-0.1,1.6-0.1,3.6c0,1.7,0,3.8-0.1,6c0,0.5,0,1.1-0.1,1.7c0,1.4-0.1,2.7-0.1,3.5
				c-0.7-0.1-1.7-0.1-2.9,0.5c-1,0.5-2.4,1.4-2.7,2.6c-0.2,0.6-0.1,1.4,0.2,1.9c0.4,0.7,1,1,1.5,1.1c0.1,0,0.2,0.1,0.3,0.1
				c1.1,0.3,2.3-0.3,3.1-0.7c1.5-0.9,2.1-2.1,2.3-3c0.2-0.8,0.2-3.6,0.3-6.5c0-0.5,0-1.1,0-1.6c0-1.2,0-2.3,0-3.4l0-0.8l8.4-3.1
				c0,1.2,0,2.6-0.1,4.1c0,0.5,0,1.1,0,1.7c0,1.4-0.1,2.8-0.1,3.6c-0.7-0.1-1.7-0.1-2.9,0.5c-1,0.5-2.4,1.4-2.7,2.6
				c-0.2,0.6-0.1,1.4,0.2,1.9c0.4,0.7,1,1,1.5,1.1c0.1,0,0.2,0.1,0.3,0.1c1.1,0.3,2.3-0.3,3.1-0.7c1.5-0.9,2.1-2.1,2.3-3
				c0.2-0.8,0.2-3.6,0.3-6.5c0-0.5,0-1.1,0-1.6c0.1-4.9,0.2-9.2,0.3-9.9C457.4,322.4,457.3,322.3,457.3,322.3z M455.3,326.9
				l-8.4,3.1c0-0.5,0-0.9,0-1.2l8.4-3.1C455.3,326.1,455.3,326.5,455.3,326.9z"/>
		</g>
	</g>
	<path class="st0" d="M440.6,292c19.9,0,36,16.1,36,36c0,19.9-16.1,36-36,36c-19.9,0-36-16.1-36-36C404.5,308.1,420.7,292,440.6,292
		z"/>
</g>
<g>
	<g>
		<g>
			<path d="M462.7,212.7c2.2-1.7,2.5-4.7,0.8-7c-1.1-1.4-2.6-2.2-4.1-2.2c-0.9,0-1.8,0.3-2.6,0.9c-1.1,0.9-1.7,2.1-1.7,3.6l0,0.1
				l-0.1,0c-1.5-0.6-3.1-0.9-4.8-0.9c-1.7,0-3.4,0.4-5,1l-0.1,0l0-0.1c0.1-1.5-0.5-2.8-1.6-3.7c-0.8-0.6-1.7-0.9-2.6-0.9
				c-1.5,0-3,0.8-4.1,2.2c-0.9,1.1-1.2,2.4-1.1,3.8c0.2,1.3,0.8,2.4,1.8,3.2c0.4,0.3,1,0.5,1.7,0.6l0.1,0l-0.1,0.1
				c-1.1,1.9-1.7,4-1.7,6.2c0,6.9,5.6,12.5,12.5,12.5c6.9,0,12.5-5.6,12.5-12.5c0-2.2-0.6-4.4-1.7-6.2l-0.1-0.1l0.1,0
				C461.8,213.2,462.3,213,462.7,212.7z M446.4,216.4c0.7,0,1.3,0.6,1.3,1.3c0,0.7-0.6,1.3-1.3,1.3c-0.7,0-1.3-0.6-1.3-1.3
				C445.1,217,445.7,216.4,446.4,216.4z M454.1,225.8c-0.7,0.7-1.8,1.1-3.3,1.1l-0.1,0c-2.3,0-3.9-0.6-4.7-1.7
				c-0.8-1.1-0.6-2.4-0.5-2.6c0.2-1.1,1.4-3.2,4.5-3.4c4.1-0.2,5,3.2,5.1,3.8C455,223.6,455.1,224.8,454.1,225.8z M453.9,218.9
				c-0.7,0-1.3-0.5-1.3-1.2c0-0.7,0.5-1.3,1.2-1.3c0.7,0,1.3,0.5,1.3,1.2C455.2,218.4,454.6,218.9,453.9,218.9z M450.9,222.3
				c0.6-0.2,1-0.8,1-1.4c0-0.8-0.7-1.5-1.6-1.5c-0.9,0-1.6,0.7-1.6,1.5c0,0.8,0.6,1.4,1.5,1.5v0.3l-1.2,1.4l0.6,0.6l1-1.2l1,1.2
				l0.6-0.6l-1.2-1.4V222.3z M435.6,219.2c-1.4-0.6-3-0.8-4.5-0.8c-1.7,0-3.4,0.4-5,1l-0.1,0l0-0.1c0.1-1.5-0.5-2.8-1.6-3.7
				c-0.8-0.6-1.7-0.9-2.6-0.9c-1.5,0-3,0.8-4.1,2.2c-0.9,1.1-1.2,2.4-1.1,3.8c0.2,1.3,0.8,2.4,1.8,3.2c0.4,0.3,1,0.5,1.7,0.6l0.1,0
				l-0.1,0.1c-1.1,1.9-1.7,4-1.7,6.2c0,6.9,5.6,12.5,12.5,12.5c6.1,0,11.1-4.3,12.3-10.1C436.8,230.6,434.6,224.4,435.6,219.2z
				 M427.2,227.5c0.7,0,1.3,0.6,1.3,1.3c0,0.7-0.6,1.3-1.3,1.3c-0.7,0-1.3-0.6-1.3-1.3C425.9,228.1,426.4,227.5,427.2,227.5z
				 M434.9,236.9c-0.7,0.7-1.8,1.1-3.3,1.1l-0.1,0c-2.3,0-3.9-0.6-4.7-1.7c-0.8-1.1-0.6-2.4-0.5-2.6c0.2-1.1,1.4-3.2,4.5-3.4
				c4.1-0.2,5,3.2,5.1,3.8C435.8,234.7,435.8,236,434.9,236.9z M434.7,230.1c-0.7,0-1.3-0.5-1.3-1.2c0-0.7,0.5-1.3,1.2-1.3
				c0.7,0,1.3,0.5,1.3,1.3C435.9,229.5,435.4,230.1,434.7,230.1z M431.7,233.4c0.6-0.2,1-0.8,1-1.4c0-0.8-0.7-1.5-1.6-1.5
				c-0.9,0-1.6,0.7-1.6,1.5c0,0.8,0.6,1.4,1.5,1.5v0.3l-1.2,1.4l0.6,0.6l1-1.2l1,1.2l0.6-0.6l-1.2-1.4V233.4z"/>
		</g>
	</g>
	<circle class="st0" cx="440.6" cy="222.4" r="36"/>
</g>
<g>
	<g>
		<g>
			<path d="M464.5,108.6c-0.4-0.9-1.7-1.9-2.7-2.3c-0.6-0.3-1.9-0.7-3-1.1c-0.7-0.2-1.6-0.5-1.8-0.6c-0.3-0.2-1.1-1.1-1.1-1.5
				c-0.1-0.5-0.4-0.6-0.6-0.6c-0.2,0-0.3,0.1-0.5,0.3c-0.2,0.3-0.5,1-0.3,1.6c0.1,0.5,0.4,1.1,0.7,1.5l0,0c0.1,0.2,0.2,0.3,0.2,0.4
				c0.1,0.2,0.3,0.8,0.6,1.6l0,0l0,0.1c0.5,1.2,1.1,2.8,1.6,3.9c0.6,1.5,1.4,3.3,1.8,4.2c-0.5,0.1-1.4,0.5-2.2,1.5
				c-0.6,0.8-1.4,2-1.2,3.1c0.1,0.6,0.4,1.1,0.9,1.5c0.6,0.4,1.1,0.4,1.6,0.4c1.1-0.1,2-1,2.5-1.8c0.9-1.2,0.9-2.5,0.7-3.3
				c-0.2-0.9-2.4-6.1-2.7-6.6c-0.2-0.5-0.9-2.1-1.4-3.1c0.2,0.1,0.5,0.2,0.7,0.3c0.9,0.3,2,0.8,2.6,1.2c0.5,0.4,1.3,1.2,1.7,1.9
				c0.3,0.6,0.5,1.5,0.6,1.9c0.1,0.3,0.1,0.4,0.2,0.5c0.1,0.1,0.3,0.2,0.4,0.2c0.4,0,1.1-0.9,1.1-2C465,110.8,465,109.5,464.5,108.6
				z M452.7,126.5c0-4.4-4.4-8-9.8-8c-3.7,0-7.4,2.7-9,5.4c-0.7-0.3-2.3-0.9-3-0.8c-3,0.7-4,2.1-4.5,3.5c-3,0.9-4.5,2.5-4.5,5.1
				c0,3.4,3.4,6.2,7.6,6.2h1.9h5.7h8.4h4.3h2.7l0.2,0v0c3.8-0.1,6.7-2.2,6.7-5.3C459.4,126.8,452.7,126.5,452.7,126.5z M430.3,120.7
				c0.5,0,0.9,0.1,1.4,0.1v-19.1h0.7v19.3c0.2,0.1,0.3,0.1,0.5,0.1c1.6-2.9,4.7-4.9,8.2-5.5v-8.1l2.5,7.8c6.3,0,11.4,4.3,11.8,9.7
				l1.6,0.3l-7.9-25.2c-0.2-0.8-1-1.3-1.8-1.3c-0.2,0-0.4,0-0.6,0.1l-5.7,1.8c0-1-0.9-1.8-1.9-1.8h-6.1c-0.4,0-0.7,0.1-1,0.3
				c-0.3-0.2-0.7-0.3-1-0.3H425c-1,0-1.9,0.8-1.9,1.9v24.7c0.4-0.2,0.7-0.3,1.1-0.4C424.8,122.6,427.3,120.7,430.3,120.7z
				 M449,105.4l0.6,2l-6.1,1.9l-0.6-2L449,105.4z M434,104.2h5.7v1.7H434V104.2z M424.8,106h5.5v1.7h-5.5V106z M424.8,110.1h5.5v1.7
				h-5.5V110.1z"/>
		</g>
	</g>
	<circle class="st0" cx="440.6" cy="117.5" r="36"/>
</g>
<g>
	<path d="M440.6,519c-5.5,0-10,3.3-10,7.3v3.2h5v1.8h-5v1.8h5v1.8h-5v1.8h5v1.8h-5v2.3c0,4,4.5,7.3,10,7.3c5.5,0,10-3.3,10-7.3v-2.3
		h-5v-1.8h5v-1.8h-5v-1.8h5v-1.8h-5v-1.8h5v-3.2C450.6,522.3,446.1,519,440.6,519z M427.8,536.6c-1,0-1.3,0.7-1.3,1.6v1.6
		c0,6.5,5.2,12.1,12.4,12.9v3.5h-7.5v2.1h18.1v-2.1H442v-3.5c7.2-0.8,12.6-6.4,12.6-12.9v-1.6c0-1-0.4-1.6-1.4-1.6
		c-1,0-1.3,0.7-1.3,1.6v1.6c0,5.4-5.3,10.4-11.3,10.4c-6,0-11.5-5.1-11.5-10.4v-1.6C429.1,537.2,428.8,536.6,427.8,536.6
		L427.8,536.6z"/>
	<path class="st0" d="M440.6,502.6c19.9,0,36,16.1,36,36c0,19.9-16.1,36-36,36c-19.9,0-36-16.1-36-36
		C404.5,518.8,420.7,502.6,440.6,502.6z"/>
</g>
<g>
	<g>
		<g>
			<path d="M439.5,640.7c-0.9-0.9-2.4-0.9-3.3,0l-1,1c-0.9,0.9-0.9,2.4,0,3.3l2.4,2.4l4.2-4.2L439.5,640.7z M457,658.2l-14-14
				l-4.2,4.2l14,14c0.9,0.9,2.4,0.9,3.3,0l1-1C457.9,660.5,457.9,659.1,457,658.2z M450.1,642.4l1.8-1.1l1.9,0.8l-0.5-2l1.4-1.6
				l-2.1-0.1l-1.1-1.8l-0.8,2l-2,0.5l1.6,1.3L450.1,642.4z M436.6,634.8l3.5-1.5l3.2,2.1l-0.3-3.8l2.9-2.4l-3.7-0.9l-1.4-3.6l-2,3.3
				l-3.8,0.2l2.5,2.9L436.6,634.8z M425.3,641.9l2.2-1.4l2.4,1l-0.7-2.5l1.7-2l-2.6-0.2l-1.3-2.2L426,637l-2.5,0.6l2,1.7
				L425.3,641.9z M429.1,649.7l-1.1-1.8l-0.8,2l-2,0.5l1.6,1.3l-0.2,2.1l1.8-1.1l1.9,0.8l-0.5-2l1.4-1.6L429.1,649.7z"/>
		</g>
	</g>
	<path class="st0" d="M440.6,607.8c19.9,0,36,16.1,36,36c0,19.9-16.1,36-36,36c-19.9,0-36-16.1-36-36
		C404.5,624,420.7,607.8,440.6,607.8z"/>
</g>
</svg>
