<?xml version="1.0" encoding="utf-8"?>
<!-- Generator: Adobe Illustrator 19.1.0, SVG Export Plug-In . SVG Version: 6.00 Build 0)  -->
<svg version="1.1" id="Layer_1" xmlns="http://www.w3.org/2000/svg" xmlns:xlink="http://www.w3.org/1999/xlink" x="0px" y="0px"
	 viewBox="-7 22.9 204.8 1929.2" style="enable-background:new -7 22.9 204.8 1929.2;" xml:space="preserve">
<style type="text/css">
	.st0{fill:none;stroke:#000000;stroke-width:3;stroke-miterlimit:10;}
	.st1{fill:#F1440C;}
	.st2{fill:#78B007;}
	.st3{fill:#040503;}
	.st4{fill:#737C8A;}
	.st5{fill:#02ADED;}
	.st6{fill-rule:evenodd;clip-rule:evenodd;fill:#F14C15;}
	.st7{fill:#F14C15;}
	.st8{fill:#141515;}
</style>
<g>
	<g>
		<path d="M86.6,488.3L86.6,488.3l0.2-0.4l-0.3-0.3l-0.1,0.2v0.5H86.6z M90.6,480.3c0-0.4-0.1-0.6,0.3-1.2c-0.2,0.2-0.3-1.2-0.4-2.7
			v-0.1C90.6,478.2,90.6,480.3,90.6,480.3z M82.9,484.1c0.7,0,1.2-0.6,1.2-1.2c0-0.7-0.6-1.2-1.2-1.2c-0.7,0-1.2,0.6-1.2,1.2
			C81.7,483.6,82.3,484.2,82.9,484.1z M86.8,487.9l0.3,0.3l-0.1,0.1h0.2v-0.5l-0.1-0.1L86.8,487.9z M87.2,487.4V487h-0.8v0.5
			c0.1,0,0.1,0,0.2,0C86.8,487.5,87,487.4,87.2,487.4z M104.4,473c-3,0.1-4.1,2.1-4.3,3.2c-0.1,0.2-0.3,1.4,0.5,2.5s2.3,1.6,4.5,1.6
			h0.1c1.4,0,2.5-0.4,3.2-1.1c0.9-0.9,0.9-2.1,0.9-2.6C109.3,476,108.4,472.8,104.4,473z M105.9,478.2l-1-1.1l-1,1.1l-0.6-0.5
			l1.2-1.3v-0.3c-0.8-0.1-1.4-0.7-1.4-1.4c0-0.8,0.7-1.4,1.6-1.4c0.9,0,1.6,0.6,1.6,1.4c0,0.6-0.4,1.1-0.9,1.3v0.4l1.2,1.3
			L105.9,478.2z M94.4,439.8c-19.9,0-36,16.1-36,36s16.1,36,36,36s36-16.1,36-36C130.5,455.9,114.3,439.8,94.4,439.8z M98.5,486.5
			c-0.8,5.8-5.8,10.3-11.9,10.3c-6.6,0-12-5.4-12-12c0-2.1,0.6-4.1,1.6-6l0.1-0.1h-0.1c-0.7-0.1-1.2-0.3-1.6-0.6
			c-1-0.8-1.6-1.8-1.8-3.1c-0.2-1.3,0.2-2.5,1-3.6c1.1-1.4,2.5-2.1,3.9-2.1c0.9,0,1.7,0.3,2.5,0.9c1.1,0.8,1.6,2.1,1.6,3.5v0.1h0.1
			c1.5-0.6,3.1-1,4.8-1c1.1,0,2.5,0.2,3.6,0.5c0.1-0.8,0.1,0.4,0.2,2.1c0,0.3,0,0.6,0,0.9c0.1,1,0.3,1.9,0.6,2.8L92,480l6.7,6.4
			c-0.1,0-0.2-0.1-0.4-0.1L98.5,486.5z M116.6,466.7c-0.4,0.3-0.9,0.5-1.5,0.6H115v0.1c1.1,1.8,1.6,3.9,1.6,6c0,6.6-5.4,12-12,12
			s-12-5.4-12-12c0-2.1,0.6-4.1,1.6-6l0.1-0.1h-0.1c-0.7-0.1-1.2-0.3-1.6-0.6c-1-0.8-1.6-1.8-1.8-3.1c-0.2-1.3,0.2-2.5,1-3.6
			c1.1-1.4,2.5-2.1,3.9-2.1c0.9,0,1.7,0.3,2.5,0.9c1.1,0.8,1.6,2.1,1.6,3.5v0.1h0.1c1.5-0.6,3.1-1,4.8-1c1.6,0,3.1,0.3,4.6,0.9h0.1
			v-0.1c0-1.4,0.5-2.6,1.6-3.5c0.7-0.6,1.6-0.9,2.5-0.9c1.4,0,2.9,0.8,3.9,2.1C119,462.2,118.7,465.1,116.6,466.7z M101,472.6
			c0.7,0,1.2-0.6,1.2-1.2c0-0.7-0.6-1.2-1.2-1.2c-0.7,0-1.2,0.6-1.2,1.2C99.8,472.1,100.4,472.7,101,472.6z M86.6,488.3l0.2,0.3
			l0.2-0.3H86.6z M108.1,470.2c-0.7,0-1.2,0.6-1.2,1.2c0,0.7,0.6,1.2,1.2,1.2c0.7,0,1.2-0.6,1.2-1.2
			C109.4,470.7,108.8,470.2,108.1,470.2z M90,481.7c-0.7,0-1.2,0.6-1.2,1.2c0,0.7,0.6,1.2,1.2,1.2c0.7,0,1.2-0.6,1.2-1.2
			C91.3,482.2,90.7,481.7,90,481.7z M86.3,484.5c-3,0.1-4.1,2.1-4.3,3.2c-0.1,0.2-0.3,1.4,0.5,2.5s2.3,1.6,4.5,1.6h0.1
			c1.4,0,2.5-0.4,3.2-1.1c0.9-0.9,0.9-2.1,0.9-2.6C91.2,487.5,90.3,484.3,86.3,484.5z M87.8,489.7l-1-1.1l-1,1.1l-0.6-0.5l1.2-1.3
			v-0.3c-0.8-0.1-1.4-0.7-1.4-1.4c0-0.8,0.7-1.4,1.6-1.4c0.9,0,1.6,0.6,1.6,1.4c0,0.6-0.4,1.1-0.9,1.3v0.4l1.2,1.3L87.8,489.7z
			 M91.1,479.2c1.2,3.4,3.8,6,7.2,7.1L92,480L91.1,479.2z M90.9,479.1L90.9,479.1L90.9,479.1l0.2,0.2l0,0L90.9,479.1
			C90.9,479,90.9,479.1,90.9,479.1z M90.2,473.5c-0.1,0.5,0.2,1,0.2,1.5c0,0.4,0,0.8,0.1,1.3c0-0.3,0-0.5,0-0.8
			C90.4,474,90.3,472.8,90.2,473.5z"/>
	</g>
</g>
<g>
	<g>
		<path d="M94.4,346.3c-19.9,0-36,16.1-36,36s16.1,36,36,36s36-16.1,36-36C130.5,362.4,114.3,346.3,94.4,346.3z M104.8,376l0.8-2
			l1.1,1.8l2.1,0.1l-1.4,1.6l0.5,2l-1.9-0.8l-1.8,1.1l0.2-2.1l-1.6-1.3L104.8,376z M92.9,365.4l2-3.3l1.4,3.6l3.7,0.9l-2.9,2.4
			l0.3,3.8l-3.2-2.1l-3.5,1.5l1-3.7l-2.5-2.9L92.9,365.4z M80.1,374.5l0.9-2.4l1.3,2.2l2.6,0.2l-1.7,2l0.7,2.5l-2.4-1l-2.2,1.4
			l0.2-2.6l-2-1.7L80.1,374.5z M84.5,391l-1.9-0.8l-1.8,1.1l0.2-2.1l-1.6-1.3l2-0.5l0.8-2l1.1,1.8l2.1,0.1l-1.4,1.6L84.5,391z
			 M89.4,382.4c-0.9-0.9-0.9-2.4,0-3.3l1-1c0.9-0.9,2.4-0.9,3.3,0l2.4,2.4l-4.2,4.2L89.4,382.4z M111.1,398.9l-1,1
			c-0.9,0.9-2.4,0.9-3.3,0l-14-14l4.2-4.2l14,14C112,396.6,112,398,111.1,398.9z"/>
	</g>
</g>
<g>
	<g>
		<path d="M94.4,533.2c-19.9,0-36,16.1-36,36c0,19.9,16.1,36,36,36s36-16.1,36-36C130.5,549.3,114.3,533.2,94.4,533.2z M84.9,569.4
			h5v-1.8h-5v-1.8h5V564h-5v-1.8h5v-2h-5V557c0-4,4.5-7.3,10-7.3s10,3.3,10,7.3v3.2h-5v1.8h5v1.8h-5v1.8h5v1.8h-5v1.8h5v2.3
			c0,4-4.5,7.3-10,7.3s-10-3.3-10-7.3V569.4z M108.9,570.7c0,6.5-5.4,12.1-12.6,12.9v3.5h7.5v2.1H85.7v-2.1h7.5v-3.5
			c-7.2-0.8-12.4-6.4-12.4-12.9v-1.6c0-1,0.3-1.6,1.3-1.6l0,0c1,0,1.3,0.7,1.3,1.6v1.6c0,5.4,5.4,10.4,11.5,10.4
			c6,0,11.3-5.1,11.3-10.4v-1.6c0-1,0.3-1.6,1.3-1.6s1.4,0.7,1.4,1.6V570.7z"/>
	</g>
</g>
<g>
	<g>
		<path d="M93.6,182.6h-5.7v1.7h5.7V182.6z M103.5,185.7l-0.6-2l-6.1,1.9l0.6,2L103.5,185.7z M84.3,184.5h-5.5v1.7h5.5V184.5z
			 M84.3,188.5h-5.5v1.7h5.5V188.5z M94.4,159.4c-19.9,0-36,16.1-36,36s16.1,36,36,36s36-16.1,36-36
			C130.5,175.5,114.3,159.4,94.4,159.4z M77,179.3c0-1,0.8-1.9,1.9-1.9H85c0.4,0,0.7,0.1,1,0.3c0.3-0.2,0.7-0.3,1-0.3h6.1
			c1,0,1.8,0.8,1.9,1.8l5.7-1.8c0.2-0.1,0.4-0.1,0.6-0.1c0.8,0,1.6,0.5,1.8,1.3l7.9,25.2l-1.6-0.3c-0.4-5.4-5.5-9.7-11.8-9.7
			l-2.5-7.8v8.1c-3.5,0.6-6.6,2.7-8.2,5.5c-0.2-0.1-0.3-0.1-0.5-0.1v-19.3h-0.7v19.1c-0.5-0.1-0.9-0.1-1.4-0.1c-3,0-5.6,1.9-6.1,4.4
			c-0.4,0.1-0.8,0.3-1.1,0.4v-24.7H77z M106.7,216.4L106.7,216.4h-0.2h-2.7h-4.3h-8.4h-5.7h-2c-4.2,0-7.6-2.8-7.6-6.2
			c0-2.6,1.4-4.3,4.5-5.1c0.6-1.4,1.5-2.9,4.5-3.5c0.7-0.2,2.3,0.5,3,0.8c1.6-2.7,5.3-5.4,9-5.4c5.4,0,9.8,3.6,9.8,8
			c0,0,6.7,0.3,6.7,6.2C113.3,214.2,110.4,216.3,106.7,216.4z M117.9,192c-0.2,0-0.3-0.1-0.4-0.2c-0.1-0.1-0.1-0.2-0.2-0.5
			c-0.1-0.4-0.3-1.3-0.6-1.9c-0.4-0.8-1.2-1.6-1.7-1.9c-0.6-0.4-1.7-0.9-2.6-1.2c-0.2-0.1-0.5-0.2-0.7-0.3c0.4,1.1,1.1,2.7,1.4,3.1
			c0.3,0.6,2.6,5.7,2.7,6.6c0.1,0.8,0.1,2-0.7,3.3c-0.5,0.7-1.4,1.7-2.5,1.8c-0.5,0-1.1,0-1.6-0.4c-0.4-0.3-0.8-0.9-0.9-1.5
			c-0.2-1.1,0.6-2.3,1.2-3.1c0.8-1,1.6-1.3,2.2-1.5c-0.4-0.9-1.1-2.8-1.8-4.2c-0.5-1.2-1.1-2.8-1.6-3.9v-0.1l0,0
			c-0.3-0.8-0.6-1.4-0.6-1.6c-0.1-0.1-0.2-0.3-0.2-0.4l0,0c-0.2-0.4-0.5-0.9-0.7-1.5c-0.1-0.6,0.1-1.3,0.3-1.6
			c0.1-0.2,0.3-0.3,0.5-0.3s0.5,0.1,0.6,0.6s0.8,1.4,1.1,1.5c0.2,0.1,1.1,0.4,1.8,0.6c1.2,0.4,2.5,0.8,3,1.1c1,0.5,2.2,1.5,2.7,2.3
			c0.4,0.9,0.5,2.3,0.5,3C119,191,118.3,191.9,117.9,192z"/>
	</g>
</g>
<g>
	<g>
		<path d="M100.5,103.9l8.4-3.1c0-0.4,0-0.9,0-1.2l-8.4,3.1C100.5,103,100.5,103.4,100.5,103.9z M94.4,65.9c-19.9,0-36,16.1-36,36
			s16.1,36,36,36s36-16.1,36-36C130.5,82,114.3,65.9,94.4,65.9z M89.3,91.6c-0.3-0.2-0.6-0.4-0.9-0.7c0.1,1.7,0.3,4.2,0.5,5
			c0.1,0.9,0.9,9.1,0.8,10.4c-0.2,1.2-0.7,2.9-2.5,4.2c-1.1,0.8-2.7,1.7-4.3,1.3c-0.7-0.2-1.5-0.4-2.1-1.2c-0.5-0.6-0.7-1.6-0.5-2.4
			c0.3-1.6,1.8-2.9,3.1-3.7c1.5-1,2.9-1.1,3.7-1.1c-0.1-1.4-0.3-4.4-0.5-6.7c-0.2-1.9-0.3-4.4-0.4-6.2v-0.2l0,0
			c-0.1-1.2-0.1-2.2-0.2-2.5c0-0.2-0.1-0.5-0.1-0.7l0,0c-0.1-0.7-0.3-1.5-0.3-2.3c0.1-0.9,0.7-1.8,1.2-2.1c0.3-0.2,0.5-0.3,0.8-0.2
			s0.7,0.4,0.6,1.1c-0.1,0.7,0.5,2.3,0.9,2.7c0.2,0.2,1.3,1,2.2,1.7c1.4,1.1,3.1,2.3,3.7,2.9c1.1,1.1,2.4,3.1,2.6,4.5
			c0.2,1.5-0.3,3.4-0.7,4.4c-0.5,1.5-1.8,2.4-2.4,2.3c-0.2,0-0.4-0.2-0.5-0.4c-0.1-0.2-0.1-0.3,0-0.8c0.1-0.6,0.2-2,0.1-2.9
			c-0.2-1.2-0.9-2.7-1.5-3.5C91.8,93.7,90.5,92.4,89.3,91.6z M110.7,106.3c0,0.5,0,1.1,0,1.6c0,2.9-0.1,5.7-0.3,6.5
			c-0.2,0.9-0.8,2.2-2.3,3c-0.8,0.5-2,1-3.1,0.7c-0.1,0-0.2,0-0.3-0.1c-0.5-0.2-1.1-0.5-1.5-1.1c-0.3-0.5-0.4-1.3-0.2-1.9
			c0.4-1.2,1.7-2.1,2.7-2.6c1.2-0.6,2.2-0.6,2.9-0.5c0-0.8,0.1-2.2,0.1-3.6c0-0.6,0-1.1,0-1.7c0-1.5,0.1-3,0.1-4.1l-8.4,3.1v0.8
			c0,1,0,2.2,0,3.4c0,0.5,0,1.1,0,1.6c0,2.9-0.1,5.7-0.3,6.5c-0.2,0.9-0.8,2.2-2.3,3c-0.8,0.5-2,1-3.1,0.7c-0.1,0-0.2,0-0.3-0.1
			c-0.5-0.2-1.1-0.5-1.5-1.1c-0.3-0.5-0.4-1.3-0.2-1.9c0.3-1.2,1.7-2.1,2.7-2.6c1.2-0.6,2.2-0.6,2.9-0.5c0-0.8,0.1-2.2,0.1-3.5
			c0-0.6,0-1.2,0.1-1.7c0.1-2.2,0.1-4.3,0.1-6c0-2,0-3.3,0.1-3.6c0-0.1,0.1-0.1,0.1-0.2l11.8-4.3h0.1h0.1c0.1,0,0.1,0.1,0.1,0.2
			C110.9,97,110.7,101.3,110.7,106.3z"/>
	</g>
</g>
<g>
	<g>
		<path d="M99.3,279.3c-1.4,0-2.8,0.7-3.7,2l-0.2,0.2l-0.2-0.2c-0.9-1.3-2.2-2-3.7-2c-2.3,0-4.7,1.9-4.7,5.1c0,4.4,7.2,9.8,8,10.4
			c0.3,0.2,0.8,0.2,1.1,0c0.8-0.6,8-6,8-10.4C104,281.2,101.6,279.3,99.3,279.3z M94.4,252.9c-19.9,0-36,16.1-36,36s16.1,36,36,36
			s36-16.1,36-36C130.5,269,114.3,252.9,94.4,252.9z M95.5,303.3h-1c-0.8,0-1.3,0-2.2-0.2h-0.2l-0.1,0.2c-0.8,1.1-5,5-8.8,5.7l0,0
			h-0.1l0,0H83c-0.5,0-0.8-0.4-0.8-1c0-0.1,0-0.3,0.1-0.4c0.9-1.8,2-4.5,2-7v-0.3l-0.1-0.1c-5.2-3-8.2-8.1-8.2-13.9
			c0-9.3,8.8-16.9,19.7-16.9s19.7,7.6,19.7,16.9C115.2,295.8,106.3,303.3,95.5,303.3z"/>
	</g>
</g>
<g>
	<path d="M95.1,923.7c-10.9,0-19.7,7.6-19.7,16.9c0,5.8,3,10.8,8.2,13.9l0.1,0.1v0.3c0,2.5-1.1,5.1-2,7c0,0.1-0.1,0.2-0.1,0.4
		c0,0.5,0.4,1,0.8,1h0.1l0,0c0.1,0,0.1,0,0.1,0l0,0c3.8-0.7,8-4.6,8.8-5.7l0.1-0.2h0.2c0.8,0.1,1.4,0.2,2.2,0.2h1
		c10.9,0,19.7-7.6,19.7-16.9C114.8,931.3,106,923.7,95.1,923.7z M95.7,948.9c-0.3,0.2-0.8,0.2-1.1,0c-0.8-0.6-8-6-8-10.4
		c0-3.2,2.4-5.1,4.7-5.1c1.4,0,2.8,0.7,3.7,2l0.2,0.2l0.2-0.2c0.9-1.3,2.2-2,3.7-2c2.3,0,4.7,1.9,4.7,5.1
		C103.7,943,96.5,948.3,95.7,948.9z"/>
	<path class="st0" d="M94.4,907c19.9,0,36,16.1,36,36c0,19.9-16.1,36-36,36s-36-16.1-36-36C58.3,923.1,74.5,907,94.4,907z"/>
</g>
<g>
	<g>
		<g>
			<path d="M94.1,848.5c-0.1,0.5-0.1,0.6,0,0.8s0.3,0.4,0.5,0.4c0.6,0.1,1.9-0.8,2.4-2.3c0.3-1,0.8-2.9,0.7-4.4
				c-0.2-1.4-1.5-3.4-2.6-4.5c-0.6-0.6-2.3-1.8-3.7-2.9c-0.9-0.7-2-1.5-2.2-1.7c-0.4-0.4-1-2-0.9-2.7s-0.3-1-0.6-1.1
				c-0.3-0.1-0.5,0-0.8,0.2c-0.4,0.3-1.1,1.2-1.2,2.1c-0.1,0.8,0.1,1.7,0.3,2.3l0,0c0.1,0.3,0.1,0.5,0.1,0.7c0,0.3,0.1,1.2,0.2,2.5
				l0,0v0.2c0.1,1.8,0.3,4.3,0.4,6.2c0.2,2.3,0.4,5.3,0.5,6.7c-0.8-0.1-2.2,0.1-3.7,1.1c-1.3,0.8-2.8,2.1-3.1,3.7
				c-0.1,0.8,0.1,1.8,0.5,2.4c0.6,0.8,1.4,1.1,2.1,1.2c1.6,0.4,3.2-0.5,4.3-1.3c1.8-1.3,2.4-3,2.5-4.2c0.2-1.3-0.6-9.5-0.8-10.4
				c-0.1-0.8-0.3-3.3-0.5-5c0.3,0.3,0.6,0.5,0.9,0.7c1.1,0.8,2.4,2,3.1,2.8c0.6,0.7,1.3,2.2,1.5,3.5
				C94.3,846.5,94.1,847.9,94.1,848.5z M111.1,843.9C111,843.8,111,843.8,111.1,843.9c-0.1-0.1-0.2,0-0.2,0l-11.8,4.3
				c-0.1,0-0.1,0.1-0.1,0.2c-0.1,0.3-0.1,1.6-0.1,3.6c0,1.7,0,3.8-0.1,6c0,0.5,0,1.1-0.1,1.7c0,1.4-0.1,2.7-0.1,3.5
				c-0.7-0.1-1.7-0.1-2.9,0.5c-1,0.5-2.4,1.4-2.7,2.6c-0.2,0.6-0.1,1.4,0.2,1.9c0.4,0.7,1,1,1.5,1.1c0.1,0,0.2,0.1,0.3,0.1
				c1.1,0.3,2.3-0.3,3.1-0.7c1.5-0.9,2.1-2.1,2.3-3c0.2-0.8,0.2-3.6,0.3-6.5c0-0.5,0-1.1,0-1.6c0-1.2,0-2.3,0-3.4v-0.8l8.4-3.1
				c0,1.2,0,2.6-0.1,4.1c0,0.5,0,1.1,0,1.7c0,1.4-0.1,2.8-0.1,3.6c-0.7-0.1-1.7-0.1-2.9,0.5c-1,0.5-2.4,1.4-2.7,2.6
				c-0.2,0.6-0.1,1.4,0.2,1.9c0.4,0.7,1,1,1.5,1.1c0.1,0,0.2,0.1,0.3,0.1c1.1,0.3,2.3-0.3,3.1-0.7c1.5-0.9,2.1-2.1,2.3-3
				c0.2-0.8,0.2-3.6,0.3-6.5c0-0.5,0-1.1,0-1.6c0.1-4.9,0.2-9.2,0.3-9.9C111.2,844,111.1,843.9,111.1,843.9z M109.1,848.5l-8.4,3.1
				c0-0.5,0-0.9,0-1.2l8.4-3.1C109.1,847.7,109.1,848.1,109.1,848.5z"/>
		</g>
	</g>
	<path class="st0" d="M94.4,813.6c19.9,0,36,16.1,36,36c0,19.9-16.1,36-36,36s-36-16.1-36-36C58.3,829.7,74.5,813.6,94.4,813.6z"/>
</g>
<g>
	<g>
		<g>
			<path d="M116.5,746.4c2.2-1.7,2.5-4.7,0.8-7c-1.1-1.4-2.6-2.2-4.1-2.2c-0.9,0-1.8,0.3-2.6,0.9c-1.1,0.9-1.7,2.1-1.7,3.6v0.1h-0.1
				c-1.5-0.6-3.1-0.9-4.8-0.9c-1.7,0-3.4,0.4-5,1h-0.1v-0.1c0.1-1.5-0.5-2.8-1.6-3.7c-0.8-0.6-1.7-0.9-2.6-0.9c-1.5,0-3,0.8-4.1,2.2
				c-0.9,1.1-1.2,2.4-1.1,3.8c0.2,1.3,0.8,2.4,1.8,3.2c0.4,0.3,1,0.5,1.7,0.6h0.1l-0.1,0.1c-1.1,1.9-1.7,4-1.7,6.2
				c0,6.9,5.6,12.5,12.5,12.5s12.5-5.6,12.5-12.5c0-2.2-0.6-4.4-1.7-6.2l-0.1-0.1h0.1C115.6,746.9,116.1,746.7,116.5,746.4z
				 M100.2,750.1c0.7,0,1.3,0.6,1.3,1.3c0,0.7-0.6,1.3-1.3,1.3c-0.7,0-1.3-0.6-1.3-1.3C98.9,750.7,99.5,750.1,100.2,750.1z
				 M107.9,759.5c-0.7,0.7-1.8,1.1-3.3,1.1h-0.1c-2.3,0-3.9-0.6-4.7-1.7c-0.8-1.1-0.6-2.4-0.5-2.6c0.2-1.1,1.4-3.2,4.5-3.4
				c4.1-0.2,5,3.2,5.1,3.8C108.8,757.3,108.9,758.5,107.9,759.5z M107.7,752.6c-0.7,0-1.3-0.5-1.3-1.2c0-0.7,0.5-1.3,1.2-1.3
				s1.3,0.5,1.3,1.2C109,752.1,108.4,752.6,107.7,752.6z M104.7,756c0.6-0.2,1-0.8,1-1.4c0-0.8-0.7-1.5-1.6-1.5s-1.6,0.7-1.6,1.5
				c0,0.8,0.6,1.4,1.5,1.5v0.3l-1.2,1.4l0.6,0.6l1-1.2l1,1.2l0.6-0.6l-1.2-1.4L104.7,756L104.7,756z M89.4,752.9
				c-1.4-0.6-3-0.8-4.5-0.8c-1.7,0-3.4,0.4-5,1h-0.1V753c0.1-1.5-0.5-2.8-1.6-3.7c-0.8-0.6-1.7-0.9-2.6-0.9c-1.5,0-3,0.8-4.1,2.2
				c-0.9,1.1-1.2,2.4-1.1,3.8c0.2,1.3,0.8,2.4,1.8,3.2c0.4,0.3,1,0.5,1.7,0.6H74l-0.1,0.1c-1.1,1.9-1.7,4-1.7,6.2
				c0,6.9,5.6,12.5,12.5,12.5c6.1,0,11.1-4.3,12.3-10.1C90.6,764.3,88.4,758.1,89.4,752.9z M81,761.2c0.7,0,1.3,0.6,1.3,1.3
				s-0.6,1.3-1.3,1.3c-0.7,0-1.3-0.6-1.3-1.3C79.7,761.8,80.2,761.2,81,761.2z M88.7,770.6c-0.7,0.7-1.8,1.1-3.3,1.1h-0.1
				c-2.3,0-3.9-0.6-4.7-1.7c-0.8-1.1-0.6-2.4-0.5-2.6c0.2-1.1,1.4-3.2,4.5-3.4c4.1-0.2,5,3.2,5.1,3.8
				C89.6,768.4,89.6,769.7,88.7,770.6z M88.5,763.8c-0.7,0-1.3-0.5-1.3-1.2c0-0.7,0.5-1.3,1.2-1.3s1.3,0.5,1.3,1.3
				C89.7,763.2,89.2,763.8,88.5,763.8z M85.5,767.1c0.6-0.2,1-0.8,1-1.4c0-0.8-0.7-1.5-1.6-1.5s-1.6,0.7-1.6,1.5
				c0,0.8,0.6,1.4,1.5,1.5v0.3l-1.2,1.4l0.6,0.6l1-1.2l1,1.2l0.6-0.6l-1.2-1.4L85.5,767.1L85.5,767.1z"/>
		</g>
	</g>
	<circle class="st0" cx="94.4" cy="756.1" r="36"/>
</g>
<g>
	<g>
		<g>
			<path d="M118.3,653.8c-0.4-0.9-1.7-1.9-2.7-2.3c-0.6-0.3-1.9-0.7-3-1.1c-0.7-0.2-1.6-0.5-1.8-0.6c-0.3-0.2-1.1-1.1-1.1-1.5
				c-0.1-0.5-0.4-0.6-0.6-0.6s-0.3,0.1-0.5,0.3c-0.2,0.3-0.5,1-0.3,1.6c0.1,0.5,0.4,1.1,0.7,1.5l0,0c0.1,0.2,0.2,0.3,0.2,0.4
				c0.1,0.2,0.3,0.8,0.6,1.6l0,0v0.1c0.5,1.2,1.1,2.8,1.6,3.9c0.6,1.5,1.4,3.3,1.8,4.2c-0.5,0.1-1.4,0.5-2.2,1.5
				c-0.6,0.8-1.4,2-1.2,3.1c0.1,0.6,0.4,1.1,0.9,1.5c0.6,0.4,1.1,0.4,1.6,0.4c1.1-0.1,2-1,2.5-1.8c0.9-1.2,0.9-2.5,0.7-3.3
				c-0.2-0.9-2.4-6.1-2.7-6.6c-0.2-0.5-0.9-2.1-1.4-3.1c0.2,0.1,0.5,0.2,0.7,0.3c0.9,0.3,2,0.8,2.6,1.2c0.5,0.4,1.3,1.2,1.7,1.9
				c0.3,0.6,0.5,1.5,0.6,1.9c0.1,0.3,0.1,0.4,0.2,0.5c0.1,0.1,0.3,0.2,0.4,0.2c0.4,0,1.1-0.9,1.1-2
				C118.8,656,118.8,654.7,118.3,653.8z M106.5,671.7c0-4.4-4.4-8-9.8-8c-3.7,0-7.4,2.7-9,5.4c-0.7-0.3-2.3-0.9-3-0.8
				c-3,0.7-4,2.1-4.5,3.5c-3,0.9-4.5,2.5-4.5,5.1c0,3.4,3.4,6.2,7.6,6.2h1.9h5.7h8.4h4.3h2.7h0.2l0,0c3.8-0.1,6.7-2.2,6.7-5.3
				C113.2,672,106.5,671.7,106.5,671.7z M84.1,665.9c0.5,0,0.9,0.1,1.4,0.1v-19.1h0.7v19.3c0.2,0.1,0.3,0.1,0.5,0.1
				c1.6-2.9,4.7-4.9,8.2-5.5v-8.1l2.5,7.8c6.3,0,11.4,4.3,11.8,9.7l1.6,0.3l-7.9-25.2c-0.2-0.8-1-1.3-1.8-1.3c-0.2,0-0.4,0-0.6,0.1
				l-5.7,1.8c0-1-0.9-1.8-1.9-1.8h-6.1c-0.4,0-0.7,0.1-1,0.3c-0.3-0.2-0.7-0.3-1-0.3h-6c-1,0-1.9,0.8-1.9,1.9v24.7
				c0.4-0.2,0.7-0.3,1.1-0.4C78.6,667.8,81.1,665.9,84.1,665.9z M102.8,650.6l0.6,2l-6.1,1.9l-0.6-2L102.8,650.6z M87.8,649.4h5.7
				v1.7h-5.7V649.4z M78.6,651.2h5.5v1.7h-5.5V651.2z M78.6,655.3h5.5v1.7h-5.5V655.3z"/>
		</g>
	</g>
	<circle class="st0" cx="94.4" cy="662.7" r="36"/>
</g>
<g>
	<path d="M94.4,1016.9c-5.5,0-10,3.3-10,7.3v3.2h5v1.8h-5v1.8h5v1.8h-5v1.8h5v1.8h-5v2.3c0,4,4.5,7.3,10,7.3s10-3.3,10-7.3v-2.3h-5
		v-1.8h5v-1.8h-5v-1.8h5v-1.8h-5v-1.8h5v-3.2C104.4,1020.2,99.9,1016.9,94.4,1016.9z M81.6,1034.5c-1,0-1.3,0.7-1.3,1.6v1.6
		c0,6.5,5.2,12.1,12.4,12.9v3.5h-7.5v2.1h18.1v-2.1h-7.5v-3.5c7.2-0.8,12.6-6.4,12.6-12.9v-1.6c0-1-0.4-1.6-1.4-1.6
		s-1.3,0.7-1.3,1.6v1.6c0,5.4-5.3,10.4-11.3,10.4s-11.5-5.1-11.5-10.4v-1.6C82.9,1035.1,82.6,1034.5,81.6,1034.5L81.6,1034.5z"/>
	<path class="st0" d="M94.4,1000.5c19.9,0,36,16.1,36,36s-16.1,36-36,36s-36-16.1-36-36C58.3,1016.7,74.5,1000.5,94.4,1000.5z"/>
</g>
<g>
	<g>
		<g>
			<path d="M93.3,1126.9c-0.9-0.9-2.4-0.9-3.3,0l-1,1c-0.9,0.9-0.9,2.4,0,3.3l2.4,2.4l4.2-4.2L93.3,1126.9z M110.8,1144.4l-14-14
				l-4.2,4.2l14,14c0.9,0.9,2.4,0.9,3.3,0l1-1C111.7,1146.7,111.7,1145.3,110.8,1144.4z M103.9,1128.6l1.8-1.1l1.9,0.8l-0.5-2
				l1.4-1.6l-2.1-0.1l-1.1-1.8l-0.8,2l-2,0.5l1.6,1.3L103.9,1128.6z M90.4,1121l3.5-1.5l3.2,2.1l-0.3-3.8l2.9-2.4l-3.7-0.9l-1.4-3.6
				l-2,3.3l-3.8,0.2l2.5,2.9L90.4,1121z M79.1,1128.1l2.2-1.4l2.4,1l-0.7-2.5l1.7-2l-2.6-0.2l-1.3-2.2l-1,2.4l-2.5,0.6l2,1.7
				L79.1,1128.1z M82.9,1135.9l-1.1-1.8l-0.8,2l-2,0.5l1.6,1.3l-0.2,2.1l1.8-1.1l1.9,0.8l-0.5-2l1.4-1.6L82.9,1135.9z"/>
		</g>
	</g>
	<path class="st0" d="M94.4,1094c19.9,0,36,16.1,36,36s-16.1,36-36,36s-36-16.1-36-36C58.3,1110.2,74.5,1094,94.4,1094z"/>
</g>
<g>
	<path class="st1" d="M116.2,1685.4c0-0.1,0-0.1,0.1-0.1c0.1-0.7,0.1-1.5,0.1-2.2c0-0.5-0.4-1-0.9-1.1c-1.8-0.5-3.9-0.4-5.8-0.4
		c-0.7,0-1.1,0.5-1.1,1.1c-0.2,0.1-0.3,0.4-0.2,0.7c0.1,0.2,0.1,0.3,0.1,0c0,0.2,0.1,0.3,0.2,0.5c0,0.3,0,0.6,0.1,0.8c0,0,0,0,0,0
		c-1.4,0.6-2.7,1.6-3.9,3.1c-0.1,0-0.2-0.1-0.2-0.1c-2.9-0.3-5.8-0.3-8.8-0.3c-0.8-0.8-1.6-1.8-0.5-2.7c0.9-0.7,1.9-1.1,2.8-1.6
		c2.1-1.2,3-2.8,3.3-5.2c0.7-5.2-7.2-7.3-8-1.8c-0.1,0.9,0.8,1.6,1.6,0.9c0.7-0.7,1.6-2.1,2.8-1.6c1.2,0.5,1.2,2.2,0.9,3.3
		c-0.4,1.9-2.6,2.6-4,3.6c-2.3,1.6-2.5,3.5-1.1,5.1c-2,0-4,0-6.1-0.1c-0.5-1.6-1.4-2.7-2.6-3.5c0-0.1,0.1-0.2,0.1-0.4
		c0-0.8,0-1.6,0-2.3c0-0.7-0.6-1.2-1.2-1.2c-2.3,0-4.7,0-7,0c-0.8,0-1.3,0.7-1.1,1.5c0.1,0.5,0.1,1.1,0.2,1.6c0,0.1,0,0.2,0.1,0.3
		c-4.3,1.6-8.1,5.4-8.9,9.8c-1.8,10,16.4,23.1,19.9,9.8c3.1,0.4,6.3,0.9,9.4,1.3c2.3,0.2,5.9,0.8,7.8-0.8c0.1-0.1,0.2-0.2,0.2-0.2
		c2.5,2.8,6.2,5.6,10.1,4.7c4.6-1,6.5-5.6,7.2-9.8C122.6,1692.9,120,1687.7,116.2,1685.4z M118.9,1699.1c-0.6,2.7-2.2,5.8-5.3,6.2
		c-3.2,0.4-5.9-2.3-7.7-4.5c-0.8-0.9-1.9-0.2-2.1,0.7c-0.1,0-0.2-0.1-0.4-0.1c-2.7,0-5.2,0.4-7.9,0.1c-3.1-0.3-6.1-0.9-9.2-0.9
		c-0.2,0-0.4,0.1-0.6,0.2c-0.5,0-0.9,0.3-1.1,0.9c-3.3,10.4-16.2-1.5-14.9-8.7c1.3-7.1,13.6-11.9,16.4-3.6c0.3,1,2,0.9,1.9-0.3
		c0-0.1,0-0.2,0-0.2c5.5,0.8,11.1,0.4,16.6,1.1c0.6,0.1,1-0.3,1.1-0.8c0.1,0,0.2-0.1,0.3-0.2c3.1-2.8,6.6-4,10-1
		C119.1,1690.9,119.7,1695.3,118.9,1699.1z"/>
	<path class="st1" d="M82.4,1694.3c-0.2-0.2-0.5-0.4-0.9-0.4c-0.4,0-0.9,0-1.3,0c0.1-0.4,0.1-0.7,0.2-1.1c0.2-1-0.7-1.6-1.5-1.6
		c-0.7-0.7-2.2-0.4-2.3,0.9c0,0.6-0.1,1.1-0.1,1.7c-0.8-0.1-1.7-0.1-2.5-0.2c-0.7-0.1-1.1,0.3-1.4,0.7c-0.2,0-0.3,0-0.5,0
		c-1.2,0.1-1.2,1.8,0,1.8c0.7,0,1.4,0.1,2.2,0.1c0.7,0.1,1.3,0.2,2,0.3c-0.1,0.7-0.2,1.4-0.2,2.1c-0.1,0.7-0.1,1.7,0.5,2.3
		c0.5,0.4,1.1,0.4,1.6,0.1c0.4,0,0.7-0.3,0.9-0.7c0.1-0.2,0.3-0.4,0.3-0.7c0-0.2,0-0.4,0.1-0.6c0.1-0.7,0.3-1.4,0.4-2
		c0.9,0.1,1.7,0.1,2.6,0.1C84,1696.8,84,1694.4,82.4,1694.3z"/>
	<path class="st1" d="M113.6,1689.2c-0.2-0.1-0.3-0.1-0.5-0.2c-0.9-1.1-2.6-0.5-2.3,1c0,0.1,0.1,0.2,0.1,0.3
		c-0.2,0.6,0.1,1.1,0.6,1.4c0.1,0.1,0.2,0.2,0.3,0.3c0.1,0.1,0.3,0.2,0.5,0.2c0.2,0.1,0.4,0.1,0.6,0.1c0.1,0,0.2,0,0.3,0
		c0.7,0.1,1.6-0.2,1.8-1C115.3,1690.4,114.3,1689.6,113.6,1689.2z"/>
	<path class="st1" d="M108.9,1694c-0.1,0-0.2,0-0.3,0c-0.2-0.3-0.6-0.4-0.9-0.1c0.2-0.2-0.3,0.2-0.3,0.2c-0.1,0.1-0.2,0.2-0.4,0.3
		c-0.3,0.2-0.6,0.6-0.7,1c-0.3,1,0.3,1.8,1.2,2.3c0.8,0.4,1.7-0.1,1.7-1c0.4-0.3,0.6-0.8,0.8-1.3
		C110.2,1694.8,109.7,1693.9,108.9,1694z"/>
	<path class="st1" d="M116.2,1694c-0.5-0.1-1.1,0-1.3,0.5c-0.1,0.2-0.2,0.5-0.3,0.7c-0.5,0.4-0.6,1-0.5,1.6
		c-0.1,0.6,0.3,1.1,1.1,1.2c0.3,0,0.5-0.1,0.7-0.3c0.1,0,0.2,0,0.3-0.1c0.3-0.1,0.4-0.4,0.6-0.6c0,0,0,0,0-0.1
		c0.2-0.2,0.5-0.4,0.7-0.6C118.3,1695.5,117.5,1694.2,116.2,1694z"/>
	<path class="st1" d="M114.2,1700.8c0.3-0.4,0.2-0.9-0.1-1.3c-0.3-0.4-0.9-0.5-1.3-0.7c-0.6-0.2-1.2,0.2-1.4,0.8c0,0,0,0,0,0
		c-0.5,0-1,0.5-0.7,1c0.1,0.2,0.2,0.5,0.3,0.7c0,0.3,0,0.6,0,0.8c0.2,0.9,1.3,1.2,2,0.7c0,0,0.1-0.1,0.1-0.1c0.2,0,0.3-0.1,0.4-0.2
		c0.1-0.1,0.1-0.1,0.1-0.2c0.4-0.3,0.6-0.7,0.5-1.3c0,0,0,0,0-0.1C114.2,1700.9,114.2,1700.8,114.2,1700.8z"/>
	<path class="st1" d="M93.5,1694.7c-0.5-0.2-1.1-0.1-1.7-0.1c0-0.1,0.1-0.3,0.1-0.4c0.1-1.2-1.5-1.4-2.1-0.6
		c-0.2,0.3-0.3,0.7-0.3,1.1c-0.5,0-0.9,0.1-1.3,0.1c-0.9,0.1-0.9,1.3,0,1.4c0.4,0.1,0.9,0.1,1.3,0.1c0,0.4,0.1,0.7,0.1,1
		c0.1,0.9,1.7,0.9,1.8,0c0-0.3,0.1-0.6,0.1-0.9c0.7,0.1,1.4,0.2,2,0C94.4,1696.1,94.4,1695,93.5,1694.7z"/>
	<path class="st1" d="M101.9,1694.7c-0.4-1-1.9-1.1-3.2-1c-0.4-0.5-1.3-0.7-1.7,0c0,0,0,0.1,0,0.1c-0.5,0.1-1.1,0.2-1.4,0.5
		c-0.1,0.1-0.1,0.1-0.1,0.2c0,0,0,0-0.1,0.1c-0.1,0.1-0.2,0.3-0.3,0.4c-0.1,0.5,0.5,0.9,0.9,0.7c0.1,0,0.3,0.1,0.4,0.1
		c0.1,0,0.1,0,0.2,0c0,0.5,0.1,1.1,0.3,1.6c0.4,1,1.8,0.6,1.6-0.4c-0.1-0.4,0-0.8,0-1.1c1,0.1,2.3,0.7,3.2,0.2
		C102.1,1695.7,102.1,1695.1,101.9,1694.7z"/>
</g>
<g>
	<path class="st2" d="M111.6,1601.2c-0.1-0.1-0.2-0.2-0.3-0.3c-1.4-1-3.4-1.2-5.5-1.1c0.3-1.2,0.4-2.5,0.5-3.7
		c0.1-1.3,0.5-2.8-0.4-3.9l0,0c-0.3-0.4-0.8-0.5-1.2,0c-0.7,0.9-0.6,2.1-0.5,3.2c0,1.5,0,3.1-0.2,4.6c-2.2,0.3-4.3,0.7-5.9,0.8
		c-4.4,0.4-8.8,0-13.2,0.2c0,0,0,0,0,0c-0.1-1.7-0.1-3.3,0-5c0-1,0.7-3.1,0.1-4c-0.2-0.2-0.4-0.4-0.7-0.5c8.7,0.1,17.4-0.8,26.1,0
		c0.6,0.1,1-0.4,1.1-0.8c0.7-0.2,1.3-1,0.8-1.8c-1.7-2.5-4.7-4.6-6.9-6.7c-3.8-3.6-6.7-8-10.5-11.6c-0.5-0.5-1.4-0.5-1.9,0
		c-5.6,5.8-10.1,12.5-16.3,17.7c-0.5,0.4-0.4,1-0.1,1.5c-0.4,0.4-0.2,1.3,0.6,1.4c2.3,0.2,4.5,0.3,6.8,0.4c-0.1,0-0.2,0-0.3,0.1
		c-1.1,0.7-0.8,2.7-0.8,3.9c0,1.8,0.1,3.8,0.6,5.5c-1.6,0.2-3.1,0.4-4.7,0.9c0,0-0.1,0-0.1,0c-0.3,0-0.6,0.1-0.8,0.3
		c0,0-0.1,0-0.1,0c-0.7,0.3-0.8,1-0.5,1.5c0,0.2-0.1,0.3-0.1,0.5c-0.1,1,0,2,0.4,2.9c0,0.1,0.1,0.1,0.2,0.2
		c-0.5,0.2-0.5,1.1,0.1,1.3c0.9,0.2,1.8,0.4,2.8,0.6c-0.1,0.2-0.2,0.4-0.2,0.7c0,4-0.4,8.2,0.5,12.2c-0.1,0-0.2,0-0.3,0.1
		c-0.8,0.2-0.6,1.4,0.2,1.4c2.4-0.1,4.7,0,7,0.1c0.6,0,1.2-0.6,1.2-1.2c0-2.8,1.6-4.9,4.6-4.4c3,0.4,3.2,2.7,3.8,5.1
		c0,0.1,0.1,0.2,0.1,0.3c0.1,0.4,0.3,0.7,0.8,0.7c1.7,0.1,3.4,0,5.2-0.2c1.2-0.1,3.1,0.1,3.8-1c0.1-0.1,0.1-0.2,0.1-0.4
		c0.3-0.1,0.5-0.4,0.7-0.7c0.7-2,0.6-4.5,0.7-6.5c0-1.5,0.5-4.7-0.4-6c1-0.3,2-0.7,2.7-1.3c0.4,0.1,0.9-0.1,1-0.6
		c0.4-1.1,0.4-2.3,0.3-3.4C112.3,1603.1,112.3,1601.9,111.6,1601.2z M106.1,1588.5c0-0.3,0.1-0.6,0.1-0.9c0-0.3,0.1-0.6,0.2-0.9
		c0.7,0.7,1.5,1.5,2.2,2.2C107.8,1588.7,106.9,1588.6,106.1,1588.5z M103.9,1586.2c0-0.6,0.1-1.3,0.1-2c0.4,0.5,0.9,0.9,1.3,1.4
		c-0.1,0.5-0.1,1-0.1,1.5c0,0.4-0.1,0.9-0.1,1.3c-0.5,0-0.9-0.1-1.4-0.1C103.8,1587.6,103.8,1586.9,103.9,1586.2z M101.7,1581.7
		c0.3,0.4,0.7,0.8,1,1.1c-0.1,0.9,0,1.9,0,2.9c0,0.9,0,1.7-0.1,2.6c-0.5,0-0.9-0.1-1.4-0.1C101.5,1586,101.7,1583.8,101.7,1581.7z
		 M98.4,1583.3c0-1.7,0.2-3.5,0.1-5.2c0.6,0.7,1.3,1.4,1.9,2.1c0,0,0,0,0,0c-0.2,2.6-0.3,5.3-0.3,7.9c-0.6,0-1.1,0-1.7,0
		C98.4,1586.5,98.4,1584.9,98.4,1583.3z M95.6,1582.1c-0.1-2.3,0.2-4.7,0.1-7c0.6,0.7,1.3,1.3,1.9,2c-0.1,0.1-0.2,0.1-0.2,0.2
		c-0.6,1.5-0.3,3.5-0.3,5.1c0.1,1.9,0.2,3.8,0.3,5.7c-0.7,0-1.5,0-2.2,0.1C95.6,1586.2,95.6,1584.2,95.6,1582.1z M101.4,1603.1
		c0.6,0,1.2,0,1.8-0.1c-0.1,0.7,0,1.4,0.1,2c0,0.6,0.1,1.1,0.1,1.7c-1,0.2-1.9,0.3-2.9,0.4C101.1,1606,101.6,1604.4,101.4,1603.1z
		 M98,1607.2c0-0.9,0.1-1.7,0.1-2.6c0-0.5,0.1-0.9,0.2-1.4c0.6,0,1.2-0.1,1.8-0.1c0,0.6,0.1,1.1,0,1.7c-0.1,0.8-0.3,1.7-0.5,2.5
		c-0.6,0.1-1.1,0.2-1.7,0.2C98,1607.4,98,1607.3,98,1607.2z M95,1605.6c0.1-0.8,0.4-1.5,0.5-2.3c0.5,0,0.9,0,1.4-0.1
		c-0.2,1.3,0,2.7,0,3.9c0,0.1,0.1,0.3,0.1,0.3c-0.4,0-0.8,0.1-1.2,0.1c-0.3,0-0.7,0-1,0C94.9,1607,94.9,1606.3,95,1605.6z
		 M93.1,1604.9c0-0.5,0.1-1,0-1.5c0.4,0,0.8,0,1.2,0c-0.5,1.3-0.6,2.9-0.5,4.3c-0.3,0-0.6,0-0.9,0C93,1606.7,93,1605.8,93.1,1604.9z
		 M87,1604.6c0.1-0.4,0.3-0.8,0.4-1.2c0.7,0,1.4,0,2,0c0,0.4,0,0.7,0,1.1c0,0.9-0.1,1.8-0.2,2.6c-0.1,0.5,0.6,0.7,0.7,0.2
		c0.4-1.2,0.7-2.6,0.5-3.9c0.4,0,0.8,0,1.1,0c0,0.5,0,1,0,1.5c0,0.9,0.1,1.9,0.1,2.8c-1.6,0-3.3,0-4.9-0.1c0,0,0,0,0,0
		C86.8,1606.6,86.9,1605.6,87,1604.6z M84.3,1605c0-0.5,0.1-1,0-1.5c0.6,0,1.2,0,1.8-0.1c-0.1,0.2-0.1,0.4-0.2,0.6
		c-0.2,1.2-0.2,2.4,0.1,3.5c-0.6,0-1.3,0-1.9,0C84.3,1606.7,84.3,1605.8,84.3,1605z M92.5,1583.1c-0.1-2.4,0.3-5.1,0-7.4
		c1.1-1.1,1.9-1.8,2-1.8c0,0,0.1,0.1,0.1,0.1c-0.9,1.8-0.6,4.2-0.4,6.1c0.2,2.7,0.4,5.4,0,8.1c-0.6,0-1.2,0.1-1.8,0.1
		C92.5,1586.6,92.5,1584.9,92.5,1583.1z M91,1577.2c-0.2,1.4,0,2.8,0.1,4.1c0.1,2.4,0.2,4.8,0.2,7.1c-0.5,0-1.1,0.1-1.6,0.1
		c-0.1-3.3,0-6.6-0.1-9.9C90.1,1578.1,90.6,1577.6,91,1577.2z M86,1584.5c0-0.7,0.1-1.5,0.1-2.2c0.7-0.8,1.4-1.5,2.2-2.2
		c0,2.8,0.2,5.7,0.5,8.5c-1,0.1-1.9,0.2-2.9,0.2C86,1587.4,86,1586,86,1584.5z M79.1,1589.4c0.6-0.6,1.5-1.5,2.5-2.5
		c0.1,0.8,0.2,1.5,0.3,2.3C80.9,1589.3,80,1589.4,79.1,1589.4z M82.6,1589.1c0-0.6,0-1.3,0-1.9c0-0.5,0-1,0.1-1.5
		c0.6-0.7,1.3-1.4,2-2.1c0,0.2,0,0.3,0,0.5c0,1.6-0.1,3.2,0.2,4.8C84.1,1589,83.4,1589.1,82.6,1589.1z M79.1,1607.3
		c0.2-0.2,0.4-0.6,0.3-1c-0.2-0.8-0.1-1.5,0.1-2.3c0.5-0.1,0.9-0.1,1.4-0.2c0,0.3,0.1,0.7,0.1,1c0.1,0.9,0.2,1.8,0.4,2.6
		C80.6,1607.4,79.8,1607.4,79.1,1607.3z M82.1,1603.6c0.4,0,0.8-0.1,1.2-0.1c0,0.5,0,1,0,1.4c0,0.8,0.1,1.7,0.1,2.5
		c-0.4,0-0.8,0-1.2,0c-0.1-0.9-0.1-1.8-0.2-2.7C82,1604.4,82.1,1604,82.1,1603.6z M105.9,1621.3c-0.6,0-1.2,0.1-1.8,0.2
		c-1.5,0.2-3,0.5-4.6,0.7c1.4-6.3-12-10.2-13-0.9c-1.5,0.1-3,0.2-4.5,0.5c0.3-3.9,0.5-7.9,0.5-11.9c0-0.1,0-0.3-0.1-0.4
		c4.4,0.6,9,0.6,13.3,0.5c2.3,0,6.7,0.2,10.3-0.3c-0.2,0.7,0,1.6,0,2.3c0,1.4,0,2.9,0,4.3C106.2,1617.3,105.7,1619.7,105.9,1621.3z
		 M106.4,1604.4c0,0.7-0.2,1.3-0.4,2c-0.6,0.1-1.2,0.2-1.8,0.3c0-0.5,0.1-1.1,0.1-1.6c0-0.7,0.1-1.4,0.1-2.1c0.7,0,1.4,0,2-0.1
		C106.4,1603.4,106.4,1603.9,106.4,1604.4z M107.1,1606.2c0.5-1,0.7-2.3,0.5-3.3c0.7,0,1.5-0.1,2.2-0.1c0.1,0.4,0.2,0.8,0.3,1.2
		c0.1,0.6,0.2,1.3,0.2,1.9C109.3,1605.9,108.2,1606,107.1,1606.2z"/>
</g>
<g>
	<path class="st3" d="M121.5,1209.9c1-1.7-2.1-3.7-3.2-4.5c-2.1-1.5-4.3-2.9-6.5-4.3c0-0.5-0.4-0.9-0.9-1c-3.6-0.2-7.9,6.2-10.1,8.4
		c-4.9,5.2-9.4,10.8-14,16.3c-0.1,0.1-0.3,0.2-0.3,0.4c-0.8,1-1.7,2-2.5,3c-0.4-0.3-1.1-0.1-1.2,0.4c-1.3,4.9-1.6,10-2,15.1
		c-1-0.8-2.3-1.3-3.6-1.5c0.5-1.1,0.9-2.3,1.6-3.3c0.6-1-0.4-2.3-1.5-1.9c-1.2,0.4-2.5,0.6-3.8,0.8c0.9-2.3,2.9-4.3,4.1-6.3
		c0.4-0.7,0.1-1.7-0.8-1.9c-1.6-0.4-3.2-0.4-4.7-0.3c1.3-0.9,2.6-1.7,4.1-2.4c1-0.5,0.3-1.9-0.7-1.7c-3.2,0.7-5.7,2.6-8.1,4.7
		c-0.8,0.7-0.2,2.2,0.9,2.2c2-0.1,4-0.4,6-0.3c-1.6,2.4-3.5,4.6-3.8,7.6c-0.1,0.9,0.9,1.4,1.7,1.3c1-0.2,2.1-0.3,3.1-0.5
		c-0.3,0.8-0.7,1.6-1,2.5c-0.4,0.9,0.1,1.9,1.1,2c2.1,0.1,3.5,1,5.3,2c1,0.5,1.8-0.4,1.5-1.3c0,0,0.1,0,0.1,0c2.5-1,4.8-2.2,7.2-3.4
		c1.9-0.9,4.4-1.7,5.9-3.2c0.2,0,0.4,0.1,0.6,0.1c0.2,0,0.4,0,0.6-0.2c0.3,0.1,0.6,0,0.8-0.2c4.6-4.6,8.8-9.5,13.1-14.3
		c3.7-4.2,8-8.4,11-13.2C121.9,1210.5,121.8,1210.1,121.5,1209.9z M106.3,1206.9c0.7,2,1.5,3.9,2.4,5.7c-0.1,0-0.3,0-0.4,0
		c-0.5-0.8-1.1-1.5-1.6-2.2c-0.5-0.8-1-1.6-1.5-2.4C105.5,1207.7,105.9,1207.3,106.3,1206.9z M107.1,1219.2c0.1,0.1,0.2,0.3,0.3,0.4
		c-0.4,0.7-0.9,1.4-1.3,1.8c0,0,0,0.1-0.1,0.1c-0.2-0.2-0.5,0.1-0.4,0.4c0,0,0,0,0,0.1c-0.3,0.4-0.8,0.8-1.3,1.3
		c0,0-0.1-0.1-0.1-0.1c-0.2-0.4-1-0.1-0.8,0.3c0.1,0.1,0.1,0.3,0.2,0.4c-1.3,1-2.8,1.8-3.9,0.9c-3.2-2.5,4.6-8.3,7.9-10.4
		c0,0.1,0.1,0.2,0.2,0.3c1,1.2,0.6,2.8-0.1,4.3c0,0,0,0,0-0.1C107.5,1218.5,106.9,1218.8,107.1,1219.2z M104.6,1208.6
		c0.4,0.8,0.8,1.5,1.2,2.3c0.3,0.6,0.7,1.3,1.1,1.9c-0.6,0.2-1.2,0.4-1.8,0.7c0-0.6-0.5-1.3-0.8-1.7c-0.4-0.6-0.8-1.2-1.2-1.8
		C103.6,1209.6,104.1,1209.1,104.6,1208.6z M100.9,1212.3c0.6-0.6,1.1-1.2,1.7-1.8c0.4,0.6,0.6,1.3,0.9,1.9c0.2,0.5,0.4,1.1,0.9,1.4
		c-0.6,0.4-1.2,0.8-1.9,1.3c-0.2-0.4-0.6-0.8-0.9-1.2c-0.3-0.4-0.7-0.9-1-1.4C100.8,1212.5,100.9,1212.4,100.9,1212.3z
		 M100.3,1213.1c0.3,0.4,0.5,0.8,0.8,1.2c0.3,0.5,0.6,0.9,0.9,1.3c-0.6,0.5-1.1,1-1.6,1.5c0,0,0-0.1,0-0.1c-0.2-0.3-0.4-0.6-0.7-0.9
		c-0.3-0.5-0.6-1-0.8-1.4C99.3,1214.2,99.8,1213.7,100.3,1213.1z M98.3,1215.4c0.3,0.6,0.6,1.3,0.9,1.9c0.1,0.2,0.3,0.5,0.5,0.7
		c-0.5,0.6-1,1.2-1.3,1.8c0-0.1-0.1-0.1-0.1-0.1c-0.2-0.3-0.4-0.7-0.6-1c-0.3-0.5-0.6-1-0.8-1.5C97.3,1216.5,97.8,1216,98.3,1215.4z
		 M96.3,1217.7c0.3,0.7,0.6,1.4,0.9,2.1c0.1,0.3,0.3,0.7,0.7,0.8c-0.4,0.7-0.6,1.5-0.7,2.2c-0.8-1.2-1.5-2.4-2-3.8
		C95.5,1218.6,95.9,1218.2,96.3,1217.7z M89.9,1238.9c-2.1,1.1-4.3,2.2-6.4,3.2c0.3-3.8,0.7-7.7,0.9-11.5c2,1.6,3.9,3.3,5.9,4.9
		c0.8,0.6,1.6,1.3,2.5,1.9C91.7,1237.8,90.8,1238.5,89.9,1238.9z M96.5,1236.9c-1.7-1.4-3.8-2.3-5.6-3.6c-1.8-1.3-3.5-2.7-5.3-4
		c0.8-0.8,1.6-1.6,2.4-2.4c3.1,2.6,6.4,5,9.9,7.1c0.3,0.2,0.5,0.2,0.8,0.1C98,1235,97.2,1235.9,96.5,1236.9z M99.4,1233.2
		c0.1-0.4-0.1-0.7-0.5-1c-3.4-2-6.7-4.2-9.9-6.4c0.8-0.9,1.6-1.7,2.4-2.6c0.6,1.3,1.2,2.6,1.9,3.8c0.4,0.7,1,2.3,2,2.2
		c0.4,0,0.7-0.7,0.2-0.9c-0.3-0.1-0.6-0.7-0.7-0.9c-0.4-0.6-0.7-1.1-1.1-1.7c-0.6-1-1.1-2.1-1.8-3c0.4-0.4,0.8-0.9,1.2-1.3
		c1.3,2.6,2.7,5.2,4.1,7.6c0.5,0.8,1.5,3,2.7,3.6C99.7,1232.9,99.6,1233.1,99.4,1233.2z M100.7,1231.7c-0.5-0.4-1.2-1.5-1.4-1.7
		c-0.8-1.1-1.5-2.2-2.3-3.3c-1.2-1.9-2.3-3.9-3.6-5.8c0.3-0.4,0.7-0.8,1-1.2c0.6,2,1.8,3.8,2.8,5.6c0.6,1.1,1.3,2.1,1.9,3.2
		c0.3,0.6,0.6,1.3,1.3,1.6c0.4,0.2,0.8-0.1,0.9-0.5c0.1-0.7-0.5-1.6-1.2-2.4c0.5,0.1,1,0.1,1.5,0c0.2,0.3,0.4,0.6,0.6,0.9
		c0.2,0.3,0.4,0.8,0.7,1.2C102.2,1230,101.4,1230.9,100.7,1231.7z M103.7,1228.3c-0.1-0.2-0.3-0.3-0.4-0.5c-0.2-0.3-0.5-0.6-0.7-1
		c0.8-0.3,1.6-0.8,2.3-1.3c0.1,0.2,0.2,0.3,0.4,0.5c0.1,0.1,0.2,0.2,0.2,0.2C104.9,1227,104.3,1227.6,103.7,1228.3z M106.1,1225.5
		c-0.1-0.2-0.3-0.4-0.5-0.6c0,0,0,0,0,0c0.4-0.3,0.7-0.7,1.1-1c0.2,0.2,0.4,0.3,0.6,0.3C106.9,1224.6,106.5,1225,106.1,1225.5z
		 M107.8,1223.6c0-0.1-0.1-0.1-0.2-0.2c-0.1,0-0.2-0.1-0.3-0.3c0.2-0.2,0.4-0.4,0.5-0.6c0.3-0.4,0.6-0.8,0.9-1.2
		c0.2,0.2,0.4,0.3,0.6,0.4C108.8,1222.4,108.3,1223,107.8,1223.6z M109.8,1221.3c-0.1-0.3-0.3-0.5-0.5-0.7c0.7-1.2,1.2-2.5,1.2-3.8
		c0.4,0.7,0.8,1.3,1.4,1.6c0.1,0.1,0.2,0.1,0.3,0.1C111.4,1219.3,110.6,1220.3,109.8,1221.3z M110.3,1212.9
		c-1.2-2.2-2.2-4.4-3.4-6.7c0.2-0.2,0.3-0.3,0.5-0.5c0,0,0,0,0,0c0.5,0.7,1.2,1.4,2,2c-0.1,0.1-0.1,0.2-0.1,0.4
		c0.6,1.6,1.4,3.1,2.1,4.6c0.6,1.2,1.2,2.7,2.1,3.8c-0.3,0.4-0.7,0.8-1,1.2C112.6,1216.2,111.1,1214.4,110.3,1212.9z M114.6,1215.5
		c-0.6-1.1-1.5-2.2-2.1-3.2c-0.7-1.2-1.3-2.4-1.9-3.6c0.6,0.4,1.3,0.9,1.8,1.3c0.9,0.7,2.8,2.5,4.4,3.2
		C116,1213.8,115.3,1214.7,114.6,1215.5z M118.3,1211.5c-0.4-0.3-0.8-0.6-1.3-0.8c-1.1-0.7-2.2-1.4-3.2-2.1c-1.6-1.1-3.5-3-5.4-3.6
		c0.9-0.8,1.8-1.7,2.6-2.5c1.4,1.3,3,2.4,4.6,3.6c1.3,1,3.5,2.4,4.4,3.8C119.4,1210.4,118.8,1210.9,118.3,1211.5z"/>
</g>
<g>
	<path class="st4" d="M106.8,1420.5c-0.2-0.2-0.3-0.5-0.7-0.5c-0.6,0.1-0.7,0.8-0.9,1.2c-0.3,0.4-0.4,1-0.5,1.5
		c-0.6,0-1.2,0-1.6-0.1c0.2-0.6,0.6-1.1,0.9-1.6c0.1-0.6,0.7-1.4,0.1-1.9c-0.9,0.1-1,1.1-1.6,1.6c0,0.6-0.4,0.9-0.3,1.7
		c-0.9,0-1.8,0-2.7,0c0.1-0.9,1.1-1.8,0.4-2.7c-0.8-0.1-0.7,0.8-1.2,1.1c-0.2,0.5-0.6,0.8-0.5,1.6c-0.8-0.1-1.3,0.2-2.1,0.1
		c0.2-0.9,1.5-1.7,0.8-2.7c-1.3,0.5-1.9,1.7-2.5,2.8c-0.7,0.2-1.4,0.4-2.4,0.3c0.3-0.8,1.2-1.6,0.8-2.7c-0.6-0.2-0.6,0.3-0.8,0.5
		c-0.2,0.3-0.4,0.4-0.5,0.7c-0.4,0.4-0.6,1-0.9,1.5c-1,0-1.9,0-2.9,0c0.3-0.7,0.6-1.2,0.9-1.9c0.2-0.6,0.9-1.1,0.5-1.9
		c-0.7-0.2-0.7,0.5-0.9,0.8c-0.3,0.2-0.5,0.6-0.7,0.9c-0.6,0.5-0.9,1.3-1.3,2c-0.9,0.1-1.7,0-2.5-0.1c0.2-0.8,0.7-1.4,1.1-2.1
		c0.2-0.8,1-1.1,1.1-2.1c0-0.2-0.2-0.2-0.3-0.4c-1.4-0.1-1.5,1-2.1,1.6c-0.2,0.5-0.4,0.8-0.7,1.2c-0.1,0.5-0.3,0.8-0.7,1.1
		c-0.6-0.3-0.2-1.5,0.1-1.7c0.1-0.6,0.4-1.1,0.7-1.6c0.1-0.6,0.6-1,0.7-1.6c0.3-0.4,0.7-1.1,0.5-1.5c-0.4-0.4-1.1,0.1-1.3,0.4
		c-0.4,0.3-0.6,0.7-0.8,1.2c-0.3-0.1-0.1-0.7-0.1-0.9c0-0.4,0-0.7,0-1.1c0.2-0.5,0.5-0.9,0.9-1.2c0.2-0.8,0.8-1.2,0.9-2
		c0.4-0.1,0.3-0.7,0.7-0.8c0.1-0.3,0.5-0.4,0.4-0.9c0-0.4-0.3-0.5-0.5-0.7c-0.8,0-1,0.5-1.5,0.8c-0.2,0.5-0.6,0.8-0.8,1.3
		c-0.3-0.3,0-1.1-0.1-1.6c0.4-0.5,0.6-1.3,1.1-1.7c0.1-0.8,0.8-1.1,1.1-1.7c-0.1-0.3-0.3-0.5-0.5-0.7c-0.6-0.1-0.6,0.3-1.1,0.3
		c-0.1,0.2-0.4,0.8-0.5,0.5c-0.3-3-0.2-6.6,0.7-8.9c1.3-0.2,2.6,0.4,3.7,0c4.4-0.2,8.4,0.1,12.1-0.1c0.8,0.2,1.5,0.4,2.4,0.5
		c0.8-0.1,2.1-0.3,2.9,0c1.2,0,2.5-0.1,3.3,0.4C106.7,1406,107,1413.1,106.8,1420.5z M106.2,1422.3c0.2-0.3,0.3-0.6,0.4-1.1
		C107.1,1421.5,106.8,1422.4,106.2,1422.3z M108.7,1401.8c0-0.9,0.2-1.6,0.3-2.4c-0.2-1,0.4-1.5,0.1-2.3c-0.8-0.7-2-0.9-3.6-0.8
		c-0.3-0.2-0.8-0.1-1.2-0.3c-0.3-0.2-0.8-0.2-1.2-0.3c-2.6,0-5.1-0.2-7.8-0.1c-0.2,0-0.2,0.2-0.4,0.1c-1.2,0-2.4,0.1-3.6,0.1
		c-1.1,0-2.7-0.2-3.6,0c-2.3,0.6-4.9-0.1-7,0.4c-0.4,0.2-0.4,0.9-0.5,1.3c-0.2,0.4-0.2,1.1-0.3,1.6c-0.2,1,0,2.5-0.3,3.4
		c0,2.5,0.2,4.8,0.3,7.2c-0.2,3.4-0.6,7.6,0.1,10.7c-0.2,1-0.2,2.8,0,3.7c0.5,0.5,1.3,0.4,2,0.4c0.8,0,1.7,0,2.5,0
		c4.8-0.2,10.1-0.3,14.2,0.3c1.7-0.1,3.4-0.1,5-0.3c0.7-0.1,1.5-0.3,2.4-0.3c0.3-0.2,0.5-0.3,1.1-0.3c0.4,0,1,0.1,0.9-0.4
		c0.6-0.1,0.4-1,0.4-1.6c0-2,0-4,0-6c0.4-2,0.6-4.7,0.3-7c0.2-1,0.1-2.3,0.3-3.3C109,1404.5,108.8,1403.2,108.7,1401.8z"/>
	<path class="st4" d="M98.8,1410.4c0-2.5-2-4.5-4.5-4.5c-2.5,0-4.5,2-4.5,4.5c0,2.5,2,4.5,4.5,4.5
		C96.8,1414.9,98.8,1412.9,98.8,1410.4z M92.3,1410.4c0-1.1,0.9-2,2-2c1.1,0,2,0.9,2,2c0,1.1-0.9,2-2,2
		C93.2,1412.4,92.3,1411.5,92.3,1410.4z M81.4,1411.8v-0.1h4.8c0.6,3.9,4,7,8.1,7c4.1,0,7.5-3,8.1-7h5.1v0.1h0 M88.6,1410.4
		c0-3.1,2.6-5.7,5.7-5.7c3.1,0,5.7,2.6,5.7,5.7c0,3.1-2.6,5.7-5.7,5.7C91.2,1416.1,88.6,1413.5,88.6,1410.4z M107.5,1411.7v-2.6
		h-5.1c-0.6-3.9-4-7-8.1-7c-4.1,0-7.5,3-8.1,7h-4.8v2.6 M101.7,1400.9c-0.3,0.3-0.4,0.7-0.4,1c0,0.4,0.2,0.8,0.4,1
		c0.3,0.3,0.7,0.4,1,0.4s0.8-0.2,1-0.4c0.3-0.3,0.4-0.7,0.4-1c0-0.4-0.2-0.8-0.4-1C103.3,1400.3,102.3,1400.3,101.7,1400.9z"/>
</g>
<g>
	<path class="st5" d="M94.1,1511.9h1.7c0,0,0.5-0.1,0.8-0.3c0.2-0.3,0.2-0.7,0.2-0.7s0-2.3,1-2.6c1-0.3,2.4,2.2,3.8,3.2
		c1.1,0.7,1.9,0.6,1.9,0.6l3.8-0.1c0,0,2-0.1,1-1.7c-0.1-0.1-0.5-1.2-2.8-3.3c-2.4-2.2-2.1-1.9,0.8-5.7c1.7-2.3,2.4-3.8,2.2-4.4
		c-0.2-0.6-1.5-0.4-1.5-0.4l-4.3,0c0,0-0.3,0-0.6,0.1c-0.2,0.1-0.4,0.5-0.4,0.5s-0.7,1.8-1.6,3.3c-1.9,3.2-2.7,3.4-3,3.2
		c-0.7-0.5-0.5-1.9-0.5-2.9c0-3.1,0.5-4.5-0.9-4.8c-0.5-0.1-0.8-0.2-2-0.2c-1.5,0-2.8,0-3.5,0.4c-0.5,0.2-0.9,0.8-0.6,0.8
		c0.3,0,0.9,0.2,1.3,0.6c0.4,0.6,0.4,1.9,0.4,1.9s0.3,3.7-0.6,4.2c-0.6,0.3-1.4-0.3-3.1-3.3c-0.9-1.5-1.5-3.2-1.5-3.2
		s-0.1-0.3-0.4-0.5c-0.3-0.2-0.7-0.3-0.7-0.3l-4.1,0c0,0-0.6,0-0.8,0.3c-0.2,0.2,0,0.7,0,0.7s3.2,7.5,6.8,11.2
		C90.4,1512.1,94.1,1511.9,94.1,1511.9L94.1,1511.9L94.1,1511.9L94.1,1511.9L94.1,1511.9z"/>
</g>
<g>
	<path class="st6" d="M78.3,1294.4l32.4-0.2c1.8,0,5-0.1,5.1,2.4c0.1,1.5,0,38.5,0,38.5c0.2,4-4.9,4.2-15.3,4.4
		c-3.5,0.1-26.1,0.7-27.4-3.1c-0.4-1.2,1.8-1.6,1.8-1.6l0.1-38C75,1294.9,76.4,1294.5,78.3,1294.4L78.3,1294.4z M108.1,1317
		l-8.5,19.6h-1.6l4.7-13.5c0.3-0.3,0.5-0.5,0.7-0.7c0.7-0.7,1.6-2.8,1.9-5.3L108.1,1317z M101.7,1336.6l7.8-19.7l1.7,0l-8.3,19.7
		H101.7z M101.1,1324.4l-5.3,12.2h-1.9l6.5-11.7C100.6,1324.8,100.9,1324.6,101.1,1324.4L101.1,1324.4z M98.4,1326.1l-7,10.5h-2.2
		l5.1-9.6C95.6,1327.2,97,1326.8,98.4,1326.1L98.4,1326.1z M92.3,1326.6l-5.4,10.1h-3.4l6.3-11l0,0
		C90.6,1326,91.4,1326.3,92.3,1326.6L92.3,1326.6z M88.2,1324.7l-7.1,12h-1.9l7.7-13.1C87.4,1324,87.8,1324.3,88.2,1324.7
		L88.2,1324.7z M85.4,1321.8l-8.8,14.9v-4.6l7.5-12.2C84.4,1320.4,84.9,1321,85.4,1321.8L85.4,1321.8z M83.4,1317.8l-6.8,11.3v-3.8
		l4.4-7.4L83.4,1317.8z M79,1318c-0.4,1.1-1.5,3.3-2.3,4.9v-4.8L79,1318z M105.1,1336.6l7.9-19.7l0.8,0v5.6
		c-1.1,2.1-5.8,12.2-6.7,14.2H105.1z M109.1,1336.6l4.7-11.1v4l-3.4,7.1H109.1z M111.8,1336.6l2-4.6v4.6H111.8z M107.9,1300.6
		c1.1,0,1.6,0.7,1.6,1.9c0,1.2-0.5,2-1.6,2s-2.6-0.5-2.6-1.7C105.3,1301.6,106.8,1300.6,107.9,1300.6L107.9,1300.6z M83.2,1315.5
		c0,0.1,0,0.2,0,0.3l-6.6-0.1v-19.6h37.1v18.8l-8.4,0c-0.1-1.8-0.7-3.7-2-5.3C96.6,1301.4,82.9,1308.4,83.2,1315.5L83.2,1315.5z
		 M100,1308.8c1.5,1.3,3.3,3.3,3.5,5c0.2,1.8-0.1,4.5-1.2,6.2c-1.1,1.7-3.3,4.9-7.5,4.9c-4.2,0-6.2-1.4-7.8-4.1
		c-1.6-2.7-2.4-5.6-1.3-7.9c1.1-2.3,3.8-4.3,5.3-4.9C93.5,1307.1,97.9,1307,100,1308.8L100,1308.8z M90.6,1319.4
		c0.7,0.7,1.3,1.1,1.8,1.4c2.8,1.6,7.1-0.8,7-4.4c-0.1-3.5-4.8-5.7-7.2-4.4C89.9,1313.3,87.9,1316.8,90.6,1319.4L90.6,1319.4z
		 M91.5,1314.6c0,0-0.7,1.1-0.5,2.1c0.2,1,1.4,2.7,2.8,2.8c1.5,0.1,3.5-1.2,3.8-2.5c0.3-1.3-0.6-2.4-1.6-3.2
		C94.1,1312.4,93.1,1312.7,91.5,1314.6L91.5,1314.6z"/>
</g>
<g>
	<path class="st7" d="M81.8,1771.9c0.3-0.2,0.7,0,0.9,0.3c0.2,0.3,0,0.8-0.3,0.9l-15.2,8.2c1.1,1.1,2.6,2.3,4.2,3.8
		c3.5,3.1,7.8,6.9,10.9,10.3c0.3,0.3,0.2,0.7,0,1c-0.3,0.3-0.7,0.3-0.9,0c-3.1-3.4-7.3-7.1-10.8-10.2c-2-1.8-3.8-3.3-4.9-4.5
		c-0.1-0.1-0.1-0.1-0.1-0.2c-0.2-0.3,0-0.8,0.3-0.9L81.8,1771.9z"/>
	<path class="st7" d="M78,1774.3c0.5-0.4,1.2-0.2,1.5,0.3c0.3,0.5,0.2,1.2-0.3,1.6l-10.8,6.7c1,0.4,8.6,3.6,12.4,6.3
		c1.4,1,2.1,2.5,1.9,2.9c-0.2,0.6-1.1,0.8-1.7,0.6l-15.4-8.4v0c-0.2-0.1-0.4-0.2-0.5-0.4c-0.3-0.5-0.2-1.2,0.3-1.6L78,1774.3z"/>
	<path class="st7" d="M78,1774.3c0.3-0.2,0.6-0.2,0.8-0.2c0.3,0.1,0.5,0.2,0.7,0.5c0.2,0.3,0.2,0.6,0.2,0.9c0,0.3-0.2,0.6-0.5,0.7
		l0,0l-10.8,6.7c0.7,0.3,4,1.7,7.3,3.4c1.9,0.9,3.7,2,5,2.9c0.6,0.4,1.1,1,1.4,1.5c0.4,0.6,0.6,1.2,0.5,1.5l0,0
		c-0.1,0.3-0.4,0.5-0.7,0.6c-0.3,0.1-0.8,0.1-1.1,0v0l0,0l-15.4-8.4l0,0c-0.1,0-0.2-0.1-0.3-0.2c-0.1-0.1-0.2-0.2-0.2-0.3
		c-0.2-0.3-0.2-0.6-0.2-0.9c0.1-0.3,0.2-0.6,0.5-0.8h0L78,1774.3z M78.9,1774.2c-0.3-0.1-0.6,0-0.8,0.2l0,0l-12.6,8
		c-0.2,0.2-0.4,0.4-0.5,0.7c-0.1,0.3,0,0.6,0.2,0.8c0.1,0.1,0.1,0.2,0.2,0.3c0.1,0.1,0.2,0.1,0.3,0.2l0,0v0l15.4,8.4
		c0.3,0.1,0.7,0.1,1,0c0.3-0.1,0.5-0.3,0.6-0.6l0,0c0.1-0.2-0.1-0.8-0.5-1.4c-0.3-0.5-0.8-1-1.4-1.5c-1.3-1-3.2-2-5-2.9
		c-3.4-1.7-6.7-3.1-7.4-3.4l0,0l0,0l10.8-6.7c0.2-0.2,0.4-0.4,0.5-0.7c0-0.3,0-0.6-0.2-0.8C79.4,1774.4,79.1,1774.2,78.9,1774.2
		L78.9,1774.2z"/>
	<path class="st7" d="M107,1796.4c-0.3,0.2-0.7,0-0.9-0.3c-0.2-0.3,0-0.8,0.3-0.9l15.2-8.2c-1.1-1.1-2.6-2.3-4.2-3.8
		c-3.5-3.1-7.8-6.8-10.9-10.3c-0.3-0.3-0.2-0.7,0-1c0.3-0.3,0.7-0.3,0.9,0c3.1,3.4,7.3,7.1,10.8,10.2c2,1.8,3.8,3.3,4.9,4.5
		c0.1,0.1,0.1,0.1,0.1,0.2c0.2,0.3,0,0.8-0.3,0.9L107,1796.4z"/>
	<path class="st7" d="M110.8,1793.9c-0.5,0.4-1.2,0.2-1.5-0.3c-0.3-0.5-0.2-1.2,0.3-1.6l10.8-6.7c-1-0.4-8.6-3.6-12.4-6.3
		c-1.4-1-2.1-2.5-1.9-2.9c0.2-0.6,1.1-0.8,1.7-0.6l15.4,8.4l0,0c0.2,0.1,0.4,0.2,0.5,0.4c0.3,0.5,0.2,1.2-0.3,1.6L110.8,1793.9z"/>
	<path class="st7" d="M110.8,1794c-0.3,0.2-0.6,0.2-0.8,0.2c-0.3-0.1-0.5-0.2-0.7-0.5c-0.2-0.3-0.2-0.6-0.2-0.9
		c0.1-0.3,0.2-0.6,0.5-0.8l0,0l10.8-6.7c-0.7-0.3-4-1.7-7.3-3.4c-1.9-0.9-3.7-2-5-2.9c-0.6-0.4-1.1-1-1.4-1.5
		c-0.4-0.6-0.6-1.2-0.5-1.5l0,0c0.1-0.3,0.4-0.5,0.7-0.6c0.3-0.1,0.8-0.1,1.1,0h0l0,0l15.4,8.4l0,0c0.1,0,0.2,0.1,0.3,0.2
		c0.1,0.1,0.2,0.2,0.2,0.3c0.2,0.3,0.2,0.6,0.2,0.9c-0.1,0.3-0.2,0.6-0.5,0.7l0,0L110.8,1794z M110,1794.1c0.3,0.1,0.6,0,0.8-0.2h0
		l12.6-8c0.2-0.2,0.4-0.4,0.5-0.7c0-0.3,0-0.6-0.2-0.8c-0.1-0.1-0.1-0.2-0.2-0.3c-0.1-0.1-0.2-0.1-0.3-0.2l0,0h0l-15.4-8.4
		c-0.3-0.1-0.7-0.1-1,0c-0.3,0.1-0.5,0.3-0.6,0.6l0,0c-0.1,0.2,0.1,0.8,0.5,1.4c0.3,0.5,0.8,1,1.4,1.5c1.3,1,3.2,2,5,2.9
		c3.4,1.7,6.7,3.1,7.4,3.4l0,0l0,0l-10.8,6.7c-0.2,0.2-0.4,0.4-0.4,0.7c-0.1,0.3,0,0.6,0.2,0.8
		C109.4,1793.9,109.7,1794.1,110,1794.1L110,1794.1z"/>
</g>
<g>
	<path class="st8" d="M131.2,1867.2c-0.1,0.1-0.2,0.1-0.2,0.2c-0.4,0.6-0.2,1.3,0.3,1.7l9.3,5.7c-6.2-0.9-23.5-3.4-30.9-4.6
		c-1.1-0.2-2.3-0.5-3.3-0.7c-0.6-0.2-3.2-1.1-3.1,0.4c0,0.7,1.1,1.4,2.1,1.7c1.4,0.4,9.3,1.3,9.3,1.3l8.2,1.4l-16.6-0.5v1.6
		c-1.1,0-2.6,0-3.1,0.2c-0.7,0.4-0.7,0.9-0.7,1.2c0.1,0.3,0.7,0.8,1.4,0.6c0.7-0.2,0.4-0.7,0.6-0.7c0.2-0.1,14.7,0,14.7,0
		s8.8,0.1,11.9,0.3c1.7,0.1,5.3,0.5,8.1,0.8c-3,1.4-7.1,3.4-9.6,5.1c-1.5,1.1-2.2,2.7-2.1,3.1c0.2,0.6,1.2,0.9,1.8,0.6l4.3-2.3
		c-1.9,1.8-3.7,3.5-5.3,5.3c-0.2,0.2-0.2,0.4,0,0.6c0.2,0.2,0.4,0.2,0.6,0c2.3-2.5,5.1-5.1,7.8-7.5l9.1-5l0,0
		c0.2-0.1,0.4-0.2,0.6-0.5c0.4-0.6,0.2-1.3-0.3-1.7l-0.8-0.5c0.2-0.2,0.3-0.3,0.5-0.4c0,0,0.1-0.1,0.1-0.1c0.1-0.2,0-0.5-0.2-0.6
		l-17.1-9.2c-0.2-0.1-0.5,0-0.6,0.2c-0.1,0.2,0,0.5,0.2,0.6L131.2,1867.2z M144.6,1874.7l-3.2-2l3.4,1.8
		C144.7,1874.5,144.6,1874.6,144.6,1874.7L144.6,1874.7z"/>
	<path class="st8" d="M57.6,1867.2c0.1,0.1,0.2,0.1,0.2,0.2c0.4,0.6,0.2,1.3-0.3,1.7l-9.3,5.7c6.2-0.9,23.5-3.4,30.9-4.6
		c1.1-0.2,2.3-0.5,3.3-0.7c0.6-0.2,3.2-1.1,3.1,0.4c0,0.7-1.1,1.4-2.1,1.7c-1.4,0.4-9.3,1.3-9.3,1.3l-8.2,1.4l16.6-0.5v1.6
		c1.1,0,2.6,0,3.1,0.2c0.7,0.4,0.7,0.9,0.7,1.2c-0.1,0.3-0.7,0.8-1.4,0.6c-0.7-0.2-0.4-0.7-0.6-0.7c-0.2-0.1-14.7,0-14.7,0
		s-8.8,0.1-11.9,0.3c-1.7,0.1-5.3,0.5-8.1,0.8c3,1.4,7.1,3.4,9.6,5.1c1.5,1.1,2.2,2.7,2.1,3.1c-0.2,0.6-1.2,0.9-1.8,0.6l-4.3-2.3
		c1.9,1.8,3.7,3.5,5.3,5.3c0.2,0.2,0.2,0.4,0,0.6s-0.4,0.2-0.6,0c-2.3-2.5-5.1-5.1-7.8-7.5l-9.1-5l0,0c-0.2-0.1-0.4-0.2-0.6-0.5
		c-0.4-0.6-0.2-1.3,0.3-1.7l0.8-0.5c-0.2-0.2-0.3-0.3-0.5-0.4c0,0-0.1-0.1-0.1-0.1c-0.1-0.2,0-0.5,0.2-0.6l17.1-9.2
		c0.2-0.1,0.5,0,0.6,0.2c0.1,0.2,0,0.5-0.2,0.6L57.6,1867.2z M44.3,1874.7l3.2-2l-3.4,1.8C44.1,1874.5,44.2,1874.6,44.3,1874.7
		L44.3,1874.7z"/>
</g>
</svg>
