<svg width="241" height="55" viewBox="0 0 241 55" fill="none" xmlns="http://www.w3.org/2000/svg"><path fill-rule="evenodd" clip-rule="evenodd" d="M0 1.24551L0.000741382 53.2043C0.264303 54.4377 0.865193 54.0953 4.50439 54.3724C22.6613 55.7544 36.6516 53.2304 38.4153 30.6653C39.4958 16.8425 36.1122 4.03471 21.786 1.06585C16.1581 -0.100593 5.6885 0.418375 0 1.24551ZM10.5045 9.94749V45.097C16.7231 45.372 20.9827 45.701 24.057 41.8136C28.7995 35.8167 30.8095 12.5987 18.7728 10.0861C15.3483 9.37143 13.8274 9.94106 10.5045 9.94749Z" fill="#131313"/><path fill-rule="evenodd" clip-rule="evenodd" d="M158.615 1.24551L158.616 53.2043C158.879 54.4377 159.48 54.0953 163.12 54.3724C181.276 55.7544 195.267 53.2304 197.03 30.6653C197.609 23.2667 196.47 15.515 193.949 10.6518C191.302 5.54627 186.738 2.37908 180.401 1.06585C174.773 -0.100593 164.304 0.418375 158.615 1.24551ZM169.12 9.94749V45.097C175.338 45.372 179.598 45.701 182.672 41.8136C187.415 35.8167 189.425 12.5987 177.388 10.0861C173.964 9.37143 172.443 9.94106 169.12 9.94749Z" fill="#131313"/><path fill-rule="evenodd" clip-rule="evenodd" d="M130.924 0.19075C126.709 0.946713 125.136 1.0515 122.11 3.1826C119.735 4.85541 118.082 6.82588 116.599 9.41231C108.671 23.2381 111.263 57.7471 134.102 54.8253C141.462 53.8839 145.31 50.9573 148.32 45.6223C153.75 36.0019 153.831 16.4947 147.306 7.12885C143.964 2.33075 136.597 -0.826427 130.924 0.19075ZM124.058 39.6822C126.412 47.1883 133.452 47.9798 137.404 44.9051C142.811 40.6982 142.401 30.575 142.381 23.1653C141.228 23.9396 138.962 26.1774 137.795 27.2933C137.09 27.9686 136.349 28.5343 135.563 29.252L126.472 37.5893C125.583 38.336 124.868 39.1435 124.058 39.6822ZM122.556 31.4217C123.602 30.9052 130.352 24.4998 131.648 23.2416L140.8 14.9733C139.569 12.0333 138.458 9.95056 135.275 8.94228C131.613 7.78201 128.206 9.0352 126.44 11.1368C122.3 16.0608 122.556 23.1715 122.556 31.4217Z" fill="#131313"/><path fill-rule="evenodd" clip-rule="evenodd" d="M205.178 53.7961L240.305 53.7984L240.285 44.6229C237.431 44.2729 219.933 44.4991 215.672 44.5035L215.682 31.877H237.912V22.5635H215.682L215.682 10.5376H239.864L239.879 1.37094L205.178 1.23193V53.7961Z" fill="#131313"/><path fill-rule="evenodd" clip-rule="evenodd" d="M106.625 50.5019L106.602 36.1208L98.2226 36.082V45.1183C92.3226 46.8198 86.8577 44.7975 83.7628 41.8432C75.969 34.4034 76.5188 8.60954 93.116 9.34648L97.318 9.7205L97.3381 18.3181L105.771 18.3586L105.733 3.03756C105.444 1.52489 99.5868 0.616204 95.4612 0.266519C91.9958 -0.0273158 89.5874 0.207455 86.1672 1.02421C83.2555 1.71975 80.7203 2.76016 78.4781 4.32596C74.928 6.80514 72.4517 9.91944 70.591 13.8653C68.767 17.7334 67.6389 24.2877 67.9257 28.5752C68.68 39.8519 71.8425 47.3118 79.5353 51.7728C86.1993 55.6372 96.8181 56.0376 104.193 52.5756C105.538 51.9442 106.625 51.5386 106.625 50.5019Z" fill="#131313"/><path fill-rule="evenodd" clip-rule="evenodd" d="M52.26 47.7987C60.5213 47.7866 60.4221 36.1023 52.2631 36.1237C44.0399 36.1453 44.0853 47.8106 52.26 47.7987Z" fill="#131313"/><path fill-rule="evenodd" clip-rule="evenodd" d="M50.412 9.27936C43.153 11.2774 45.4384 22.3801 54.2366 20.3355C61.1627 18.7256 59.1634 6.87061 50.412 9.27936Z" fill="#131313"/></svg>