<svg width="279" height="279" viewBox="0 0 279 279" fill="none" xmlns="http://www.w3.org/2000/svg"><path d="M230.84 181.196C230.845 179.089 230.263 177.026 229.157 175.232L218.432 157.967C217.095 155.312 216.403 152.379 216.412 149.407V96.2176C216.412 61.6876 188.423 33.6984 153.893 33.6984H125.038C90.5079 33.6984 62.5186 61.6876 62.5186 96.2176V149.407C62.5284 152.379 61.8358 155.313 60.4986 157.967L49.774 175.232C48.6678 177.026 48.0859 179.089 48.0908 181.196C48.1147 187.376 53.1166 192.377 59.2959 192.401H219.634C225.814 192.377 230.816 187.375 230.84 181.196Z" fill="#FFD400"/><path d="M153.894 33.6984L177.939 0.0343323H100.993L125.038 33.6984V43.3168H153.894V33.6984Z" fill="#FFD400"/><path d="M229.157 175.232L218.432 157.967C217.096 155.312 216.403 152.379 216.412 149.407V96.2176C216.446 82.29 211.825 68.7476 203.283 57.744C190.443 128.487 145.237 169.269 102.772 192.401H219.635C225.848 192.425 230.908 187.409 230.932 181.191C230.941 179.084 230.359 177.021 229.253 175.232H229.157Z" fill="#FF9F00"/><path d="M163.511 105.836V102.758C163.487 93.8466 156.264 86.6237 147.352 86.5992H144.275V76.9808H134.656V86.5992H131.578C122.653 86.5703 115.395 93.7791 115.367 102.705C115.343 109.481 119.55 115.55 125.904 117.906L134.656 121.177V139.499H131.578C127.967 139.499 125.038 136.571 125.038 132.959V129.881H115.419V132.959C115.443 141.87 122.667 149.093 131.578 149.118H147.353C156.279 149.147 163.536 141.938 163.565 133.012C163.589 126.236 159.381 120.167 153.028 117.811L144.275 114.541V96.2176H147.353C150.965 96.2176 153.894 99.1465 153.894 102.758V105.836H163.511ZM149.661 126.804C152.2 127.79 153.879 130.233 153.893 132.96C153.893 136.572 150.964 139.501 147.352 139.501H144.275V124.784L149.661 126.804ZM134.657 110.934L129.27 108.914C126.731 107.928 125.053 105.484 125.038 102.758C125.038 99.146 127.967 96.217 131.579 96.217H134.657V110.934Z" fill="#fff"/><path d="M235.649 48.1257C234.014 38.2572 226.281 30.5242 216.412 28.8889C226.281 27.2536 234.014 19.5207 235.649 9.65216C237.284 19.5207 245.017 27.2536 254.886 28.8889C245.017 30.5242 237.284 38.2577 235.649 48.1257Z" fill="#FDB62F"/><path d="M19.2368 144.309C17.6015 134.441 9.8685 126.707 0 125.073C9.8685 123.437 17.6015 115.704 19.2368 105.836C20.8721 115.704 28.605 123.437 38.4735 125.073C28.605 126.707 20.8715 134.441 19.2368 144.309Z" fill="#FDB62F"/><path d="M276.863 167.826C272.915 161.18 264.432 158.828 257.627 162.488L189.385 191.631C188.183 192.141 186.889 192.406 185.586 192.401H100.992C95.6781 192.401 91.3738 188.096 91.3738 182.782C91.3738 177.468 95.6781 173.164 100.992 173.164H139.466C155.403 173.164 168.321 160.247 168.321 144.309H88.2961C75.0322 144.319 62.4903 150.354 54.1993 160.708L24.0457 197.21L57.9985 259.44L188.664 228.036C194.31 226.733 199.773 224.733 204.919 222.073L272.247 187.591C278.946 183.383 281.004 174.568 276.863 167.826Z" fill="#FFD4B5"/><path d="M47.1781 239.627L57.9986 259.441L188.664 228.037C194.31 226.733 199.773 224.733 204.919 222.073L241.324 203.366C180.825 221.881 100.512 233.423 47.1781 239.627Z" fill="#F7BB8F"/><path d="M0 192.401V278.966H62.5192L76.9465 264.538L19.2368 177.974L0 192.401Z" fill="#04429E"/><path d="M0 278.966H62.5192L76.9465 264.538L66.3663 248.668C44.9755 257.497 22.7379 264.12 0 268.434V278.966Z" fill="#04285F"/><path d="M43.2825 264.553C48.5946 264.553 52.9009 260.246 52.9009 254.934C52.9009 249.622 48.5946 245.316 43.2825 245.316C37.9704 245.316 33.6641 249.622 33.6641 254.934C33.6641 260.246 37.9704 264.553 43.2825 264.553Z" fill="#D9D9D9"/></svg>