<svg width="38" height="49" viewBox="0 0 38 49" fill="none" xmlns="http://www.w3.org/2000/svg">
<path d="M18.7517 46.9517C19.5057 42.2563 16.4389 35.9031 12.8171 32.3932C13.0028 33.6294 13.9514 34.3799 13.0824 37.6007C13.4937 35.0885 10.2323 28.8126 11.1875 25.5676C9.65964 27.2099 9.67733 31.2828 10.082 33.3181C7.92393 31.1768 7.36894 27.3579 8.36836 25.3292C8.33519 26.7 8.34183 27.5212 8.91008 28.4594C8.59611 26.9627 8.81058 25.4616 9.9294 24.338C8.80837 23.9649 8.13398 22.7309 7.89076 21.6448C7.78242 22.8435 7.80895 23.1084 7.9969 24.0311C5.59122 18.817 10.1328 13.508 12.0255 12.9208C10.7143 14.0245 10.0355 15.7905 9.88075 17.6912C10.5175 16.572 11.3865 15.53 12.9343 14.8943C12.2309 15.5567 11.7094 16.3882 11.4197 17.3093C12.1847 16.391 13.7082 15.4837 15.2427 16.338C14.5059 17.7083 14.2713 19.2924 14.5793 20.817C13.4561 19.9119 13.1554 18.4748 13.801 16.7353C11.9083 18.1437 12.0322 19.4726 12.2975 21.3159C11.0438 20.0929 10.9354 18.934 11.2782 17.7574C10.6281 18.2607 10.1173 19.2519 10.1107 20.5455C9.66849 20.2563 9.22627 19.7 9.20637 18.5587C7.43749 22.8501 11.1499 22.4373 10.2124 25.1526C11.0261 24.1349 11.2826 22.5322 10.4004 21.4947C12.4854 22.5985 12.3284 23.6492 12.4257 25.4086C12.4257 25.4086 13.3257 24.8038 13.2748 23.1084C13.8143 23.5742 15.0304 25.4484 14.2565 27.1812C15.6186 25.987 16.0254 24.0135 14.67 22.2364C16.3195 22.7552 16.66 25.1636 16.5517 26.4307C17.0646 25.934 17.4029 25.6581 17.2371 24.6073C19.1342 27.8016 16.419 28.0753 18.7849 31.0091C18.4001 30.1724 18.5394 28.4307 19.3553 27.6757C19.4902 28.934 19.3222 29.8722 20.954 31.062C20.6599 30.0311 20.8036 29.6073 21.2989 28.4638C21.6615 29.5941 23.5476 32.3512 25.6747 33.7773C24.1269 33.7442 22.3072 33.3027 20.368 31.8921C21.489 34.53 24.6664 35.4064 26.6122 35.7088C25.8582 35.945 25.4491 36.0731 24.4851 35.9296C25.5044 36.2298 27.8946 37.8744 27.2976 40.3115C27.2976 39.6139 26.6498 38.1393 26.0152 37.806C26.3137 38.6448 26.5304 40.2055 25.8759 41.5345C26.066 37.0223 23.7952 36.3512 20.8854 35.7949C22.6211 36.6294 24.903 37.7111 24.9251 40.5256C24.3922 39.5102 23.8991 39.0135 23.0346 38.8258C23.7333 40.3049 23.8726 43.0554 27.0146 44.413C23.2071 44.232 22.6278 42.2055 21.9092 40.4528C21.9092 40.466 22.19 44.1901 18.734 46.9561L18.7517 46.9517ZM17.299 49.0002C20.6157 47.625 22.1126 45.8369 22.6278 44.6117C24.0606 46.1989 27.9189 45.9362 29.04 44.923C24.6487 40.9384 31.4302 39.3314 27.1694 34.7287C28.496 34.9649 29.4822 34.5786 30.2163 33.6779C26.8841 34.1857 25.4779 32.466 24.2662 29.8744C25.0688 30.957 26.1048 31.8457 27.2976 32.4748C27.3748 32.5227 27.4616 32.5528 27.5519 32.5631C28.4629 32.6294 28.6574 32.1724 28.6574 32.1724C28.9955 32.129 29.3258 32.0391 29.6392 31.9053C29.6965 31.8841 29.7485 31.8508 29.7917 31.8075C29.8348 31.7643 29.868 31.7122 29.8891 31.6549C29.9101 31.5976 29.9184 31.5365 29.9134 31.4756C29.9085 31.4148 29.8903 31.3558 29.8603 31.3027C30.0814 31.1018 30.7182 30.5698 30.7646 29.6801C30.1897 30.3005 28.9294 30.934 28.1577 29.8634C26.8886 27.5631 31.083 26.1526 31.6093 27.7464C31.7441 28.4086 30.9614 28.8303 30.8265 29.0069C32.0559 29.0333 32.2903 28.6272 32.79 28.2232C32.8696 28.6647 32.4583 29.3424 31.7508 29.8678C33.3538 29.6625 33.7761 28.5676 34.0393 28.0753C34.2349 28.0833 34.4296 28.0439 34.6067 27.9605C34.7838 27.8771 34.9381 27.7521 35.0564 27.5963C35.5428 27.04 36.4958 25.7177 36.4958 25.7177C36.4958 25.7177 36.8407 25.6514 37.3161 25.1415C37.7915 24.6316 38.0834 24.3203 37.9507 23.817C37.9451 23.7958 37.9377 23.7751 37.9286 23.7552C37.7075 23.2166 36.4958 22.0422 35.1492 20.8854C33.7518 19.6956 33.7054 18.4903 33.0133 17.6537C32.8995 17.5156 32.7626 17.3984 32.6087 17.3071C32.1134 17.0179 31.5319 17.0731 30.7049 16.5896C30.498 16.4679 30.3007 16.3306 30.1146 16.179C28.695 15.0267 28.9559 14.8545 28.9869 14.6625C29.0178 14.4704 29.4424 13.934 29.2898 13.5587C29.2541 13.4562 29.1978 13.3621 29.1245 13.282C29.0511 13.2019 28.9622 13.1376 28.8631 13.0929C30.1234 12.0731 28.4208 10.8038 27.3308 10.8038C27.5231 9.38213 24.9627 8.18125 23.9721 9.05984C23.5299 8.15697 21.5642 8.39759 20.8766 8.86778C20.1071 8.36668 19.0436 8.28942 18.1746 8.52562C15.4262 9.27396 14.5174 11.6824 11.0991 10.5124C11.4506 11.5764 12.1759 11.8148 12.8016 12.0974C12.8016 12.0974 11.3224 12.0113 9.57341 13.4837C7.82443 14.9561 6.80511 18.1194 6.80511 18.1194C6.80511 18.1194 5.27724 18.3005 3.99923 21.1217C2.72121 23.9428 3.79138 27.945 3.39117 30.2342C3.07498 32.0576 1.62229 34.2894 -0.0316162 35.2232C2.47356 35.828 3.28504 35.3843 5.17111 33.7133C5.40327 35.3954 5.00306 40.4528 1.98269 42.1857C5.04728 43.7574 9.56678 40.157 9.30144 37.9164C10.0643 38.9936 10.5706 42.1106 9.81664 45.0974C13.8165 44.6095 14.4467 43.2982 15.0393 42.0333C15.979 43.2563 17.582 46.1261 17.299 48.9958V49.0002ZM24.2949 5.61834C23.964 5.26826 23.7487 4.8252 23.678 4.34902H23.751C23.8331 4.32284 23.9047 4.27133 23.9556 4.2019C24.0064 4.13248 24.0339 4.04872 24.034 3.96271C24.0264 3.85987 23.9802 3.7637 23.9045 3.69352C23.8288 3.62333 23.7294 3.58432 23.6261 3.58432C23.5228 3.58432 23.4233 3.62333 23.3477 3.69352C23.272 3.7637 23.2257 3.85987 23.2181 3.96271C23.2173 4.03796 23.2376 4.11193 23.2767 4.17628C23.3158 4.24064 23.3721 4.29282 23.4392 4.32694C22.3337 6.29825 20.2243 5.10178 20.2243 3.3733C20.2243 3.12827 20.4321 2.8435 20.6908 2.9009C21.0667 2.9892 21.049 3.56315 20.9893 3.85233C21.5156 3.47043 21.7057 2.74858 21.2281 2.27617C21.1018 2.14234 20.9337 2.05528 20.7513 2.02921C20.569 2.00315 20.3832 2.03963 20.2243 2.13269C20.2486 1.71988 20.2243 0.346812 19.6273 0.015686C18.933 0.397584 19.0303 2.13269 19.0303 2.13269C18.8714 2.03963 18.6856 2.00315 18.5032 2.02921C18.3209 2.05528 18.1528 2.14234 18.0265 2.27617C17.5466 2.75299 17.739 3.47043 18.2653 3.85233C18.2653 3.85233 18.1215 3.13489 18.4554 2.94505C18.7893 2.7552 19.0303 3.13489 19.0303 3.3733C19.0303 4.29163 18.6478 5.1084 17.3078 5.34681C16.587 5.47706 16.0696 4.77948 15.8154 4.32694C15.8822 4.29242 15.9382 4.24015 15.9772 4.17588C16.0162 4.11162 16.0367 4.03785 16.0365 3.96271C16.0359 3.85516 15.9928 3.75218 15.9167 3.67613C15.8405 3.60009 15.7373 3.55711 15.6296 3.55653C15.5215 3.55653 15.4178 3.59925 15.3412 3.67536C15.2645 3.75147 15.2212 3.85478 15.2206 3.96271C15.2209 4.06143 15.2572 4.15666 15.3227 4.2306C15.3882 4.30454 15.4784 4.35214 15.5766 4.36447C15.5048 4.84032 15.2897 5.28307 14.9597 5.63379C14.2499 6.12165 13.35 5.69119 13.2063 4.64041C13.167 4.37267 13.1876 4.09957 13.2668 3.84076C13.3459 3.58196 13.4816 3.34389 13.664 3.14372C13.5045 3.07608 13.3276 3.06102 13.159 3.10072C12.9903 3.14042 12.8388 3.23283 12.7264 3.36447C12.3483 2.65807 11.727 2.56756 11.2583 2.54549C12.0167 3.29383 13.2262 6.9318 13.8099 9.3424C13.8312 9.53048 13.8644 9.71702 13.9094 9.9009C14.4762 9.64076 15.0263 9.34586 15.5567 9.01789C16.2708 8.59626 17.1265 8.07308 17.927 7.85454C18.8691 7.58867 19.8767 7.68313 20.7527 8.11944C21.2445 7.93141 21.7603 7.81326 22.285 7.76845C22.743 7.71283 23.2068 7.8016 23.6117 8.02231C24.0782 8.29383 23.7488 8.24306 24.275 8.12165C24.7523 8.02284 25.2481 8.06581 25.7012 8.24527V8.21657C26.3358 5.93622 27.3042 3.2254 27.9455 2.58964C27.4767 2.61171 26.8554 2.70222 26.4795 3.40862C26.3671 3.27698 26.2156 3.18458 26.047 3.14487C25.8784 3.10517 25.7014 3.12023 25.542 3.18787C25.7238 3.38838 25.8592 3.62648 25.9383 3.88518C26.0174 4.14389 26.0384 4.41684 25.9997 4.68456C25.856 5.73533 24.956 6.1658 24.2463 5.67794L24.2949 5.61834ZM26.2341 10.7111C26.2451 11.8258 27.501 11.6757 28.129 12.2563C28.0073 12.3567 27.9091 12.4824 27.8412 12.6247C27.7734 12.767 27.7376 12.9224 27.7364 13.0799C27.7351 13.2375 27.7684 13.3934 27.8339 13.5368C27.8995 13.6802 27.9956 13.8074 28.1157 13.9097C27.7686 14.5963 27.7 15.1724 28.1931 15.8258C26.7714 17.7618 24.7969 14.0841 25.7211 13.4373C26.2717 13.0378 27.0876 13.923 27.0345 14.6559C28.3014 12.8479 25.4314 10.6669 23.5719 10.987C24.3922 11.5543 24.4785 12.2431 24.1866 13.0797C23.8417 12.1526 22.1479 11.0356 20.3968 10.7684C20.724 11.4307 20.3282 12.2144 20.0253 12.5035C19.5035 11.0047 17.5489 10.2651 15.8353 10.5852C19.0613 8.78831 20.0363 9.58302 20.9783 9.97374C21.356 9.77254 21.7786 9.67024 22.2067 9.67642C22.6347 9.6826 23.0542 9.79704 23.426 10.0091C23.6201 10.1235 23.8447 10.176 24.0696 10.1595C24.2945 10.1429 24.5089 10.0581 24.6841 9.91635C25.071 9.68015 26.1921 10.2144 26.2319 10.7022L26.2341 10.7111ZM13.3146 11.4947C14.7629 11.5322 16.8811 10.8038 18.3183 12.093C17.3123 11.8258 15.7313 11.7022 15.0437 12.4329C15.8706 11.9914 17.854 12.5918 19.0237 13.2563C17.7788 13.3579 16.5539 14.519 15.8131 15.6846C15.4868 15.4177 15.0945 15.2435 14.6774 15.1802C14.2603 15.1169 13.8339 15.1668 13.4428 15.3247C13.8372 14.6805 14.4209 14.1732 15.1144 13.8722C14.1681 13.636 12.7486 14.0444 11.287 15.1327C11.873 13.5212 13.4362 12.5345 14.4091 12.4837C14.1581 12.049 13.7769 11.7039 13.319 11.4969L13.3146 11.4947ZM19.5057 17.4175C18.7207 17.6537 18.2387 18.5389 18.0309 19.1835C17.8518 18.742 17.5997 18.0223 18.3559 16.7662C16.8811 17.5212 16.6489 20.9804 16.6622 21.9163C14.1747 18.2916 17.257 14.2475 18.9352 14.2166C17.5864 15.0996 17.2194 16.2033 17.299 16.7133C17.8872 15.8545 18.4532 15.7596 19.3421 15.8678C19.2256 15.9672 19.1351 16.0934 19.0784 16.2354C19.0217 16.3775 19.0005 16.5313 19.0166 16.6834C19.0327 16.8355 19.0857 16.9814 19.1709 17.1085C19.2561 17.2357 19.371 17.3402 19.5057 17.413V17.4175ZM4.62275 28.5433C4.55642 25.1548 3.78253 21.5941 6.83385 19.1062C5.65534 22.0179 7.10582 24.4947 7.56131 25.104C6.65254 24.6294 6.03786 24.157 5.69292 22.6757C5.36126 23.7971 5.38558 28.1128 5.5492 29.1371C6.20148 27.4506 6.39385 26.9495 7.33356 26.0466C6.40269 31.7552 8.66022 32.2431 9.4319 36.2718C8.94988 35.4616 8.58726 35.2077 7.98805 35.0775C9.27712 37.0885 7.26281 40.0929 4.6714 41.1658C6.75868 38.6073 6.783 31.9627 6.02017 29.8016C5.50056 31.9009 4.45471 33.0333 2.90915 34.0245C3.93731 32.3932 4.64708 30.5985 4.6117 28.5433H4.62275ZM11.0902 34.8788C10.5109 33.5543 10.3296 30.2011 10.4866 29.0598C10.8094 32.6581 13.1665 35.3424 12.5849 38.6846C13.3478 38.179 14.0575 36.7177 13.9956 35.1526C16.3659 38.4638 16.8701 38.04 17.8164 44.6448C17.4007 42.04 15.6053 39.828 14.0266 39.0753C14.2853 41.062 13.5733 43.0223 11.6297 43.4903C12.1781 40.4241 11.2008 38.6669 9.81221 36.689C10.805 37.3358 10.7387 37.2298 11.8022 37.2563C10.0621 35.689 9.77905 34.7773 9.32577 33.4175C10.1969 34.413 9.9891 34.2298 11.0947 34.8722L11.0902 34.8788ZM36.6815 24.2011C36.3056 23.9804 36.131 23.5389 35.9629 23.7375C35.8575 24.0648 35.8575 24.4169 35.9629 24.7442C35.8159 24.8226 35.6888 24.9336 35.5914 25.0687C35.3327 25.4241 34.5876 26.4417 34.2161 26.8634C34.183 26.906 34.1407 26.9407 34.0923 26.9649C33.8051 26.9519 33.524 27.0499 33.3074 27.2386C33.1725 27.1672 33.0243 27.1245 32.8721 27.1131C32.7199 27.1017 32.567 27.1219 32.4229 27.1724C31.3395 25.5941 25.6791 25.4197 26.8952 30.1305C25.0976 28.8877 23.9434 27.0576 24.9959 22.7287C22.756 24.5896 23.1628 27.3534 23.5785 28.9473C20.483 25.636 21.3077 20.4373 24.463 18.1305C24.4435 17.9611 24.3768 17.8005 24.2705 17.6671C24.1642 17.5336 24.0225 17.4326 23.8616 17.3755C23.2933 17.1548 23.6073 15.6338 23.2955 15.2232C22.5437 14.2188 21.1419 13.9473 20.4498 14.764C21.1132 15.0598 21.405 15.6824 21.3343 15.934C21.2635 16.1857 20.8014 16.1548 20.8611 16.6647C21.0822 17.2099 21.8915 17.5609 22.4885 17.8236C22.4553 17.9164 19.5145 20.0311 19.7843 22.3314C19.7843 22.3314 20.4299 20.9605 21.4802 20.4395C20.2287 23.1283 20.3105 24.232 21.0159 26.9053C19.446 25.8656 16.828 22.9119 18.0132 20.0753C18.0398 20.4015 18.1371 20.7181 18.2982 21.0032C18.4592 21.2882 18.6804 21.535 18.9463 21.7265C18.9463 19.7397 20.0651 18.8192 21.0203 18.3888C20.3077 18.369 19.6126 18.61 19.0657 19.0665C19.7555 17.9627 20.2022 17.5852 21.0225 17.5367C20.3968 17.3424 19.8506 16.7066 20.4321 16.0356C18.6898 15.4285 19.8993 11.1437 23.6006 13.6978C24.4364 14.2166 26.0771 18.4064 27.7774 17.5543C28.1179 17.3821 28.4407 16.8126 28.5668 16.3159C29.3798 17.2026 30.4327 17.8352 31.5982 18.1371C31.8525 18.2033 31.9785 18.2011 32.162 18.4064C31.9564 18.5278 32.2726 19.274 32.005 19.5477C31.7375 19.8214 31.1692 19.4616 30.4573 19.4263C29.7453 19.391 29.5286 19.4726 29.533 19.583C29.5375 19.6934 30.6253 19.8722 30.7292 20.2011C30.8332 20.53 31.4302 21.0665 31.6137 21.0157C31.7972 20.9649 31.4147 20.7133 31.2864 20.4771C31.1582 20.2409 31.4368 20.0819 31.7618 20.0356C32.0869 19.9892 32.4495 20.1945 32.7236 20.274C32.7861 20.2991 32.8554 20.3013 32.9193 20.2803C32.9833 20.2593 33.0377 20.2164 33.073 20.1592C34.6672 22.6757 35.4698 22.2828 36.7899 24.0488L36.6484 24.2077L36.6815 24.2011Z" fill="black"/>
</svg>
