<svg xmlns="http://www.w3.org/2000/svg" width="134" height="137" viewBox="0 0 134 137"><defs><filter id="a" width="200%" height="200%" x="-50%" y="-50%" filterUnits="objectBoundingBox"><feOffset dy="2" in="SourceAlpha" result="shadowOffsetOuter1"/><feGaussianBlur in="shadowOffsetOuter1" result="shadowBlurOuter1" stdDeviation="6"/><feColorMatrix in="shadowBlurOuter1" result="shadowMatrixOuter1" values="0 0 0 0 0 0 0 0 0 0 0 0 0 0 0 0 0 0 0.15 0"/><feMerge><feMergeNode in="shadowMatrixOuter1"/><feMergeNode in="SourceGraphic"/></feMerge></filter><linearGradient id="b" x1="0%" x2="100.002%" y1="49.996%" y2="49.996%"><stop offset="0%" stop-color="#6AA6FF"/><stop offset="100%" stop-color="#66A8FF"/></linearGradient><linearGradient id="c" x1="-.02%" x2="100.002%" y1="49.996%" y2="49.996%"><stop offset="0%" stop-color="#A8A8C3"/><stop offset="100%" stop-color="#CBCBCB"/></linearGradient><linearGradient id="d" x1=".023%" x2="100.001%" y1="50.165%" y2="50.165%"><stop offset="0%" stop-color="#68C8FF"/><stop offset="100%" stop-color="#49C2FF"/></linearGradient></defs><g fill="none" fill-rule="evenodd" filter="url(#a)" transform="translate(11 10)"><path fill="url(#b)" d="M67.556 113.783l3.061-1.52S50.175 101.189 32.904 73.61c-6.669-10.64-9.62-19-10.495-25.08-.874-6.514 3.826-12.377 10.276-13.137 9.073-.977 21.207-1.303 24.814 4.995l.656 1.085c1.093 1.955 3.28 3.257 5.575 3.257 1.859 0 4.591-1.628 5.794-3.148 3.607-4.56 9.62-12.92 8.308-18.132-1.75-6.622-14.867-8.251-29.734-8.468-17.818-.326-36.073 4.56-47.66 10.314 0 0 0 19 13.336 41.583 20.332 34.417 53.782 46.903 53.782 46.903z"/><path fill="url(#c)" d="M108.986 7.166l-3.28-2.497c.22 15.091-.327 25.514-5.246 39.52-6.778 19.217-17.163 30.291-23.503 34.525-5.356 3.692-9.947 1.955-15.304-4.668-5.684-7.057-11.915-16.72-8.964-22.366l1.203-2.063c1.093-1.954 1.093-4.451 0-6.406-.984-1.628-2.624-2.714-4.482-3.04-5.794-.76-17.38-1.845-20.551 1.955-4.482 5.211.437 17.045 7.761 29.748 8.855 15.526 22.41 28.555 33.341 35.503 0 0 18.474-11.183 29.078-32.68 17.6-35.503 9.947-67.531 9.947-67.531z"/><path fill="url(#d)" d="M3.498 15.309v4.994s16.179-9.663 45.038-9.663c12.57 0 20.66 1.52 26.344 3.691 6.122 2.389 9.51 9.338 6.996 15.309C78.378 38 71.492 49.074 65.59 49.074h-2.405c-2.296 0-4.373 1.195-5.575 3.257-.875 1.629-1.094 3.583-.328 5.32 2.186 5.538 7.98 15.96 12.79 17.155 5.684 1.52 15.74-8.795 22.08-22.149 7.434-15.743 10.167-27.468 10.167-42.668 0 0-7.652-9.989-41.211-9.989C25.58.109 3.498 15.309 3.498 15.309z"/></g></svg>