<svg version="1.1" id="Layer_1" xmlns="http://www.w3.org/2000/svg" x="0" y="0" viewBox="0 0 18 18" xml:space="preserve"><g id="false"><path d="M9.6,2.7c-0.7,0-1.3-0.6-1.3-1.3S8.8,0,9.6,0l5.2,0c0.7,0,1.3,0.6,1.3,1.3s-0.6,1.3-1.3,1.3H9.6z M2.7,15.3h12.7V5.6 c0-0.7,0.6-1.3,1.3-1.3c0.7,0,1.3,0.6,1.3,1.3v9.7c0,1.5-1.2,2.7-2.7,2.7H2.7C1.2,18,0,16.8,0,15.3l0-5.4c0-0.7,0.6-1.3,1.3-1.3 c0.7,0,1.3,0.6,1.3,1.3V15.3z"/><path d="M1.5,0C1.1,0,0.7,0.1,0.4,0.4c0,0,0,0,0,0C0.2,0.6,0,1,0,1.3l0,4C0,6,0.6,6.6,1.4,6.6c0.7,0,1.3-0.6,1.3-1.3V4.5L7,8.9 c0.5,0.5,1.4,0.5,1.9,0c0.5-0.5,0.5-1.4,0-1.9L4.6,2.7h0.6c0.7,0,1.3-0.6,1.3-1.3C6.5,0.6,5.9,0,5.1,0L1.5,0z"/></g></svg>