<svg width="20" height="20" viewBox="0 0 20 20" fill="none" xmlns="http://www.w3.org/2000/svg"><path d="M8.24219 10.5859H11.7578V11.7578H8.24219V10.5859Z" fill="#8B8B8B"/><path d="M16.2257 11.7579H12.9297V12.3438C12.9297 12.6676 12.6675 12.9298 12.3438 12.9298H7.65625C7.33246 12.9298 7.07031 12.6676 7.07031 12.3438V11.7579H3.77426C3.01666 11.7579 2.34665 11.275 2.10678 10.5563L0 4.23486V17.0313C0 18.0006 0.788574 18.7892 1.75781 18.7892H18.2422C19.2114 18.7892 20 18.0006 20 17.0313V4.23532L17.8931 10.5563C17.6534 11.275 16.9833 11.7579 16.2257 11.7579Z" fill="#8B8B8B"/><path d="M12.3438 1.21094H7.65625C6.68701 1.21094 5.89844 1.99951 5.89844 2.96875V3.55469H1.00815L3.21808 10.1854C3.29819 10.4251 3.52188 10.5859 3.77426 10.5859H7.07031V10C7.07031 9.67621 7.33246 9.41406 7.65625 9.41406H12.3438C12.6675 9.41406 12.9297 9.67621 12.9297 10V10.5859H16.2257C16.4781 10.5859 16.7018 10.4251 16.7819 10.1854L18.992 3.55469H14.1016V2.96875C14.1016 1.99951 13.313 1.21094 12.3438 1.21094ZM7.07031 3.55469V2.96875C7.07031 2.64542 7.33292 2.38281 7.65625 2.38281H12.3438C12.6671 2.38281 12.9297 2.64542 12.9297 2.96875V3.55469H7.07031Z" fill="#8B8B8B"/></svg>