<svg width="27" height="27" viewBox="0 0 27 27" fill="none" xmlns="http://www.w3.org/2000/svg"><path d="M27 18.4559C27 17.426 26.3367 16.5562 25.418 16.2285V8.03392L27 7.38165L13.5 1.96509L0 7.38165L13.5 12.7983L23.8359 8.66916V16.2285C22.9172 16.5562 22.2539 17.426 22.2539 18.4559C22.2539 19.3988 22.8108 20.2081 23.6092 20.5906L22.2949 24.5337L23.795 25.0343L24.627 22.5384L25.4589 25.0343L26.959 24.5337L25.6447 20.5906C26.4431 20.2082 27 19.3988 27 18.4559Z" fill="#8B8B8B"/><path d="M13.5 14.5034L6.38086 11.6448V13.7101C6.38086 15.9649 9.4414 17.6651 13.5 17.6651C17.5586 17.6651 20.6191 15.9649 20.6191 13.7101V11.6448L13.5 14.5034Z" fill="#8B8B8B"/></svg>