<svg xmlns="http://www.w3.org/2000/svg" xmlns:xlink="http://www.w3.org/1999/xlink" width="47.998" height="48" viewBox="0 0 47.998 48">
  <defs>
    <linearGradient id="linear-gradient" x1="0.5" x2="0.5" y2="1" gradientUnits="objectBoundingBox">
      <stop offset="0" stop-color="#48d2a0"/>
      <stop offset="1" stop-color="#b08aff"/>
    </linearGradient>
  </defs>
  <g id="_5" data-name="5" transform="translate(5.082 5.09)">
    <g id="Group_1449" data-name="Group 1449" transform="translate(-5.082 -5.09)">
      <g id="Group_1448" data-name="Group 1448" transform="translate(0)">
        <path id="Path_2633" data-name="Path 2633" d="M273.541,296.863a11.125,11.125,0,0,0-1.593-3.639l-1.246.835a9.65,9.65,0,0,1,1.462,3.532l.086.437,1.6.506v1.9l-1.6.505-.086.436a9.649,9.649,0,0,1-1.462,3.532l-.247.369.774,1.489-1.344,1.344-1.489-.774-.369.247a9.648,9.648,0,0,1-3.532,1.462l-.436.086-.506,1.6h-1.9l-.506-1.6-.436-.086a9.648,9.648,0,0,1-3.532-1.462l-.369-.247-1.489.774-1.733-1.732-1.06,1.06,2.51,2.51,1.684-.875a11.115,11.115,0,0,0,3.261,1.349l.571,1.811h4.1l.571-1.811a11.116,11.116,0,0,0,3.261-1.349l1.684.875,2.9-2.9-.875-1.684a11.116,11.116,0,0,0,1.349-3.261l1.811-.572v-4.1Z" transform="translate(-227.354 -264.234)" fill="url(#linear-gradient)"/>
        <path id="Path_2634" data-name="Path 2634" d="M229.192,226.292l-2.9,2.9.875,1.684a11.118,11.118,0,0,0-1.349,3.261l-1.811.572v4.1l1.811.571a11.124,11.124,0,0,0,1.593,3.639l1.246-.835a9.649,9.649,0,0,1-1.462-3.532l-.086-.436-1.6-.506v-1.9l1.6-.505.086-.436a9.649,9.649,0,0,1,1.462-3.532l.248-.369-.774-1.489,1.344-1.344,1.489.774.369-.247a9.649,9.649,0,0,1,3.532-1.462l.436-.086.506-1.6h1.9l.505,1.6.436.086a9.648,9.648,0,0,1,3.532,1.462l.369.247,1.489-.774,1.733,1.732,1.06-1.06-2.51-2.51-1.684.875a11.117,11.117,0,0,0-3.261-1.349l-.571-1.81h-4.1l-.571,1.811a11.117,11.117,0,0,0-3.261,1.349Z" transform="translate(-201.507 -201.507)" fill="url(#linear-gradient)"/>
        <path id="Path_2635" data-name="Path 2635" d="M294.757,288.008a6.749,6.749,0,1,0,6.749,6.749A6.758,6.758,0,0,0,294.757,288.008Zm0,12a5.25,5.25,0,1,1,5.25-5.25A5.255,5.255,0,0,1,294.757,300.007Z" transform="translate(-259.508 -259.507)" fill="url(#linear-gradient)"/>
        <path id="Path_2636" data-name="Path 2636" d="M1.508,46.052v-.134a.4.4,0,0,1,.031-.158l2.3-5.5H21.756V38.708H4.484l2.586-6.193H20.256V30.967H7.717L10.3,24.773h13.7V23.225H10.949l2.586-6.193h13.33L28.9,21.979l1.381-.6L21.991,1.188a1.864,1.864,0,0,0-3.469-.012L.162,45.147a1.992,1.992,0,0,0-.154.77v.134A1.919,1.919,0,0,0,1.894,48H29.256V46.45H1.894A.392.392,0,0,1,1.508,46.052ZM19.9,1.79a.4.4,0,0,1,.71,0l2.443,5.95H17.414Zm-3.132,7.5h6.92l2.542,6.193H14.181Z" transform="translate(-0.008)" fill="url(#linear-gradient)"/>
      </g>
    </g>
  </g>
</svg>
