<svg id="_2" data-name="2" xmlns="http://www.w3.org/2000/svg" xmlns:xlink="http://www.w3.org/1999/xlink" width="48" height="39" viewBox="0 0 48 39">
  <defs>
    <linearGradient id="linear-gradient" x1="0.5" x2="0.5" y2="1" gradientUnits="objectBoundingBox">
      <stop offset="0" stop-color="#48d2a0"/>
      <stop offset="1" stop-color="#b08aff"/>
    </linearGradient>
  </defs>
  <path id="Path_2550" data-name="Path 2550" d="M8.808,173.009h6.464a.808.808,0,0,0,.808-.808V152.808a.808.808,0,0,0-.808-.808H8.808a.808.808,0,0,0-.808.808V172.2A.808.808,0,0,0,8.808,173.009Zm.808-19.393h4.848v17.777H9.616Zm0,0" transform="translate(2.162 -137.241)" fill="url(#linear-gradient)"/>
  <path id="Path_2551" data-name="Path 2551" d="M104.808,129.858h6.464a.808.808,0,0,0,.808-.808V104.808a.808.808,0,0,0-.808-.808h-6.464a.808.808,0,0,0-.808.808v24.241A.808.808,0,0,0,104.808,129.858Zm.808-24.241h4.848v22.625h-4.848Zm0,0" transform="translate(-84.263 -94.09)" fill="url(#linear-gradient)"/>
  <path id="Path_2552" data-name="Path 2552" d="M200.808,201.777h6.464a.808.808,0,0,0,.808-.808V184.808a.808.808,0,0,0-.808-.808h-6.464a.808.808,0,0,0-.808.808v16.161A.808.808,0,0,0,200.808,201.777Zm.808-16.161h4.848v14.545h-4.848Zm0,0" transform="translate(-199.926 -166.009)" fill="url(#linear-gradient)"/>
  <path id="Path_2553" data-name="Path 2553" d="M296.808,124.74h6.464a.841.841,0,0,0,.808-.871v-27a.841.841,0,0,0-.808-.871h-6.464a.841.841,0,0,0-.808.871v27A.841.841,0,0,0,296.808,124.74Zm.808-27h4.848V123h-4.848Zm0,0" transform="translate(-266.46 -88.972)" fill="url(#linear-gradient)"/>
  <path id="Path_2554" data-name="Path 2554" d="M392.808,35.768h6.464a.8.8,0,0,0,.808-.795V.795A.8.8,0,0,0,399.272,0h-6.464A.8.8,0,0,0,392,.795V34.973A.8.8,0,0,0,392.808,35.768Zm.808-34.178h4.848V34.178h-4.848Zm0,0" transform="translate(-352.889 0)" fill="url(#linear-gradient)"/>
  <path id="Path_2555" data-name="Path 2555" d="M47.2,376H.8a.808.808,0,0,0,0,1.616H47.2a.808.808,0,0,0,0-1.616Zm0,0" transform="translate(0 -338.616)" fill="url(#linear-gradient)"/>
</svg>
