<svg id="_2" data-name="2" xmlns="http://www.w3.org/2000/svg" xmlns:xlink="http://www.w3.org/1999/xlink" width="48.004" height="39.223" viewBox="0 0 48.004 39.223"><defs><linearGradient id="linear-gradient" x1=".5" x2=".5" y2="1" gradientUnits="objectBoundingBox"><stop offset="0" stop-color="#fa399c"/><stop offset="1" stop-color="#2a56b0"/></linearGradient><linearGradient id="linear-gradient-6" y1="-12.035" xlink:href="#linear-gradient"/></defs><path id="Path_2550" data-name="Path 2550" d="M8.8,172.926h6.439a.8.8,0,0,0,.8-.8V152.8a.8.8,0,0,0-.8-.8H8.8a.8.8,0,0,0-.8.8v19.316A.8.8,0,0,0,8.8,172.926Zm.8-19.316h4.829v17.707H9.61Zm0,0" transform="translate(2.172 -136.922)" fill="url(#linear-gradient)"/><path id="Path_2551" data-name="Path 2551" d="M104.8,129.755h6.439a.8.8,0,0,0,.8-.8V104.8a.8.8,0,0,0-.8-.8H104.8a.8.8,0,0,0-.8.8V128.95A.8.8,0,0,0,104.8,129.755Zm.8-24.145h4.829v22.536H105.61Zm0,0" transform="translate(-84.245 -93.752)" fill="url(#linear-gradient)"/><path id="Path_2552" data-name="Path 2552" d="M200.8,201.707h6.439a.8.8,0,0,0,.8-.8V184.8a.8.8,0,0,0-.8-.8H200.8a.8.8,0,0,0-.8.8v16.1A.8.8,0,0,0,200.8,201.707Zm.8-16.1h4.829V200.1H201.61Zm0,0" transform="translate(-199.926 -165.703)" fill="url(#linear-gradient)"/><path id="Path_2553" data-name="Path 2553" d="M296.8,124.626h6.439a.838.838,0,0,0,.8-.867V96.867a.838.838,0,0,0-.8-.867H296.8a.838.838,0,0,0-.8.867v26.891A.838.838,0,0,0,296.8,124.626Zm.8-26.891h4.829v25.156H297.61Zm0,0" transform="translate(-266.433 -88.622)" fill="url(#linear-gradient)"/><path id="Path_2554" data-name="Path 2554" d="M392.8,36h6.439a.8.8,0,0,0,.8-.8V.8a.8.8,0,0,0-.8-.8H392.8a.8.8,0,0,0-.8.8V35.2A.8.8,0,0,0,392.8,36Zm.8-34.4h4.829V34.4H393.61Zm0,0" transform="translate(-352.849)" fill="url(#linear-gradient)"/><path id="Path_2555" data-name="Path 2555" d="M47.2,376H.8a.8.8,0,0,0,0,1.61H47.2a.8.8,0,0,0,0-1.61Zm0,0" transform="translate(0 -338.387)" fill="url(#linear-gradient-6)"/></svg>