<svg xmlns="http://www.w3.org/2000/svg" width="47.998" height="48" viewBox="0 0 47.998 48"><defs><linearGradient id="linear-gradient" x1=".5" x2=".5" y2="1" gradientUnits="objectBoundingBox"><stop offset="0" stop-color="#fa399c"/><stop offset="1" stop-color="#2a56b0"/></linearGradient></defs><g id="_5" data-name="5" transform="translate(5.082 5.09)"><g id="Group_1449" data-name="Group 1449" transform="translate(-5.082 -5.09)"><g id="Group_1448" data-name="Group 1448" fill="url(#linear-gradient)"><path id="Path_2633" data-name="Path 2633" d="M273.672,296.886a11.193,11.193,0,0,0-1.6-3.662l-1.253.841a9.709,9.709,0,0,1,1.471,3.554l.087.439,1.612.509v1.912l-1.611.509-.087.439a9.709,9.709,0,0,1-1.471,3.554l-.249.371.779,1.5-1.352,1.352-1.5-.779-.371.249a9.708,9.708,0,0,1-3.554,1.471l-.439.087-.509,1.612H261.71l-.509-1.611-.439-.087a9.709,9.709,0,0,1-3.554-1.471l-.371-.249-1.5.779-1.744-1.743-1.067,1.067,2.526,2.526,1.694-.881a11.185,11.185,0,0,0,3.281,1.358l.575,1.822h4.125l.575-1.822a11.185,11.185,0,0,0,3.281-1.358l1.694.881,2.917-2.917-.881-1.694a11.187,11.187,0,0,0,1.358-3.281l1.822-.576v-4.125Z" transform="translate(-227.496 -264.353)"/><path id="Path_2634" data-name="Path 2634" d="M229.224,226.307l-2.917,2.917.881,1.694a11.187,11.187,0,0,0-1.358,3.281l-1.822.576V238.9l1.822.575a11.194,11.194,0,0,0,1.6,3.662l1.253-.841a9.709,9.709,0,0,1-1.471-3.554l-.087-.439-1.612-.509V235.88l1.611-.509.087-.439a9.709,9.709,0,0,1,1.471-3.554l.249-.371-.779-1.5,1.352-1.352,1.5.779.371-.249a9.709,9.709,0,0,1,3.554-1.471l.439-.087.509-1.612h1.912l.509,1.611.439.087a9.709,9.709,0,0,1,3.554,1.471l.371.249,1.5-.779,1.744,1.743,1.067-1.067-2.526-2.526-1.694.881a11.186,11.186,0,0,0-3.281-1.358l-.575-1.822h-4.125l-.575,1.822a11.186,11.186,0,0,0-3.281,1.358Z" transform="translate(-201.666 -201.666)"/><path id="Path_2635" data-name="Path 2635" d="M294.8,288.008a6.792,6.792,0,1,0,6.792,6.792A6.8,6.8,0,0,0,294.8,288.008Zm0,12.074a5.282,5.282,0,1,1,5.282-5.282A5.288,5.288,0,0,1,294.8,300.082Z" transform="translate(-259.629 -259.629)"/><path id="Path_2636" data-name="Path 2636" d="M1.517,46.052v-.134a.4.4,0,0,1,.032-.158l2.312-5.5H21.892V38.708H4.512l2.6-6.193H20.383V30.967H7.765l2.6-6.193H24.156V23.225H11.017l2.6-6.193H27.032l2.043,4.947,1.39-.6L22.128,1.188a1.88,1.88,0,0,0-3.491-.012L.163,45.147a1.981,1.981,0,0,0-.155.77v.134A1.925,1.925,0,0,0,1.906,48H29.438V46.45H1.906A.393.393,0,0,1,1.517,46.052ZM20.023,1.79a.4.4,0,0,1,.715,0L23.2,7.742H17.523Zm-3.152,7.5h6.963l2.558,6.193H14.269Z" transform="translate(-.008)"/></g></g></g></svg>