<svg xmlns="http://www.w3.org/2000/svg" width="48" height="48" viewBox="0 0 48 48"><defs><linearGradient id="linear-gradient" x1=".5" x2=".5" y2="1" gradientUnits="objectBoundingBox"><stop offset="0" stop-color="#fa399c"/><stop offset="1" stop-color="#2a56b0"/></linearGradient></defs><g id="_9" data-name="9" transform="translate(-1 -1)" fill="url(#linear-gradient)"><path id="Path_2658" data-name="Path 2658" d="M39.71,30.419a9.3,9.3,0,0,0-9.251,8.516H24.226V32.742H13.387V28.871H24.226V16.484h3.1v7.742H42.806V12.933l5.005-5.005a4.059,4.059,0,0,0-5.74-5.74L35.518,8.742h-8.2v6.194h-3.1V1H7.647L1,7.647V28.871H11.839v3.871H1V46.677H24.226V40.484h6.233A9.287,9.287,0,1,0,39.71,30.419ZM35.385,11.065l5.873-5.873,1.228,1.228-5.873,5.873ZM34.629,12.5,37.5,15.371l-3.25,1.083a.566.566,0,0,1-.736-.529.592.592,0,0,1,.028-.177Zm4.307,2.117-1.228-1.228,5.873-5.873,1.228,1.228ZM44.942,2.548a2.511,2.511,0,0,1,1.775,4.285l-.814.814L42.353,4.1l.814-.814a2.5,2.5,0,0,1,1.775-.735ZM28.871,10.29h5.1l-.356.356-1.539,4.616a2.106,2.106,0,0,0,2.666,2.662l4.613-1.538,1.9-1.9v8.2H28.871ZM3.643,7.194l3.55-3.55v3.55Zm2,1.548h3.1v-3.1H19.581V10.29H5.645Zm-3.1,0H4.1v3.1H21.129V4.1H8.742V2.548H22.677V27.323H2.548ZM22.677,45.129H2.548V34.29H22.677ZM39.71,47.452a7.742,7.742,0,1,1,7.742-7.742A7.751,7.751,0,0,1,39.71,47.452Z"/><path id="Path_2659" data-name="Path 2659" d="M47.946,53.729,45.39,51.173l-1.1,1.1,3.653,3.653L55.48,48.39l-1.1-1.1Z" transform="translate(-9.811 -10.483)"/><path id="Path_2660" data-name="Path 2660" d="M7.328,52.657A2.328,2.328,0,1,0,5,50.328,2.331,2.331,0,0,0,7.328,52.657Zm0-3.1a.776.776,0,1,1-.776.776A.776.776,0,0,1,7.328,49.552Z" transform="translate(-.896 -10.641)"/><path id="Path_2661" data-name="Path 2661" d="M15.328,52.657A2.328,2.328,0,1,0,13,50.328,2.331,2.331,0,0,0,15.328,52.657Zm0-3.1a.776.776,0,1,1-.776.776A.776.776,0,0,1,15.328,49.552Z" transform="translate(-2.712 -10.641)"/><path id="Path_2662" data-name="Path 2662" d="M23.328,52.657A2.328,2.328,0,1,0,21,50.328,2.331,2.331,0,0,0,23.328,52.657Zm0-3.1a.776.776,0,1,1-.776.776A.776.776,0,0,1,23.328,49.552Z" transform="translate(-4.52 -10.641)"/><path id="Path_2663" data-name="Path 2663" d="M39,25h9.313v1.552H39Z" transform="translate(-8.598 -5.421)"/><path id="Path_2664" data-name="Path 2664" d="M5,17H6.552v1.552H5Z" transform="translate(-.896 -3.614)"/><path id="Path_2665" data-name="Path 2665" d="M9,17H22.97v1.552H9Z" transform="translate(-1.791 -3.614)"/><path id="Path_2666" data-name="Path 2666" d="M5,21H22.074v1.552H5Z" transform="translate(-.896 -4.517)"/><path id="Path_2667" data-name="Path 2667" d="M5,31.209H22.074V25H5Zm1.552-4.657h13.97v3.1H6.552Z" transform="translate(-.896 -5.426)"/></g></svg>