<svg xmlns="http://www.w3.org/2000/svg" xmlns:xlink="http://www.w3.org/1999/xlink" width="43" height="48" viewBox="0 0 43 48">
  <defs>
    <linearGradient id="linear-gradient" x1="0.5" x2="0.5" y2="1" gradientUnits="objectBoundingBox">
      <stop offset="0" stop-color="#48d2a0"/>
      <stop offset="1" stop-color="#b08aff"/>
    </linearGradient>
  </defs>
  <g id="_6" data-name="6" transform="translate(-26.948 -0.092)">
    <path id="Union_13" data-name="Union 13" d="M10.7,48a.938.938,0,0,1-.939-.937V35.732L6.428,37.724a.09.09,0,0,0-.043.077v9.261a.938.938,0,0,1-.94.937H.939A.938.938,0,0,1,0,47.063V42.189a.939.939,0,0,1,1.877,0v3.936H4.506V37.8a1.975,1.975,0,0,1,.958-1.687l4.757-2.841a.938.938,0,0,1,1.42.8v4.693l2.629-1.05V31.91a2.509,2.509,0,0,0-3.917-2.072L6.108,32.716a.932.932,0,0,1-.527.162h-3.7v1.715a.939.939,0,0,1-1.877,0V23.412a4.324,4.324,0,0,1,2.639-3.974A4.418,4.418,0,0,1,.273,15.531v-.6a4.422,4.422,0,0,1,8.843,0v.6a4.39,4.39,0,0,1-.347,1.714l6.119-2.181a2.618,2.618,0,0,1,1.4-.1,2.609,2.609,0,0,1,.865-1.138l6.317-4.753A4.4,4.4,0,0,1,21.59,7.961l-.425-.424a4.419,4.419,0,0,1,6.253-6.244l.425.424a4.381,4.381,0,0,1,1.3,3.122,4.445,4.445,0,0,1-.094.9,5.667,5.667,0,0,1,4,.907L39.3,10.873h0A8.114,8.114,0,0,1,43,17.693v29.37a.938.938,0,0,1-.94.937ZM22.715,36.336a.952.952,0,0,1-.226.129L11.642,40.792v5.333h29.48V29.25H31.9ZM16.149,31.91v5.064l5.521-2.2L31,27.571a.94.94,0,0,1,.574-.2h1.846V20.01A3.4,3.4,0,0,0,32.1,17.326L28.366,14.81l-8.643,3.534a2.593,2.593,0,0,1-.983.193,2.684,2.684,0,0,1-.531-.054,2.6,2.6,0,0,1-.955,1.207l-7.866,5.4v3.143a4.385,4.385,0,0,1,6.76,3.681Zm-.63-15.08L3.5,21.114a2.445,2.445,0,0,0-1.622,2.3V31H5.293L7.51,29.5V24.593a.937.937,0,0,1,.408-.772l8.273-5.677a.743.743,0,0,0-.423-1.356A.727.727,0,0,0,15.519,16.831Zm23.726,3.15v7.394h1.877V17.693a6.243,6.243,0,0,0-2.316-4.864l-4.738,3.805A5.279,5.279,0,0,1,35.3,20.01v7.366h2.065V19.981a.939.939,0,0,1,1.877,0ZM2.15,14.932v.6a2.544,2.544,0,0,0,5.088,0v-.6a2.544,2.544,0,0,0-5.088,0ZM27.595,8.318l-9.314,7.008a.742.742,0,0,0-.193.973l0,0a.749.749,0,0,0,.921.305l9.108-3.724a.939.939,0,0,1,.881.091l3.6,2.43,4.594-3.69-5.2-3.51a3.791,3.791,0,0,0-4.4.113Zm-5.1-5.7a2.537,2.537,0,0,0,0,3.592l.424.425a2.542,2.542,0,0,0,3.6-3.593l-.424-.424a2.545,2.545,0,0,0-3.6,0ZM36.886,42.872a.929.929,0,0,1,0-1.32.943.943,0,0,1,1.328,0,.929.929,0,0,1,0,1.32.943.943,0,0,1-1.328,0ZM.275,39.193a.929.929,0,0,1,0-1.32.943.943,0,0,1,1.328,0,.929.929,0,0,1,0,1.32.943.943,0,0,1-1.328,0Zm36.334-.663V34.918H35.357a.934.934,0,1,1,0-1.868h2.192a.938.938,0,0,1,.941.934V38.53a.94.94,0,0,1-1.88,0Z" transform="translate(26.948 0.092)" fill="url(#linear-gradient)"/>
  </g>
</svg>
