<svg xmlns="http://www.w3.org/2000/svg" xmlns:xlink="http://www.w3.org/1999/xlink" width="47.996" height="47.996" viewBox="0 0 47.996 47.996">
  <defs>
    <linearGradient id="linear-gradient" x1="0.5" x2="0.5" y2="1" gradientUnits="objectBoundingBox">
      <stop offset="0" stop-color="#48d2a0"/>
      <stop offset="1" stop-color="#b08aff"/>
    </linearGradient>
  </defs>
  <g id="_9" data-name="9" transform="translate(-1 -1)">
    <path id="Path_2658" data-name="Path 2658" d="M39.707,30.417a9.3,9.3,0,0,0-9.25,8.515H24.224V32.739H13.386V28.869H24.224V16.483h3.1v7.741H42.8V12.932l5-5a4.058,4.058,0,0,0-5.739-5.739L35.515,8.741H27.32v6.193h-3.1V1H7.647L1,7.647V28.869H11.838v3.871H1V46.674H24.224V40.481h6.233a9.286,9.286,0,1,0,9.25-10.064ZM35.382,11.064l5.873-5.873,1.228,1.228L36.61,12.291ZM34.626,12.5,37.5,15.37l-3.25,1.083a.566.566,0,0,1-.736-.529.592.592,0,0,1,.028-.177Zm4.306,2.117L37.7,13.386l5.873-5.873L44.8,8.741ZM44.938,2.548a2.51,2.51,0,0,1,1.775,4.285l-.814.814L42.349,4.1l.814-.814a2.494,2.494,0,0,1,1.775-.735ZM28.869,10.29h5.1l-.356.356-1.539,4.615a2.106,2.106,0,0,0,2.665,2.661l4.613-1.537,1.9-1.9v8.195H28.869ZM3.643,7.193l3.55-3.55v3.55Zm2,1.548h3.1v-3.1H19.579V10.29H5.645Zm-3.1,0H4.1v3.1H21.127V4.1H8.741V2.548H22.676V27.32H2.548ZM22.676,45.125H2.548V34.288H22.676Zm17.031,2.322a7.741,7.741,0,1,1,7.741-7.741A7.75,7.75,0,0,1,39.707,47.448Z" transform="translate(0 0)" fill="url(#linear-gradient)"/>
    <path id="Path_2659" data-name="Path 2659" d="M47.961,53.756,45.4,51.19l-1.1,1.1,3.668,3.668L55.527,48.4l-1.1-1.1Z" transform="translate(-9.876 -10.538)" fill="url(#linear-gradient)"/>
    <path id="Path_2660" data-name="Path 2660" d="M7.338,52.676A2.338,2.338,0,1,0,5,50.338,2.341,2.341,0,0,0,7.338,52.676Zm0-3.117a.779.779,0,1,1-.779.779A.78.78,0,0,1,7.338,49.559Z" transform="translate(-0.883 -10.694)" fill="url(#linear-gradient)"/>
    <path id="Path_2661" data-name="Path 2661" d="M15.338,52.676A2.338,2.338,0,1,0,13,50.338,2.341,2.341,0,0,0,15.338,52.676Zm0-3.117a.779.779,0,1,1-.779.779A.78.78,0,0,1,15.338,49.559Z" transform="translate(-2.717 -10.694)" fill="url(#linear-gradient)"/>
    <path id="Path_2662" data-name="Path 2662" d="M23.338,52.676A2.338,2.338,0,1,0,21,50.338,2.341,2.341,0,0,0,23.338,52.676Zm0-3.117a.779.779,0,1,1-.779.779A.78.78,0,0,1,23.338,49.559Z" transform="translate(-4.529 -10.694)" fill="url(#linear-gradient)"/>
    <path id="Path_2663" data-name="Path 2663" d="M39,25h9.352v1.559H39Z" transform="translate(-8.631 -5.425)" fill="url(#linear-gradient)"/>
    <path id="Path_2664" data-name="Path 2664" d="M5,17H6.559v1.559H5Z" transform="translate(-0.883 -3.617)" fill="url(#linear-gradient)"/>
    <path id="Path_2665" data-name="Path 2665" d="M9,17H23.029v1.559H9Z" transform="translate(-1.765 -3.617)" fill="url(#linear-gradient)"/>
    <path id="Path_2666" data-name="Path 2666" d="M5,21H22.146v1.559H5Z" transform="translate(-0.883 -4.521)" fill="url(#linear-gradient)"/>
    <path id="Path_2667" data-name="Path 2667" d="M5,31.235H22.146V25H5Zm1.559-4.676H20.587v3.117H6.559Z" transform="translate(-0.883 -5.439)" fill="url(#linear-gradient)"/>
  </g>
</svg>
