<svg id="_4" data-name="4" xmlns="http://www.w3.org/2000/svg" xmlns:xlink="http://www.w3.org/1999/xlink" width="48" height="48" viewBox="0 0 48 48">
  <defs>
    <linearGradient id="linear-gradient" x1="0.5" x2="0.5" y2="1" gradientUnits="objectBoundingBox">
      <stop offset="0" stop-color="#48d2a0"/>
      <stop offset="1" stop-color="#b08aff"/>
    </linearGradient>
  </defs>
  <g id="Group_1410" data-name="Group 1410" transform="translate(18.894 18.894)">
    <g id="Group_1409" data-name="Group 1409">
      <path id="Path_2566" data-name="Path 2566" d="M206.636,201.532a5.106,5.106,0,1,0,5.106,5.106A5.112,5.112,0,0,0,206.636,201.532Zm0,8.681a3.575,3.575,0,1,1,3.575-3.575A3.579,3.579,0,0,1,206.636,210.213Z" transform="translate(-201.53 -201.532)" fill="url(#linear-gradient)"/>
    </g>
  </g>
  <g id="Group_1412" data-name="Group 1412" transform="translate(10.213 10.213)">
    <g id="Group_1411" data-name="Group 1411">
      <path id="Path_2567" data-name="Path 2567" d="M135.813,119.825l-2.193-.2a11.233,11.233,0,0,0-1.011-2.426l1.407-1.695a.766.766,0,0,0-.048-1.031l-3.007-3.007a.766.766,0,0,0-1.031-.048l-1.7,1.413a11.227,11.227,0,0,0-2.423-1l-.2-2.2a.766.766,0,0,0-.763-.7h-4.252a.766.766,0,0,0-.763.7l-.2,2.206a11.233,11.233,0,0,0-2.414,1.007l-1.706-1.416a.766.766,0,0,0-1.031.048l-3.007,3.007a.766.766,0,0,0-.048,1.031l1.422,1.712a11.234,11.234,0,0,0-1,2.411l-2.209.2a.766.766,0,0,0-.7.763v4.237a.766.766,0,0,0,.7.763l2.209.2a11.224,11.224,0,0,0,1,2.411l-1.422,1.712a.766.766,0,0,0,.048,1.031l3.007,3.007a.766.766,0,0,0,1.031.048l1.706-1.416a11.231,11.231,0,0,0,2.414,1.007l.2,2.206a.766.766,0,0,0,.763.7h4.252a.766.766,0,0,0,.763-.7l.2-2.2a11.224,11.224,0,0,0,2.423-1l1.7,1.413a.766.766,0,0,0,1.031-.048l3.007-3.007a.766.766,0,0,0,.048-1.031l-1.407-1.695a11.232,11.232,0,0,0,1.011-2.426l2.193-.2a.766.766,0,0,0,.7-.763v-4.267A.766.766,0,0,0,135.813,119.825Zm-.837,4.332-2.034.189a.766.766,0,0,0-.675.59,9.719,9.719,0,0,1-1.242,2.978.766.766,0,0,0,.059.9l1.306,1.573-2.019,2.019-1.579-1.311a.766.766,0,0,0-.9-.06,9.705,9.705,0,0,1-2.976,1.232.766.766,0,0,0-.591.676l-.189,2.038h-2.856l-.19-2.046a.766.766,0,0,0-.589-.675,9.712,9.712,0,0,1-2.967-1.239.766.766,0,0,0-.9.059l-1.584,1.316-2.019-2.019,1.32-1.59a.766.766,0,0,0,.06-.895,9.708,9.708,0,0,1-1.229-2.965.766.766,0,0,0-.676-.591l-2.05-.19V121.3h0l2.05-.19a.766.766,0,0,0,.676-.591,9.711,9.711,0,0,1,1.229-2.966.766.766,0,0,0-.06-.895l-1.32-1.59,2.019-2.019,1.584,1.316a.766.766,0,0,0,.9.059,9.714,9.714,0,0,1,2.967-1.239.766.766,0,0,0,.589-.675l.19-2.046h2.856l.189,2.038a.766.766,0,0,0,.591.676,9.705,9.705,0,0,1,2.976,1.232.766.766,0,0,0,.9-.06l1.579-1.311,2.019,2.019-1.306,1.573a.766.766,0,0,0-.059.9,9.712,9.712,0,0,1,1.242,2.978.766.766,0,0,0,.675.589l2.034.189Z" transform="translate(-108.934 -108.934)" fill="url(#linear-gradient)"/>
    </g>
  </g>
  <g id="Group_1414" data-name="Group 1414" transform="translate(0 0)">
    <g id="Group_1413" data-name="Group 1413">
      <path id="Path_2568" data-name="Path 2568" d="M40.971,7.029A24,24,0,1,0,7.029,40.971,24,24,0,1,0,40.971,7.029Zm5.483,16.2h-4.6a17.8,17.8,0,0,0-4.694-11.312l3.25-3.25A22.384,22.384,0,0,1,46.454,23.234ZM24,1.532A22.384,22.384,0,0,1,39.328,7.589l-3.25,3.25a17.838,17.838,0,0,0-24.156,0l-3.25-3.25A22.385,22.385,0,0,1,24,1.532ZM7.589,8.672l3.25,3.25A17.805,17.805,0,0,0,6.145,23.234h-4.6A22.385,22.385,0,0,1,7.589,8.672Zm5.945,27.865a.766.766,0,0,0-.983,1.175,17.883,17.883,0,0,0,10.684,4.143v4.6A22.5,22.5,0,0,1,1.546,24.766h4.6A17.884,17.884,0,0,0,10.288,35.45a.766.766,0,1,0,1.175-.983,16.363,16.363,0,1,1,2.071,2.07Zm11.233,9.916v-4.6A17.9,17.9,0,0,0,40.2,31.54l4.25,1.76A22.5,22.5,0,0,1,24.766,46.454ZM45.039,31.886l-4.248-1.76a17.76,17.76,0,0,0,1.064-5.36h4.6A22.328,22.328,0,0,1,45.039,31.886Z" transform="translate(0 0)" fill="url(#linear-gradient)"/>
    </g>
  </g>
  <g id="Group_1416" data-name="Group 1416" transform="translate(15.83 15.83)">
    <g id="Group_1415" data-name="Group 1415">
      <path id="Path_2569" data-name="Path 2569" d="M177.019,168.851a8.165,8.165,0,0,0-6.844,12.625.766.766,0,0,0,1.283-.838,6.648,6.648,0,1,1,1.944,1.944.766.766,0,1,0-.838,1.283,8.169,8.169,0,1,0,4.455-15.014Z" transform="translate(-168.849 -168.851)" fill="url(#linear-gradient)"/>
    </g>
  </g>
</svg>
