<svg id="_8" data-name="8" xmlns="http://www.w3.org/2000/svg" xmlns:xlink="http://www.w3.org/1999/xlink" width="48" height="48" viewBox="0 0 48 48">
  <defs>
    <linearGradient id="linear-gradient" x1="0.5" x2="0.5" y2="1" gradientUnits="objectBoundingBox">
      <stop offset="0" stop-color="#48d2a0"/>
      <stop offset="1" stop-color="#b08aff"/>
    </linearGradient>
    <linearGradient id="linear-gradient-2" x1="0.5" x2="0.5" y2="1" gradientUnits="objectBoundingBox">
      <stop offset="0" stop-color="#48d2a0"/>
      <stop offset="1" stop-color="#48d2a0"/>
    </linearGradient>
  </defs>
  <path id="Path_2637" data-name="Path 2637" d="M43.355,112.591v-4.714H24.774V104H23.226v3.877H4.645v4.714a5.419,5.419,0,1,0,1.548,0v-3.164h7.742V131.2a5.419,5.419,0,1,0,1.548,0V109.428h7.742v3.164a5.422,5.422,0,0,0,0,10.732v4.714h9.29V131.2a5.419,5.419,0,1,0,1.548,0v-4.714h-9.29v-3.164a5.422,5.422,0,0,0,0-10.732v-3.164H41.806v3.164a5.419,5.419,0,1,0,1.548,0ZM9.29,117.957a3.871,3.871,0,1,1-3.871-3.877A3.878,3.878,0,0,1,9.29,117.957Zm9.29,18.61a3.871,3.871,0,1,1-3.871-3.877A3.878,3.878,0,0,1,18.581,136.567Zm18.581,0a3.871,3.871,0,1,1-3.871-3.877A3.878,3.878,0,0,1,37.161,136.567Zm-9.29-18.61A3.871,3.871,0,1,1,24,114.08,3.878,3.878,0,0,1,27.871,117.957Zm14.71,3.877a3.877,3.877,0,1,1,3.871-3.877A3.878,3.878,0,0,1,42.581,121.834Z" transform="translate(0 -93.995)" fill="url(#linear-gradient)"/>
  <path id="Path_2638" data-name="Path 2638" d="M197.387,10.775a5.387,5.387,0,1,1,5.387-5.387A5.394,5.394,0,0,1,197.387,10.775Z" transform="translate(-173.387)" fill="url(#linear-gradient-2)"/>
</svg>
