<svg xmlns="http://www.w3.org/2000/svg" width="43.213" height="48" viewBox="0 0 43.213 48"><defs><linearGradient id="linear-gradient" x1=".5" x2=".5" y2="1" gradientUnits="objectBoundingBox"><stop offset="0" stop-color="#fa399c"/><stop offset="1" stop-color="#2a56b0"/></linearGradient></defs><g id="_6" data-name="6" transform="translate(-26.92 .062)"><path id="Union_13" data-name="Union 13" d="M10.756,48a.941.941,0,0,1-.944-.937V35.731L6.46,37.724a.092.092,0,0,0-.044.078v9.261A.941.941,0,0,1,5.472,48H.944A.94.94,0,0,1,0,47.063V42.19a.943.943,0,0,1,1.887,0v3.936H4.529V37.8a1.973,1.973,0,0,1,.963-1.687l4.78-2.842a.952.952,0,0,1,.95-.011.939.939,0,0,1,.478.816v4.693l2.642-1.05v-5.81a2.523,2.523,0,0,0-3.937-2.072L6.138,32.717a.946.946,0,0,1-.529.162H1.887v1.716a.943.943,0,0,1-1.887,0V23.412a4.325,4.325,0,0,1,2.652-3.973A4.415,4.415,0,0,1,.274,15.531v-.6a4.444,4.444,0,0,1,8.887,0v.6a4.365,4.365,0,0,1-.349,1.715l6.15-2.181a2.634,2.634,0,0,1,1.4-.1,2.615,2.615,0,0,1,.87-1.138l6.348-4.753A4.435,4.435,0,0,1,21.7,7.961l-.427-.424a4.4,4.4,0,0,1,0-6.244,4.464,4.464,0,0,1,6.284,0l.427.424a4.4,4.4,0,0,1,1.208,4.027,5.716,5.716,0,0,1,4.018.907l6.29,4.222h0a8.1,8.1,0,0,1,3.715,6.818v29.37A.94.94,0,0,1,42.27,48ZM22.828,36.336a.985.985,0,0,1-.228.129L11.7,40.791v5.334H41.326V29.25H32.056Zm-6.6-4.425v5.064l5.549-2.2,9.38-7.2a.948.948,0,0,1,.577-.2h1.855V20.01a3.393,3.393,0,0,0-1.333-2.684l-3.75-2.516-8.685,3.534a2.622,2.622,0,0,1-.988.193,2.667,2.667,0,0,1-.533-.054,2.611,2.611,0,0,1-.96,1.207l-7.9,5.4v3.142a4.412,4.412,0,0,1,6.793,3.681ZM15.6,16.831,3.516,21.115a2.446,2.446,0,0,0-1.63,2.3V31H5.319l2.229-1.5V24.594a.936.936,0,0,1,.41-.773l8.313-5.677a.742.742,0,0,0,.22-.992.752.752,0,0,0-.9-.321Zm23.844,3.15v7.394h1.887V17.692A6.229,6.229,0,0,0,39,12.829l-4.76,3.8a5.268,5.268,0,0,1,1.238,3.376v7.365h2.076V19.981a.944.944,0,0,1,1.888,0ZM2.161,14.931v.6a2.556,2.556,0,0,0,5.113,0v-.6a2.556,2.556,0,0,0-5.113,0ZM27.732,8.318l-9.361,7.008a.741.741,0,0,0-.194.973l0,0a.755.755,0,0,0,.926.305l9.153-3.724a.945.945,0,0,1,.885.09l3.621,2.43,4.616-3.69L32.15,8.205a3.824,3.824,0,0,0-4.419.113ZM22.6,2.619a2.529,2.529,0,0,0,0,3.592l.427.424a2.57,2.57,0,0,0,3.615,0,2.531,2.531,0,0,0,0-3.592l-.427-.424a2.568,2.568,0,0,0-3.615,0ZM37.069,42.871a.925.925,0,0,1,0-1.32.951.951,0,0,1,1.335,0,.925.925,0,0,1,0,1.32.949.949,0,0,1-1.335,0ZM.277,39.193a.925.925,0,0,1,0-1.32.951.951,0,0,1,1.335,0,.925.925,0,0,1,0,1.32.949.949,0,0,1-1.335,0Zm36.515-.663V34.919H35.533a.934.934,0,1,1,0-1.868h2.2a.939.939,0,0,1,.944.933V38.53a.944.944,0,0,1-1.889,0Z" transform="translate(26.92 -.062)" fill="url(#linear-gradient)"/></g></svg>