<svg xmlns="http://www.w3.org/2000/svg" width="47.999" height="48" viewBox="0 0 47.999 48"><defs><linearGradient id="linear-gradient" x1=".5" x2=".5" y2="1" gradientUnits="objectBoundingBox"><stop offset="0" stop-color="#fa399c"/><stop offset="1" stop-color="#2a56b0"/></linearGradient></defs><g id="_1" data-name="1"><path id="Union_12" data-name="Union 12" d="M34.238,48l-.572-2.24-.113-.047-1.987,1.179L27.43,42.758l1.18-1.988c-.017-.037-.032-.075-.048-.112l-2.24-.572V34.238l2.239-.572.048-.113-1.18-1.987,4.135-4.135,1.987,1.18.113-.048.572-2.24h5.847l.573,2.239.112.048,1.987-1.179,4.135,4.134-1.179,1.987c.016.038.031.075.047.113l2.24.572v5.847l-2.239.572-.048.113,1.18,1.987-4.135,4.134L40.77,45.713l-.113.047L40.084,48Zm-.4-3.857a7.3,7.3,0,0,0,.738.306l.39.138.475,1.863h3.443l.475-1.863.39-.138a7.831,7.831,0,0,0,.738-.306l.372-.178,1.655.982,2.434-2.435-.981-1.655.178-.373a7.275,7.275,0,0,0,.305-.738l.138-.39,1.864-.475V35.439l-1.865-.475-.138-.39a7.578,7.578,0,0,0-.305-.738l-.178-.373.982-1.655-2.435-2.434-1.655.982-.372-.178a7.28,7.28,0,0,0-.738-.306l-.391-.138-.475-1.863H35.439l-.475,1.864-.39.138a7.925,7.925,0,0,0-.738.305l-.372.179-1.655-.982L29.375,31.81l.981,1.655-.178.372a7.376,7.376,0,0,0-.305.738l-.138.39-1.864.475v3.443l1.865.474.138.391a7.578,7.578,0,0,0,.305.738l.178.373-.982,1.654,2.435,2.435,1.655-.982ZM0,48V27.871H15.483V48Zm1.548-1.549H13.935V29.419H1.548Zm9.29-1.548V43.355h1.549V44.9ZM3.1,44.9V43.355H9.29V44.9Zm27.87-7.742a6.194,6.194,0,1,1,6.194,6.193A6.2,6.2,0,0,1,30.967,37.161Zm1.549,0a4.645,4.645,0,1,0,4.645-4.645A4.65,4.65,0,0,0,32.516,37.161ZM3.1,41.806V40.258h9.29v1.548Zm12.84-4.645,3.644-3.645,1.1,1.1L18.9,36.387h5.873v1.549H18.9l1.775,1.775-1.1,1.094Zm18.126,0a3.1,3.1,0,1,1,3.1,3.1A3.1,3.1,0,0,1,34.064,37.161Zm1.549,0a1.548,1.548,0,1,0,1.548-1.549A1.55,1.55,0,0,0,35.612,37.161ZM3.1,38.709V37.161h9.29v1.548Zm3.1-3.1V34.064h6.193v1.548Zm-3.1,0V34.064H4.645v1.548Zm0-3.1V30.968h9.29v1.548Zm3.871-6.193V12.387A2.325,2.325,0,0,1,9.29,10.064h3.55L11.065,8.289l1.094-1.1L15.8,10.839l-3.645,3.644-1.094-1.094,1.775-1.776H9.29a.776.776,0,0,0-.774.774V26.322ZM34.291,21.45l1.094-1.1L37.16,22.13V12.387a.775.775,0,0,0-.773-.774H32.516V10.064h3.871a2.325,2.325,0,0,1,2.322,2.322V22.13l1.775-1.775,1.1,1.1-3.645,3.644ZM14.709,24.774V20.726A3.888,3.888,0,0,1,17.222,17.1l3.681-1.38v-.657a4.656,4.656,0,0,1-1.3-1.957,3.1,3.1,0,0,1-2.574-3.045v-3.1a6.967,6.967,0,1,1,13.935,0v3.1a3.1,3.1,0,0,1-2.574,3.045,4.638,4.638,0,0,1-1.3,1.957v.656l3.682,1.38a3.891,3.891,0,0,1,2.512,3.625v4.048Zm3.055-6.223a2.334,2.334,0,0,0-1.507,2.175v2.5H31.741v-2.5a2.332,2.332,0,0,0-1.507-2.174L29.1,18.126l-1.547,4.644L24,20.995l-3.549,1.774L18.9,18.126Zm7.329,1.26,1.551.774,1-3-.991-.372Zm-4.74-2.23,1,3,1.551-.774-1.561-2.6Zm2.1-1.537L24,18.624l1.549-2.58v-.057a4.554,4.554,0,0,1-3.1,0ZM20.9,8.464v3.149a3.1,3.1,0,1,0,6.194,0V8.464A5.987,5.987,0,0,1,24,7.227,5.989,5.989,0,0,1,20.9,8.464ZM28.645,11.4a1.534,1.534,0,0,0,0-2.665ZM18.58,10.064a1.543,1.543,0,0,0,.774,1.333V8.731A1.542,1.542,0,0,0,18.58,10.064Zm5.967-4.417a4.479,4.479,0,0,0,3.19,1.322h.133a3.069,3.069,0,0,1,1.549.43v-.43a5.419,5.419,0,0,0-10.839,0V7.4a3.069,3.069,0,0,1,1.549-.43h.133a4.48,4.48,0,0,0,3.19-1.322L24,5.1Z" fill="url(#linear-gradient)"/></g></svg>