<svg xmlns="http://www.w3.org/2000/svg" width="48" height="48" viewBox="0 0 48 48"><defs><linearGradient id="linear-gradient" x1=".5" x2=".5" y2="1" gradientUnits="objectBoundingBox"><stop offset="0" stop-color="#fa399c"/><stop offset="1" stop-color="#2a56b0"/></linearGradient></defs><path id="_7" data-name="7" d="M48,20.129H46.26l-2.593,1.364a3.849,3.849,0,0,0-.923-.38L39.483,20.3v-.371a5.437,5.437,0,0,0,2.323-4.443V14.13a5.562,5.562,0,0,0-5.253-5.612c-.147,0-.292,0-.437.009l.846-1.98-4.1-4.1L30.445,4.022a13.1,13.1,0,0,0-2.9-1.2L26.95,0h-5.9l-.6,2.82a13.08,13.08,0,0,0-2.9,1.2L15.138,2.45l-4.1,4.1.831,1.981c-.032,0-.062-.007-.094-.008a5.422,5.422,0,0,0-5.586,5.416v1.548a5.435,5.435,0,0,0,2.323,4.442V20.3l-2.128.532L2.532,18.581H0V34.623l7.616,2.538H9.1l.185-.649,2.335,1.4a2.41,2.41,0,0,0,2.324,2.335,2.41,2.41,0,0,0,2.323,2.323,2.41,2.41,0,0,0,2.323,2.323,2.408,2.408,0,0,0,3.765,1.912l.686.606A2.357,2.357,0,0,0,24.6,48h.143a2.357,2.357,0,0,0,2.353-2.326,2.355,2.355,0,0,0,2.323-2.323,2.355,2.355,0,0,0,2.323-2.325,2.381,2.381,0,0,0,2.326-2.376,2.267,2.267,0,0,0-.012-.232L48,31.446Zm-7.742-6v1.353a3.886,3.886,0,0,1-1.938,3.35l-.387.224,0,2.45,3.868.966L33.29,26.955V24.869a3.852,3.852,0,0,0-1.109-2.7l2.657-.664V19.056l-.386-.223a3.882,3.882,0,0,1-1.936-3.349V13.935a3.871,3.871,0,0,1,3.991-3.869,4,4,0,0,1,3.751,4.064ZM25.167,26.346l-3.5-1.12A9.561,9.561,0,0,0,16.7,25l-.444.1v-.229a2.321,2.321,0,0,1,1.759-2.254l4.435-1.108V19.056l-.386-.223a3.882,3.882,0,0,1-1.936-3.349V13.935a3.871,3.871,0,0,1,3.991-3.869,4,4,0,0,1,3.751,4.064v1.353a3.886,3.886,0,0,1-1.938,3.35l-.387.224,0,2.45,4.434,1.108a2.321,2.321,0,0,1,1.759,2.254v2.9l-.191.1h-.474l-4.76-1.36a4.88,4.88,0,0,0-1.149-.164ZM16.431,11.587a8.51,8.51,0,0,1,15.105-.062,5.384,5.384,0,0,0-.569,2.411v1.548a5.435,5.435,0,0,0,2.323,4.442V20.3l-3.1.775L27.1,20.3v-.371a5.437,5.437,0,0,0,2.323-4.443V14.13a5.562,5.562,0,0,0-5.253-5.612,5.42,5.42,0,0,0-5.586,5.417v1.548A5.435,5.435,0,0,0,20.9,19.926V20.3l-3.1.775-3.1-.775v-.371a5.437,5.437,0,0,0,2.323-4.443V14.13a5.706,5.706,0,0,0-.6-2.543ZM12.871,6.9l2.473-2.473,2.177,1.417.417-.256A11.553,11.553,0,0,1,21.29,4.2l.476-.114.539-2.54H25.7l.537,2.539.476.114a11.564,11.564,0,0,1,3.352,1.391l.417.256,2.177-1.417L35.125,6.9l-.878,2.056a5.411,5.411,0,0,0-1.634,1.086c-.032.031-.059.064-.09.1a10.054,10.054,0,0,0-17.075.046,5.461,5.461,0,0,0-1.708-1.211Zm-2.806,14.6V19.056l-.386-.223a3.882,3.882,0,0,1-1.936-3.349V13.935a3.871,3.871,0,0,1,3.991-3.869,4,4,0,0,1,3.751,4.064v1.353a3.886,3.886,0,0,1-1.938,3.35l-.387.224,0,2.45,2.656.664a3.852,3.852,0,0,0-1.109,2.7v.573l-2.415.537.063-.219.029-1.431L8.3,21.948ZM1.548,20.129h.564L7.68,23.377,4.871,34.614,1.548,33.506ZM7.867,35.613l-1.524-.508L9.073,24.189l1.766,1.03v.221L7.932,35.613Zm5.294,2.229a.874.874,0,0,1,.254-.614l1.361-1.361A.868.868,0,0,1,16,37.095l-1.361,1.361a.868.868,0,0,1-1.482-.614Zm2.323,2.323a.874.874,0,0,1,.254-.614L17.1,38.189a.868.868,0,0,1,1.228,1.228l-1.361,1.361a.868.868,0,0,1-1.482-.614Zm2.323,2.323a.874.874,0,0,1,.254-.614l1.361-1.361a.868.868,0,0,1,1.228,1.228L19.288,43.1a.868.868,0,0,1-1.482-.614ZM21,45.677a.868.868,0,0,1-.614-1.482l1.361-1.361a.868.868,0,0,1,1.228,1.228l-1.361,1.361A.874.874,0,0,1,21,45.677Zm3.744.774H24.6a.8.8,0,0,1-.533-.2l-.579-.511.581-.581a2.407,2.407,0,0,0,.488-.719l.7.586a.808.808,0,0,1-.517,1.428Zm6.943-6.968H31.55a.831.831,0,0,1-.533-.194l-4.2-3.5-.992,1.19,4.077,3.4a.808.808,0,0,1-.518,1.428h-.169a.807.807,0,0,1-.516-.188l-4.205-3.5L23.5,39.3l4.077,3.4a.807.807,0,0,1-.517,1.427,1.279,1.279,0,0,1-.815-.295l-1.728-1.44a2.408,2.408,0,0,0-2.079-1.353,2.41,2.41,0,0,0-2.323-2.323A2.41,2.41,0,0,0,17.8,36.4a2.411,2.411,0,0,0-4.116-1.624L12.32,36.133a2.385,2.385,0,0,0-.217.265L9.725,34.971l2.085-7.3,5.227-1.162a7.976,7.976,0,0,1,4.154.188l1.141.365L18.464,29a2.581,2.581,0,0,0-1.432,2.32v.153a2.593,2.593,0,0,0,3.928,2.224l2.883-1.729a1.6,1.6,0,0,1,1.856.179l6.541,5.887a.833.833,0,0,1-.557,1.452Zm14.768-8.995L33.408,37.011c-.042-.045-.087-.088-.133-.129l-6.54-5.887a3.116,3.116,0,0,0-3.69-.357l-2.884,1.729a1.044,1.044,0,0,1-1.581-.9v-.153a1.039,1.039,0,0,1,.578-.934l4.319-2.159A3.365,3.365,0,0,1,25.89,28l4.865,1.39,1.178.029,14.518-7.641Zm0,0" fill="url(#linear-gradient)"/></svg>