<svg id="_1" data-name="1" xmlns="http://www.w3.org/2000/svg" xmlns:xlink="http://www.w3.org/1999/xlink" width="48" height="48" viewBox="0 0 48 48">
  <defs>
    <linearGradient id="linear-gradient" x1="0.5" x2="0.5" y2="1" gradientUnits="objectBoundingBox">
      <stop offset="0" stop-color="#48d2a0"/>
      <stop offset="1" stop-color="#b08aff"/>
    </linearGradient>
  </defs>
  <path id="Union_12" data-name="Union 12" d="M34.237,48l-.572-2.24-.113-.047-1.987,1.179L27.43,42.758l1.179-1.987c-.016-.037-.032-.076-.047-.113l-2.24-.572V34.238l2.239-.572.047-.114L27.43,31.565l4.135-4.135,1.987,1.179.113-.047.573-2.24h5.847l.572,2.239.113.047,1.987-1.179,4.135,4.135-1.179,1.986c.016.038.032.076.047.114l2.24.572v5.847l-2.24.572c-.015.037-.031.075-.047.113l1.179,1.987-4.135,4.135-1.987-1.18c-.037.017-.076.032-.113.048L40.085,48Zm-.4-3.856a7.085,7.085,0,0,0,.738.306l.39.139.475,1.864h3.442l.475-1.864.39-.139a7.584,7.584,0,0,0,.738-.306l.372-.178,1.655.982,2.433-2.434-.982-1.656.179-.372a7.354,7.354,0,0,0,.306-.737l.139-.39,1.864-.475V35.439l-1.865-.475-.139-.39a7.772,7.772,0,0,0-.306-.738l-.178-.372.982-1.654-2.434-2.434-1.655.982-.372-.178a7.288,7.288,0,0,0-.738-.306l-.39-.138-.475-1.864H35.439l-.475,1.864-.39.139a7.811,7.811,0,0,0-.738.306l-.372.179-1.655-.982L29.375,31.81l.982,1.654-.179.372a7.456,7.456,0,0,0-.306.738l-.139.39-1.864.475v3.443l1.865.474.139.391a7.661,7.661,0,0,0,.306.737l.179.372-.983,1.655,2.434,2.434,1.655-.982ZM0,48V27.871H15.484V48Zm1.548-1.548H13.935V29.42H1.548Zm9.29-1.548V43.355h1.548V44.9ZM3.1,44.9V43.355H9.29V44.9Zm27.871-7.742a6.194,6.194,0,1,1,6.194,6.194A6.2,6.2,0,0,1,30.967,37.161Zm1.548,0a4.645,4.645,0,1,0,4.645-4.644A4.65,4.65,0,0,0,32.516,37.161ZM3.1,41.806V40.258h9.291v1.548Zm12.842-4.645,3.644-3.644,1.094,1.1L18.9,36.387h5.873v1.548H18.9l1.775,1.775-1.094,1.094Zm18.126,0a3.1,3.1,0,1,1,3.1,3.1A3.1,3.1,0,0,1,34.064,37.161Zm1.548,0a1.548,1.548,0,1,0,1.548-1.548A1.55,1.55,0,0,0,35.612,37.161ZM3.1,38.709V37.161h9.291v1.548Zm3.1-3.1V34.064h6.194v1.548Zm-3.1,0V34.064H4.644v1.548Zm0-3.1V30.968h9.291v1.548Zm3.872-6.194V12.387A2.325,2.325,0,0,1,9.29,10.064h3.551L11.066,8.289l1.094-1.1L15.8,10.839,12.16,14.483l-1.094-1.1,1.775-1.775H9.29a.774.774,0,0,0-.774.774V26.323Zm27.323-4.872,1.1-1.1,1.775,1.776V12.387a.775.775,0,0,0-.775-.774H32.516V10.064h3.871a2.325,2.325,0,0,1,2.323,2.322v9.745l1.775-1.776,1.094,1.1-3.644,3.644ZM14.709,24.774V20.727A3.889,3.889,0,0,1,17.221,17.1l3.681-1.38v-.657a4.663,4.663,0,0,1-1.3-1.957,3.1,3.1,0,0,1-2.575-3.044v-3.1a6.968,6.968,0,1,1,13.935,0v3.1a3.1,3.1,0,0,1-2.575,3.044,4.644,4.644,0,0,1-1.3,1.957v.656L30.778,17.1a3.889,3.889,0,0,1,2.512,3.625v4.047Zm3.056-6.222a2.334,2.334,0,0,0-1.508,2.175v2.5H31.742v-2.5a2.332,2.332,0,0,0-1.507-2.174L29.1,18.126l-1.548,4.644L24,21,20.45,22.769,18.9,18.126Zm7.329,1.259,1.55.775,1-3-.991-.371Zm-4.741-2.23,1,3,1.551-.775-1.561-2.6Zm2.1-1.538L24,18.624l1.548-2.581v-.056a4.56,4.56,0,0,1-3.1,0ZM20.9,8.464v3.149a3.1,3.1,0,0,0,6.194,0V8.464A5.984,5.984,0,0,1,24,7.228,6,6,0,0,1,20.9,8.464ZM28.645,11.4a1.535,1.535,0,0,0,0-2.666ZM18.58,10.064a1.545,1.545,0,0,0,.774,1.333V8.731A1.544,1.544,0,0,0,18.58,10.064Zm5.966-4.417a4.483,4.483,0,0,0,3.191,1.321h.132a3.063,3.063,0,0,1,1.548.431V6.968a5.419,5.419,0,0,0-10.838,0V7.4a3.063,3.063,0,0,1,1.548-.431h.133a4.483,4.483,0,0,0,3.19-1.321L24,5.1Z" transform="translate(0 0)" fill="url(#linear-gradient)"/>
</svg>
