<svg xmlns="http://www.w3.org/2000/svg" xmlns:xlink="http://www.w3.org/1999/xlink" width="48" height="48" viewBox="0 0 48 48">
  <defs>
    <linearGradient id="linear-gradient" x1="0.5" x2="0.5" y2="1" gradientUnits="objectBoundingBox">
      <stop offset="0" stop-color="#48d2a0"/>
      <stop offset="1" stop-color="#b08aff"/>
    </linearGradient>
  </defs>
  <path id="_3" data-name="3" d="M38.4,19.2A9.6,9.6,0,1,0,29.71,5.547L27.139,4.6A3.884,3.884,0,0,0,27.2,4a4.035,4.035,0,1,0-.611,2.1l2.566.947a9.425,9.425,0,0,0,.131,5.551l-8.8,3.729a9.554,9.554,0,0,0-11.872-4.5L6.4,7.177A3.98,3.98,0,1,0,4,8a3.933,3.933,0,0,0,.962-.13l2.21,4.646A9.584,9.584,0,0,0,6.66,28.772L5.2,31.4A3.959,3.959,0,0,0,4,31.2a4.048,4.048,0,1,0,2.595.981l1.466-2.636a9.519,9.519,0,0,0,9.773-1.139l3.149,3.464A9.554,9.554,0,0,0,18.4,38.4a9.662,9.662,0,0,0,.119,1.436l-3.7.879A3.977,3.977,0,1,0,15.2,42.4c0-.044-.012-.086-.013-.13l3.7-.877a9.6,9.6,0,1,0,17.57-7.533l4.7-3.055a4.079,4.079,0,1,0-.869-1.344l-4.71,3.062A9.653,9.653,0,0,0,32,29.684l3.9-10.825a9.566,9.566,0,0,0,2.5.341ZM23.2,6.4A2.4,2.4,0,1,1,25.6,4,2.4,2.4,0,0,1,23.2,6.4ZM1.6,4A2.4,2.4,0,1,1,4,6.4,2.4,2.4,0,0,1,1.6,4ZM4,37.6a2.4,2.4,0,1,1,2.4-2.4A2.4,2.4,0,0,1,4,37.6Zm7.2,7.2a2.4,2.4,0,1,1,2.4-2.4A2.4,2.4,0,0,1,11.2,44.8ZM44,25.6A2.4,2.4,0,1,1,41.6,28,2.4,2.4,0,0,1,44,25.6ZM33.689,16.051A4.012,4.012,0,0,1,37.6,12.8h1.6a4.012,4.012,0,0,1,3.911,3.251,7.94,7.94,0,0,1-9.423,0ZM38.4,11.2a2.4,2.4,0,1,1,2.4-2.4A2.4,2.4,0,0,1,38.4,11.2Zm0-9.6a7.988,7.988,0,0,1,6.038,13.231A5.667,5.667,0,0,0,41.253,11.6a4,4,0,1,0-5.705,0,5.667,5.667,0,0,0-3.186,3.236A7.988,7.988,0,0,1,38.4,1.6ZM4,20.8a8,8,0,1,1,14.027,5.244,5.668,5.668,0,0,0-3.19-3.249,4,4,0,1,0-5.706,0A5.666,5.666,0,0,0,5.95,26.018,7.957,7.957,0,0,1,4,20.8ZM9.584,20a2.4,2.4,0,1,1,2.4,2.4A2.4,2.4,0,0,1,9.584,20ZM7.276,27.241A4.01,4.01,0,0,1,11.184,24h1.6A4.01,4.01,0,0,1,16.7,27.262a7.938,7.938,0,0,1-9.421-.021Zm16,17.6A4.01,4.01,0,0,1,27.184,41.6h1.6A4.01,4.01,0,0,1,32.7,44.862a7.938,7.938,0,0,1-9.421-.021ZM27.984,40a2.4,2.4,0,1,1,2.4-2.4A2.4,2.4,0,0,1,27.984,40ZM36,38.4a7.96,7.96,0,0,1-1.973,5.244,5.668,5.668,0,0,0-3.19-3.249,4,4,0,1,0-5.706,0,5.666,5.666,0,0,0-3.182,3.223A8,8,0,1,1,36,38.4Zm-5.5-9.259a9.468,9.468,0,0,0-8.329,1.653L19.018,27.33a9.53,9.53,0,0,0,2.1-9.529l8.8-3.729A9.652,9.652,0,0,0,34.4,18.316Zm0,0" fill="url(#linear-gradient)"/>
</svg>
