<svg xmlns="http://www.w3.org/2000/svg" width="48" height="48" viewBox="0 0 48 48"><defs><linearGradient id="linear-gradient" x1=".5" x2=".5" y2="1" gradientUnits="objectBoundingBox"><stop offset="0" stop-color="#fa399c"/><stop offset="1" stop-color="#2a56b0"/></linearGradient></defs><g id="_4" data-name="4"><g id="Group_1410" data-name="Group 1410" transform="translate(18.908 18.908)"><g id="Group_1409" data-name="Group 1409"><path id="Path_2566" data-name="Path 2566" d="M206.622,201.532a5.092,5.092,0,1,0,5.092,5.092A5.1,5.1,0,0,0,206.622,201.532Zm0,8.656a3.564,3.564,0,1,1,3.564-3.564A3.568,3.568,0,0,1,206.622,210.188Z" transform="translate(-201.53 -201.532)" fill="url(#linear-gradient)"/></g></g><g id="Group_1412" data-name="Group 1412" transform="translate(10.251 10.251)"><g id="Group_1411" data-name="Group 1411"><path id="Path_2567" data-name="Path 2567" d="M135.738,119.794l-2.187-.2a11.2,11.2,0,0,0-1.008-2.419l1.4-1.69a.764.764,0,0,0-.048-1.028l-3-3a.764.764,0,0,0-1.028-.048l-1.7,1.409a11.2,11.2,0,0,0-2.416-1l-.2-2.19a.764.764,0,0,0-.761-.693h-4.24a.764.764,0,0,0-.76.693l-.2,2.2a11.2,11.2,0,0,0-2.407,1l-1.7-1.412a.764.764,0,0,0-1.028.048l-3,3a.764.764,0,0,0-.048,1.028l1.418,1.707a11.2,11.2,0,0,0-1,2.4l-2.2.2a.764.764,0,0,0-.693.761V124.8a.764.764,0,0,0,.693.761l2.2.2a11.192,11.192,0,0,0,1,2.4l-1.418,1.707a.764.764,0,0,0,.048,1.028l3,3a.764.764,0,0,0,1.028.048l1.7-1.412a11.2,11.2,0,0,0,2.407,1l.2,2.2a.764.764,0,0,0,.761.693h4.24a.764.764,0,0,0,.76-.693l.2-2.19a11.193,11.193,0,0,0,2.416-1l1.7,1.409a.764.764,0,0,0,1.028-.048l3-3a.764.764,0,0,0,.048-1.028l-1.4-1.69a11.2,11.2,0,0,0,1.008-2.419l2.187-.2a.764.764,0,0,0,.693-.76v-4.255A.764.764,0,0,0,135.738,119.794Zm-.834,4.32-2.028.188a.764.764,0,0,0-.673.588,9.692,9.692,0,0,1-1.238,2.969.764.764,0,0,0,.059.894l1.3,1.569-2.014,2.014-1.574-1.307a.764.764,0,0,0-.893-.06,9.678,9.678,0,0,1-2.968,1.228.764.764,0,0,0-.59.674L124.1,134.9h-2.848l-.189-2.04a.764.764,0,0,0-.587-.673,9.685,9.685,0,0,1-2.958-1.235.764.764,0,0,0-.894.059l-1.58,1.312-2.014-2.014,1.316-1.585a.764.764,0,0,0,.06-.892,9.681,9.681,0,0,1-1.225-2.957.764.764,0,0,0-.674-.589l-2.044-.189v-2.833h0l2.044-.189a.764.764,0,0,0,.674-.589,9.684,9.684,0,0,1,1.225-2.957.764.764,0,0,0-.06-.892l-1.316-1.585,2.014-2.014,1.58,1.312a.764.764,0,0,0,.894.059,9.688,9.688,0,0,1,2.958-1.235.764.764,0,0,0,.587-.673l.189-2.04H124.1l.188,2.032a.764.764,0,0,0,.59.674,9.678,9.678,0,0,1,2.968,1.228.764.764,0,0,0,.893-.06l1.574-1.307,2.014,2.014-1.3,1.569a.764.764,0,0,0-.059.894,9.685,9.685,0,0,1,1.238,2.969.764.764,0,0,0,.673.588l2.028.188Z" transform="translate(-108.934 -108.934)" fill="url(#linear-gradient)"/></g></g><g id="Group_1414" data-name="Group 1414"><g id="Group_1413" data-name="Group 1413"><path id="Path_2568" data-name="Path 2568" d="M40.971,7.029A24,24,0,1,0,7.029,40.971,24,24,0,1,0,40.971,7.029Zm5.483,16.2h-4.6a17.8,17.8,0,0,0-4.694-11.312l3.25-3.25A22.384,22.384,0,0,1,46.454,23.234ZM24,1.532A22.384,22.384,0,0,1,39.328,7.589l-3.25,3.25a17.838,17.838,0,0,0-24.156,0l-3.25-3.25A22.384,22.384,0,0,1,24,1.532ZM7.589,8.672l3.25,3.25A17.8,17.8,0,0,0,6.145,23.234h-4.6A22.385,22.385,0,0,1,7.589,8.672Zm5.944,27.865a.766.766,0,1,0-.983,1.175,17.883,17.883,0,0,0,10.684,4.143v4.6A22.5,22.5,0,0,1,1.546,24.766h4.6A17.884,17.884,0,0,0,10.288,35.45a.766.766,0,1,0,1.175-.983,16.363,16.363,0,1,1,2.071,2.07Zm11.233,9.916v-4.6A17.9,17.9,0,0,0,40.2,31.54l4.25,1.76A22.5,22.5,0,0,1,24.766,46.454ZM45.039,31.885l-4.248-1.76a17.76,17.76,0,0,0,1.064-5.36h4.6A22.328,22.328,0,0,1,45.039,31.885Z" fill="url(#linear-gradient)"/></g></g><g id="Group_1416" data-name="Group 1416" transform="translate(15.853 15.853)"><g id="Group_1415" data-name="Group 1415"><path id="Path_2569" data-name="Path 2569" d="M177,168.851a8.142,8.142,0,0,0-6.825,12.59.764.764,0,0,0,1.279-.835,6.629,6.629,0,1,1,1.938,1.939.764.764,0,1,0-.835,1.279A8.146,8.146,0,1,0,177,168.851Z" transform="translate(-168.849 -168.851)" fill="url(#linear-gradient)"/></g></g></g></svg>