<svg xmlns="http://www.w3.org/2000/svg" width="49" height="52" viewBox="0 0 162 168.052">
  <g id="Logo_ImRix_White" data-name="Logo ImRix White" transform="translate(7757 10595)">
    <path id="Union_89" data-name="Union 89" d="M99.958,168.052,88.978,155H76v13H69V130h32a7,7,0,0,1,7,7v11a7,7,0,0,1-6,6.928V155H98.352l9.243,11v2.056ZM101,148V137H76v11Zm48.172,20-8.292-10.094L132.592,168H125v-1.733L136.372,152.4l-.016-.019,0,0L125,139.016v-1.752h7.577l8.242,9.7.023-.027.04.047.041-.047.021.027,8.242-9.7h7.58v1.752l-11.357,13.366v0l-.015.019,11.372,13.868V168ZM113,168V137h7v31Zm-57,0V144H44v24H37V144H24v24H17V137H56a7,7,0,0,1,7,7v24ZM6,168V130h7v38Zm107-34v-7h7v7ZM7.7,121.147v0a20.713,20.713,0,0,1-.072-2.248,41.491,41.491,0,0,1,.573-6.168,53.285,53.285,0,0,1,2.4-9.2,62.93,62.93,0,0,1,5.421-11.35c4.774-7.906,9.546-15.3,14.187-21.967A239.84,239.84,0,0,1,46.63,48.972c2.935-3.338,5.824-6.349,8.586-8.948a78.025,78.025,0,0,1,8.6-7.088,41.826,41.826,0,0,1,8.419-4.671,25.757,25.757,0,0,1,4.087-1.254,19.406,19.406,0,0,1,3.974-.44h.041c9.083,0,20.354,7.556,33.5,22.459A245.553,245.553,0,0,1,130.37,70.288c4.714,6.72,9.511,14.084,14.259,21.888a67.612,67.612,0,0,1,5.726,11.731,50.943,50.943,0,0,1,2.466,9.158,35.858,35.858,0,0,1,.518,5.956,16.521,16.521,0,0,1-.119,2.125H126.28a45.862,45.862,0,0,0-1.735-6.2,58.888,58.888,0,0,0-6.809-13.637c-6.172-9.049-17.853-19.836-38.453-19.836S47.615,92.263,41.958,101.312a55.105,55.105,0,0,0-6.033,13.637,44.411,44.411,0,0,0-1.382,6.2H7.7ZM65.344,58.586a15.05,15.05,0,1,0,15.05-15.049A15.066,15.066,0,0,0,65.344,58.586ZM4.833,66.167A16.5,16.5,0,0,1,28.166,42.832,16.5,16.5,0,1,1,4.833,66.167ZM7.5,54.5a9,9,0,1,0,9-9A9.01,9.01,0,0,0,7.5,54.5ZM139.077,69.7A16.561,16.561,0,1,1,145.5,71,16.451,16.451,0,0,1,139.077,69.7ZM136.5,54.5a9,9,0,1,0,9-9A9.01,9.01,0,0,0,136.5,54.5ZM106.077,31.7A16.551,16.551,0,1,1,112.5,33,16.461,16.461,0,0,1,106.077,31.7ZM103.5,16.5a9,9,0,1,0,9-9A9.01,9.01,0,0,0,103.5,16.5ZM36.833,28.166A16.5,16.5,0,1,1,48.5,33,16.395,16.395,0,0,1,36.833,28.166ZM39.5,16.5a9,9,0,1,0,9-9A9.01,9.01,0,0,0,39.5,16.5Z" transform="translate(-7757 -10595)" fill="#fff"/>
  </g>
</svg>
