<svg xmlns="http://www.w3.org/2000/svg" width="49" height="52" viewBox="0 0 49 52"><g id="Logo_ImRix_white" data-name="Logo ImRix white" transform="translate(-292.815 -231.371)" fill="#fff"><text id="ImRix" transform="translate(294.815 280.371)" font-size="15" font-family="Orbitron-Bold, Orbitron" font-weight="700"><tspan x="0" y="0">ImRix</tspan></text><path id="Union_78" data-name="Union 78" d="M7.821,27.479H.022A6.03,6.03,0,0,1,0,26.825a12.064,12.064,0,0,1,.167-1.792,15.5,15.5,0,0,1,.7-2.673,18.277,18.277,0,0,1,1.575-3.3c1.387-2.3,2.774-4.444,4.122-6.383a69.706,69.706,0,0,1,4.77-6.17c.853-.97,1.692-1.844,2.495-2.6a22.656,22.656,0,0,1,2.5-2.06A12.139,12.139,0,0,1,18.771.492,7.465,7.465,0,0,1,19.958.128,5.633,5.633,0,0,1,21.113,0h.012c2.639,0,5.914,2.2,9.734,6.525a71.379,71.379,0,0,1,4.8,6.177c1.37,1.953,2.763,4.092,4.143,6.359a19.624,19.624,0,0,1,1.664,3.409,14.788,14.788,0,0,1,.717,2.661,10.393,10.393,0,0,1,.15,1.73,4.8,4.8,0,0,1-.035.617H34.475a13.288,13.288,0,0,0-.5-1.8,17.107,17.107,0,0,0-1.978-3.962A12.925,12.925,0,0,0,20.82,15.953,12.1,12.1,0,0,0,9.975,21.716a16.022,16.022,0,0,0-1.753,3.962,12.945,12.945,0,0,0-.4,1.8h0ZM21.143,4.93A4.373,4.373,0,1,0,25.515,9.3,4.378,4.378,0,0,0,21.143,4.93Z" transform="translate(295.499 239.572)"/><path id="Subtraction_6" data-name="Subtraction 6" d="M5,10a5,5,0,1,1,5-5A5.006,5.006,0,0,1,5,10ZM5,2.273A2.727,2.727,0,1,0,7.727,5,2.731,2.731,0,0,0,5,2.273Z" transform="translate(292.815 242.371)"/><path id="Subtraction_9" data-name="Subtraction 9" d="M5,10a5,5,0,1,1,5-5A5.006,5.006,0,0,1,5,10ZM5,2.273A2.727,2.727,0,1,0,7.727,5,2.731,2.731,0,0,0,5,2.273Z" transform="translate(301.815 231.371)"/><path id="Subtraction_7" data-name="Subtraction 7" d="M5,10A5,5,0,0,1,3.054.393,5,5,0,0,1,6.946,9.607,4.967,4.967,0,0,1,5,10ZM5,2.273A2.727,2.727,0,1,0,7.727,5,2.73,2.73,0,0,0,5,2.273Z" transform="translate(331.815 242.371)"/><path id="Subtraction_8" data-name="Subtraction 8" d="M5,10A5,5,0,0,1,3.054.393,5,5,0,0,1,6.946,9.607,4.968,4.968,0,0,1,5,10ZM5,2.273A2.727,2.727,0,1,0,7.727,5,2.73,2.73,0,0,0,5,2.273Z" transform="translate(320.815 231.371)"/></g></svg>