<svg width="24" height="12" viewBox="0 0 24 12" fill="none" xmlns="http://www.w3.org/2000/svg">
<path d="M19.0183 6.93092L18.344 7.2593L18.344 7.2593L19.0183 6.93092ZM20.7554 11.709C21.147 11.8441 21.5739 11.6362 21.709 11.2446L23.9103 4.86362C24.0454 4.47205 23.8375 4.04511 23.4459 3.91003C23.0543 3.77495 22.6274 3.98287 22.4923 4.37444L20.5356 10.0464L14.8636 8.08971C14.472 7.95463 14.0451 8.16255 13.91 8.55412C13.7749 8.94568 13.9829 9.37262 14.3744 9.5077L20.7554 11.709ZM18.344 7.2593L20.3257 11.3284L21.6743 10.6716L19.6926 6.60253L18.344 7.2593ZM1.72825 9.02546C3.71514 0.955616 14.7051 -0.212553 18.344 7.2593L19.6926 6.60253C15.4394 -2.13072 2.59407 -0.765347 0.271749 8.66685L1.72825 9.02546Z" fill="black" fill-opacity="0.3"/>
</svg>
