<svg width="24" height="12" viewBox="0 0 24 12" fill="none" xmlns="http://www.w3.org/2000/svg">
<path d="M4.9817 6.93092L5.65598 7.2593L4.9817 6.93092ZM3.24459 11.709C2.85302 11.8441 2.42609 11.6362 2.291 11.2446L0.0897083 4.86362C-0.0453739 4.47205 0.162548 4.04511 0.554115 3.91003C0.945684 3.77495 1.37262 3.98287 1.5077 4.37444L3.46441 10.0464L9.13638 8.08971C9.52795 7.95463 9.95489 8.16255 10.09 8.55412C10.2251 8.94568 10.0171 9.37262 9.62556 9.5077L3.24459 11.709ZM5.65598 7.2593L3.67429 11.3284L2.32571 10.6716L4.30741 6.60253L5.65598 7.2593ZM22.2717 9.02546C20.2849 0.955616 9.29487 -0.212553 5.65598 7.2593L4.30741 6.60253C8.56062 -2.13072 21.4059 -0.765347 23.7283 8.66685L22.2717 9.02546Z" fill="black" fill-opacity="0.3"/>
</svg>
