<svg version="1.1" width="18" height="18" id="Layer_1" xmlns="http://www.w3.org/2000/svg" x="0" y="0" viewBox="0 0 18 18" xml:space="preserve"><path d="M17.6,15.6l-3.9-3.9c2-2.9,1.6-6.9-0.9-9.5C11.4,0.8,9.5,0,7.5,0c-2,0-3.9,0.8-5.3,2.2c-2.9,2.9-2.9,7.7,0,10.6	C3.6,14.2,5.5,15,7.5,15c1.5,0,3-0.4,4.2-1.3l3.9,3.9c0.3,0.3,0.6,0.4,1,0.4c0.4,0,0.7-0.2,1-0.4C18.1,17,18.1,16.1,17.6,15.6z M12.1,7.5c0,1.2-0.5,2.4-1.4,3.3c-0.9,0.9-2,1.4-3.3,1.4c-1.2,0-2.4-0.5-3.3-1.4C2.4,9,2.4,6,4.2,4.2c0.9-0.9,2-1.4,3.3-1.4	c1.2,0,2.4,0.5,3.3,1.4C11.7,5.1,12.1,6.2,12.1,7.5z"/></svg>