<svg version="1.1" id="Layer_1" xmlns="http://www.w3.org/2000/svg" x="0" y="0" viewBox="0 0 22 20" xml:space="preserve"><path d="M20.3,1.7L20.3,1.7c-2.4-2.3-6-2.3-8.3,0L1.6,12.1C0.8,12.8,0,14.3,0,15.5c0,1.2,0.5,2.3,1.3,3.2 s2,1.3,3.2,1.3l0,0c1.2,0,2.3-0.5,3.2-1.3l9-8.9c0.6-0.6,0.9-1.5,0.9-2.3c0-0.8-0.3-1.6-0.9-2.1c-0.6-0.6-1.4-0.9-2.2-0.9 s-1.6,0.3-2.2,0.9l-6.9,6.8C5.1,12.3,5,12.5,5,12.8c0,0.5,0.4,0.9,0.9,0.9c0.2,0,0.5-0.1,0.7-0.3l0,0l6.9-6.9 c0.2-0.2,0.6-0.4,0.9-0.4c0.3,0,0.6,0.1,0.9,0.4c0.2,0.2,0.4,0.5,0.4,0.8c0,0.3-0.1,0.7-0.4,0.9l-9,9c-0.5,0.5-1.1,0.8-1.8,0.8 l0,0c-0.7,0-1.3-0.3-1.8-0.8c-0.5-0.5-0.8-1.1-0.8-1.8C1.9,15,2.4,14,3,13.4L13.4,3c1.5-1.5,4-1.5,5.5,0L19,3.1 c1.5,1.5,1.5,4,0,5.5l-8.7,8.6c-0.2,0.2-0.3,0.4-0.3,0.7c0,0.5,0.4,0.9,0.9,0.9c0.2,0,0.5-0.1,0.7-0.3l0,0l8.6-8.6 C22.5,7.6,22.6,4,20.3,1.7z" fill="#fcc858"/></svg>