<svg version="1.1" id="Layer_1" xmlns="http://www.w3.org/2000/svg" x="0" y="0" viewBox="0 0 20 20" xml:space="preserve"><path d="M6.2,3.4V0.8C6.2,0.1,6,0,5.4,0l-1,0C3.7,0,3.6,0.1,3.6,0.8v2.6c0,0.6,0.1,0.8,0.8,0.8h1 C6,4.2,6.2,4.1,6.2,3.4z M16.4,3.4V0.8c0-0.7-0.1-0.8-0.8-0.8l-1,0c-0.6,0-0.8,0.1-0.8,0.8v2.6c0,0.6,0.1,0.8,0.8,0.8h1 C16.3,4.2,16.4,4.1,16.4,3.4z M7.2,10.8V9.7C7.2,9.1,7,9,6.4,9l-1,0c-0.6,0-0.8,0.1-0.8,0.8v1.1c0,0.6,0.1,0.8,0.8,0.8h1 C7.1,11.6,7.2,11.4,7.2,10.8z M11.3,10.8V9.7c0-0.7-0.1-0.8-0.8-0.8l-1,0c-0.6,0-0.8,0.1-0.8,0.8v1.1c0,0.6,0.1,0.8,0.8,0.8h1 C11.2,11.6,11.3,11.4,11.3,10.8z M15.4,10.8V9.7c0-0.7-0.1-0.8-0.8-0.8l-1,0c-0.6,0-0.8,0.1-0.8,0.8v1.1c0,0.6,0.1,0.8,0.8,0.8h1 C15.3,11.6,15.4,11.4,15.4,10.8z M7.2,15V14c0-0.7-0.1-0.8-0.8-0.8l-1,0c-0.6,0-0.8,0.1-0.8,0.8V15c0,0.6,0.1,0.8,0.8,0.8h1 C7.1,15.8,7.2,15.7,7.2,15z M11.3,15V14c0-0.7-0.1-0.8-0.8-0.8l-1,0c-0.6,0-0.8,0.1-0.8,0.8V15c0,0.6,0.1,0.8,0.8,0.8h1 C11.2,15.8,11.3,15.7,11.3,15z M15.4,15V14c0-0.7-0.1-0.8-0.8-0.8l-1,0c-0.6,0-0.8,0.1-0.8,0.8V15c0,0.6,0.1,0.8,0.8,0.8h1 C15.3,15.8,15.4,15.7,15.4,15z M1.5,20h16.9c1.2,0,1.5-0.3,1.5-1.6V3.2c0-1.2-0.2-1.6-1.5-1.6h-1v2.9c0,0.6-0.6,0.8-1.3,0.8h-2.6 c-0.6,0-0.8-0.1-0.8-0.8V1.6H7.2v2.9c0,0.6-0.1,0.8-0.8,0.8H3.3c-0.6,0-0.8-0.1-0.8-0.8V1.6h-1C0.2,1.6,0,1.9,0,3.2v15.3 C0,19.7,0.3,20,1.5,20z M2.6,6.8h14.9v10.5H2.6V6.8z" fill="#999"/></svg>